G04 #@! TF.GenerationSoftware,KiCad,Pcbnew,5.1.6*
G04 #@! TF.CreationDate,2020-10-16T21:43:55+02:00*
G04 #@! TF.ProjectId,raveracer,72617665-7261-4636-9572-2e6b69636164,rev?*
G04 #@! TF.SameCoordinates,Original*
G04 #@! TF.FileFunction,Legend,Top*
G04 #@! TF.FilePolarity,Positive*
%FSLAX46Y46*%
G04 Gerber Fmt 4.6, Leading zero omitted, Abs format (unit mm)*
G04 Created by KiCad (PCBNEW 5.1.6) date 2020-10-16 21:43:55*
%MOMM*%
%LPD*%
G01*
G04 APERTURE LIST*
%ADD10C,0.150000*%
%ADD11C,0.300000*%
%ADD12C,0.304800*%
%ADD13C,0.381000*%
%ADD14C,0.120000*%
%ADD15C,0.203200*%
G04 APERTURE END LIST*
D10*
X55781904Y-82314761D02*
X55924761Y-82362380D01*
X56162857Y-82362380D01*
X56258095Y-82314761D01*
X56305714Y-82267142D01*
X56353333Y-82171904D01*
X56353333Y-82076666D01*
X56305714Y-81981428D01*
X56258095Y-81933809D01*
X56162857Y-81886190D01*
X55972380Y-81838571D01*
X55877142Y-81790952D01*
X55829523Y-81743333D01*
X55781904Y-81648095D01*
X55781904Y-81552857D01*
X55829523Y-81457619D01*
X55877142Y-81410000D01*
X55972380Y-81362380D01*
X56210476Y-81362380D01*
X56353333Y-81410000D01*
X56686666Y-81695714D02*
X56924761Y-82362380D01*
X57162857Y-81695714D02*
X56924761Y-82362380D01*
X56829523Y-82600476D01*
X56781904Y-82648095D01*
X56686666Y-82695714D01*
X57496190Y-82314761D02*
X57591428Y-82362380D01*
X57781904Y-82362380D01*
X57877142Y-82314761D01*
X57924761Y-82219523D01*
X57924761Y-82171904D01*
X57877142Y-82076666D01*
X57781904Y-82029047D01*
X57639047Y-82029047D01*
X57543809Y-81981428D01*
X57496190Y-81886190D01*
X57496190Y-81838571D01*
X57543809Y-81743333D01*
X57639047Y-81695714D01*
X57781904Y-81695714D01*
X57877142Y-81743333D01*
X58210476Y-81695714D02*
X58591428Y-81695714D01*
X58353333Y-81362380D02*
X58353333Y-82219523D01*
X58400952Y-82314761D01*
X58496190Y-82362380D01*
X58591428Y-82362380D01*
X59305714Y-82314761D02*
X59210476Y-82362380D01*
X59019999Y-82362380D01*
X58924761Y-82314761D01*
X58877142Y-82219523D01*
X58877142Y-81838571D01*
X58924761Y-81743333D01*
X59019999Y-81695714D01*
X59210476Y-81695714D01*
X59305714Y-81743333D01*
X59353333Y-81838571D01*
X59353333Y-81933809D01*
X58877142Y-82029047D01*
X59781904Y-82362380D02*
X59781904Y-81695714D01*
X59781904Y-81790952D02*
X59829523Y-81743333D01*
X59924761Y-81695714D01*
X60067619Y-81695714D01*
X60162857Y-81743333D01*
X60210476Y-81838571D01*
X60210476Y-82362380D01*
X60210476Y-81838571D02*
X60258095Y-81743333D01*
X60353333Y-81695714D01*
X60496190Y-81695714D01*
X60591428Y-81743333D01*
X60639047Y-81838571D01*
X60639047Y-82362380D01*
X61829523Y-81457619D02*
X61877142Y-81410000D01*
X61972380Y-81362380D01*
X62210476Y-81362380D01*
X62305714Y-81410000D01*
X62353333Y-81457619D01*
X62400952Y-81552857D01*
X62400952Y-81648095D01*
X62353333Y-81790952D01*
X61781904Y-82362380D01*
X62400952Y-82362380D01*
X62781904Y-81457619D02*
X62829523Y-81410000D01*
X62924761Y-81362380D01*
X63162857Y-81362380D01*
X63258095Y-81410000D01*
X63305714Y-81457619D01*
X63353333Y-81552857D01*
X63353333Y-81648095D01*
X63305714Y-81790952D01*
X62734285Y-82362380D01*
X63353333Y-82362380D01*
X64400952Y-81362380D02*
X64734285Y-82362380D01*
X65067619Y-81362380D01*
X65400952Y-82362380D02*
X65400952Y-81695714D01*
X65400952Y-81362380D02*
X65353333Y-81410000D01*
X65400952Y-81457619D01*
X65448571Y-81410000D01*
X65400952Y-81362380D01*
X65400952Y-81457619D01*
X66305714Y-82362380D02*
X66305714Y-81362380D01*
X66305714Y-82314761D02*
X66210476Y-82362380D01*
X66019999Y-82362380D01*
X65924761Y-82314761D01*
X65877142Y-82267142D01*
X65829523Y-82171904D01*
X65829523Y-81886190D01*
X65877142Y-81790952D01*
X65924761Y-81743333D01*
X66019999Y-81695714D01*
X66210476Y-81695714D01*
X66305714Y-81743333D01*
X67162857Y-82314761D02*
X67067619Y-82362380D01*
X66877142Y-82362380D01*
X66781904Y-82314761D01*
X66734285Y-82219523D01*
X66734285Y-81838571D01*
X66781904Y-81743333D01*
X66877142Y-81695714D01*
X67067619Y-81695714D01*
X67162857Y-81743333D01*
X67210476Y-81838571D01*
X67210476Y-81933809D01*
X66734285Y-82029047D01*
X67781904Y-82362380D02*
X67686666Y-82314761D01*
X67639047Y-82267142D01*
X67591428Y-82171904D01*
X67591428Y-81886190D01*
X67639047Y-81790952D01*
X67686666Y-81743333D01*
X67781904Y-81695714D01*
X67924761Y-81695714D01*
X68020000Y-81743333D01*
X68067619Y-81790952D01*
X68115238Y-81886190D01*
X68115238Y-82171904D01*
X68067619Y-82267142D01*
X68020000Y-82314761D01*
X67924761Y-82362380D01*
X67781904Y-82362380D01*
X69305714Y-82362380D02*
X69305714Y-81362380D01*
X69781904Y-81695714D02*
X69781904Y-82362380D01*
X69781904Y-81790952D02*
X69829523Y-81743333D01*
X69924761Y-81695714D01*
X70067619Y-81695714D01*
X70162857Y-81743333D01*
X70210476Y-81838571D01*
X70210476Y-82362380D01*
D11*
X110857142Y-70010000D02*
X110714285Y-69938571D01*
X110500000Y-69938571D01*
X110285714Y-70010000D01*
X110142857Y-70152857D01*
X110071428Y-70295714D01*
X110000000Y-70581428D01*
X110000000Y-70795714D01*
X110071428Y-71081428D01*
X110142857Y-71224285D01*
X110285714Y-71367142D01*
X110500000Y-71438571D01*
X110642857Y-71438571D01*
X110857142Y-71367142D01*
X110928571Y-71295714D01*
X110928571Y-70795714D01*
X110642857Y-70795714D01*
X111571428Y-71438571D02*
X111571428Y-69938571D01*
X112428571Y-71438571D01*
X112428571Y-69938571D01*
X113142857Y-71438571D02*
X113142857Y-69938571D01*
X113500000Y-69938571D01*
X113714285Y-70010000D01*
X113857142Y-70152857D01*
X113928571Y-70295714D01*
X114000000Y-70581428D01*
X114000000Y-70795714D01*
X113928571Y-71081428D01*
X113857142Y-71224285D01*
X113714285Y-71367142D01*
X113500000Y-71438571D01*
X113142857Y-71438571D01*
X108667142Y-65867142D02*
X109810000Y-65867142D01*
X109238571Y-66438571D02*
X109238571Y-65295714D01*
X111310000Y-66438571D02*
X110452857Y-66438571D01*
X110881428Y-66438571D02*
X110881428Y-64938571D01*
X110738571Y-65152857D01*
X110595714Y-65295714D01*
X110452857Y-65367142D01*
X111881428Y-65081428D02*
X111952857Y-65010000D01*
X112095714Y-64938571D01*
X112452857Y-64938571D01*
X112595714Y-65010000D01*
X112667142Y-65081428D01*
X112738571Y-65224285D01*
X112738571Y-65367142D01*
X112667142Y-65581428D01*
X111810000Y-66438571D01*
X112738571Y-66438571D01*
X113167142Y-64938571D02*
X113667142Y-66438571D01*
X114167142Y-64938571D01*
D10*
X92813142Y-74771047D02*
X92860761Y-74818666D01*
X92908380Y-74961523D01*
X92908380Y-75056761D01*
X92860761Y-75199619D01*
X92765523Y-75294857D01*
X92670285Y-75342476D01*
X92479809Y-75390095D01*
X92336952Y-75390095D01*
X92146476Y-75342476D01*
X92051238Y-75294857D01*
X91956000Y-75199619D01*
X91908380Y-75056761D01*
X91908380Y-74961523D01*
X91956000Y-74818666D01*
X92003619Y-74771047D01*
X92860761Y-74390095D02*
X92908380Y-74247238D01*
X92908380Y-74009142D01*
X92860761Y-73913904D01*
X92813142Y-73866285D01*
X92717904Y-73818666D01*
X92622666Y-73818666D01*
X92527428Y-73866285D01*
X92479809Y-73913904D01*
X92432190Y-74009142D01*
X92384571Y-74199619D01*
X92336952Y-74294857D01*
X92289333Y-74342476D01*
X92194095Y-74390095D01*
X92098857Y-74390095D01*
X92003619Y-74342476D01*
X91956000Y-74294857D01*
X91908380Y-74199619D01*
X91908380Y-73961523D01*
X91956000Y-73818666D01*
X92432190Y-73199619D02*
X92908380Y-73199619D01*
X91908380Y-73532952D02*
X92432190Y-73199619D01*
X91908380Y-72866285D01*
X92908380Y-72532952D02*
X91908380Y-72532952D01*
X92908380Y-71961523D01*
X91908380Y-71961523D01*
X92813142Y-70913904D02*
X92860761Y-70961523D01*
X92908380Y-71104380D01*
X92908380Y-71199619D01*
X92860761Y-71342476D01*
X92765523Y-71437714D01*
X92670285Y-71485333D01*
X92479809Y-71532952D01*
X92336952Y-71532952D01*
X92146476Y-71485333D01*
X92051238Y-71437714D01*
X91956000Y-71342476D01*
X91908380Y-71199619D01*
X91908380Y-71104380D01*
X91956000Y-70961523D01*
X92003619Y-70913904D01*
X89416000Y-74929904D02*
X89368380Y-75025142D01*
X89368380Y-75168000D01*
X89416000Y-75310857D01*
X89511238Y-75406095D01*
X89606476Y-75453714D01*
X89796952Y-75501333D01*
X89939809Y-75501333D01*
X90130285Y-75453714D01*
X90225523Y-75406095D01*
X90320761Y-75310857D01*
X90368380Y-75168000D01*
X90368380Y-75072761D01*
X90320761Y-74929904D01*
X90273142Y-74882285D01*
X89939809Y-74882285D01*
X89939809Y-75072761D01*
X90368380Y-74453714D02*
X89368380Y-74453714D01*
X90368380Y-73882285D01*
X89368380Y-73882285D01*
X90368380Y-73406095D02*
X89368380Y-73406095D01*
X89368380Y-73168000D01*
X89416000Y-73025142D01*
X89511238Y-72929904D01*
X89606476Y-72882285D01*
X89796952Y-72834666D01*
X89939809Y-72834666D01*
X90130285Y-72882285D01*
X90225523Y-72929904D01*
X90320761Y-73025142D01*
X90368380Y-73168000D01*
X90368380Y-73406095D01*
X87304571Y-74985428D02*
X87352190Y-74842571D01*
X87399809Y-74794952D01*
X87495047Y-74747333D01*
X87637904Y-74747333D01*
X87733142Y-74794952D01*
X87780761Y-74842571D01*
X87828380Y-74937809D01*
X87828380Y-75318761D01*
X86828380Y-75318761D01*
X86828380Y-74985428D01*
X86876000Y-74890190D01*
X86923619Y-74842571D01*
X87018857Y-74794952D01*
X87114095Y-74794952D01*
X87209333Y-74842571D01*
X87256952Y-74890190D01*
X87304571Y-74985428D01*
X87304571Y-75318761D01*
X87828380Y-74175904D02*
X87780761Y-74271142D01*
X87685523Y-74318761D01*
X86828380Y-74318761D01*
X87161714Y-73366380D02*
X87828380Y-73366380D01*
X87161714Y-73794952D02*
X87685523Y-73794952D01*
X87780761Y-73747333D01*
X87828380Y-73652095D01*
X87828380Y-73509238D01*
X87780761Y-73414000D01*
X87733142Y-73366380D01*
X87780761Y-72509238D02*
X87828380Y-72604476D01*
X87828380Y-72794952D01*
X87780761Y-72890190D01*
X87685523Y-72937809D01*
X87304571Y-72937809D01*
X87209333Y-72890190D01*
X87161714Y-72794952D01*
X87161714Y-72604476D01*
X87209333Y-72509238D01*
X87304571Y-72461619D01*
X87399809Y-72461619D01*
X87495047Y-72937809D01*
X84336000Y-74763142D02*
X84288380Y-74858380D01*
X84288380Y-75001238D01*
X84336000Y-75144095D01*
X84431238Y-75239333D01*
X84526476Y-75286952D01*
X84716952Y-75334571D01*
X84859809Y-75334571D01*
X85050285Y-75286952D01*
X85145523Y-75239333D01*
X85240761Y-75144095D01*
X85288380Y-75001238D01*
X85288380Y-74906000D01*
X85240761Y-74763142D01*
X85193142Y-74715523D01*
X84859809Y-74715523D01*
X84859809Y-74906000D01*
X85288380Y-74286952D02*
X84621714Y-74286952D01*
X84812190Y-74286952D02*
X84716952Y-74239333D01*
X84669333Y-74191714D01*
X84621714Y-74096476D01*
X84621714Y-74001238D01*
X85240761Y-73286952D02*
X85288380Y-73382190D01*
X85288380Y-73572666D01*
X85240761Y-73667904D01*
X85145523Y-73715523D01*
X84764571Y-73715523D01*
X84669333Y-73667904D01*
X84621714Y-73572666D01*
X84621714Y-73382190D01*
X84669333Y-73286952D01*
X84764571Y-73239333D01*
X84859809Y-73239333D01*
X84955047Y-73715523D01*
X85240761Y-72429809D02*
X85288380Y-72525047D01*
X85288380Y-72715523D01*
X85240761Y-72810761D01*
X85145523Y-72858380D01*
X84764571Y-72858380D01*
X84669333Y-72810761D01*
X84621714Y-72715523D01*
X84621714Y-72525047D01*
X84669333Y-72429809D01*
X84764571Y-72382190D01*
X84859809Y-72382190D01*
X84955047Y-72858380D01*
X84621714Y-71953619D02*
X85288380Y-71953619D01*
X84716952Y-71953619D02*
X84669333Y-71906000D01*
X84621714Y-71810761D01*
X84621714Y-71667904D01*
X84669333Y-71572666D01*
X84764571Y-71525047D01*
X85288380Y-71525047D01*
X82748380Y-74739428D02*
X82272190Y-75072761D01*
X82748380Y-75310857D02*
X81748380Y-75310857D01*
X81748380Y-74929904D01*
X81796000Y-74834666D01*
X81843619Y-74787047D01*
X81938857Y-74739428D01*
X82081714Y-74739428D01*
X82176952Y-74787047D01*
X82224571Y-74834666D01*
X82272190Y-74929904D01*
X82272190Y-75310857D01*
X82700761Y-73929904D02*
X82748380Y-74025142D01*
X82748380Y-74215619D01*
X82700761Y-74310857D01*
X82605523Y-74358476D01*
X82224571Y-74358476D01*
X82129333Y-74310857D01*
X82081714Y-74215619D01*
X82081714Y-74025142D01*
X82129333Y-73929904D01*
X82224571Y-73882285D01*
X82319809Y-73882285D01*
X82415047Y-74358476D01*
X82748380Y-73025142D02*
X81748380Y-73025142D01*
X82700761Y-73025142D02*
X82748380Y-73120380D01*
X82748380Y-73310857D01*
X82700761Y-73406095D01*
X82653142Y-73453714D01*
X82557904Y-73501333D01*
X82272190Y-73501333D01*
X82176952Y-73453714D01*
X82129333Y-73406095D01*
X82081714Y-73310857D01*
X82081714Y-73120380D01*
X82129333Y-73025142D01*
D12*
X71900160Y-75500640D02*
X54099840Y-75500640D01*
X54099840Y-80499360D02*
X54099840Y-75500640D01*
X71900160Y-80499360D02*
X54099840Y-80499360D01*
X71900160Y-75500640D02*
X71900160Y-80499360D01*
X61699520Y-75899420D02*
X61699520Y-75500640D01*
X64300480Y-75500640D02*
X64300480Y-75899420D01*
X54501160Y-75899420D02*
X54501160Y-80100580D01*
X55700040Y-80100580D02*
X55700040Y-80499360D01*
X70299960Y-80499360D02*
X70299960Y-80100580D01*
X71498840Y-80100580D02*
X71498840Y-75899420D01*
X61699520Y-75899420D02*
X64300480Y-75899420D01*
X61699520Y-75899420D02*
X54501160Y-75899420D01*
X71498840Y-75899420D02*
X64300480Y-75899420D01*
X71498840Y-80100580D02*
X70299960Y-80100580D01*
X55700040Y-80100580D02*
X54501160Y-80100580D01*
D13*
X58431600Y-47945800D02*
X58431600Y-54803800D01*
X105675600Y-47945800D02*
X105675600Y-54803800D01*
X55256600Y-54803800D02*
X109358600Y-54803800D01*
X109358600Y-57851800D02*
X55256600Y-57851800D01*
X58431600Y-64963800D02*
X58431600Y-57851800D01*
X105675600Y-64963800D02*
X58431600Y-64963800D01*
X105675600Y-57851800D02*
X105675600Y-64963800D01*
X55256600Y-57851800D02*
X55256600Y-54803800D01*
X109358600Y-57851800D02*
X109358600Y-54803800D01*
X105675600Y-47945800D02*
X58431600Y-47945800D01*
X56907600Y-57851800D02*
X56907600Y-54803800D01*
X107707600Y-57851800D02*
X107707600Y-54803800D01*
D14*
X99330000Y-71000000D02*
X99330000Y-70670000D01*
X99330000Y-70670000D02*
X105870000Y-70670000D01*
X105870000Y-70670000D02*
X105870000Y-71000000D01*
X99330000Y-73080000D02*
X99330000Y-73410000D01*
X99330000Y-73410000D02*
X105870000Y-73410000D01*
X105870000Y-73410000D02*
X105870000Y-73080000D01*
X99400000Y-75780000D02*
X99400000Y-76110000D01*
X105940000Y-75780000D02*
X99400000Y-75780000D01*
X105940000Y-76110000D02*
X105940000Y-75780000D01*
X99400000Y-78520000D02*
X99400000Y-78190000D01*
X105940000Y-78520000D02*
X99400000Y-78520000D01*
X105940000Y-78190000D02*
X105940000Y-78520000D01*
X80966000Y-78800000D02*
X80966000Y-77470000D01*
X82296000Y-78800000D02*
X80966000Y-78800000D01*
X83566000Y-78800000D02*
X83566000Y-76140000D01*
X83566000Y-76140000D02*
X93786000Y-76140000D01*
X83566000Y-78800000D02*
X93786000Y-78800000D01*
X93786000Y-78800000D02*
X93786000Y-76140000D01*
X39221000Y-77280000D02*
X40479000Y-77280000D01*
X39221000Y-79120000D02*
X40479000Y-79120000D01*
X20379000Y-78680000D02*
X19121000Y-78680000D01*
X20379000Y-80520000D02*
X19121000Y-80520000D01*
X47910000Y-54420000D02*
X47910000Y-68310000D01*
X47910000Y-68310000D02*
X16940000Y-68310000D01*
X16940000Y-68310000D02*
X16940000Y-54420000D01*
X28360000Y-69204338D02*
X27860000Y-69204338D01*
X27860000Y-69204338D02*
X28110000Y-68771325D01*
X28110000Y-68771325D02*
X28360000Y-69204338D01*
X41480000Y-81280000D02*
X37640000Y-81280000D01*
X41480000Y-83120000D02*
X37640000Y-83120000D01*
X31460000Y-75770000D02*
X29810000Y-75770000D01*
X31460000Y-86050000D02*
X31460000Y-75770000D01*
X26160000Y-86050000D02*
X31460000Y-86050000D01*
X26160000Y-75770000D02*
X26160000Y-86050000D01*
X27810000Y-75770000D02*
X26160000Y-75770000D01*
X29810000Y-75770000D02*
G75*
G02*
X27810000Y-75770000I-1000000J0D01*
G01*
X124890000Y-73560000D02*
X124890000Y-73060000D01*
X124150000Y-73560000D02*
X124890000Y-73560000D01*
X121013000Y-66867000D02*
X121059000Y-66914000D01*
X118715000Y-64570000D02*
X118751000Y-64605000D01*
X121229000Y-66674000D02*
X121264000Y-66709000D01*
X118921000Y-64365000D02*
X118967000Y-64412000D01*
X114729000Y-63040000D02*
X124650000Y-63040000D01*
X114729000Y-73320000D02*
X124650000Y-73320000D01*
X124650000Y-73320000D02*
X124650000Y-63040000D01*
X114729000Y-73320000D02*
X114729000Y-63040000D01*
X117689000Y-73320000D02*
X117689000Y-63040000D01*
X122590000Y-73320000D02*
X122590000Y-63040000D01*
X124090000Y-73320000D02*
X124090000Y-63040000D01*
X121670000Y-65640000D02*
G75*
G03*
X121670000Y-65640000I-1680000J0D01*
G01*
X121524756Y-70036682D02*
G75*
G02*
X121670000Y-70720000I-1534756J-683318D01*
G01*
X119306958Y-69184574D02*
G75*
G02*
X120674000Y-69185000I683042J-1535426D01*
G01*
X118454574Y-71403042D02*
G75*
G02*
X118455000Y-70036000I1535426J683042D01*
G01*
X120673042Y-72255426D02*
G75*
G02*
X119306000Y-72255000I-683042J1535426D01*
G01*
X121670253Y-70691195D02*
G75*
G02*
X121525000Y-71404000I-1680253J-28805D01*
G01*
D15*
X52661333Y-77443619D02*
X52661333Y-78169333D01*
X52612952Y-78314476D01*
X52516190Y-78411238D01*
X52371047Y-78459619D01*
X52274285Y-78459619D01*
X53677333Y-78459619D02*
X53096761Y-78459619D01*
X53387047Y-78459619D02*
X53387047Y-77443619D01*
X53290285Y-77588761D01*
X53193523Y-77685523D01*
X53096761Y-77733904D01*
D12*
X81799600Y-50519908D02*
X81799600Y-51608480D01*
X81727028Y-51826194D01*
X81581885Y-51971337D01*
X81364171Y-52043908D01*
X81219028Y-52043908D01*
X82452742Y-50665051D02*
X82525314Y-50592480D01*
X82670457Y-50519908D01*
X83033314Y-50519908D01*
X83178457Y-50592480D01*
X83251028Y-50665051D01*
X83323600Y-50810194D01*
X83323600Y-50955337D01*
X83251028Y-51173051D01*
X82380171Y-52043908D01*
X83323600Y-52043908D01*
X77517885Y-66977657D02*
X77735600Y-67050228D01*
X78098457Y-67050228D01*
X78243600Y-66977657D01*
X78316171Y-66905085D01*
X78388742Y-66759942D01*
X78388742Y-66614800D01*
X78316171Y-66469657D01*
X78243600Y-66397085D01*
X78098457Y-66324514D01*
X77808171Y-66251942D01*
X77663028Y-66179371D01*
X77590457Y-66106800D01*
X77517885Y-65961657D01*
X77517885Y-65816514D01*
X77590457Y-65671371D01*
X77663028Y-65598800D01*
X77808171Y-65526228D01*
X78171028Y-65526228D01*
X78388742Y-65598800D01*
X79912742Y-66905085D02*
X79840171Y-66977657D01*
X79622457Y-67050228D01*
X79477314Y-67050228D01*
X79259600Y-66977657D01*
X79114457Y-66832514D01*
X79041885Y-66687371D01*
X78969314Y-66397085D01*
X78969314Y-66179371D01*
X79041885Y-65889085D01*
X79114457Y-65743942D01*
X79259600Y-65598800D01*
X79477314Y-65526228D01*
X79622457Y-65526228D01*
X79840171Y-65598800D01*
X79912742Y-65671371D01*
X80493314Y-66614800D02*
X81219028Y-66614800D01*
X80348171Y-67050228D02*
X80856171Y-65526228D01*
X81364171Y-67050228D01*
X82743028Y-67050228D02*
X82235028Y-66324514D01*
X81872171Y-67050228D02*
X81872171Y-65526228D01*
X82452742Y-65526228D01*
X82597885Y-65598800D01*
X82670457Y-65671371D01*
X82743028Y-65816514D01*
X82743028Y-66034228D01*
X82670457Y-66179371D01*
X82597885Y-66251942D01*
X82452742Y-66324514D01*
X81872171Y-66324514D01*
X83178457Y-65526228D02*
X84049314Y-65526228D01*
X83613885Y-67050228D02*
X83613885Y-65526228D01*
X84557314Y-66469657D02*
X85718457Y-66469657D01*
X86952171Y-66251942D02*
X86444171Y-66251942D01*
X86444171Y-67050228D02*
X86444171Y-65526228D01*
X87169885Y-65526228D01*
D10*
X102433333Y-70122380D02*
X102100000Y-69646190D01*
X101861904Y-70122380D02*
X101861904Y-69122380D01*
X102242857Y-69122380D01*
X102338095Y-69170000D01*
X102385714Y-69217619D01*
X102433333Y-69312857D01*
X102433333Y-69455714D01*
X102385714Y-69550952D01*
X102338095Y-69598571D01*
X102242857Y-69646190D01*
X101861904Y-69646190D01*
X103385714Y-70122380D02*
X102814285Y-70122380D01*
X103100000Y-70122380D02*
X103100000Y-69122380D01*
X103004761Y-69265238D01*
X102909523Y-69360476D01*
X102814285Y-69408095D01*
X102313333Y-75102380D02*
X101980000Y-74626190D01*
X101741904Y-75102380D02*
X101741904Y-74102380D01*
X102122857Y-74102380D01*
X102218095Y-74150000D01*
X102265714Y-74197619D01*
X102313333Y-74292857D01*
X102313333Y-74435714D01*
X102265714Y-74530952D01*
X102218095Y-74578571D01*
X102122857Y-74626190D01*
X101741904Y-74626190D01*
X102694285Y-74197619D02*
X102741904Y-74150000D01*
X102837142Y-74102380D01*
X103075238Y-74102380D01*
X103170476Y-74150000D01*
X103218095Y-74197619D01*
X103265714Y-74292857D01*
X103265714Y-74388095D01*
X103218095Y-74530952D01*
X102646666Y-75102380D01*
X103265714Y-75102380D01*
X78962666Y-76922380D02*
X78962666Y-77636666D01*
X78915047Y-77779523D01*
X78819809Y-77874761D01*
X78676952Y-77922380D01*
X78581714Y-77922380D01*
X79343619Y-76922380D02*
X79962666Y-76922380D01*
X79629333Y-77303333D01*
X79772190Y-77303333D01*
X79867428Y-77350952D01*
X79915047Y-77398571D01*
X79962666Y-77493809D01*
X79962666Y-77731904D01*
X79915047Y-77827142D01*
X79867428Y-77874761D01*
X79772190Y-77922380D01*
X79486476Y-77922380D01*
X79391238Y-77874761D01*
X79343619Y-77827142D01*
X39683333Y-76507142D02*
X39635714Y-76554761D01*
X39492857Y-76602380D01*
X39397619Y-76602380D01*
X39254761Y-76554761D01*
X39159523Y-76459523D01*
X39111904Y-76364285D01*
X39064285Y-76173809D01*
X39064285Y-76030952D01*
X39111904Y-75840476D01*
X39159523Y-75745238D01*
X39254761Y-75650000D01*
X39397619Y-75602380D01*
X39492857Y-75602380D01*
X39635714Y-75650000D01*
X39683333Y-75697619D01*
X40635714Y-76602380D02*
X40064285Y-76602380D01*
X40350000Y-76602380D02*
X40350000Y-75602380D01*
X40254761Y-75745238D01*
X40159523Y-75840476D01*
X40064285Y-75888095D01*
X19583333Y-82007142D02*
X19535714Y-82054761D01*
X19392857Y-82102380D01*
X19297619Y-82102380D01*
X19154761Y-82054761D01*
X19059523Y-81959523D01*
X19011904Y-81864285D01*
X18964285Y-81673809D01*
X18964285Y-81530952D01*
X19011904Y-81340476D01*
X19059523Y-81245238D01*
X19154761Y-81150000D01*
X19297619Y-81102380D01*
X19392857Y-81102380D01*
X19535714Y-81150000D01*
X19583333Y-81197619D01*
X19964285Y-81197619D02*
X20011904Y-81150000D01*
X20107142Y-81102380D01*
X20345238Y-81102380D01*
X20440476Y-81150000D01*
X20488095Y-81197619D01*
X20535714Y-81292857D01*
X20535714Y-81388095D01*
X20488095Y-81530952D01*
X19916666Y-82102380D01*
X20535714Y-82102380D01*
D12*
X29590285Y-69835428D02*
X30098285Y-71359428D01*
X30606285Y-69835428D01*
X31912571Y-69908000D02*
X31767428Y-69835428D01*
X31549714Y-69835428D01*
X31332000Y-69908000D01*
X31186857Y-70053142D01*
X31114285Y-70198285D01*
X31041714Y-70488571D01*
X31041714Y-70706285D01*
X31114285Y-70996571D01*
X31186857Y-71141714D01*
X31332000Y-71286857D01*
X31549714Y-71359428D01*
X31694857Y-71359428D01*
X31912571Y-71286857D01*
X31985142Y-71214285D01*
X31985142Y-70706285D01*
X31694857Y-70706285D01*
X32565714Y-70924000D02*
X33291428Y-70924000D01*
X32420571Y-71359428D02*
X32928571Y-69835428D01*
X33436571Y-71359428D01*
X33944571Y-70778857D02*
X35105714Y-70778857D01*
X36339428Y-70561142D02*
X35831428Y-70561142D01*
X35831428Y-71359428D02*
X35831428Y-69835428D01*
X36557142Y-69835428D01*
D10*
X39393333Y-84572380D02*
X39060000Y-84096190D01*
X38821904Y-84572380D02*
X38821904Y-83572380D01*
X39202857Y-83572380D01*
X39298095Y-83620000D01*
X39345714Y-83667619D01*
X39393333Y-83762857D01*
X39393333Y-83905714D01*
X39345714Y-84000952D01*
X39298095Y-84048571D01*
X39202857Y-84096190D01*
X38821904Y-84096190D01*
X39726666Y-83572380D02*
X40345714Y-83572380D01*
X40012380Y-83953333D01*
X40155238Y-83953333D01*
X40250476Y-84000952D01*
X40298095Y-84048571D01*
X40345714Y-84143809D01*
X40345714Y-84381904D01*
X40298095Y-84477142D01*
X40250476Y-84524761D01*
X40155238Y-84572380D01*
X39869523Y-84572380D01*
X39774285Y-84524761D01*
X39726666Y-84477142D01*
X28048095Y-74222380D02*
X28048095Y-75031904D01*
X28095714Y-75127142D01*
X28143333Y-75174761D01*
X28238571Y-75222380D01*
X28429047Y-75222380D01*
X28524285Y-75174761D01*
X28571904Y-75127142D01*
X28619523Y-75031904D01*
X28619523Y-74222380D01*
X29619523Y-75222380D02*
X29048095Y-75222380D01*
X29333809Y-75222380D02*
X29333809Y-74222380D01*
X29238571Y-74365238D01*
X29143333Y-74460476D01*
X29048095Y-74508095D01*
X26643333Y-87502380D02*
X26167142Y-87502380D01*
X26167142Y-86502380D01*
X26976666Y-87502380D02*
X26976666Y-86502380D01*
X27310000Y-87216666D01*
X27643333Y-86502380D01*
X27643333Y-87502380D01*
X28643333Y-87502380D02*
X28071904Y-87502380D01*
X28357619Y-87502380D02*
X28357619Y-86502380D01*
X28262380Y-86645238D01*
X28167142Y-86740476D01*
X28071904Y-86788095D01*
X29214761Y-86930952D02*
X29119523Y-86883333D01*
X29071904Y-86835714D01*
X29024285Y-86740476D01*
X29024285Y-86692857D01*
X29071904Y-86597619D01*
X29119523Y-86550000D01*
X29214761Y-86502380D01*
X29405238Y-86502380D01*
X29500476Y-86550000D01*
X29548095Y-86597619D01*
X29595714Y-86692857D01*
X29595714Y-86740476D01*
X29548095Y-86835714D01*
X29500476Y-86883333D01*
X29405238Y-86930952D01*
X29214761Y-86930952D01*
X29119523Y-86978571D01*
X29071904Y-87026190D01*
X29024285Y-87121428D01*
X29024285Y-87311904D01*
X29071904Y-87407142D01*
X29119523Y-87454761D01*
X29214761Y-87502380D01*
X29405238Y-87502380D01*
X29500476Y-87454761D01*
X29548095Y-87407142D01*
X29595714Y-87311904D01*
X29595714Y-87121428D01*
X29548095Y-87026190D01*
X29500476Y-86978571D01*
X29405238Y-86930952D01*
X30167142Y-86930952D02*
X30071904Y-86883333D01*
X30024285Y-86835714D01*
X29976666Y-86740476D01*
X29976666Y-86692857D01*
X30024285Y-86597619D01*
X30071904Y-86550000D01*
X30167142Y-86502380D01*
X30357619Y-86502380D01*
X30452857Y-86550000D01*
X30500476Y-86597619D01*
X30548095Y-86692857D01*
X30548095Y-86740476D01*
X30500476Y-86835714D01*
X30452857Y-86883333D01*
X30357619Y-86930952D01*
X30167142Y-86930952D01*
X30071904Y-86978571D01*
X30024285Y-87026190D01*
X29976666Y-87121428D01*
X29976666Y-87311904D01*
X30024285Y-87407142D01*
X30071904Y-87454761D01*
X30167142Y-87502380D01*
X30357619Y-87502380D01*
X30452857Y-87454761D01*
X30500476Y-87407142D01*
X30548095Y-87311904D01*
X30548095Y-87121428D01*
X30500476Y-87026190D01*
X30452857Y-86978571D01*
X30357619Y-86930952D01*
X31500476Y-87502380D02*
X30929047Y-87502380D01*
X31214761Y-87502380D02*
X31214761Y-86502380D01*
X31119523Y-86645238D01*
X31024285Y-86740476D01*
X30929047Y-86788095D01*
X123256666Y-61072380D02*
X123256666Y-61786666D01*
X123209047Y-61929523D01*
X123113809Y-62024761D01*
X122970952Y-62072380D01*
X122875714Y-62072380D01*
X124209047Y-61072380D02*
X123732857Y-61072380D01*
X123685238Y-61548571D01*
X123732857Y-61500952D01*
X123828095Y-61453333D01*
X124066190Y-61453333D01*
X124161428Y-61500952D01*
X124209047Y-61548571D01*
X124256666Y-61643809D01*
X124256666Y-61881904D01*
X124209047Y-61977142D01*
X124161428Y-62024761D01*
X124066190Y-62072380D01*
X123828095Y-62072380D01*
X123732857Y-62024761D01*
X123685238Y-61977142D01*
M02*
