G04 #@! TF.GenerationSoftware,KiCad,Pcbnew,5.1.6*
G04 #@! TF.CreationDate,2020-10-16T21:43:55+02:00*
G04 #@! TF.ProjectId,raveracer,72617665-7261-4636-9572-2e6b69636164,rev?*
G04 #@! TF.SameCoordinates,Original*
G04 #@! TF.FileFunction,Copper,L1,Top*
G04 #@! TF.FilePolarity,Positive*
%FSLAX46Y46*%
G04 Gerber Fmt 4.6, Leading zero omitted, Abs format (unit mm)*
G04 Created by KiCad (PCBNEW 5.1.6) date 2020-10-16 21:43:55*
%MOMM*%
%LPD*%
G01*
G04 APERTURE LIST*
G04 #@! TA.AperFunction,ComponentPad*
%ADD10R,1.501140X2.199640*%
G04 #@! TD*
G04 #@! TA.AperFunction,ComponentPad*
%ADD11O,1.501140X2.199640*%
G04 #@! TD*
G04 #@! TA.AperFunction,ComponentPad*
%ADD12C,1.998980*%
G04 #@! TD*
G04 #@! TA.AperFunction,WasherPad*
%ADD13O,3.100000X4.100000*%
G04 #@! TD*
G04 #@! TA.AperFunction,ComponentPad*
%ADD14O,1.600000X1.600000*%
G04 #@! TD*
G04 #@! TA.AperFunction,ComponentPad*
%ADD15C,1.600000*%
G04 #@! TD*
G04 #@! TA.AperFunction,ComponentPad*
%ADD16R,1.700000X1.700000*%
G04 #@! TD*
G04 #@! TA.AperFunction,ComponentPad*
%ADD17O,1.700000X1.700000*%
G04 #@! TD*
G04 #@! TA.AperFunction,ComponentPad*
%ADD18C,4.000000*%
G04 #@! TD*
G04 #@! TA.AperFunction,ComponentPad*
%ADD19R,1.600000X1.600000*%
G04 #@! TD*
G04 #@! TA.AperFunction,ComponentPad*
%ADD20C,1.400000*%
G04 #@! TD*
G04 #@! TA.AperFunction,ComponentPad*
%ADD21O,1.400000X1.400000*%
G04 #@! TD*
G04 #@! TA.AperFunction,ComponentPad*
%ADD22C,7.000000*%
G04 #@! TD*
G04 #@! TA.AperFunction,ComponentPad*
%ADD23R,2.600000X2.600000*%
G04 #@! TD*
G04 #@! TA.AperFunction,ComponentPad*
%ADD24C,2.600000*%
G04 #@! TD*
G04 #@! TA.AperFunction,ViaPad*
%ADD25C,0.800000*%
G04 #@! TD*
G04 #@! TA.AperFunction,Conductor*
%ADD26C,0.250000*%
G04 #@! TD*
G04 #@! TA.AperFunction,NonConductor*
%ADD27C,0.254000*%
G04 #@! TD*
G04 APERTURE END LIST*
D10*
X56650000Y-78000000D03*
D11*
X59190000Y-78000000D03*
X61730000Y-78000000D03*
X64270000Y-78000000D03*
X66810000Y-78000000D03*
X69350000Y-78000000D03*
D12*
X63257600Y-63734440D03*
X65162600Y-58654440D03*
X67067600Y-63734440D03*
X68972600Y-58654440D03*
X70877600Y-63734440D03*
X72782600Y-58654440D03*
X74687600Y-63734440D03*
X76592600Y-58654440D03*
X78497600Y-63734440D03*
X80402600Y-58654440D03*
X82307600Y-63734440D03*
X84212600Y-58654440D03*
X86117600Y-63734440D03*
X88022600Y-58654440D03*
X89927600Y-63734440D03*
X91832600Y-58654440D03*
X93737600Y-63734440D03*
X95642600Y-58654440D03*
X97547600Y-63734440D03*
X99452600Y-58654440D03*
X101357600Y-63734440D03*
D13*
X55807780Y-56655460D03*
X108807420Y-56655460D03*
D14*
X106410000Y-72040000D03*
D15*
X98790000Y-72040000D03*
X106480000Y-77150000D03*
D14*
X98860000Y-77150000D03*
D16*
X82296000Y-77470000D03*
D17*
X84836000Y-77470000D03*
X87376000Y-77470000D03*
X89916000Y-77470000D03*
X92456000Y-77470000D03*
D15*
X41100000Y-78200000D03*
X38600000Y-78200000D03*
X21000000Y-79600000D03*
X18500000Y-79600000D03*
D18*
X19925000Y-65250000D03*
X44925000Y-65250000D03*
D15*
X37270000Y-62710000D03*
X34980000Y-62710000D03*
X32690000Y-62710000D03*
X30400000Y-62710000D03*
X28110000Y-62710000D03*
X36125000Y-64690000D03*
X33835000Y-64690000D03*
X31545000Y-64690000D03*
X29255000Y-64690000D03*
X26965000Y-64690000D03*
X37270000Y-66670000D03*
X34980000Y-66670000D03*
X32690000Y-66670000D03*
X30400000Y-66670000D03*
D19*
X28110000Y-66670000D03*
D20*
X42100000Y-82200000D03*
D21*
X37020000Y-82200000D03*
D19*
X25000000Y-77100000D03*
D14*
X32620000Y-84720000D03*
X25000000Y-79640000D03*
X32620000Y-82180000D03*
X25000000Y-82180000D03*
X32620000Y-79640000D03*
X25000000Y-84720000D03*
X32620000Y-77100000D03*
D22*
X6000000Y-85000000D03*
X6000000Y-52000000D03*
X119000000Y-85000000D03*
X119000000Y-52000000D03*
D23*
X119990000Y-70720000D03*
D24*
X119990000Y-65640000D03*
D25*
X83500000Y-66500000D03*
X56500000Y-72000000D03*
X58000000Y-83500000D03*
X82000000Y-83000000D03*
X59000000Y-71000000D03*
X83021000Y-69000000D03*
X81571000Y-69000000D03*
X86000000Y-68000000D03*
X61500000Y-71000000D03*
X70000000Y-70500000D03*
X39580000Y-72920000D03*
X7000000Y-70000000D03*
X102500000Y-83500000D03*
X98860000Y-79860000D03*
X91500000Y-81500000D03*
X67000000Y-69500000D03*
X27420000Y-73000000D03*
X17710000Y-61900000D03*
X108000000Y-60500000D03*
X25590000Y-61920000D03*
X30420000Y-80890000D03*
X39240000Y-61584990D03*
X41370000Y-71230000D03*
X30420000Y-72090000D03*
D26*
X56000000Y-71500000D02*
X56500000Y-72000000D01*
X58000000Y-83500000D02*
X73500000Y-83500000D01*
X81500000Y-83500000D02*
X82000000Y-83000000D01*
X73500000Y-83500000D02*
X81500000Y-83500000D01*
X89927600Y-64632400D02*
X89927600Y-63734440D01*
X88060000Y-66500000D02*
X89927600Y-64632400D01*
X83500000Y-66500000D02*
X88060000Y-66500000D01*
X30420020Y-70400020D02*
X54900020Y-70400020D01*
X54900020Y-70400020D02*
X56500000Y-72000000D01*
X28110000Y-68090000D02*
X30420020Y-70400020D01*
X28110000Y-66670000D02*
X28110000Y-68090000D01*
X58500000Y-70500000D02*
X59000000Y-71000000D01*
X81571000Y-69000000D02*
X83021000Y-69000000D01*
X78071000Y-72500000D02*
X81571000Y-69000000D01*
X60500000Y-72500000D02*
X78071000Y-72500000D01*
X59000000Y-71000000D02*
X60500000Y-72500000D01*
X57950010Y-69950010D02*
X59000000Y-71000000D01*
X32490010Y-69950010D02*
X57950010Y-69950010D01*
X30400000Y-67860000D02*
X32490010Y-69950010D01*
X30400000Y-66670000D02*
X30400000Y-67860000D01*
X69500000Y-71000000D02*
X70000000Y-70500000D01*
X61500000Y-71000000D02*
X69500000Y-71000000D01*
X78953160Y-68000000D02*
X86000000Y-68000000D01*
X74687600Y-63734440D02*
X78953160Y-68000000D01*
X60000000Y-69500000D02*
X61500000Y-71000000D01*
X33630000Y-69500000D02*
X60000000Y-69500000D01*
X32690000Y-68560000D02*
X33630000Y-69500000D01*
X32690000Y-66670000D02*
X32690000Y-68560000D01*
X25000000Y-84720000D02*
X27180000Y-86900000D01*
X27180000Y-86900000D02*
X39400000Y-86900000D01*
X42100000Y-84200000D02*
X42100000Y-82200000D01*
X39400000Y-86900000D02*
X42100000Y-84200000D01*
X42100000Y-82200000D02*
X63075000Y-82200000D01*
X64270000Y-81005000D02*
X64270000Y-78000000D01*
X63075000Y-82200000D02*
X64270000Y-81005000D01*
X85132040Y-61000000D02*
X86500000Y-61000000D01*
X77500000Y-61012040D02*
X77500000Y-61000000D01*
X39500000Y-73000000D02*
X39580000Y-72920000D01*
X117500000Y-52000000D02*
X118000000Y-51500000D01*
X6720000Y-84720000D02*
X6000000Y-84000000D01*
X25000000Y-84720000D02*
X6720000Y-84720000D01*
X7000000Y-70000000D02*
X7500000Y-70500000D01*
X103000000Y-84000000D02*
X102500000Y-83500000D01*
X118000000Y-84000000D02*
X103000000Y-84000000D01*
X89916000Y-77470000D02*
X89916000Y-78636000D01*
X91140000Y-79860000D02*
X98860000Y-79860000D01*
X89916000Y-78636000D02*
X91140000Y-79860000D01*
X69350000Y-78000000D02*
X69350000Y-79350000D01*
X71500000Y-81500000D02*
X91500000Y-81500000D01*
X69350000Y-79350000D02*
X71500000Y-81500000D01*
X67000000Y-69500000D02*
X66000000Y-68500000D01*
X98623160Y-61000000D02*
X93500000Y-61000000D01*
X101357600Y-63734440D02*
X98623160Y-61000000D01*
X93737600Y-62137600D02*
X92600000Y-61000000D01*
X93737600Y-63734440D02*
X93737600Y-62137600D01*
X92600000Y-61000000D02*
X93500000Y-61000000D01*
X86500000Y-61000000D02*
X92600000Y-61000000D01*
X86117600Y-61907600D02*
X85210000Y-61000000D01*
X86117600Y-63734440D02*
X86117600Y-61907600D01*
X85210000Y-61000000D02*
X86500000Y-61000000D01*
X78497600Y-61877600D02*
X77620000Y-61000000D01*
X78497600Y-63734440D02*
X78497600Y-61877600D01*
X77620000Y-61000000D02*
X85210000Y-61000000D01*
X77500000Y-61000000D02*
X77620000Y-61000000D01*
X70877600Y-63734440D02*
X70877600Y-61882400D01*
X70877600Y-61882400D02*
X71760000Y-61000000D01*
X71760000Y-61000000D02*
X77500000Y-61000000D01*
X36125000Y-64690000D02*
X36490000Y-64690000D01*
X37270000Y-65470000D02*
X37270000Y-66670000D01*
X36490000Y-64690000D02*
X37270000Y-65470000D01*
X27420000Y-73000000D02*
X39500000Y-73000000D01*
X10000000Y-73000000D02*
X7000000Y-70000000D01*
X27420000Y-73000000D02*
X10000000Y-73000000D01*
X49700000Y-66370000D02*
X51830000Y-68500000D01*
X49700000Y-63650000D02*
X49700000Y-66370000D01*
X46909990Y-60859990D02*
X49700000Y-63650000D01*
X66000000Y-68500000D02*
X51830000Y-68500000D01*
X18750010Y-60859990D02*
X24110010Y-60859990D01*
X17710000Y-61900000D02*
X18750010Y-60859990D01*
X24110010Y-60859990D02*
X46909990Y-60859990D01*
X21740010Y-60859990D02*
X24110010Y-60859990D01*
X101000000Y-56000000D02*
X105500000Y-60500000D01*
X92900000Y-56000000D02*
X101000000Y-56000000D01*
X91832600Y-57067400D02*
X92900000Y-56000000D01*
X105500000Y-60500000D02*
X108000000Y-60500000D01*
X91832600Y-58654440D02*
X91832600Y-57067400D01*
X37000000Y-82180000D02*
X37020000Y-82200000D01*
X32620000Y-82180000D02*
X37000000Y-82180000D01*
X24960000Y-79600000D02*
X25000000Y-79640000D01*
X21000000Y-79600000D02*
X24960000Y-79600000D01*
X32620000Y-77100000D02*
X35720000Y-74000000D01*
X105190000Y-65640000D02*
X119990000Y-65640000D01*
X98790000Y-72040000D02*
X105190000Y-65640000D01*
X96830000Y-74000000D02*
X96320000Y-74000000D01*
X98790000Y-72040000D02*
X96830000Y-74000000D01*
X35720000Y-74000000D02*
X96320000Y-74000000D01*
X32690000Y-62710000D02*
X32690000Y-61860000D01*
X32140000Y-61310000D02*
X30820000Y-61310000D01*
X32690000Y-61860000D02*
X32140000Y-61310000D01*
X30820000Y-61310000D02*
X31560000Y-61310000D01*
X26200000Y-61310000D02*
X27350000Y-61310000D01*
X27350000Y-61310000D02*
X30820000Y-61310000D01*
X25590000Y-61920000D02*
X26200000Y-61310000D01*
X29130000Y-82180000D02*
X30420000Y-80890000D01*
X25000000Y-82180000D02*
X29130000Y-82180000D01*
X34980000Y-62710000D02*
X34980000Y-62000000D01*
X34980000Y-62000000D02*
X35650000Y-61330000D01*
X35650000Y-61330000D02*
X36300000Y-61330000D01*
X36950000Y-61330000D02*
X36970000Y-61310000D01*
X36300000Y-61330000D02*
X36950000Y-61330000D01*
X38965010Y-61310000D02*
X39240000Y-61584990D01*
X36970000Y-61310000D02*
X38965010Y-61310000D01*
X41370000Y-71230000D02*
X40920000Y-71680000D01*
X30830000Y-71680000D02*
X30420000Y-72090000D01*
X40920000Y-71680000D02*
X30830000Y-71680000D01*
D27*
G36*
X119871797Y-46733902D02*
G01*
X120720182Y-46947001D01*
X121522371Y-47295803D01*
X122256818Y-47770938D01*
X122903798Y-48359646D01*
X123445946Y-49046125D01*
X123868692Y-49811928D01*
X124160684Y-50636491D01*
X124316116Y-51509076D01*
X124340000Y-52015547D01*
X124340001Y-84972899D01*
X124266098Y-85871802D01*
X124052999Y-86720180D01*
X123704197Y-87522371D01*
X123229062Y-88256818D01*
X122640354Y-88903799D01*
X121953875Y-89445946D01*
X121188076Y-89868691D01*
X120363514Y-90160683D01*
X119490925Y-90316116D01*
X118984453Y-90340000D01*
X6027089Y-90340000D01*
X5128198Y-90266098D01*
X4279820Y-90052999D01*
X3477629Y-89704197D01*
X2743182Y-89229062D01*
X2096201Y-88640354D01*
X1554054Y-87953875D01*
X1131309Y-87188076D01*
X839317Y-86363514D01*
X683884Y-85490925D01*
X660000Y-84984453D01*
X660000Y-84592738D01*
X1865000Y-84592738D01*
X1865000Y-85407262D01*
X2023906Y-86206135D01*
X2335611Y-86958657D01*
X2788136Y-87635909D01*
X3364091Y-88211864D01*
X4041343Y-88664389D01*
X4793865Y-88976094D01*
X5592738Y-89135000D01*
X6407262Y-89135000D01*
X7206135Y-88976094D01*
X7958657Y-88664389D01*
X8635909Y-88211864D01*
X9211864Y-87635909D01*
X9664389Y-86958657D01*
X9976094Y-86206135D01*
X10120531Y-85480000D01*
X23781957Y-85480000D01*
X23885363Y-85634759D01*
X24085241Y-85834637D01*
X24320273Y-85991680D01*
X24581426Y-86099853D01*
X24858665Y-86155000D01*
X25141335Y-86155000D01*
X25323886Y-86118688D01*
X26616201Y-87411003D01*
X26639999Y-87440001D01*
X26668997Y-87463799D01*
X26755724Y-87534974D01*
X26887753Y-87605546D01*
X27031014Y-87649003D01*
X27180000Y-87663677D01*
X27217333Y-87660000D01*
X39362678Y-87660000D01*
X39400000Y-87663676D01*
X39437322Y-87660000D01*
X39437333Y-87660000D01*
X39548986Y-87649003D01*
X39692247Y-87605546D01*
X39824276Y-87534974D01*
X39940001Y-87440001D01*
X39963804Y-87410997D01*
X42611004Y-84763798D01*
X42640001Y-84740001D01*
X42734974Y-84624276D01*
X42805546Y-84492247D01*
X42849003Y-84348986D01*
X42860000Y-84237333D01*
X42860000Y-84237332D01*
X42863677Y-84200000D01*
X42860000Y-84162667D01*
X42860000Y-83297775D01*
X42951013Y-83236962D01*
X43136962Y-83051013D01*
X43197775Y-82960000D01*
X57116033Y-82960000D01*
X57082795Y-83009744D01*
X57004774Y-83198102D01*
X56965000Y-83398061D01*
X56965000Y-83601939D01*
X57004774Y-83801898D01*
X57082795Y-83990256D01*
X57196063Y-84159774D01*
X57340226Y-84303937D01*
X57509744Y-84417205D01*
X57698102Y-84495226D01*
X57898061Y-84535000D01*
X58101939Y-84535000D01*
X58301898Y-84495226D01*
X58490256Y-84417205D01*
X58659774Y-84303937D01*
X58703711Y-84260000D01*
X81462678Y-84260000D01*
X81500000Y-84263676D01*
X81537322Y-84260000D01*
X81537333Y-84260000D01*
X81648986Y-84249003D01*
X81792247Y-84205546D01*
X81924276Y-84134974D01*
X82040001Y-84040001D01*
X82044105Y-84035000D01*
X82101939Y-84035000D01*
X82301898Y-83995226D01*
X82490256Y-83917205D01*
X82659774Y-83803937D01*
X82803937Y-83659774D01*
X82917205Y-83490256D01*
X82955393Y-83398061D01*
X101465000Y-83398061D01*
X101465000Y-83601939D01*
X101504774Y-83801898D01*
X101582795Y-83990256D01*
X101696063Y-84159774D01*
X101840226Y-84303937D01*
X102009744Y-84417205D01*
X102198102Y-84495226D01*
X102398061Y-84535000D01*
X102455895Y-84535000D01*
X102459999Y-84540001D01*
X102575724Y-84634974D01*
X102707753Y-84705546D01*
X102851014Y-84749003D01*
X102962667Y-84760000D01*
X102962675Y-84760000D01*
X103000000Y-84763676D01*
X103037325Y-84760000D01*
X114865000Y-84760000D01*
X114865000Y-85407262D01*
X115023906Y-86206135D01*
X115335611Y-86958657D01*
X115788136Y-87635909D01*
X116364091Y-88211864D01*
X117041343Y-88664389D01*
X117793865Y-88976094D01*
X118592738Y-89135000D01*
X119407262Y-89135000D01*
X120206135Y-88976094D01*
X120958657Y-88664389D01*
X121635909Y-88211864D01*
X122211864Y-87635909D01*
X122664389Y-86958657D01*
X122976094Y-86206135D01*
X123135000Y-85407262D01*
X123135000Y-84592738D01*
X122976094Y-83793865D01*
X122664389Y-83041343D01*
X122211864Y-82364091D01*
X121635909Y-81788136D01*
X120958657Y-81335611D01*
X120206135Y-81023906D01*
X119407262Y-80865000D01*
X118592738Y-80865000D01*
X117793865Y-81023906D01*
X117041343Y-81335611D01*
X116364091Y-81788136D01*
X115788136Y-82364091D01*
X115335611Y-83041343D01*
X115253325Y-83240000D01*
X103503560Y-83240000D01*
X103495226Y-83198102D01*
X103417205Y-83009744D01*
X103303937Y-82840226D01*
X103159774Y-82696063D01*
X102990256Y-82582795D01*
X102801898Y-82504774D01*
X102601939Y-82465000D01*
X102398061Y-82465000D01*
X102198102Y-82504774D01*
X102009744Y-82582795D01*
X101840226Y-82696063D01*
X101696063Y-82840226D01*
X101582795Y-83009744D01*
X101504774Y-83198102D01*
X101465000Y-83398061D01*
X82955393Y-83398061D01*
X82995226Y-83301898D01*
X83035000Y-83101939D01*
X83035000Y-82898061D01*
X82995226Y-82698102D01*
X82917205Y-82509744D01*
X82803937Y-82340226D01*
X82723711Y-82260000D01*
X90796289Y-82260000D01*
X90840226Y-82303937D01*
X91009744Y-82417205D01*
X91198102Y-82495226D01*
X91398061Y-82535000D01*
X91601939Y-82535000D01*
X91801898Y-82495226D01*
X91990256Y-82417205D01*
X92159774Y-82303937D01*
X92303937Y-82159774D01*
X92417205Y-81990256D01*
X92495226Y-81801898D01*
X92535000Y-81601939D01*
X92535000Y-81398061D01*
X92495226Y-81198102D01*
X92417205Y-81009744D01*
X92303937Y-80840226D01*
X92159774Y-80696063D01*
X92045937Y-80620000D01*
X98156289Y-80620000D01*
X98200226Y-80663937D01*
X98369744Y-80777205D01*
X98558102Y-80855226D01*
X98758061Y-80895000D01*
X98961939Y-80895000D01*
X99161898Y-80855226D01*
X99350256Y-80777205D01*
X99519774Y-80663937D01*
X99663937Y-80519774D01*
X99777205Y-80350256D01*
X99855226Y-80161898D01*
X99895000Y-79961939D01*
X99895000Y-79758061D01*
X99855226Y-79558102D01*
X99777205Y-79369744D01*
X99663937Y-79200226D01*
X99519774Y-79056063D01*
X99350256Y-78942795D01*
X99161898Y-78864774D01*
X98961939Y-78825000D01*
X98758061Y-78825000D01*
X98558102Y-78864774D01*
X98369744Y-78942795D01*
X98200226Y-79056063D01*
X98156289Y-79100000D01*
X91454803Y-79100000D01*
X90920454Y-78565653D01*
X91069475Y-78416632D01*
X91186000Y-78242240D01*
X91302525Y-78416632D01*
X91509368Y-78623475D01*
X91752589Y-78785990D01*
X92022842Y-78897932D01*
X92309740Y-78955000D01*
X92602260Y-78955000D01*
X92889158Y-78897932D01*
X93159411Y-78785990D01*
X93402632Y-78623475D01*
X93609475Y-78416632D01*
X93771990Y-78173411D01*
X93883932Y-77903158D01*
X93941000Y-77616260D01*
X93941000Y-77323740D01*
X93883932Y-77036842D01*
X93872261Y-77008665D01*
X97425000Y-77008665D01*
X97425000Y-77291335D01*
X97480147Y-77568574D01*
X97588320Y-77829727D01*
X97745363Y-78064759D01*
X97945241Y-78264637D01*
X98180273Y-78421680D01*
X98441426Y-78529853D01*
X98718665Y-78585000D01*
X99001335Y-78585000D01*
X99278574Y-78529853D01*
X99539727Y-78421680D01*
X99774759Y-78264637D01*
X99974637Y-78064759D01*
X100131680Y-77829727D01*
X100239853Y-77568574D01*
X100295000Y-77291335D01*
X100295000Y-77008665D01*
X105045000Y-77008665D01*
X105045000Y-77291335D01*
X105100147Y-77568574D01*
X105208320Y-77829727D01*
X105365363Y-78064759D01*
X105565241Y-78264637D01*
X105800273Y-78421680D01*
X106061426Y-78529853D01*
X106338665Y-78585000D01*
X106621335Y-78585000D01*
X106898574Y-78529853D01*
X107159727Y-78421680D01*
X107394759Y-78264637D01*
X107594637Y-78064759D01*
X107751680Y-77829727D01*
X107859853Y-77568574D01*
X107915000Y-77291335D01*
X107915000Y-77008665D01*
X107859853Y-76731426D01*
X107751680Y-76470273D01*
X107594637Y-76235241D01*
X107394759Y-76035363D01*
X107159727Y-75878320D01*
X106898574Y-75770147D01*
X106621335Y-75715000D01*
X106338665Y-75715000D01*
X106061426Y-75770147D01*
X105800273Y-75878320D01*
X105565241Y-76035363D01*
X105365363Y-76235241D01*
X105208320Y-76470273D01*
X105100147Y-76731426D01*
X105045000Y-77008665D01*
X100295000Y-77008665D01*
X100239853Y-76731426D01*
X100131680Y-76470273D01*
X99974637Y-76235241D01*
X99774759Y-76035363D01*
X99539727Y-75878320D01*
X99278574Y-75770147D01*
X99001335Y-75715000D01*
X98718665Y-75715000D01*
X98441426Y-75770147D01*
X98180273Y-75878320D01*
X97945241Y-76035363D01*
X97745363Y-76235241D01*
X97588320Y-76470273D01*
X97480147Y-76731426D01*
X97425000Y-77008665D01*
X93872261Y-77008665D01*
X93771990Y-76766589D01*
X93609475Y-76523368D01*
X93402632Y-76316525D01*
X93159411Y-76154010D01*
X92889158Y-76042068D01*
X92602260Y-75985000D01*
X92309740Y-75985000D01*
X92022842Y-76042068D01*
X91752589Y-76154010D01*
X91509368Y-76316525D01*
X91302525Y-76523368D01*
X91186000Y-76697760D01*
X91069475Y-76523368D01*
X90862632Y-76316525D01*
X90619411Y-76154010D01*
X90349158Y-76042068D01*
X90062260Y-75985000D01*
X89769740Y-75985000D01*
X89482842Y-76042068D01*
X89212589Y-76154010D01*
X88969368Y-76316525D01*
X88762525Y-76523368D01*
X88646000Y-76697760D01*
X88529475Y-76523368D01*
X88322632Y-76316525D01*
X88079411Y-76154010D01*
X87809158Y-76042068D01*
X87522260Y-75985000D01*
X87229740Y-75985000D01*
X86942842Y-76042068D01*
X86672589Y-76154010D01*
X86429368Y-76316525D01*
X86222525Y-76523368D01*
X86106000Y-76697760D01*
X85989475Y-76523368D01*
X85782632Y-76316525D01*
X85539411Y-76154010D01*
X85269158Y-76042068D01*
X84982260Y-75985000D01*
X84689740Y-75985000D01*
X84402842Y-76042068D01*
X84132589Y-76154010D01*
X83889368Y-76316525D01*
X83757513Y-76448380D01*
X83735502Y-76375820D01*
X83676537Y-76265506D01*
X83597185Y-76168815D01*
X83500494Y-76089463D01*
X83390180Y-76030498D01*
X83270482Y-75994188D01*
X83146000Y-75981928D01*
X81446000Y-75981928D01*
X81321518Y-75994188D01*
X81201820Y-76030498D01*
X81091506Y-76089463D01*
X80994815Y-76168815D01*
X80915463Y-76265506D01*
X80856498Y-76375820D01*
X80820188Y-76495518D01*
X80807928Y-76620000D01*
X80807928Y-78320000D01*
X80820188Y-78444482D01*
X80856498Y-78564180D01*
X80915463Y-78674494D01*
X80994815Y-78771185D01*
X81091506Y-78850537D01*
X81201820Y-78909502D01*
X81321518Y-78945812D01*
X81446000Y-78958072D01*
X83146000Y-78958072D01*
X83270482Y-78945812D01*
X83390180Y-78909502D01*
X83500494Y-78850537D01*
X83597185Y-78771185D01*
X83676537Y-78674494D01*
X83735502Y-78564180D01*
X83757513Y-78491620D01*
X83889368Y-78623475D01*
X84132589Y-78785990D01*
X84402842Y-78897932D01*
X84689740Y-78955000D01*
X84982260Y-78955000D01*
X85269158Y-78897932D01*
X85539411Y-78785990D01*
X85782632Y-78623475D01*
X85989475Y-78416632D01*
X86106000Y-78242240D01*
X86222525Y-78416632D01*
X86429368Y-78623475D01*
X86672589Y-78785990D01*
X86942842Y-78897932D01*
X87229740Y-78955000D01*
X87522260Y-78955000D01*
X87809158Y-78897932D01*
X88079411Y-78785990D01*
X88322632Y-78623475D01*
X88529475Y-78416632D01*
X88646000Y-78242240D01*
X88762525Y-78416632D01*
X88969368Y-78623475D01*
X89163892Y-78753452D01*
X89166998Y-78784986D01*
X89179136Y-78825000D01*
X89210454Y-78928246D01*
X89281026Y-79060276D01*
X89352201Y-79147002D01*
X89376000Y-79176001D01*
X89404998Y-79199799D01*
X90576205Y-80371008D01*
X90599999Y-80400001D01*
X90628992Y-80423795D01*
X90628996Y-80423799D01*
X90680084Y-80465725D01*
X90715724Y-80494974D01*
X90847753Y-80565546D01*
X90976920Y-80604728D01*
X90840226Y-80696063D01*
X90796289Y-80740000D01*
X71814802Y-80740000D01*
X70367865Y-79293064D01*
X70507634Y-79122756D01*
X70636293Y-78882050D01*
X70715522Y-78620868D01*
X70735570Y-78417316D01*
X70735570Y-77582683D01*
X70715522Y-77379131D01*
X70636293Y-77117950D01*
X70507634Y-76877244D01*
X70334485Y-76666264D01*
X70123505Y-76493116D01*
X69882799Y-76364457D01*
X69621618Y-76285228D01*
X69350000Y-76258476D01*
X69078381Y-76285228D01*
X68817200Y-76364457D01*
X68576494Y-76493116D01*
X68365514Y-76666265D01*
X68192366Y-76877245D01*
X68080000Y-77087468D01*
X67967634Y-76877244D01*
X67794485Y-76666264D01*
X67583505Y-76493116D01*
X67342799Y-76364457D01*
X67081618Y-76285228D01*
X66810000Y-76258476D01*
X66538381Y-76285228D01*
X66277200Y-76364457D01*
X66036494Y-76493116D01*
X65825514Y-76666265D01*
X65652366Y-76877245D01*
X65540000Y-77087468D01*
X65427634Y-76877244D01*
X65254485Y-76666264D01*
X65043505Y-76493116D01*
X64802799Y-76364457D01*
X64541618Y-76285228D01*
X64270000Y-76258476D01*
X63998381Y-76285228D01*
X63737200Y-76364457D01*
X63496494Y-76493116D01*
X63285514Y-76666265D01*
X63112366Y-76877245D01*
X63000000Y-77087468D01*
X62887634Y-76877244D01*
X62714485Y-76666264D01*
X62503505Y-76493116D01*
X62262799Y-76364457D01*
X62001618Y-76285228D01*
X61730000Y-76258476D01*
X61458381Y-76285228D01*
X61197200Y-76364457D01*
X60956494Y-76493116D01*
X60745514Y-76666265D01*
X60572366Y-76877245D01*
X60460000Y-77087468D01*
X60347634Y-76877244D01*
X60174485Y-76666264D01*
X59963505Y-76493116D01*
X59722799Y-76364457D01*
X59461618Y-76285228D01*
X59190000Y-76258476D01*
X58918381Y-76285228D01*
X58657200Y-76364457D01*
X58416494Y-76493116D01*
X58205514Y-76666265D01*
X58035953Y-76872875D01*
X58026382Y-76775698D01*
X57990072Y-76656000D01*
X57931107Y-76545686D01*
X57851755Y-76448995D01*
X57755064Y-76369643D01*
X57644750Y-76310678D01*
X57525052Y-76274368D01*
X57400570Y-76262108D01*
X55899430Y-76262108D01*
X55774948Y-76274368D01*
X55655250Y-76310678D01*
X55544936Y-76369643D01*
X55448245Y-76448995D01*
X55368893Y-76545686D01*
X55309928Y-76656000D01*
X55273618Y-76775698D01*
X55261358Y-76900180D01*
X55261358Y-79099820D01*
X55273618Y-79224302D01*
X55309928Y-79344000D01*
X55368893Y-79454314D01*
X55448245Y-79551005D01*
X55544936Y-79630357D01*
X55655250Y-79689322D01*
X55774948Y-79725632D01*
X55899430Y-79737892D01*
X57400570Y-79737892D01*
X57525052Y-79725632D01*
X57644750Y-79689322D01*
X57755064Y-79630357D01*
X57851755Y-79551005D01*
X57931107Y-79454314D01*
X57990072Y-79344000D01*
X58026382Y-79224302D01*
X58035953Y-79127126D01*
X58205515Y-79333736D01*
X58416495Y-79506884D01*
X58657201Y-79635543D01*
X58918382Y-79714772D01*
X59190000Y-79741524D01*
X59461619Y-79714772D01*
X59722800Y-79635543D01*
X59963506Y-79506884D01*
X60174486Y-79333736D01*
X60347634Y-79122756D01*
X60460000Y-78912532D01*
X60572366Y-79122756D01*
X60745515Y-79333736D01*
X60956495Y-79506884D01*
X61197201Y-79635543D01*
X61458382Y-79714772D01*
X61730000Y-79741524D01*
X62001619Y-79714772D01*
X62262800Y-79635543D01*
X62503506Y-79506884D01*
X62714486Y-79333736D01*
X62887634Y-79122756D01*
X63000000Y-78912532D01*
X63112366Y-79122756D01*
X63285515Y-79333736D01*
X63496495Y-79506884D01*
X63510000Y-79514103D01*
X63510000Y-80690198D01*
X62760199Y-81440000D01*
X43197775Y-81440000D01*
X43136962Y-81348987D01*
X42951013Y-81163038D01*
X42732359Y-81016939D01*
X42489405Y-80916304D01*
X42231486Y-80865000D01*
X41968514Y-80865000D01*
X41710595Y-80916304D01*
X41467641Y-81016939D01*
X41248987Y-81163038D01*
X41063038Y-81348987D01*
X40916939Y-81567641D01*
X40816304Y-81810595D01*
X40765000Y-82068514D01*
X40765000Y-82331486D01*
X40816304Y-82589405D01*
X40916939Y-82832359D01*
X41063038Y-83051013D01*
X41248987Y-83236962D01*
X41340000Y-83297775D01*
X41340000Y-83885198D01*
X39085199Y-86140000D01*
X32836744Y-86140000D01*
X33038574Y-86099853D01*
X33299727Y-85991680D01*
X33534759Y-85834637D01*
X33734637Y-85634759D01*
X33891680Y-85399727D01*
X33999853Y-85138574D01*
X34055000Y-84861335D01*
X34055000Y-84578665D01*
X33999853Y-84301426D01*
X33891680Y-84040273D01*
X33734637Y-83805241D01*
X33534759Y-83605363D01*
X33302241Y-83450000D01*
X33534759Y-83294637D01*
X33734637Y-83094759D01*
X33838043Y-82940000D01*
X35908862Y-82940000D01*
X35983038Y-83051013D01*
X36168987Y-83236962D01*
X36387641Y-83383061D01*
X36630595Y-83483696D01*
X36888514Y-83535000D01*
X37151486Y-83535000D01*
X37409405Y-83483696D01*
X37652359Y-83383061D01*
X37871013Y-83236962D01*
X38056962Y-83051013D01*
X38203061Y-82832359D01*
X38303696Y-82589405D01*
X38355000Y-82331486D01*
X38355000Y-82068514D01*
X38303696Y-81810595D01*
X38203061Y-81567641D01*
X38056962Y-81348987D01*
X37871013Y-81163038D01*
X37652359Y-81016939D01*
X37409405Y-80916304D01*
X37151486Y-80865000D01*
X36888514Y-80865000D01*
X36630595Y-80916304D01*
X36387641Y-81016939D01*
X36168987Y-81163038D01*
X35983038Y-81348987D01*
X35935589Y-81420000D01*
X33838043Y-81420000D01*
X33734637Y-81265241D01*
X33534759Y-81065363D01*
X33302241Y-80910000D01*
X33534759Y-80754637D01*
X33734637Y-80554759D01*
X33891680Y-80319727D01*
X33999853Y-80058574D01*
X34055000Y-79781335D01*
X34055000Y-79498665D01*
X33999853Y-79221426D01*
X33891680Y-78960273D01*
X33734637Y-78725241D01*
X33534759Y-78525363D01*
X33302241Y-78370000D01*
X33534759Y-78214637D01*
X33690731Y-78058665D01*
X37165000Y-78058665D01*
X37165000Y-78341335D01*
X37220147Y-78618574D01*
X37328320Y-78879727D01*
X37485363Y-79114759D01*
X37685241Y-79314637D01*
X37920273Y-79471680D01*
X38181426Y-79579853D01*
X38458665Y-79635000D01*
X38741335Y-79635000D01*
X39018574Y-79579853D01*
X39279727Y-79471680D01*
X39514759Y-79314637D01*
X39714637Y-79114759D01*
X39850000Y-78912173D01*
X39985363Y-79114759D01*
X40185241Y-79314637D01*
X40420273Y-79471680D01*
X40681426Y-79579853D01*
X40958665Y-79635000D01*
X41241335Y-79635000D01*
X41518574Y-79579853D01*
X41779727Y-79471680D01*
X42014759Y-79314637D01*
X42214637Y-79114759D01*
X42371680Y-78879727D01*
X42479853Y-78618574D01*
X42535000Y-78341335D01*
X42535000Y-78058665D01*
X42479853Y-77781426D01*
X42371680Y-77520273D01*
X42214637Y-77285241D01*
X42014759Y-77085363D01*
X41779727Y-76928320D01*
X41518574Y-76820147D01*
X41241335Y-76765000D01*
X40958665Y-76765000D01*
X40681426Y-76820147D01*
X40420273Y-76928320D01*
X40185241Y-77085363D01*
X39985363Y-77285241D01*
X39850000Y-77487827D01*
X39714637Y-77285241D01*
X39514759Y-77085363D01*
X39279727Y-76928320D01*
X39018574Y-76820147D01*
X38741335Y-76765000D01*
X38458665Y-76765000D01*
X38181426Y-76820147D01*
X37920273Y-76928320D01*
X37685241Y-77085363D01*
X37485363Y-77285241D01*
X37328320Y-77520273D01*
X37220147Y-77781426D01*
X37165000Y-78058665D01*
X33690731Y-78058665D01*
X33734637Y-78014759D01*
X33891680Y-77779727D01*
X33999853Y-77518574D01*
X34055000Y-77241335D01*
X34055000Y-76958665D01*
X34018688Y-76776114D01*
X36034802Y-74760000D01*
X96792678Y-74760000D01*
X96830000Y-74763676D01*
X96867322Y-74760000D01*
X96867333Y-74760000D01*
X96978986Y-74749003D01*
X97122247Y-74705546D01*
X97254276Y-74634974D01*
X97370001Y-74540001D01*
X97393804Y-74510997D01*
X98466114Y-73438688D01*
X98648665Y-73475000D01*
X98931335Y-73475000D01*
X99208574Y-73419853D01*
X99469727Y-73311680D01*
X99704759Y-73154637D01*
X99904637Y-72954759D01*
X100061680Y-72719727D01*
X100169853Y-72458574D01*
X100225000Y-72181335D01*
X100225000Y-71898665D01*
X104975000Y-71898665D01*
X104975000Y-72181335D01*
X105030147Y-72458574D01*
X105138320Y-72719727D01*
X105295363Y-72954759D01*
X105495241Y-73154637D01*
X105730273Y-73311680D01*
X105991426Y-73419853D01*
X106268665Y-73475000D01*
X106551335Y-73475000D01*
X106828574Y-73419853D01*
X107089727Y-73311680D01*
X107324759Y-73154637D01*
X107524637Y-72954759D01*
X107681680Y-72719727D01*
X107789853Y-72458574D01*
X107845000Y-72181335D01*
X107845000Y-71898665D01*
X107789853Y-71621426D01*
X107681680Y-71360273D01*
X107524637Y-71125241D01*
X107324759Y-70925363D01*
X107089727Y-70768320D01*
X106828574Y-70660147D01*
X106551335Y-70605000D01*
X106268665Y-70605000D01*
X105991426Y-70660147D01*
X105730273Y-70768320D01*
X105495241Y-70925363D01*
X105295363Y-71125241D01*
X105138320Y-71360273D01*
X105030147Y-71621426D01*
X104975000Y-71898665D01*
X100225000Y-71898665D01*
X100188688Y-71716113D01*
X102484801Y-69420000D01*
X118051928Y-69420000D01*
X118051928Y-72020000D01*
X118064188Y-72144482D01*
X118100498Y-72264180D01*
X118159463Y-72374494D01*
X118238815Y-72471185D01*
X118335506Y-72550537D01*
X118445820Y-72609502D01*
X118565518Y-72645812D01*
X118690000Y-72658072D01*
X121290000Y-72658072D01*
X121414482Y-72645812D01*
X121534180Y-72609502D01*
X121644494Y-72550537D01*
X121741185Y-72471185D01*
X121820537Y-72374494D01*
X121879502Y-72264180D01*
X121915812Y-72144482D01*
X121928072Y-72020000D01*
X121928072Y-69420000D01*
X121915812Y-69295518D01*
X121879502Y-69175820D01*
X121820537Y-69065506D01*
X121741185Y-68968815D01*
X121644494Y-68889463D01*
X121534180Y-68830498D01*
X121414482Y-68794188D01*
X121290000Y-68781928D01*
X118690000Y-68781928D01*
X118565518Y-68794188D01*
X118445820Y-68830498D01*
X118335506Y-68889463D01*
X118238815Y-68968815D01*
X118159463Y-69065506D01*
X118100498Y-69175820D01*
X118064188Y-69295518D01*
X118051928Y-69420000D01*
X102484801Y-69420000D01*
X105504802Y-66400000D01*
X118210373Y-66400000D01*
X118275225Y-66556566D01*
X118486987Y-66873491D01*
X118756509Y-67143013D01*
X119073434Y-67354775D01*
X119425581Y-67500639D01*
X119799419Y-67575000D01*
X120180581Y-67575000D01*
X120554419Y-67500639D01*
X120906566Y-67354775D01*
X121223491Y-67143013D01*
X121493013Y-66873491D01*
X121704775Y-66556566D01*
X121850639Y-66204419D01*
X121925000Y-65830581D01*
X121925000Y-65449419D01*
X121850639Y-65075581D01*
X121704775Y-64723434D01*
X121493013Y-64406509D01*
X121223491Y-64136987D01*
X120906566Y-63925225D01*
X120554419Y-63779361D01*
X120180581Y-63705000D01*
X119799419Y-63705000D01*
X119425581Y-63779361D01*
X119073434Y-63925225D01*
X118756509Y-64136987D01*
X118486987Y-64406509D01*
X118275225Y-64723434D01*
X118210373Y-64880000D01*
X105227323Y-64880000D01*
X105190000Y-64876324D01*
X105152677Y-64880000D01*
X105152667Y-64880000D01*
X105041014Y-64890997D01*
X104897753Y-64934454D01*
X104765724Y-65005026D01*
X104649999Y-65099999D01*
X104626201Y-65128997D01*
X99113887Y-70641312D01*
X98931335Y-70605000D01*
X98648665Y-70605000D01*
X98371426Y-70660147D01*
X98110273Y-70768320D01*
X97875241Y-70925363D01*
X97675363Y-71125241D01*
X97518320Y-71360273D01*
X97410147Y-71621426D01*
X97355000Y-71898665D01*
X97355000Y-72181335D01*
X97391312Y-72363886D01*
X96515199Y-73240000D01*
X78249665Y-73240000D01*
X78363247Y-73205546D01*
X78495276Y-73134974D01*
X78611001Y-73040001D01*
X78634804Y-73010997D01*
X81610803Y-70035000D01*
X81672939Y-70035000D01*
X81872898Y-69995226D01*
X82061256Y-69917205D01*
X82230774Y-69803937D01*
X82274711Y-69760000D01*
X82317289Y-69760000D01*
X82361226Y-69803937D01*
X82530744Y-69917205D01*
X82719102Y-69995226D01*
X82919061Y-70035000D01*
X83122939Y-70035000D01*
X83322898Y-69995226D01*
X83511256Y-69917205D01*
X83680774Y-69803937D01*
X83824937Y-69659774D01*
X83938205Y-69490256D01*
X84016226Y-69301898D01*
X84056000Y-69101939D01*
X84056000Y-68898061D01*
X84028538Y-68760000D01*
X85296289Y-68760000D01*
X85340226Y-68803937D01*
X85509744Y-68917205D01*
X85698102Y-68995226D01*
X85898061Y-69035000D01*
X86101939Y-69035000D01*
X86301898Y-68995226D01*
X86490256Y-68917205D01*
X86659774Y-68803937D01*
X86803937Y-68659774D01*
X86917205Y-68490256D01*
X86995226Y-68301898D01*
X87035000Y-68101939D01*
X87035000Y-67898061D01*
X86995226Y-67698102D01*
X86917205Y-67509744D01*
X86803937Y-67340226D01*
X86723711Y-67260000D01*
X88022678Y-67260000D01*
X88060000Y-67263676D01*
X88097322Y-67260000D01*
X88097333Y-67260000D01*
X88208986Y-67249003D01*
X88352247Y-67205546D01*
X88484276Y-67134974D01*
X88600001Y-67040001D01*
X88623804Y-67010997D01*
X90309893Y-65324909D01*
X90404363Y-65306118D01*
X90701822Y-65182907D01*
X90969527Y-65004032D01*
X91197192Y-64776367D01*
X91376067Y-64508662D01*
X91499278Y-64211203D01*
X91562090Y-63895423D01*
X91562090Y-63573457D01*
X91499278Y-63257677D01*
X91376067Y-62960218D01*
X91197192Y-62692513D01*
X90969527Y-62464848D01*
X90701822Y-62285973D01*
X90404363Y-62162762D01*
X90088583Y-62099950D01*
X89766617Y-62099950D01*
X89450837Y-62162762D01*
X89153378Y-62285973D01*
X88885673Y-62464848D01*
X88658008Y-62692513D01*
X88479133Y-62960218D01*
X88355922Y-63257677D01*
X88293110Y-63573457D01*
X88293110Y-63895423D01*
X88355922Y-64211203D01*
X88479133Y-64508662D01*
X88658008Y-64776367D01*
X88683420Y-64801779D01*
X87745199Y-65740000D01*
X84203711Y-65740000D01*
X84159774Y-65696063D01*
X83990256Y-65582795D01*
X83801898Y-65504774D01*
X83601939Y-65465000D01*
X83398061Y-65465000D01*
X83198102Y-65504774D01*
X83009744Y-65582795D01*
X82840226Y-65696063D01*
X82696063Y-65840226D01*
X82582795Y-66009744D01*
X82504774Y-66198102D01*
X82465000Y-66398061D01*
X82465000Y-66601939D01*
X82504774Y-66801898D01*
X82582795Y-66990256D01*
X82696063Y-67159774D01*
X82776289Y-67240000D01*
X79267962Y-67240000D01*
X76253387Y-64225426D01*
X76259278Y-64211203D01*
X76322090Y-63895423D01*
X76322090Y-63573457D01*
X76259278Y-63257677D01*
X76136067Y-62960218D01*
X75957192Y-62692513D01*
X75729527Y-62464848D01*
X75461822Y-62285973D01*
X75164363Y-62162762D01*
X74848583Y-62099950D01*
X74526617Y-62099950D01*
X74210837Y-62162762D01*
X73913378Y-62285973D01*
X73645673Y-62464848D01*
X73418008Y-62692513D01*
X73239133Y-62960218D01*
X73115922Y-63257677D01*
X73053110Y-63573457D01*
X73053110Y-63895423D01*
X73115922Y-64211203D01*
X73239133Y-64508662D01*
X73418008Y-64776367D01*
X73645673Y-65004032D01*
X73913378Y-65182907D01*
X74210837Y-65306118D01*
X74526617Y-65368930D01*
X74848583Y-65368930D01*
X75164363Y-65306118D01*
X75178586Y-65300227D01*
X78389361Y-68511003D01*
X78413159Y-68540001D01*
X78528884Y-68634974D01*
X78660913Y-68705546D01*
X78804174Y-68749003D01*
X78915827Y-68760000D01*
X78915837Y-68760000D01*
X78953160Y-68763676D01*
X78990483Y-68760000D01*
X80563462Y-68760000D01*
X80536000Y-68898061D01*
X80536000Y-68960197D01*
X77756199Y-71740000D01*
X69678665Y-71740000D01*
X69792247Y-71705546D01*
X69924276Y-71634974D01*
X70040001Y-71540001D01*
X70044105Y-71535000D01*
X70101939Y-71535000D01*
X70301898Y-71495226D01*
X70490256Y-71417205D01*
X70659774Y-71303937D01*
X70803937Y-71159774D01*
X70917205Y-70990256D01*
X70995226Y-70801898D01*
X71035000Y-70601939D01*
X71035000Y-70398061D01*
X70995226Y-70198102D01*
X70917205Y-70009744D01*
X70803937Y-69840226D01*
X70659774Y-69696063D01*
X70490256Y-69582795D01*
X70301898Y-69504774D01*
X70101939Y-69465000D01*
X69898061Y-69465000D01*
X69698102Y-69504774D01*
X69509744Y-69582795D01*
X69340226Y-69696063D01*
X69196063Y-69840226D01*
X69082795Y-70009744D01*
X69004774Y-70198102D01*
X68996440Y-70240000D01*
X67723711Y-70240000D01*
X67803937Y-70159774D01*
X67917205Y-69990256D01*
X67995226Y-69801898D01*
X68035000Y-69601939D01*
X68035000Y-69398061D01*
X67995226Y-69198102D01*
X67917205Y-69009744D01*
X67803937Y-68840226D01*
X67659774Y-68696063D01*
X67490256Y-68582795D01*
X67301898Y-68504774D01*
X67101939Y-68465000D01*
X67039802Y-68465000D01*
X66563804Y-67989002D01*
X66540001Y-67959999D01*
X66424276Y-67865026D01*
X66292247Y-67794454D01*
X66148986Y-67750997D01*
X66037333Y-67740000D01*
X66037322Y-67740000D01*
X66000000Y-67736324D01*
X65962678Y-67740000D01*
X52144802Y-67740000D01*
X50460000Y-66055199D01*
X50460000Y-63687322D01*
X50463676Y-63650000D01*
X50460000Y-63612677D01*
X50460000Y-63612667D01*
X50456139Y-63573457D01*
X61623110Y-63573457D01*
X61623110Y-63895423D01*
X61685922Y-64211203D01*
X61809133Y-64508662D01*
X61988008Y-64776367D01*
X62215673Y-65004032D01*
X62483378Y-65182907D01*
X62780837Y-65306118D01*
X63096617Y-65368930D01*
X63418583Y-65368930D01*
X63734363Y-65306118D01*
X64031822Y-65182907D01*
X64299527Y-65004032D01*
X64527192Y-64776367D01*
X64706067Y-64508662D01*
X64829278Y-64211203D01*
X64892090Y-63895423D01*
X64892090Y-63573457D01*
X65433110Y-63573457D01*
X65433110Y-63895423D01*
X65495922Y-64211203D01*
X65619133Y-64508662D01*
X65798008Y-64776367D01*
X66025673Y-65004032D01*
X66293378Y-65182907D01*
X66590837Y-65306118D01*
X66906617Y-65368930D01*
X67228583Y-65368930D01*
X67544363Y-65306118D01*
X67841822Y-65182907D01*
X68109527Y-65004032D01*
X68337192Y-64776367D01*
X68516067Y-64508662D01*
X68639278Y-64211203D01*
X68702090Y-63895423D01*
X68702090Y-63573457D01*
X69243110Y-63573457D01*
X69243110Y-63895423D01*
X69305922Y-64211203D01*
X69429133Y-64508662D01*
X69608008Y-64776367D01*
X69835673Y-65004032D01*
X70103378Y-65182907D01*
X70400837Y-65306118D01*
X70716617Y-65368930D01*
X71038583Y-65368930D01*
X71354363Y-65306118D01*
X71651822Y-65182907D01*
X71919527Y-65004032D01*
X72147192Y-64776367D01*
X72326067Y-64508662D01*
X72449278Y-64211203D01*
X72512090Y-63895423D01*
X72512090Y-63573457D01*
X72449278Y-63257677D01*
X72326067Y-62960218D01*
X72147192Y-62692513D01*
X71919527Y-62464848D01*
X71651822Y-62285973D01*
X71637600Y-62280082D01*
X71637600Y-62197201D01*
X72074802Y-61760000D01*
X77305199Y-61760000D01*
X77737601Y-62192403D01*
X77737601Y-62280082D01*
X77723378Y-62285973D01*
X77455673Y-62464848D01*
X77228008Y-62692513D01*
X77049133Y-62960218D01*
X76925922Y-63257677D01*
X76863110Y-63573457D01*
X76863110Y-63895423D01*
X76925922Y-64211203D01*
X77049133Y-64508662D01*
X77228008Y-64776367D01*
X77455673Y-65004032D01*
X77723378Y-65182907D01*
X78020837Y-65306118D01*
X78336617Y-65368930D01*
X78658583Y-65368930D01*
X78974363Y-65306118D01*
X79271822Y-65182907D01*
X79539527Y-65004032D01*
X79767192Y-64776367D01*
X79946067Y-64508662D01*
X80069278Y-64211203D01*
X80132090Y-63895423D01*
X80132090Y-63573457D01*
X80673110Y-63573457D01*
X80673110Y-63895423D01*
X80735922Y-64211203D01*
X80859133Y-64508662D01*
X81038008Y-64776367D01*
X81265673Y-65004032D01*
X81533378Y-65182907D01*
X81830837Y-65306118D01*
X82146617Y-65368930D01*
X82468583Y-65368930D01*
X82784363Y-65306118D01*
X83081822Y-65182907D01*
X83349527Y-65004032D01*
X83577192Y-64776367D01*
X83756067Y-64508662D01*
X83879278Y-64211203D01*
X83942090Y-63895423D01*
X83942090Y-63573457D01*
X83879278Y-63257677D01*
X83756067Y-62960218D01*
X83577192Y-62692513D01*
X83349527Y-62464848D01*
X83081822Y-62285973D01*
X82784363Y-62162762D01*
X82468583Y-62099950D01*
X82146617Y-62099950D01*
X81830837Y-62162762D01*
X81533378Y-62285973D01*
X81265673Y-62464848D01*
X81038008Y-62692513D01*
X80859133Y-62960218D01*
X80735922Y-63257677D01*
X80673110Y-63573457D01*
X80132090Y-63573457D01*
X80069278Y-63257677D01*
X79946067Y-62960218D01*
X79767192Y-62692513D01*
X79539527Y-62464848D01*
X79271822Y-62285973D01*
X79257600Y-62280082D01*
X79257600Y-61914923D01*
X79261276Y-61877600D01*
X79257600Y-61840277D01*
X79257600Y-61840267D01*
X79249694Y-61760000D01*
X84895199Y-61760000D01*
X85357601Y-62222403D01*
X85357601Y-62280082D01*
X85343378Y-62285973D01*
X85075673Y-62464848D01*
X84848008Y-62692513D01*
X84669133Y-62960218D01*
X84545922Y-63257677D01*
X84483110Y-63573457D01*
X84483110Y-63895423D01*
X84545922Y-64211203D01*
X84669133Y-64508662D01*
X84848008Y-64776367D01*
X85075673Y-65004032D01*
X85343378Y-65182907D01*
X85640837Y-65306118D01*
X85956617Y-65368930D01*
X86278583Y-65368930D01*
X86594363Y-65306118D01*
X86891822Y-65182907D01*
X87159527Y-65004032D01*
X87387192Y-64776367D01*
X87566067Y-64508662D01*
X87689278Y-64211203D01*
X87752090Y-63895423D01*
X87752090Y-63573457D01*
X87689278Y-63257677D01*
X87566067Y-62960218D01*
X87387192Y-62692513D01*
X87159527Y-62464848D01*
X86891822Y-62285973D01*
X86877600Y-62280082D01*
X86877600Y-61944922D01*
X86881276Y-61907599D01*
X86877600Y-61870276D01*
X86877600Y-61870267D01*
X86866740Y-61760000D01*
X92285199Y-61760000D01*
X92872137Y-62346939D01*
X92695673Y-62464848D01*
X92468008Y-62692513D01*
X92289133Y-62960218D01*
X92165922Y-63257677D01*
X92103110Y-63573457D01*
X92103110Y-63895423D01*
X92165922Y-64211203D01*
X92289133Y-64508662D01*
X92468008Y-64776367D01*
X92695673Y-65004032D01*
X92963378Y-65182907D01*
X93260837Y-65306118D01*
X93576617Y-65368930D01*
X93898583Y-65368930D01*
X94214363Y-65306118D01*
X94511822Y-65182907D01*
X94779527Y-65004032D01*
X95007192Y-64776367D01*
X95186067Y-64508662D01*
X95309278Y-64211203D01*
X95372090Y-63895423D01*
X95372090Y-63573457D01*
X95913110Y-63573457D01*
X95913110Y-63895423D01*
X95975922Y-64211203D01*
X96099133Y-64508662D01*
X96278008Y-64776367D01*
X96505673Y-65004032D01*
X96773378Y-65182907D01*
X97070837Y-65306118D01*
X97386617Y-65368930D01*
X97708583Y-65368930D01*
X98024363Y-65306118D01*
X98321822Y-65182907D01*
X98589527Y-65004032D01*
X98817192Y-64776367D01*
X98996067Y-64508662D01*
X99119278Y-64211203D01*
X99182090Y-63895423D01*
X99182090Y-63573457D01*
X99119278Y-63257677D01*
X98996067Y-62960218D01*
X98817192Y-62692513D01*
X98589527Y-62464848D01*
X98321822Y-62285973D01*
X98024363Y-62162762D01*
X97708583Y-62099950D01*
X97386617Y-62099950D01*
X97070837Y-62162762D01*
X96773378Y-62285973D01*
X96505673Y-62464848D01*
X96278008Y-62692513D01*
X96099133Y-62960218D01*
X95975922Y-63257677D01*
X95913110Y-63573457D01*
X95372090Y-63573457D01*
X95309278Y-63257677D01*
X95186067Y-62960218D01*
X95007192Y-62692513D01*
X94779527Y-62464848D01*
X94511822Y-62285973D01*
X94497600Y-62280082D01*
X94497600Y-62174922D01*
X94501276Y-62137599D01*
X94497600Y-62100276D01*
X94497600Y-62100267D01*
X94486603Y-61988614D01*
X94443146Y-61845353D01*
X94397523Y-61760000D01*
X98308359Y-61760000D01*
X99791813Y-63243455D01*
X99785922Y-63257677D01*
X99723110Y-63573457D01*
X99723110Y-63895423D01*
X99785922Y-64211203D01*
X99909133Y-64508662D01*
X100088008Y-64776367D01*
X100315673Y-65004032D01*
X100583378Y-65182907D01*
X100880837Y-65306118D01*
X101196617Y-65368930D01*
X101518583Y-65368930D01*
X101834363Y-65306118D01*
X102131822Y-65182907D01*
X102399527Y-65004032D01*
X102627192Y-64776367D01*
X102806067Y-64508662D01*
X102929278Y-64211203D01*
X102992090Y-63895423D01*
X102992090Y-63573457D01*
X102929278Y-63257677D01*
X102806067Y-62960218D01*
X102627192Y-62692513D01*
X102399527Y-62464848D01*
X102131822Y-62285973D01*
X101834363Y-62162762D01*
X101518583Y-62099950D01*
X101196617Y-62099950D01*
X100880837Y-62162762D01*
X100866615Y-62168653D01*
X99186964Y-60489003D01*
X99163161Y-60459999D01*
X99047436Y-60365026D01*
X98915407Y-60294454D01*
X98772146Y-60250997D01*
X98660493Y-60240000D01*
X98660482Y-60240000D01*
X98623160Y-60236324D01*
X98585838Y-60240000D01*
X96049573Y-60240000D01*
X96119363Y-60226118D01*
X96416822Y-60102907D01*
X96684527Y-59924032D01*
X96912192Y-59696367D01*
X97091067Y-59428662D01*
X97214278Y-59131203D01*
X97277090Y-58815423D01*
X97277090Y-58493457D01*
X97818110Y-58493457D01*
X97818110Y-58815423D01*
X97880922Y-59131203D01*
X98004133Y-59428662D01*
X98183008Y-59696367D01*
X98410673Y-59924032D01*
X98678378Y-60102907D01*
X98975837Y-60226118D01*
X99291617Y-60288930D01*
X99613583Y-60288930D01*
X99929363Y-60226118D01*
X100226822Y-60102907D01*
X100494527Y-59924032D01*
X100722192Y-59696367D01*
X100901067Y-59428662D01*
X101024278Y-59131203D01*
X101087090Y-58815423D01*
X101087090Y-58493457D01*
X101024278Y-58177677D01*
X100901067Y-57880218D01*
X100722192Y-57612513D01*
X100494527Y-57384848D01*
X100226822Y-57205973D01*
X99929363Y-57082762D01*
X99613583Y-57019950D01*
X99291617Y-57019950D01*
X98975837Y-57082762D01*
X98678378Y-57205973D01*
X98410673Y-57384848D01*
X98183008Y-57612513D01*
X98004133Y-57880218D01*
X97880922Y-58177677D01*
X97818110Y-58493457D01*
X97277090Y-58493457D01*
X97214278Y-58177677D01*
X97091067Y-57880218D01*
X96912192Y-57612513D01*
X96684527Y-57384848D01*
X96416822Y-57205973D01*
X96119363Y-57082762D01*
X95803583Y-57019950D01*
X95481617Y-57019950D01*
X95165837Y-57082762D01*
X94868378Y-57205973D01*
X94600673Y-57384848D01*
X94373008Y-57612513D01*
X94194133Y-57880218D01*
X94070922Y-58177677D01*
X94008110Y-58493457D01*
X94008110Y-58815423D01*
X94070922Y-59131203D01*
X94194133Y-59428662D01*
X94373008Y-59696367D01*
X94600673Y-59924032D01*
X94868378Y-60102907D01*
X95165837Y-60226118D01*
X95235627Y-60240000D01*
X92637322Y-60240000D01*
X92600000Y-60236324D01*
X92562678Y-60240000D01*
X92239573Y-60240000D01*
X92309363Y-60226118D01*
X92606822Y-60102907D01*
X92874527Y-59924032D01*
X93102192Y-59696367D01*
X93281067Y-59428662D01*
X93404278Y-59131203D01*
X93467090Y-58815423D01*
X93467090Y-58493457D01*
X93404278Y-58177677D01*
X93281067Y-57880218D01*
X93102192Y-57612513D01*
X92874527Y-57384848D01*
X92703938Y-57270864D01*
X93214802Y-56760000D01*
X100685199Y-56760000D01*
X104936201Y-61011003D01*
X104959999Y-61040001D01*
X104988997Y-61063799D01*
X105075723Y-61134974D01*
X105161859Y-61181015D01*
X105207753Y-61205546D01*
X105351014Y-61249003D01*
X105462667Y-61260000D01*
X105462676Y-61260000D01*
X105499999Y-61263676D01*
X105537322Y-61260000D01*
X107296289Y-61260000D01*
X107340226Y-61303937D01*
X107509744Y-61417205D01*
X107698102Y-61495226D01*
X107898061Y-61535000D01*
X108101939Y-61535000D01*
X108301898Y-61495226D01*
X108490256Y-61417205D01*
X108659774Y-61303937D01*
X108803937Y-61159774D01*
X108917205Y-60990256D01*
X108995226Y-60801898D01*
X109035000Y-60601939D01*
X109035000Y-60398061D01*
X108995226Y-60198102D01*
X108917205Y-60009744D01*
X108803937Y-59840226D01*
X108659774Y-59696063D01*
X108490256Y-59582795D01*
X108301898Y-59504774D01*
X108101939Y-59465000D01*
X107898061Y-59465000D01*
X107698102Y-59504774D01*
X107509744Y-59582795D01*
X107340226Y-59696063D01*
X107296289Y-59740000D01*
X105814802Y-59740000D01*
X102122922Y-56048120D01*
X106622420Y-56048120D01*
X106622420Y-57262799D01*
X106654035Y-57583794D01*
X106778976Y-57995668D01*
X106981869Y-58375254D01*
X107254916Y-58707964D01*
X107587626Y-58981011D01*
X107967211Y-59183904D01*
X108379085Y-59308845D01*
X108807420Y-59351032D01*
X109235754Y-59308845D01*
X109647628Y-59183904D01*
X110027214Y-58981011D01*
X110359924Y-58707964D01*
X110632971Y-58375254D01*
X110835864Y-57995669D01*
X110960805Y-57583795D01*
X110992420Y-57262800D01*
X110992420Y-56048121D01*
X110960805Y-55727126D01*
X110835864Y-55315252D01*
X110632971Y-54935666D01*
X110359924Y-54602956D01*
X110027214Y-54329909D01*
X109647629Y-54127016D01*
X109235755Y-54002075D01*
X108807420Y-53959888D01*
X108379086Y-54002075D01*
X107967212Y-54127016D01*
X107587627Y-54329909D01*
X107254917Y-54602956D01*
X106981870Y-54935666D01*
X106778976Y-55315251D01*
X106654035Y-55727125D01*
X106622420Y-56048120D01*
X102122922Y-56048120D01*
X101563804Y-55489003D01*
X101540001Y-55459999D01*
X101424276Y-55365026D01*
X101292247Y-55294454D01*
X101148986Y-55250997D01*
X101037333Y-55240000D01*
X101037322Y-55240000D01*
X101000000Y-55236324D01*
X100962678Y-55240000D01*
X92937333Y-55240000D01*
X92900000Y-55236323D01*
X92862667Y-55240000D01*
X92751014Y-55250997D01*
X92607753Y-55294454D01*
X92475724Y-55365026D01*
X92359999Y-55459999D01*
X92336201Y-55488997D01*
X91321598Y-56503601D01*
X91292600Y-56527399D01*
X91268802Y-56556397D01*
X91268801Y-56556398D01*
X91197626Y-56643124D01*
X91127054Y-56775154D01*
X91083598Y-56918415D01*
X91068924Y-57067400D01*
X91072601Y-57104732D01*
X91072601Y-57200082D01*
X91058378Y-57205973D01*
X90790673Y-57384848D01*
X90563008Y-57612513D01*
X90384133Y-57880218D01*
X90260922Y-58177677D01*
X90198110Y-58493457D01*
X90198110Y-58815423D01*
X90260922Y-59131203D01*
X90384133Y-59428662D01*
X90563008Y-59696367D01*
X90790673Y-59924032D01*
X91058378Y-60102907D01*
X91355837Y-60226118D01*
X91425627Y-60240000D01*
X88429573Y-60240000D01*
X88499363Y-60226118D01*
X88796822Y-60102907D01*
X89064527Y-59924032D01*
X89292192Y-59696367D01*
X89471067Y-59428662D01*
X89594278Y-59131203D01*
X89657090Y-58815423D01*
X89657090Y-58493457D01*
X89594278Y-58177677D01*
X89471067Y-57880218D01*
X89292192Y-57612513D01*
X89064527Y-57384848D01*
X88796822Y-57205973D01*
X88499363Y-57082762D01*
X88183583Y-57019950D01*
X87861617Y-57019950D01*
X87545837Y-57082762D01*
X87248378Y-57205973D01*
X86980673Y-57384848D01*
X86753008Y-57612513D01*
X86574133Y-57880218D01*
X86450922Y-58177677D01*
X86388110Y-58493457D01*
X86388110Y-58815423D01*
X86450922Y-59131203D01*
X86574133Y-59428662D01*
X86753008Y-59696367D01*
X86980673Y-59924032D01*
X87248378Y-60102907D01*
X87545837Y-60226118D01*
X87615627Y-60240000D01*
X85247322Y-60240000D01*
X85210000Y-60236324D01*
X85172678Y-60240000D01*
X84619573Y-60240000D01*
X84689363Y-60226118D01*
X84986822Y-60102907D01*
X85254527Y-59924032D01*
X85482192Y-59696367D01*
X85661067Y-59428662D01*
X85784278Y-59131203D01*
X85847090Y-58815423D01*
X85847090Y-58493457D01*
X85784278Y-58177677D01*
X85661067Y-57880218D01*
X85482192Y-57612513D01*
X85254527Y-57384848D01*
X84986822Y-57205973D01*
X84689363Y-57082762D01*
X84373583Y-57019950D01*
X84051617Y-57019950D01*
X83735837Y-57082762D01*
X83438378Y-57205973D01*
X83170673Y-57384848D01*
X82943008Y-57612513D01*
X82764133Y-57880218D01*
X82640922Y-58177677D01*
X82578110Y-58493457D01*
X82578110Y-58815423D01*
X82640922Y-59131203D01*
X82764133Y-59428662D01*
X82943008Y-59696367D01*
X83170673Y-59924032D01*
X83438378Y-60102907D01*
X83735837Y-60226118D01*
X83805627Y-60240000D01*
X80809573Y-60240000D01*
X80879363Y-60226118D01*
X81176822Y-60102907D01*
X81444527Y-59924032D01*
X81672192Y-59696367D01*
X81851067Y-59428662D01*
X81974278Y-59131203D01*
X82037090Y-58815423D01*
X82037090Y-58493457D01*
X81974278Y-58177677D01*
X81851067Y-57880218D01*
X81672192Y-57612513D01*
X81444527Y-57384848D01*
X81176822Y-57205973D01*
X80879363Y-57082762D01*
X80563583Y-57019950D01*
X80241617Y-57019950D01*
X79925837Y-57082762D01*
X79628378Y-57205973D01*
X79360673Y-57384848D01*
X79133008Y-57612513D01*
X78954133Y-57880218D01*
X78830922Y-58177677D01*
X78768110Y-58493457D01*
X78768110Y-58815423D01*
X78830922Y-59131203D01*
X78954133Y-59428662D01*
X79133008Y-59696367D01*
X79360673Y-59924032D01*
X79628378Y-60102907D01*
X79925837Y-60226118D01*
X79995627Y-60240000D01*
X77657322Y-60240000D01*
X77620000Y-60236324D01*
X77582678Y-60240000D01*
X77537333Y-60240000D01*
X77500000Y-60236323D01*
X77462667Y-60240000D01*
X76999573Y-60240000D01*
X77069363Y-60226118D01*
X77366822Y-60102907D01*
X77634527Y-59924032D01*
X77862192Y-59696367D01*
X78041067Y-59428662D01*
X78164278Y-59131203D01*
X78227090Y-58815423D01*
X78227090Y-58493457D01*
X78164278Y-58177677D01*
X78041067Y-57880218D01*
X77862192Y-57612513D01*
X77634527Y-57384848D01*
X77366822Y-57205973D01*
X77069363Y-57082762D01*
X76753583Y-57019950D01*
X76431617Y-57019950D01*
X76115837Y-57082762D01*
X75818378Y-57205973D01*
X75550673Y-57384848D01*
X75323008Y-57612513D01*
X75144133Y-57880218D01*
X75020922Y-58177677D01*
X74958110Y-58493457D01*
X74958110Y-58815423D01*
X75020922Y-59131203D01*
X75144133Y-59428662D01*
X75323008Y-59696367D01*
X75550673Y-59924032D01*
X75818378Y-60102907D01*
X76115837Y-60226118D01*
X76185627Y-60240000D01*
X73189573Y-60240000D01*
X73259363Y-60226118D01*
X73556822Y-60102907D01*
X73824527Y-59924032D01*
X74052192Y-59696367D01*
X74231067Y-59428662D01*
X74354278Y-59131203D01*
X74417090Y-58815423D01*
X74417090Y-58493457D01*
X74354278Y-58177677D01*
X74231067Y-57880218D01*
X74052192Y-57612513D01*
X73824527Y-57384848D01*
X73556822Y-57205973D01*
X73259363Y-57082762D01*
X72943583Y-57019950D01*
X72621617Y-57019950D01*
X72305837Y-57082762D01*
X72008378Y-57205973D01*
X71740673Y-57384848D01*
X71513008Y-57612513D01*
X71334133Y-57880218D01*
X71210922Y-58177677D01*
X71148110Y-58493457D01*
X71148110Y-58815423D01*
X71210922Y-59131203D01*
X71334133Y-59428662D01*
X71513008Y-59696367D01*
X71740673Y-59924032D01*
X72008378Y-60102907D01*
X72305837Y-60226118D01*
X72375627Y-60240000D01*
X71797322Y-60240000D01*
X71759999Y-60236324D01*
X71722676Y-60240000D01*
X71722667Y-60240000D01*
X71611014Y-60250997D01*
X71485964Y-60288930D01*
X71467753Y-60294454D01*
X71335723Y-60365026D01*
X71252083Y-60433668D01*
X71219999Y-60459999D01*
X71196201Y-60488997D01*
X70366598Y-61318601D01*
X70337600Y-61342399D01*
X70313802Y-61371397D01*
X70313801Y-61371398D01*
X70242626Y-61458124D01*
X70172054Y-61590154D01*
X70142699Y-61686929D01*
X70128598Y-61733414D01*
X70122231Y-61798061D01*
X70113924Y-61882400D01*
X70117601Y-61919732D01*
X70117601Y-62280082D01*
X70103378Y-62285973D01*
X69835673Y-62464848D01*
X69608008Y-62692513D01*
X69429133Y-62960218D01*
X69305922Y-63257677D01*
X69243110Y-63573457D01*
X68702090Y-63573457D01*
X68639278Y-63257677D01*
X68516067Y-62960218D01*
X68337192Y-62692513D01*
X68109527Y-62464848D01*
X67841822Y-62285973D01*
X67544363Y-62162762D01*
X67228583Y-62099950D01*
X66906617Y-62099950D01*
X66590837Y-62162762D01*
X66293378Y-62285973D01*
X66025673Y-62464848D01*
X65798008Y-62692513D01*
X65619133Y-62960218D01*
X65495922Y-63257677D01*
X65433110Y-63573457D01*
X64892090Y-63573457D01*
X64829278Y-63257677D01*
X64706067Y-62960218D01*
X64527192Y-62692513D01*
X64299527Y-62464848D01*
X64031822Y-62285973D01*
X63734363Y-62162762D01*
X63418583Y-62099950D01*
X63096617Y-62099950D01*
X62780837Y-62162762D01*
X62483378Y-62285973D01*
X62215673Y-62464848D01*
X61988008Y-62692513D01*
X61809133Y-62960218D01*
X61685922Y-63257677D01*
X61623110Y-63573457D01*
X50456139Y-63573457D01*
X50449003Y-63501014D01*
X50405546Y-63357753D01*
X50380100Y-63310147D01*
X50334974Y-63225723D01*
X50263799Y-63138997D01*
X50240001Y-63109999D01*
X50211004Y-63086202D01*
X47473794Y-60348993D01*
X47449991Y-60319989D01*
X47334266Y-60225016D01*
X47202237Y-60154444D01*
X47058976Y-60110987D01*
X46947323Y-60099990D01*
X46947312Y-60099990D01*
X46909990Y-60096314D01*
X46872668Y-60099990D01*
X18787332Y-60099990D01*
X18750009Y-60096314D01*
X18712686Y-60099990D01*
X18712677Y-60099990D01*
X18601024Y-60110987D01*
X18457763Y-60154444D01*
X18325734Y-60225016D01*
X18210009Y-60319989D01*
X18186211Y-60348987D01*
X17670199Y-60865000D01*
X17608061Y-60865000D01*
X17408102Y-60904774D01*
X17219744Y-60982795D01*
X17050226Y-61096063D01*
X16906063Y-61240226D01*
X16792795Y-61409744D01*
X16714774Y-61598102D01*
X16675000Y-61798061D01*
X16675000Y-62001939D01*
X16714774Y-62201898D01*
X16792795Y-62390256D01*
X16906063Y-62559774D01*
X17050226Y-62703937D01*
X17219744Y-62817205D01*
X17408102Y-62895226D01*
X17608061Y-62935000D01*
X17811939Y-62935000D01*
X18011898Y-62895226D01*
X18200256Y-62817205D01*
X18369774Y-62703937D01*
X18513937Y-62559774D01*
X18627205Y-62390256D01*
X18705226Y-62201898D01*
X18745000Y-62001939D01*
X18745000Y-61939801D01*
X19064812Y-61619990D01*
X24594398Y-61619990D01*
X24555000Y-61818061D01*
X24555000Y-62021939D01*
X24594774Y-62221898D01*
X24672795Y-62410256D01*
X24786063Y-62579774D01*
X24930226Y-62723937D01*
X25099744Y-62837205D01*
X25288102Y-62915226D01*
X25488061Y-62955000D01*
X25691939Y-62955000D01*
X25891898Y-62915226D01*
X26080256Y-62837205D01*
X26249774Y-62723937D01*
X26393937Y-62579774D01*
X26507205Y-62410256D01*
X26585226Y-62221898D01*
X26615440Y-62070000D01*
X26821865Y-62070000D01*
X26730147Y-62291426D01*
X26675000Y-62568665D01*
X26675000Y-62851335D01*
X26730147Y-63128574D01*
X26785647Y-63262562D01*
X26546426Y-63310147D01*
X26285273Y-63418320D01*
X26050241Y-63575363D01*
X25850363Y-63775241D01*
X25693320Y-64010273D01*
X25585147Y-64271426D01*
X25530000Y-64548665D01*
X25530000Y-64831335D01*
X25585147Y-65108574D01*
X25693320Y-65369727D01*
X25850363Y-65604759D01*
X26050241Y-65804637D01*
X26285273Y-65961680D01*
X26546426Y-66069853D01*
X26671928Y-66094817D01*
X26671928Y-67470000D01*
X26684188Y-67594482D01*
X26720498Y-67714180D01*
X26779463Y-67824494D01*
X26858815Y-67921185D01*
X26955506Y-68000537D01*
X27065820Y-68059502D01*
X27185518Y-68095812D01*
X27310000Y-68108072D01*
X27348104Y-68108072D01*
X27350001Y-68127333D01*
X27360998Y-68238986D01*
X27364642Y-68250998D01*
X27404454Y-68382246D01*
X27475026Y-68514276D01*
X27531259Y-68582795D01*
X27570000Y-68630001D01*
X27598998Y-68653799D01*
X29856220Y-70911022D01*
X29880019Y-70940021D01*
X29995744Y-71034994D01*
X30112176Y-71097229D01*
X29929744Y-71172795D01*
X29760226Y-71286063D01*
X29616063Y-71430226D01*
X29502795Y-71599744D01*
X29424774Y-71788102D01*
X29385000Y-71988061D01*
X29385000Y-72191939D01*
X29394560Y-72240000D01*
X28123711Y-72240000D01*
X28079774Y-72196063D01*
X27910256Y-72082795D01*
X27721898Y-72004774D01*
X27521939Y-71965000D01*
X27318061Y-71965000D01*
X27118102Y-72004774D01*
X26929744Y-72082795D01*
X26760226Y-72196063D01*
X26716289Y-72240000D01*
X10314802Y-72240000D01*
X8035000Y-69960199D01*
X8035000Y-69898061D01*
X7995226Y-69698102D01*
X7917205Y-69509744D01*
X7803937Y-69340226D01*
X7659774Y-69196063D01*
X7490256Y-69082795D01*
X7301898Y-69004774D01*
X7101939Y-68965000D01*
X6898061Y-68965000D01*
X6698102Y-69004774D01*
X6509744Y-69082795D01*
X6340226Y-69196063D01*
X6196063Y-69340226D01*
X6082795Y-69509744D01*
X6004774Y-69698102D01*
X5965000Y-69898061D01*
X5965000Y-70101939D01*
X6004774Y-70301898D01*
X6082795Y-70490256D01*
X6196063Y-70659774D01*
X6340226Y-70803937D01*
X6509744Y-70917205D01*
X6698102Y-70995226D01*
X6898061Y-71035000D01*
X6960199Y-71035000D01*
X9436201Y-73511003D01*
X9459999Y-73540001D01*
X9575724Y-73634974D01*
X9707753Y-73705546D01*
X9851014Y-73749003D01*
X9962667Y-73760000D01*
X9962675Y-73760000D01*
X10000000Y-73763676D01*
X10037325Y-73760000D01*
X26716289Y-73760000D01*
X26760226Y-73803937D01*
X26929744Y-73917205D01*
X27118102Y-73995226D01*
X27318061Y-74035000D01*
X27521939Y-74035000D01*
X27721898Y-73995226D01*
X27910256Y-73917205D01*
X28079774Y-73803937D01*
X28123711Y-73760000D01*
X34885198Y-73760000D01*
X32943886Y-75701312D01*
X32761335Y-75665000D01*
X32478665Y-75665000D01*
X32201426Y-75720147D01*
X31940273Y-75828320D01*
X31705241Y-75985363D01*
X31505363Y-76185241D01*
X31348320Y-76420273D01*
X31240147Y-76681426D01*
X31185000Y-76958665D01*
X31185000Y-77241335D01*
X31240147Y-77518574D01*
X31348320Y-77779727D01*
X31505363Y-78014759D01*
X31705241Y-78214637D01*
X31937759Y-78370000D01*
X31705241Y-78525363D01*
X31505363Y-78725241D01*
X31348320Y-78960273D01*
X31240147Y-79221426D01*
X31185000Y-79498665D01*
X31185000Y-79781335D01*
X31240147Y-80058574D01*
X31348320Y-80319727D01*
X31505363Y-80554759D01*
X31705241Y-80754637D01*
X31937759Y-80910000D01*
X31705241Y-81065363D01*
X31505363Y-81265241D01*
X31348320Y-81500273D01*
X31240147Y-81761426D01*
X31185000Y-82038665D01*
X31185000Y-82321335D01*
X31240147Y-82598574D01*
X31348320Y-82859727D01*
X31505363Y-83094759D01*
X31705241Y-83294637D01*
X31937759Y-83450000D01*
X31705241Y-83605363D01*
X31505363Y-83805241D01*
X31348320Y-84040273D01*
X31240147Y-84301426D01*
X31185000Y-84578665D01*
X31185000Y-84861335D01*
X31240147Y-85138574D01*
X31348320Y-85399727D01*
X31505363Y-85634759D01*
X31705241Y-85834637D01*
X31940273Y-85991680D01*
X32201426Y-86099853D01*
X32403256Y-86140000D01*
X27494802Y-86140000D01*
X26398688Y-85043886D01*
X26435000Y-84861335D01*
X26435000Y-84578665D01*
X26379853Y-84301426D01*
X26271680Y-84040273D01*
X26114637Y-83805241D01*
X25914759Y-83605363D01*
X25682241Y-83450000D01*
X25914759Y-83294637D01*
X26114637Y-83094759D01*
X26218043Y-82940000D01*
X29092678Y-82940000D01*
X29130000Y-82943676D01*
X29167322Y-82940000D01*
X29167333Y-82940000D01*
X29278986Y-82929003D01*
X29422247Y-82885546D01*
X29554276Y-82814974D01*
X29670001Y-82720001D01*
X29693803Y-82690998D01*
X30459802Y-81925000D01*
X30521939Y-81925000D01*
X30721898Y-81885226D01*
X30910256Y-81807205D01*
X31079774Y-81693937D01*
X31223937Y-81549774D01*
X31337205Y-81380256D01*
X31415226Y-81191898D01*
X31455000Y-80991939D01*
X31455000Y-80788061D01*
X31415226Y-80588102D01*
X31337205Y-80399744D01*
X31223937Y-80230226D01*
X31079774Y-80086063D01*
X30910256Y-79972795D01*
X30721898Y-79894774D01*
X30521939Y-79855000D01*
X30318061Y-79855000D01*
X30118102Y-79894774D01*
X29929744Y-79972795D01*
X29760226Y-80086063D01*
X29616063Y-80230226D01*
X29502795Y-80399744D01*
X29424774Y-80588102D01*
X29385000Y-80788061D01*
X29385000Y-80850198D01*
X28815199Y-81420000D01*
X26218043Y-81420000D01*
X26114637Y-81265241D01*
X25914759Y-81065363D01*
X25682241Y-80910000D01*
X25914759Y-80754637D01*
X26114637Y-80554759D01*
X26271680Y-80319727D01*
X26379853Y-80058574D01*
X26435000Y-79781335D01*
X26435000Y-79498665D01*
X26379853Y-79221426D01*
X26271680Y-78960273D01*
X26114637Y-78725241D01*
X25916039Y-78526643D01*
X25924482Y-78525812D01*
X26044180Y-78489502D01*
X26154494Y-78430537D01*
X26251185Y-78351185D01*
X26330537Y-78254494D01*
X26389502Y-78144180D01*
X26425812Y-78024482D01*
X26438072Y-77900000D01*
X26438072Y-76300000D01*
X26425812Y-76175518D01*
X26389502Y-76055820D01*
X26330537Y-75945506D01*
X26251185Y-75848815D01*
X26154494Y-75769463D01*
X26044180Y-75710498D01*
X25924482Y-75674188D01*
X25800000Y-75661928D01*
X24200000Y-75661928D01*
X24075518Y-75674188D01*
X23955820Y-75710498D01*
X23845506Y-75769463D01*
X23748815Y-75848815D01*
X23669463Y-75945506D01*
X23610498Y-76055820D01*
X23574188Y-76175518D01*
X23561928Y-76300000D01*
X23561928Y-77900000D01*
X23574188Y-78024482D01*
X23610498Y-78144180D01*
X23669463Y-78254494D01*
X23748815Y-78351185D01*
X23845506Y-78430537D01*
X23955820Y-78489502D01*
X24075518Y-78525812D01*
X24083961Y-78526643D01*
X23885363Y-78725241D01*
X23808684Y-78840000D01*
X22218043Y-78840000D01*
X22114637Y-78685241D01*
X21914759Y-78485363D01*
X21679727Y-78328320D01*
X21418574Y-78220147D01*
X21141335Y-78165000D01*
X20858665Y-78165000D01*
X20581426Y-78220147D01*
X20320273Y-78328320D01*
X20085241Y-78485363D01*
X19885363Y-78685241D01*
X19750000Y-78887827D01*
X19614637Y-78685241D01*
X19414759Y-78485363D01*
X19179727Y-78328320D01*
X18918574Y-78220147D01*
X18641335Y-78165000D01*
X18358665Y-78165000D01*
X18081426Y-78220147D01*
X17820273Y-78328320D01*
X17585241Y-78485363D01*
X17385363Y-78685241D01*
X17228320Y-78920273D01*
X17120147Y-79181426D01*
X17065000Y-79458665D01*
X17065000Y-79741335D01*
X17120147Y-80018574D01*
X17228320Y-80279727D01*
X17385363Y-80514759D01*
X17585241Y-80714637D01*
X17820273Y-80871680D01*
X18081426Y-80979853D01*
X18358665Y-81035000D01*
X18641335Y-81035000D01*
X18918574Y-80979853D01*
X19179727Y-80871680D01*
X19414759Y-80714637D01*
X19614637Y-80514759D01*
X19750000Y-80312173D01*
X19885363Y-80514759D01*
X20085241Y-80714637D01*
X20320273Y-80871680D01*
X20581426Y-80979853D01*
X20858665Y-81035000D01*
X21141335Y-81035000D01*
X21418574Y-80979853D01*
X21679727Y-80871680D01*
X21914759Y-80714637D01*
X22114637Y-80514759D01*
X22218043Y-80360000D01*
X23755229Y-80360000D01*
X23885363Y-80554759D01*
X24085241Y-80754637D01*
X24317759Y-80910000D01*
X24085241Y-81065363D01*
X23885363Y-81265241D01*
X23728320Y-81500273D01*
X23620147Y-81761426D01*
X23565000Y-82038665D01*
X23565000Y-82321335D01*
X23620147Y-82598574D01*
X23728320Y-82859727D01*
X23885363Y-83094759D01*
X24085241Y-83294637D01*
X24317759Y-83450000D01*
X24085241Y-83605363D01*
X23885363Y-83805241D01*
X23781957Y-83960000D01*
X10009140Y-83960000D01*
X9976094Y-83793865D01*
X9664389Y-83041343D01*
X9211864Y-82364091D01*
X8635909Y-81788136D01*
X7958657Y-81335611D01*
X7206135Y-81023906D01*
X6407262Y-80865000D01*
X5592738Y-80865000D01*
X4793865Y-81023906D01*
X4041343Y-81335611D01*
X3364091Y-81788136D01*
X2788136Y-82364091D01*
X2335611Y-83041343D01*
X2023906Y-83793865D01*
X1865000Y-84592738D01*
X660000Y-84592738D01*
X660000Y-64990475D01*
X17290000Y-64990475D01*
X17290000Y-65509525D01*
X17391261Y-66018601D01*
X17589893Y-66498141D01*
X17878262Y-66929715D01*
X18245285Y-67296738D01*
X18676859Y-67585107D01*
X19156399Y-67783739D01*
X19665475Y-67885000D01*
X20184525Y-67885000D01*
X20693601Y-67783739D01*
X21173141Y-67585107D01*
X21604715Y-67296738D01*
X21971738Y-66929715D01*
X22260107Y-66498141D01*
X22458739Y-66018601D01*
X22560000Y-65509525D01*
X22560000Y-64990475D01*
X22458739Y-64481399D01*
X22260107Y-64001859D01*
X21971738Y-63570285D01*
X21604715Y-63203262D01*
X21173141Y-62914893D01*
X20693601Y-62716261D01*
X20184525Y-62615000D01*
X19665475Y-62615000D01*
X19156399Y-62716261D01*
X18676859Y-62914893D01*
X18245285Y-63203262D01*
X17878262Y-63570285D01*
X17589893Y-64001859D01*
X17391261Y-64481399D01*
X17290000Y-64990475D01*
X660000Y-64990475D01*
X660000Y-52027089D01*
X695710Y-51592738D01*
X1865000Y-51592738D01*
X1865000Y-52407262D01*
X2023906Y-53206135D01*
X2335611Y-53958657D01*
X2788136Y-54635909D01*
X3364091Y-55211864D01*
X4041343Y-55664389D01*
X4793865Y-55976094D01*
X5592738Y-56135000D01*
X6407262Y-56135000D01*
X6844036Y-56048120D01*
X53622780Y-56048120D01*
X53622780Y-57262799D01*
X53654395Y-57583794D01*
X53779336Y-57995668D01*
X53982229Y-58375254D01*
X54255276Y-58707964D01*
X54587986Y-58981011D01*
X54967571Y-59183904D01*
X55379445Y-59308845D01*
X55807780Y-59351032D01*
X56236114Y-59308845D01*
X56647988Y-59183904D01*
X57027574Y-58981011D01*
X57360284Y-58707964D01*
X57536324Y-58493457D01*
X63528110Y-58493457D01*
X63528110Y-58815423D01*
X63590922Y-59131203D01*
X63714133Y-59428662D01*
X63893008Y-59696367D01*
X64120673Y-59924032D01*
X64388378Y-60102907D01*
X64685837Y-60226118D01*
X65001617Y-60288930D01*
X65323583Y-60288930D01*
X65639363Y-60226118D01*
X65936822Y-60102907D01*
X66204527Y-59924032D01*
X66432192Y-59696367D01*
X66611067Y-59428662D01*
X66734278Y-59131203D01*
X66797090Y-58815423D01*
X66797090Y-58493457D01*
X67338110Y-58493457D01*
X67338110Y-58815423D01*
X67400922Y-59131203D01*
X67524133Y-59428662D01*
X67703008Y-59696367D01*
X67930673Y-59924032D01*
X68198378Y-60102907D01*
X68495837Y-60226118D01*
X68811617Y-60288930D01*
X69133583Y-60288930D01*
X69449363Y-60226118D01*
X69746822Y-60102907D01*
X70014527Y-59924032D01*
X70242192Y-59696367D01*
X70421067Y-59428662D01*
X70544278Y-59131203D01*
X70607090Y-58815423D01*
X70607090Y-58493457D01*
X70544278Y-58177677D01*
X70421067Y-57880218D01*
X70242192Y-57612513D01*
X70014527Y-57384848D01*
X69746822Y-57205973D01*
X69449363Y-57082762D01*
X69133583Y-57019950D01*
X68811617Y-57019950D01*
X68495837Y-57082762D01*
X68198378Y-57205973D01*
X67930673Y-57384848D01*
X67703008Y-57612513D01*
X67524133Y-57880218D01*
X67400922Y-58177677D01*
X67338110Y-58493457D01*
X66797090Y-58493457D01*
X66734278Y-58177677D01*
X66611067Y-57880218D01*
X66432192Y-57612513D01*
X66204527Y-57384848D01*
X65936822Y-57205973D01*
X65639363Y-57082762D01*
X65323583Y-57019950D01*
X65001617Y-57019950D01*
X64685837Y-57082762D01*
X64388378Y-57205973D01*
X64120673Y-57384848D01*
X63893008Y-57612513D01*
X63714133Y-57880218D01*
X63590922Y-58177677D01*
X63528110Y-58493457D01*
X57536324Y-58493457D01*
X57633331Y-58375254D01*
X57836224Y-57995669D01*
X57961165Y-57583795D01*
X57992780Y-57262800D01*
X57992780Y-56048121D01*
X57961165Y-55727126D01*
X57836224Y-55315252D01*
X57633331Y-54935666D01*
X57360284Y-54602956D01*
X57027574Y-54329909D01*
X56647989Y-54127016D01*
X56236115Y-54002075D01*
X55807780Y-53959888D01*
X55379446Y-54002075D01*
X54967572Y-54127016D01*
X54587987Y-54329909D01*
X54255277Y-54602956D01*
X53982230Y-54935666D01*
X53779336Y-55315251D01*
X53654395Y-55727125D01*
X53622780Y-56048120D01*
X6844036Y-56048120D01*
X7206135Y-55976094D01*
X7958657Y-55664389D01*
X8635909Y-55211864D01*
X9211864Y-54635909D01*
X9664389Y-53958657D01*
X9976094Y-53206135D01*
X10135000Y-52407262D01*
X10135000Y-51592738D01*
X114865000Y-51592738D01*
X114865000Y-52407262D01*
X115023906Y-53206135D01*
X115335611Y-53958657D01*
X115788136Y-54635909D01*
X116364091Y-55211864D01*
X117041343Y-55664389D01*
X117793865Y-55976094D01*
X118592738Y-56135000D01*
X119407262Y-56135000D01*
X120206135Y-55976094D01*
X120958657Y-55664389D01*
X121635909Y-55211864D01*
X122211864Y-54635909D01*
X122664389Y-53958657D01*
X122976094Y-53206135D01*
X123135000Y-52407262D01*
X123135000Y-51592738D01*
X122976094Y-50793865D01*
X122664389Y-50041343D01*
X122211864Y-49364091D01*
X121635909Y-48788136D01*
X120958657Y-48335611D01*
X120206135Y-48023906D01*
X119407262Y-47865000D01*
X118592738Y-47865000D01*
X117793865Y-48023906D01*
X117041343Y-48335611D01*
X116364091Y-48788136D01*
X115788136Y-49364091D01*
X115335611Y-50041343D01*
X115023906Y-50793865D01*
X114865000Y-51592738D01*
X10135000Y-51592738D01*
X9976094Y-50793865D01*
X9664389Y-50041343D01*
X9211864Y-49364091D01*
X8635909Y-48788136D01*
X7958657Y-48335611D01*
X7206135Y-48023906D01*
X6407262Y-47865000D01*
X5592738Y-47865000D01*
X4793865Y-48023906D01*
X4041343Y-48335611D01*
X3364091Y-48788136D01*
X2788136Y-49364091D01*
X2335611Y-50041343D01*
X2023906Y-50793865D01*
X1865000Y-51592738D01*
X695710Y-51592738D01*
X733902Y-51128203D01*
X947001Y-50279818D01*
X1295803Y-49477629D01*
X1770938Y-48743182D01*
X2359646Y-48096202D01*
X3046125Y-47554054D01*
X3811928Y-47131308D01*
X4636491Y-46839316D01*
X5509076Y-46683884D01*
X6015547Y-46660000D01*
X118972911Y-46660000D01*
X119871797Y-46733902D01*
G37*
X119871797Y-46733902D02*
X120720182Y-46947001D01*
X121522371Y-47295803D01*
X122256818Y-47770938D01*
X122903798Y-48359646D01*
X123445946Y-49046125D01*
X123868692Y-49811928D01*
X124160684Y-50636491D01*
X124316116Y-51509076D01*
X124340000Y-52015547D01*
X124340001Y-84972899D01*
X124266098Y-85871802D01*
X124052999Y-86720180D01*
X123704197Y-87522371D01*
X123229062Y-88256818D01*
X122640354Y-88903799D01*
X121953875Y-89445946D01*
X121188076Y-89868691D01*
X120363514Y-90160683D01*
X119490925Y-90316116D01*
X118984453Y-90340000D01*
X6027089Y-90340000D01*
X5128198Y-90266098D01*
X4279820Y-90052999D01*
X3477629Y-89704197D01*
X2743182Y-89229062D01*
X2096201Y-88640354D01*
X1554054Y-87953875D01*
X1131309Y-87188076D01*
X839317Y-86363514D01*
X683884Y-85490925D01*
X660000Y-84984453D01*
X660000Y-84592738D01*
X1865000Y-84592738D01*
X1865000Y-85407262D01*
X2023906Y-86206135D01*
X2335611Y-86958657D01*
X2788136Y-87635909D01*
X3364091Y-88211864D01*
X4041343Y-88664389D01*
X4793865Y-88976094D01*
X5592738Y-89135000D01*
X6407262Y-89135000D01*
X7206135Y-88976094D01*
X7958657Y-88664389D01*
X8635909Y-88211864D01*
X9211864Y-87635909D01*
X9664389Y-86958657D01*
X9976094Y-86206135D01*
X10120531Y-85480000D01*
X23781957Y-85480000D01*
X23885363Y-85634759D01*
X24085241Y-85834637D01*
X24320273Y-85991680D01*
X24581426Y-86099853D01*
X24858665Y-86155000D01*
X25141335Y-86155000D01*
X25323886Y-86118688D01*
X26616201Y-87411003D01*
X26639999Y-87440001D01*
X26668997Y-87463799D01*
X26755724Y-87534974D01*
X26887753Y-87605546D01*
X27031014Y-87649003D01*
X27180000Y-87663677D01*
X27217333Y-87660000D01*
X39362678Y-87660000D01*
X39400000Y-87663676D01*
X39437322Y-87660000D01*
X39437333Y-87660000D01*
X39548986Y-87649003D01*
X39692247Y-87605546D01*
X39824276Y-87534974D01*
X39940001Y-87440001D01*
X39963804Y-87410997D01*
X42611004Y-84763798D01*
X42640001Y-84740001D01*
X42734974Y-84624276D01*
X42805546Y-84492247D01*
X42849003Y-84348986D01*
X42860000Y-84237333D01*
X42860000Y-84237332D01*
X42863677Y-84200000D01*
X42860000Y-84162667D01*
X42860000Y-83297775D01*
X42951013Y-83236962D01*
X43136962Y-83051013D01*
X43197775Y-82960000D01*
X57116033Y-82960000D01*
X57082795Y-83009744D01*
X57004774Y-83198102D01*
X56965000Y-83398061D01*
X56965000Y-83601939D01*
X57004774Y-83801898D01*
X57082795Y-83990256D01*
X57196063Y-84159774D01*
X57340226Y-84303937D01*
X57509744Y-84417205D01*
X57698102Y-84495226D01*
X57898061Y-84535000D01*
X58101939Y-84535000D01*
X58301898Y-84495226D01*
X58490256Y-84417205D01*
X58659774Y-84303937D01*
X58703711Y-84260000D01*
X81462678Y-84260000D01*
X81500000Y-84263676D01*
X81537322Y-84260000D01*
X81537333Y-84260000D01*
X81648986Y-84249003D01*
X81792247Y-84205546D01*
X81924276Y-84134974D01*
X82040001Y-84040001D01*
X82044105Y-84035000D01*
X82101939Y-84035000D01*
X82301898Y-83995226D01*
X82490256Y-83917205D01*
X82659774Y-83803937D01*
X82803937Y-83659774D01*
X82917205Y-83490256D01*
X82955393Y-83398061D01*
X101465000Y-83398061D01*
X101465000Y-83601939D01*
X101504774Y-83801898D01*
X101582795Y-83990256D01*
X101696063Y-84159774D01*
X101840226Y-84303937D01*
X102009744Y-84417205D01*
X102198102Y-84495226D01*
X102398061Y-84535000D01*
X102455895Y-84535000D01*
X102459999Y-84540001D01*
X102575724Y-84634974D01*
X102707753Y-84705546D01*
X102851014Y-84749003D01*
X102962667Y-84760000D01*
X102962675Y-84760000D01*
X103000000Y-84763676D01*
X103037325Y-84760000D01*
X114865000Y-84760000D01*
X114865000Y-85407262D01*
X115023906Y-86206135D01*
X115335611Y-86958657D01*
X115788136Y-87635909D01*
X116364091Y-88211864D01*
X117041343Y-88664389D01*
X117793865Y-88976094D01*
X118592738Y-89135000D01*
X119407262Y-89135000D01*
X120206135Y-88976094D01*
X120958657Y-88664389D01*
X121635909Y-88211864D01*
X122211864Y-87635909D01*
X122664389Y-86958657D01*
X122976094Y-86206135D01*
X123135000Y-85407262D01*
X123135000Y-84592738D01*
X122976094Y-83793865D01*
X122664389Y-83041343D01*
X122211864Y-82364091D01*
X121635909Y-81788136D01*
X120958657Y-81335611D01*
X120206135Y-81023906D01*
X119407262Y-80865000D01*
X118592738Y-80865000D01*
X117793865Y-81023906D01*
X117041343Y-81335611D01*
X116364091Y-81788136D01*
X115788136Y-82364091D01*
X115335611Y-83041343D01*
X115253325Y-83240000D01*
X103503560Y-83240000D01*
X103495226Y-83198102D01*
X103417205Y-83009744D01*
X103303937Y-82840226D01*
X103159774Y-82696063D01*
X102990256Y-82582795D01*
X102801898Y-82504774D01*
X102601939Y-82465000D01*
X102398061Y-82465000D01*
X102198102Y-82504774D01*
X102009744Y-82582795D01*
X101840226Y-82696063D01*
X101696063Y-82840226D01*
X101582795Y-83009744D01*
X101504774Y-83198102D01*
X101465000Y-83398061D01*
X82955393Y-83398061D01*
X82995226Y-83301898D01*
X83035000Y-83101939D01*
X83035000Y-82898061D01*
X82995226Y-82698102D01*
X82917205Y-82509744D01*
X82803937Y-82340226D01*
X82723711Y-82260000D01*
X90796289Y-82260000D01*
X90840226Y-82303937D01*
X91009744Y-82417205D01*
X91198102Y-82495226D01*
X91398061Y-82535000D01*
X91601939Y-82535000D01*
X91801898Y-82495226D01*
X91990256Y-82417205D01*
X92159774Y-82303937D01*
X92303937Y-82159774D01*
X92417205Y-81990256D01*
X92495226Y-81801898D01*
X92535000Y-81601939D01*
X92535000Y-81398061D01*
X92495226Y-81198102D01*
X92417205Y-81009744D01*
X92303937Y-80840226D01*
X92159774Y-80696063D01*
X92045937Y-80620000D01*
X98156289Y-80620000D01*
X98200226Y-80663937D01*
X98369744Y-80777205D01*
X98558102Y-80855226D01*
X98758061Y-80895000D01*
X98961939Y-80895000D01*
X99161898Y-80855226D01*
X99350256Y-80777205D01*
X99519774Y-80663937D01*
X99663937Y-80519774D01*
X99777205Y-80350256D01*
X99855226Y-80161898D01*
X99895000Y-79961939D01*
X99895000Y-79758061D01*
X99855226Y-79558102D01*
X99777205Y-79369744D01*
X99663937Y-79200226D01*
X99519774Y-79056063D01*
X99350256Y-78942795D01*
X99161898Y-78864774D01*
X98961939Y-78825000D01*
X98758061Y-78825000D01*
X98558102Y-78864774D01*
X98369744Y-78942795D01*
X98200226Y-79056063D01*
X98156289Y-79100000D01*
X91454803Y-79100000D01*
X90920454Y-78565653D01*
X91069475Y-78416632D01*
X91186000Y-78242240D01*
X91302525Y-78416632D01*
X91509368Y-78623475D01*
X91752589Y-78785990D01*
X92022842Y-78897932D01*
X92309740Y-78955000D01*
X92602260Y-78955000D01*
X92889158Y-78897932D01*
X93159411Y-78785990D01*
X93402632Y-78623475D01*
X93609475Y-78416632D01*
X93771990Y-78173411D01*
X93883932Y-77903158D01*
X93941000Y-77616260D01*
X93941000Y-77323740D01*
X93883932Y-77036842D01*
X93872261Y-77008665D01*
X97425000Y-77008665D01*
X97425000Y-77291335D01*
X97480147Y-77568574D01*
X97588320Y-77829727D01*
X97745363Y-78064759D01*
X97945241Y-78264637D01*
X98180273Y-78421680D01*
X98441426Y-78529853D01*
X98718665Y-78585000D01*
X99001335Y-78585000D01*
X99278574Y-78529853D01*
X99539727Y-78421680D01*
X99774759Y-78264637D01*
X99974637Y-78064759D01*
X100131680Y-77829727D01*
X100239853Y-77568574D01*
X100295000Y-77291335D01*
X100295000Y-77008665D01*
X105045000Y-77008665D01*
X105045000Y-77291335D01*
X105100147Y-77568574D01*
X105208320Y-77829727D01*
X105365363Y-78064759D01*
X105565241Y-78264637D01*
X105800273Y-78421680D01*
X106061426Y-78529853D01*
X106338665Y-78585000D01*
X106621335Y-78585000D01*
X106898574Y-78529853D01*
X107159727Y-78421680D01*
X107394759Y-78264637D01*
X107594637Y-78064759D01*
X107751680Y-77829727D01*
X107859853Y-77568574D01*
X107915000Y-77291335D01*
X107915000Y-77008665D01*
X107859853Y-76731426D01*
X107751680Y-76470273D01*
X107594637Y-76235241D01*
X107394759Y-76035363D01*
X107159727Y-75878320D01*
X106898574Y-75770147D01*
X106621335Y-75715000D01*
X106338665Y-75715000D01*
X106061426Y-75770147D01*
X105800273Y-75878320D01*
X105565241Y-76035363D01*
X105365363Y-76235241D01*
X105208320Y-76470273D01*
X105100147Y-76731426D01*
X105045000Y-77008665D01*
X100295000Y-77008665D01*
X100239853Y-76731426D01*
X100131680Y-76470273D01*
X99974637Y-76235241D01*
X99774759Y-76035363D01*
X99539727Y-75878320D01*
X99278574Y-75770147D01*
X99001335Y-75715000D01*
X98718665Y-75715000D01*
X98441426Y-75770147D01*
X98180273Y-75878320D01*
X97945241Y-76035363D01*
X97745363Y-76235241D01*
X97588320Y-76470273D01*
X97480147Y-76731426D01*
X97425000Y-77008665D01*
X93872261Y-77008665D01*
X93771990Y-76766589D01*
X93609475Y-76523368D01*
X93402632Y-76316525D01*
X93159411Y-76154010D01*
X92889158Y-76042068D01*
X92602260Y-75985000D01*
X92309740Y-75985000D01*
X92022842Y-76042068D01*
X91752589Y-76154010D01*
X91509368Y-76316525D01*
X91302525Y-76523368D01*
X91186000Y-76697760D01*
X91069475Y-76523368D01*
X90862632Y-76316525D01*
X90619411Y-76154010D01*
X90349158Y-76042068D01*
X90062260Y-75985000D01*
X89769740Y-75985000D01*
X89482842Y-76042068D01*
X89212589Y-76154010D01*
X88969368Y-76316525D01*
X88762525Y-76523368D01*
X88646000Y-76697760D01*
X88529475Y-76523368D01*
X88322632Y-76316525D01*
X88079411Y-76154010D01*
X87809158Y-76042068D01*
X87522260Y-75985000D01*
X87229740Y-75985000D01*
X86942842Y-76042068D01*
X86672589Y-76154010D01*
X86429368Y-76316525D01*
X86222525Y-76523368D01*
X86106000Y-76697760D01*
X85989475Y-76523368D01*
X85782632Y-76316525D01*
X85539411Y-76154010D01*
X85269158Y-76042068D01*
X84982260Y-75985000D01*
X84689740Y-75985000D01*
X84402842Y-76042068D01*
X84132589Y-76154010D01*
X83889368Y-76316525D01*
X83757513Y-76448380D01*
X83735502Y-76375820D01*
X83676537Y-76265506D01*
X83597185Y-76168815D01*
X83500494Y-76089463D01*
X83390180Y-76030498D01*
X83270482Y-75994188D01*
X83146000Y-75981928D01*
X81446000Y-75981928D01*
X81321518Y-75994188D01*
X81201820Y-76030498D01*
X81091506Y-76089463D01*
X80994815Y-76168815D01*
X80915463Y-76265506D01*
X80856498Y-76375820D01*
X80820188Y-76495518D01*
X80807928Y-76620000D01*
X80807928Y-78320000D01*
X80820188Y-78444482D01*
X80856498Y-78564180D01*
X80915463Y-78674494D01*
X80994815Y-78771185D01*
X81091506Y-78850537D01*
X81201820Y-78909502D01*
X81321518Y-78945812D01*
X81446000Y-78958072D01*
X83146000Y-78958072D01*
X83270482Y-78945812D01*
X83390180Y-78909502D01*
X83500494Y-78850537D01*
X83597185Y-78771185D01*
X83676537Y-78674494D01*
X83735502Y-78564180D01*
X83757513Y-78491620D01*
X83889368Y-78623475D01*
X84132589Y-78785990D01*
X84402842Y-78897932D01*
X84689740Y-78955000D01*
X84982260Y-78955000D01*
X85269158Y-78897932D01*
X85539411Y-78785990D01*
X85782632Y-78623475D01*
X85989475Y-78416632D01*
X86106000Y-78242240D01*
X86222525Y-78416632D01*
X86429368Y-78623475D01*
X86672589Y-78785990D01*
X86942842Y-78897932D01*
X87229740Y-78955000D01*
X87522260Y-78955000D01*
X87809158Y-78897932D01*
X88079411Y-78785990D01*
X88322632Y-78623475D01*
X88529475Y-78416632D01*
X88646000Y-78242240D01*
X88762525Y-78416632D01*
X88969368Y-78623475D01*
X89163892Y-78753452D01*
X89166998Y-78784986D01*
X89179136Y-78825000D01*
X89210454Y-78928246D01*
X89281026Y-79060276D01*
X89352201Y-79147002D01*
X89376000Y-79176001D01*
X89404998Y-79199799D01*
X90576205Y-80371008D01*
X90599999Y-80400001D01*
X90628992Y-80423795D01*
X90628996Y-80423799D01*
X90680084Y-80465725D01*
X90715724Y-80494974D01*
X90847753Y-80565546D01*
X90976920Y-80604728D01*
X90840226Y-80696063D01*
X90796289Y-80740000D01*
X71814802Y-80740000D01*
X70367865Y-79293064D01*
X70507634Y-79122756D01*
X70636293Y-78882050D01*
X70715522Y-78620868D01*
X70735570Y-78417316D01*
X70735570Y-77582683D01*
X70715522Y-77379131D01*
X70636293Y-77117950D01*
X70507634Y-76877244D01*
X70334485Y-76666264D01*
X70123505Y-76493116D01*
X69882799Y-76364457D01*
X69621618Y-76285228D01*
X69350000Y-76258476D01*
X69078381Y-76285228D01*
X68817200Y-76364457D01*
X68576494Y-76493116D01*
X68365514Y-76666265D01*
X68192366Y-76877245D01*
X68080000Y-77087468D01*
X67967634Y-76877244D01*
X67794485Y-76666264D01*
X67583505Y-76493116D01*
X67342799Y-76364457D01*
X67081618Y-76285228D01*
X66810000Y-76258476D01*
X66538381Y-76285228D01*
X66277200Y-76364457D01*
X66036494Y-76493116D01*
X65825514Y-76666265D01*
X65652366Y-76877245D01*
X65540000Y-77087468D01*
X65427634Y-76877244D01*
X65254485Y-76666264D01*
X65043505Y-76493116D01*
X64802799Y-76364457D01*
X64541618Y-76285228D01*
X64270000Y-76258476D01*
X63998381Y-76285228D01*
X63737200Y-76364457D01*
X63496494Y-76493116D01*
X63285514Y-76666265D01*
X63112366Y-76877245D01*
X63000000Y-77087468D01*
X62887634Y-76877244D01*
X62714485Y-76666264D01*
X62503505Y-76493116D01*
X62262799Y-76364457D01*
X62001618Y-76285228D01*
X61730000Y-76258476D01*
X61458381Y-76285228D01*
X61197200Y-76364457D01*
X60956494Y-76493116D01*
X60745514Y-76666265D01*
X60572366Y-76877245D01*
X60460000Y-77087468D01*
X60347634Y-76877244D01*
X60174485Y-76666264D01*
X59963505Y-76493116D01*
X59722799Y-76364457D01*
X59461618Y-76285228D01*
X59190000Y-76258476D01*
X58918381Y-76285228D01*
X58657200Y-76364457D01*
X58416494Y-76493116D01*
X58205514Y-76666265D01*
X58035953Y-76872875D01*
X58026382Y-76775698D01*
X57990072Y-76656000D01*
X57931107Y-76545686D01*
X57851755Y-76448995D01*
X57755064Y-76369643D01*
X57644750Y-76310678D01*
X57525052Y-76274368D01*
X57400570Y-76262108D01*
X55899430Y-76262108D01*
X55774948Y-76274368D01*
X55655250Y-76310678D01*
X55544936Y-76369643D01*
X55448245Y-76448995D01*
X55368893Y-76545686D01*
X55309928Y-76656000D01*
X55273618Y-76775698D01*
X55261358Y-76900180D01*
X55261358Y-79099820D01*
X55273618Y-79224302D01*
X55309928Y-79344000D01*
X55368893Y-79454314D01*
X55448245Y-79551005D01*
X55544936Y-79630357D01*
X55655250Y-79689322D01*
X55774948Y-79725632D01*
X55899430Y-79737892D01*
X57400570Y-79737892D01*
X57525052Y-79725632D01*
X57644750Y-79689322D01*
X57755064Y-79630357D01*
X57851755Y-79551005D01*
X57931107Y-79454314D01*
X57990072Y-79344000D01*
X58026382Y-79224302D01*
X58035953Y-79127126D01*
X58205515Y-79333736D01*
X58416495Y-79506884D01*
X58657201Y-79635543D01*
X58918382Y-79714772D01*
X59190000Y-79741524D01*
X59461619Y-79714772D01*
X59722800Y-79635543D01*
X59963506Y-79506884D01*
X60174486Y-79333736D01*
X60347634Y-79122756D01*
X60460000Y-78912532D01*
X60572366Y-79122756D01*
X60745515Y-79333736D01*
X60956495Y-79506884D01*
X61197201Y-79635543D01*
X61458382Y-79714772D01*
X61730000Y-79741524D01*
X62001619Y-79714772D01*
X62262800Y-79635543D01*
X62503506Y-79506884D01*
X62714486Y-79333736D01*
X62887634Y-79122756D01*
X63000000Y-78912532D01*
X63112366Y-79122756D01*
X63285515Y-79333736D01*
X63496495Y-79506884D01*
X63510000Y-79514103D01*
X63510000Y-80690198D01*
X62760199Y-81440000D01*
X43197775Y-81440000D01*
X43136962Y-81348987D01*
X42951013Y-81163038D01*
X42732359Y-81016939D01*
X42489405Y-80916304D01*
X42231486Y-80865000D01*
X41968514Y-80865000D01*
X41710595Y-80916304D01*
X41467641Y-81016939D01*
X41248987Y-81163038D01*
X41063038Y-81348987D01*
X40916939Y-81567641D01*
X40816304Y-81810595D01*
X40765000Y-82068514D01*
X40765000Y-82331486D01*
X40816304Y-82589405D01*
X40916939Y-82832359D01*
X41063038Y-83051013D01*
X41248987Y-83236962D01*
X41340000Y-83297775D01*
X41340000Y-83885198D01*
X39085199Y-86140000D01*
X32836744Y-86140000D01*
X33038574Y-86099853D01*
X33299727Y-85991680D01*
X33534759Y-85834637D01*
X33734637Y-85634759D01*
X33891680Y-85399727D01*
X33999853Y-85138574D01*
X34055000Y-84861335D01*
X34055000Y-84578665D01*
X33999853Y-84301426D01*
X33891680Y-84040273D01*
X33734637Y-83805241D01*
X33534759Y-83605363D01*
X33302241Y-83450000D01*
X33534759Y-83294637D01*
X33734637Y-83094759D01*
X33838043Y-82940000D01*
X35908862Y-82940000D01*
X35983038Y-83051013D01*
X36168987Y-83236962D01*
X36387641Y-83383061D01*
X36630595Y-83483696D01*
X36888514Y-83535000D01*
X37151486Y-83535000D01*
X37409405Y-83483696D01*
X37652359Y-83383061D01*
X37871013Y-83236962D01*
X38056962Y-83051013D01*
X38203061Y-82832359D01*
X38303696Y-82589405D01*
X38355000Y-82331486D01*
X38355000Y-82068514D01*
X38303696Y-81810595D01*
X38203061Y-81567641D01*
X38056962Y-81348987D01*
X37871013Y-81163038D01*
X37652359Y-81016939D01*
X37409405Y-80916304D01*
X37151486Y-80865000D01*
X36888514Y-80865000D01*
X36630595Y-80916304D01*
X36387641Y-81016939D01*
X36168987Y-81163038D01*
X35983038Y-81348987D01*
X35935589Y-81420000D01*
X33838043Y-81420000D01*
X33734637Y-81265241D01*
X33534759Y-81065363D01*
X33302241Y-80910000D01*
X33534759Y-80754637D01*
X33734637Y-80554759D01*
X33891680Y-80319727D01*
X33999853Y-80058574D01*
X34055000Y-79781335D01*
X34055000Y-79498665D01*
X33999853Y-79221426D01*
X33891680Y-78960273D01*
X33734637Y-78725241D01*
X33534759Y-78525363D01*
X33302241Y-78370000D01*
X33534759Y-78214637D01*
X33690731Y-78058665D01*
X37165000Y-78058665D01*
X37165000Y-78341335D01*
X37220147Y-78618574D01*
X37328320Y-78879727D01*
X37485363Y-79114759D01*
X37685241Y-79314637D01*
X37920273Y-79471680D01*
X38181426Y-79579853D01*
X38458665Y-79635000D01*
X38741335Y-79635000D01*
X39018574Y-79579853D01*
X39279727Y-79471680D01*
X39514759Y-79314637D01*
X39714637Y-79114759D01*
X39850000Y-78912173D01*
X39985363Y-79114759D01*
X40185241Y-79314637D01*
X40420273Y-79471680D01*
X40681426Y-79579853D01*
X40958665Y-79635000D01*
X41241335Y-79635000D01*
X41518574Y-79579853D01*
X41779727Y-79471680D01*
X42014759Y-79314637D01*
X42214637Y-79114759D01*
X42371680Y-78879727D01*
X42479853Y-78618574D01*
X42535000Y-78341335D01*
X42535000Y-78058665D01*
X42479853Y-77781426D01*
X42371680Y-77520273D01*
X42214637Y-77285241D01*
X42014759Y-77085363D01*
X41779727Y-76928320D01*
X41518574Y-76820147D01*
X41241335Y-76765000D01*
X40958665Y-76765000D01*
X40681426Y-76820147D01*
X40420273Y-76928320D01*
X40185241Y-77085363D01*
X39985363Y-77285241D01*
X39850000Y-77487827D01*
X39714637Y-77285241D01*
X39514759Y-77085363D01*
X39279727Y-76928320D01*
X39018574Y-76820147D01*
X38741335Y-76765000D01*
X38458665Y-76765000D01*
X38181426Y-76820147D01*
X37920273Y-76928320D01*
X37685241Y-77085363D01*
X37485363Y-77285241D01*
X37328320Y-77520273D01*
X37220147Y-77781426D01*
X37165000Y-78058665D01*
X33690731Y-78058665D01*
X33734637Y-78014759D01*
X33891680Y-77779727D01*
X33999853Y-77518574D01*
X34055000Y-77241335D01*
X34055000Y-76958665D01*
X34018688Y-76776114D01*
X36034802Y-74760000D01*
X96792678Y-74760000D01*
X96830000Y-74763676D01*
X96867322Y-74760000D01*
X96867333Y-74760000D01*
X96978986Y-74749003D01*
X97122247Y-74705546D01*
X97254276Y-74634974D01*
X97370001Y-74540001D01*
X97393804Y-74510997D01*
X98466114Y-73438688D01*
X98648665Y-73475000D01*
X98931335Y-73475000D01*
X99208574Y-73419853D01*
X99469727Y-73311680D01*
X99704759Y-73154637D01*
X99904637Y-72954759D01*
X100061680Y-72719727D01*
X100169853Y-72458574D01*
X100225000Y-72181335D01*
X100225000Y-71898665D01*
X104975000Y-71898665D01*
X104975000Y-72181335D01*
X105030147Y-72458574D01*
X105138320Y-72719727D01*
X105295363Y-72954759D01*
X105495241Y-73154637D01*
X105730273Y-73311680D01*
X105991426Y-73419853D01*
X106268665Y-73475000D01*
X106551335Y-73475000D01*
X106828574Y-73419853D01*
X107089727Y-73311680D01*
X107324759Y-73154637D01*
X107524637Y-72954759D01*
X107681680Y-72719727D01*
X107789853Y-72458574D01*
X107845000Y-72181335D01*
X107845000Y-71898665D01*
X107789853Y-71621426D01*
X107681680Y-71360273D01*
X107524637Y-71125241D01*
X107324759Y-70925363D01*
X107089727Y-70768320D01*
X106828574Y-70660147D01*
X106551335Y-70605000D01*
X106268665Y-70605000D01*
X105991426Y-70660147D01*
X105730273Y-70768320D01*
X105495241Y-70925363D01*
X105295363Y-71125241D01*
X105138320Y-71360273D01*
X105030147Y-71621426D01*
X104975000Y-71898665D01*
X100225000Y-71898665D01*
X100188688Y-71716113D01*
X102484801Y-69420000D01*
X118051928Y-69420000D01*
X118051928Y-72020000D01*
X118064188Y-72144482D01*
X118100498Y-72264180D01*
X118159463Y-72374494D01*
X118238815Y-72471185D01*
X118335506Y-72550537D01*
X118445820Y-72609502D01*
X118565518Y-72645812D01*
X118690000Y-72658072D01*
X121290000Y-72658072D01*
X121414482Y-72645812D01*
X121534180Y-72609502D01*
X121644494Y-72550537D01*
X121741185Y-72471185D01*
X121820537Y-72374494D01*
X121879502Y-72264180D01*
X121915812Y-72144482D01*
X121928072Y-72020000D01*
X121928072Y-69420000D01*
X121915812Y-69295518D01*
X121879502Y-69175820D01*
X121820537Y-69065506D01*
X121741185Y-68968815D01*
X121644494Y-68889463D01*
X121534180Y-68830498D01*
X121414482Y-68794188D01*
X121290000Y-68781928D01*
X118690000Y-68781928D01*
X118565518Y-68794188D01*
X118445820Y-68830498D01*
X118335506Y-68889463D01*
X118238815Y-68968815D01*
X118159463Y-69065506D01*
X118100498Y-69175820D01*
X118064188Y-69295518D01*
X118051928Y-69420000D01*
X102484801Y-69420000D01*
X105504802Y-66400000D01*
X118210373Y-66400000D01*
X118275225Y-66556566D01*
X118486987Y-66873491D01*
X118756509Y-67143013D01*
X119073434Y-67354775D01*
X119425581Y-67500639D01*
X119799419Y-67575000D01*
X120180581Y-67575000D01*
X120554419Y-67500639D01*
X120906566Y-67354775D01*
X121223491Y-67143013D01*
X121493013Y-66873491D01*
X121704775Y-66556566D01*
X121850639Y-66204419D01*
X121925000Y-65830581D01*
X121925000Y-65449419D01*
X121850639Y-65075581D01*
X121704775Y-64723434D01*
X121493013Y-64406509D01*
X121223491Y-64136987D01*
X120906566Y-63925225D01*
X120554419Y-63779361D01*
X120180581Y-63705000D01*
X119799419Y-63705000D01*
X119425581Y-63779361D01*
X119073434Y-63925225D01*
X118756509Y-64136987D01*
X118486987Y-64406509D01*
X118275225Y-64723434D01*
X118210373Y-64880000D01*
X105227323Y-64880000D01*
X105190000Y-64876324D01*
X105152677Y-64880000D01*
X105152667Y-64880000D01*
X105041014Y-64890997D01*
X104897753Y-64934454D01*
X104765724Y-65005026D01*
X104649999Y-65099999D01*
X104626201Y-65128997D01*
X99113887Y-70641312D01*
X98931335Y-70605000D01*
X98648665Y-70605000D01*
X98371426Y-70660147D01*
X98110273Y-70768320D01*
X97875241Y-70925363D01*
X97675363Y-71125241D01*
X97518320Y-71360273D01*
X97410147Y-71621426D01*
X97355000Y-71898665D01*
X97355000Y-72181335D01*
X97391312Y-72363886D01*
X96515199Y-73240000D01*
X78249665Y-73240000D01*
X78363247Y-73205546D01*
X78495276Y-73134974D01*
X78611001Y-73040001D01*
X78634804Y-73010997D01*
X81610803Y-70035000D01*
X81672939Y-70035000D01*
X81872898Y-69995226D01*
X82061256Y-69917205D01*
X82230774Y-69803937D01*
X82274711Y-69760000D01*
X82317289Y-69760000D01*
X82361226Y-69803937D01*
X82530744Y-69917205D01*
X82719102Y-69995226D01*
X82919061Y-70035000D01*
X83122939Y-70035000D01*
X83322898Y-69995226D01*
X83511256Y-69917205D01*
X83680774Y-69803937D01*
X83824937Y-69659774D01*
X83938205Y-69490256D01*
X84016226Y-69301898D01*
X84056000Y-69101939D01*
X84056000Y-68898061D01*
X84028538Y-68760000D01*
X85296289Y-68760000D01*
X85340226Y-68803937D01*
X85509744Y-68917205D01*
X85698102Y-68995226D01*
X85898061Y-69035000D01*
X86101939Y-69035000D01*
X86301898Y-68995226D01*
X86490256Y-68917205D01*
X86659774Y-68803937D01*
X86803937Y-68659774D01*
X86917205Y-68490256D01*
X86995226Y-68301898D01*
X87035000Y-68101939D01*
X87035000Y-67898061D01*
X86995226Y-67698102D01*
X86917205Y-67509744D01*
X86803937Y-67340226D01*
X86723711Y-67260000D01*
X88022678Y-67260000D01*
X88060000Y-67263676D01*
X88097322Y-67260000D01*
X88097333Y-67260000D01*
X88208986Y-67249003D01*
X88352247Y-67205546D01*
X88484276Y-67134974D01*
X88600001Y-67040001D01*
X88623804Y-67010997D01*
X90309893Y-65324909D01*
X90404363Y-65306118D01*
X90701822Y-65182907D01*
X90969527Y-65004032D01*
X91197192Y-64776367D01*
X91376067Y-64508662D01*
X91499278Y-64211203D01*
X91562090Y-63895423D01*
X91562090Y-63573457D01*
X91499278Y-63257677D01*
X91376067Y-62960218D01*
X91197192Y-62692513D01*
X90969527Y-62464848D01*
X90701822Y-62285973D01*
X90404363Y-62162762D01*
X90088583Y-62099950D01*
X89766617Y-62099950D01*
X89450837Y-62162762D01*
X89153378Y-62285973D01*
X88885673Y-62464848D01*
X88658008Y-62692513D01*
X88479133Y-62960218D01*
X88355922Y-63257677D01*
X88293110Y-63573457D01*
X88293110Y-63895423D01*
X88355922Y-64211203D01*
X88479133Y-64508662D01*
X88658008Y-64776367D01*
X88683420Y-64801779D01*
X87745199Y-65740000D01*
X84203711Y-65740000D01*
X84159774Y-65696063D01*
X83990256Y-65582795D01*
X83801898Y-65504774D01*
X83601939Y-65465000D01*
X83398061Y-65465000D01*
X83198102Y-65504774D01*
X83009744Y-65582795D01*
X82840226Y-65696063D01*
X82696063Y-65840226D01*
X82582795Y-66009744D01*
X82504774Y-66198102D01*
X82465000Y-66398061D01*
X82465000Y-66601939D01*
X82504774Y-66801898D01*
X82582795Y-66990256D01*
X82696063Y-67159774D01*
X82776289Y-67240000D01*
X79267962Y-67240000D01*
X76253387Y-64225426D01*
X76259278Y-64211203D01*
X76322090Y-63895423D01*
X76322090Y-63573457D01*
X76259278Y-63257677D01*
X76136067Y-62960218D01*
X75957192Y-62692513D01*
X75729527Y-62464848D01*
X75461822Y-62285973D01*
X75164363Y-62162762D01*
X74848583Y-62099950D01*
X74526617Y-62099950D01*
X74210837Y-62162762D01*
X73913378Y-62285973D01*
X73645673Y-62464848D01*
X73418008Y-62692513D01*
X73239133Y-62960218D01*
X73115922Y-63257677D01*
X73053110Y-63573457D01*
X73053110Y-63895423D01*
X73115922Y-64211203D01*
X73239133Y-64508662D01*
X73418008Y-64776367D01*
X73645673Y-65004032D01*
X73913378Y-65182907D01*
X74210837Y-65306118D01*
X74526617Y-65368930D01*
X74848583Y-65368930D01*
X75164363Y-65306118D01*
X75178586Y-65300227D01*
X78389361Y-68511003D01*
X78413159Y-68540001D01*
X78528884Y-68634974D01*
X78660913Y-68705546D01*
X78804174Y-68749003D01*
X78915827Y-68760000D01*
X78915837Y-68760000D01*
X78953160Y-68763676D01*
X78990483Y-68760000D01*
X80563462Y-68760000D01*
X80536000Y-68898061D01*
X80536000Y-68960197D01*
X77756199Y-71740000D01*
X69678665Y-71740000D01*
X69792247Y-71705546D01*
X69924276Y-71634974D01*
X70040001Y-71540001D01*
X70044105Y-71535000D01*
X70101939Y-71535000D01*
X70301898Y-71495226D01*
X70490256Y-71417205D01*
X70659774Y-71303937D01*
X70803937Y-71159774D01*
X70917205Y-70990256D01*
X70995226Y-70801898D01*
X71035000Y-70601939D01*
X71035000Y-70398061D01*
X70995226Y-70198102D01*
X70917205Y-70009744D01*
X70803937Y-69840226D01*
X70659774Y-69696063D01*
X70490256Y-69582795D01*
X70301898Y-69504774D01*
X70101939Y-69465000D01*
X69898061Y-69465000D01*
X69698102Y-69504774D01*
X69509744Y-69582795D01*
X69340226Y-69696063D01*
X69196063Y-69840226D01*
X69082795Y-70009744D01*
X69004774Y-70198102D01*
X68996440Y-70240000D01*
X67723711Y-70240000D01*
X67803937Y-70159774D01*
X67917205Y-69990256D01*
X67995226Y-69801898D01*
X68035000Y-69601939D01*
X68035000Y-69398061D01*
X67995226Y-69198102D01*
X67917205Y-69009744D01*
X67803937Y-68840226D01*
X67659774Y-68696063D01*
X67490256Y-68582795D01*
X67301898Y-68504774D01*
X67101939Y-68465000D01*
X67039802Y-68465000D01*
X66563804Y-67989002D01*
X66540001Y-67959999D01*
X66424276Y-67865026D01*
X66292247Y-67794454D01*
X66148986Y-67750997D01*
X66037333Y-67740000D01*
X66037322Y-67740000D01*
X66000000Y-67736324D01*
X65962678Y-67740000D01*
X52144802Y-67740000D01*
X50460000Y-66055199D01*
X50460000Y-63687322D01*
X50463676Y-63650000D01*
X50460000Y-63612677D01*
X50460000Y-63612667D01*
X50456139Y-63573457D01*
X61623110Y-63573457D01*
X61623110Y-63895423D01*
X61685922Y-64211203D01*
X61809133Y-64508662D01*
X61988008Y-64776367D01*
X62215673Y-65004032D01*
X62483378Y-65182907D01*
X62780837Y-65306118D01*
X63096617Y-65368930D01*
X63418583Y-65368930D01*
X63734363Y-65306118D01*
X64031822Y-65182907D01*
X64299527Y-65004032D01*
X64527192Y-64776367D01*
X64706067Y-64508662D01*
X64829278Y-64211203D01*
X64892090Y-63895423D01*
X64892090Y-63573457D01*
X65433110Y-63573457D01*
X65433110Y-63895423D01*
X65495922Y-64211203D01*
X65619133Y-64508662D01*
X65798008Y-64776367D01*
X66025673Y-65004032D01*
X66293378Y-65182907D01*
X66590837Y-65306118D01*
X66906617Y-65368930D01*
X67228583Y-65368930D01*
X67544363Y-65306118D01*
X67841822Y-65182907D01*
X68109527Y-65004032D01*
X68337192Y-64776367D01*
X68516067Y-64508662D01*
X68639278Y-64211203D01*
X68702090Y-63895423D01*
X68702090Y-63573457D01*
X69243110Y-63573457D01*
X69243110Y-63895423D01*
X69305922Y-64211203D01*
X69429133Y-64508662D01*
X69608008Y-64776367D01*
X69835673Y-65004032D01*
X70103378Y-65182907D01*
X70400837Y-65306118D01*
X70716617Y-65368930D01*
X71038583Y-65368930D01*
X71354363Y-65306118D01*
X71651822Y-65182907D01*
X71919527Y-65004032D01*
X72147192Y-64776367D01*
X72326067Y-64508662D01*
X72449278Y-64211203D01*
X72512090Y-63895423D01*
X72512090Y-63573457D01*
X72449278Y-63257677D01*
X72326067Y-62960218D01*
X72147192Y-62692513D01*
X71919527Y-62464848D01*
X71651822Y-62285973D01*
X71637600Y-62280082D01*
X71637600Y-62197201D01*
X72074802Y-61760000D01*
X77305199Y-61760000D01*
X77737601Y-62192403D01*
X77737601Y-62280082D01*
X77723378Y-62285973D01*
X77455673Y-62464848D01*
X77228008Y-62692513D01*
X77049133Y-62960218D01*
X76925922Y-63257677D01*
X76863110Y-63573457D01*
X76863110Y-63895423D01*
X76925922Y-64211203D01*
X77049133Y-64508662D01*
X77228008Y-64776367D01*
X77455673Y-65004032D01*
X77723378Y-65182907D01*
X78020837Y-65306118D01*
X78336617Y-65368930D01*
X78658583Y-65368930D01*
X78974363Y-65306118D01*
X79271822Y-65182907D01*
X79539527Y-65004032D01*
X79767192Y-64776367D01*
X79946067Y-64508662D01*
X80069278Y-64211203D01*
X80132090Y-63895423D01*
X80132090Y-63573457D01*
X80673110Y-63573457D01*
X80673110Y-63895423D01*
X80735922Y-64211203D01*
X80859133Y-64508662D01*
X81038008Y-64776367D01*
X81265673Y-65004032D01*
X81533378Y-65182907D01*
X81830837Y-65306118D01*
X82146617Y-65368930D01*
X82468583Y-65368930D01*
X82784363Y-65306118D01*
X83081822Y-65182907D01*
X83349527Y-65004032D01*
X83577192Y-64776367D01*
X83756067Y-64508662D01*
X83879278Y-64211203D01*
X83942090Y-63895423D01*
X83942090Y-63573457D01*
X83879278Y-63257677D01*
X83756067Y-62960218D01*
X83577192Y-62692513D01*
X83349527Y-62464848D01*
X83081822Y-62285973D01*
X82784363Y-62162762D01*
X82468583Y-62099950D01*
X82146617Y-62099950D01*
X81830837Y-62162762D01*
X81533378Y-62285973D01*
X81265673Y-62464848D01*
X81038008Y-62692513D01*
X80859133Y-62960218D01*
X80735922Y-63257677D01*
X80673110Y-63573457D01*
X80132090Y-63573457D01*
X80069278Y-63257677D01*
X79946067Y-62960218D01*
X79767192Y-62692513D01*
X79539527Y-62464848D01*
X79271822Y-62285973D01*
X79257600Y-62280082D01*
X79257600Y-61914923D01*
X79261276Y-61877600D01*
X79257600Y-61840277D01*
X79257600Y-61840267D01*
X79249694Y-61760000D01*
X84895199Y-61760000D01*
X85357601Y-62222403D01*
X85357601Y-62280082D01*
X85343378Y-62285973D01*
X85075673Y-62464848D01*
X84848008Y-62692513D01*
X84669133Y-62960218D01*
X84545922Y-63257677D01*
X84483110Y-63573457D01*
X84483110Y-63895423D01*
X84545922Y-64211203D01*
X84669133Y-64508662D01*
X84848008Y-64776367D01*
X85075673Y-65004032D01*
X85343378Y-65182907D01*
X85640837Y-65306118D01*
X85956617Y-65368930D01*
X86278583Y-65368930D01*
X86594363Y-65306118D01*
X86891822Y-65182907D01*
X87159527Y-65004032D01*
X87387192Y-64776367D01*
X87566067Y-64508662D01*
X87689278Y-64211203D01*
X87752090Y-63895423D01*
X87752090Y-63573457D01*
X87689278Y-63257677D01*
X87566067Y-62960218D01*
X87387192Y-62692513D01*
X87159527Y-62464848D01*
X86891822Y-62285973D01*
X86877600Y-62280082D01*
X86877600Y-61944922D01*
X86881276Y-61907599D01*
X86877600Y-61870276D01*
X86877600Y-61870267D01*
X86866740Y-61760000D01*
X92285199Y-61760000D01*
X92872137Y-62346939D01*
X92695673Y-62464848D01*
X92468008Y-62692513D01*
X92289133Y-62960218D01*
X92165922Y-63257677D01*
X92103110Y-63573457D01*
X92103110Y-63895423D01*
X92165922Y-64211203D01*
X92289133Y-64508662D01*
X92468008Y-64776367D01*
X92695673Y-65004032D01*
X92963378Y-65182907D01*
X93260837Y-65306118D01*
X93576617Y-65368930D01*
X93898583Y-65368930D01*
X94214363Y-65306118D01*
X94511822Y-65182907D01*
X94779527Y-65004032D01*
X95007192Y-64776367D01*
X95186067Y-64508662D01*
X95309278Y-64211203D01*
X95372090Y-63895423D01*
X95372090Y-63573457D01*
X95913110Y-63573457D01*
X95913110Y-63895423D01*
X95975922Y-64211203D01*
X96099133Y-64508662D01*
X96278008Y-64776367D01*
X96505673Y-65004032D01*
X96773378Y-65182907D01*
X97070837Y-65306118D01*
X97386617Y-65368930D01*
X97708583Y-65368930D01*
X98024363Y-65306118D01*
X98321822Y-65182907D01*
X98589527Y-65004032D01*
X98817192Y-64776367D01*
X98996067Y-64508662D01*
X99119278Y-64211203D01*
X99182090Y-63895423D01*
X99182090Y-63573457D01*
X99119278Y-63257677D01*
X98996067Y-62960218D01*
X98817192Y-62692513D01*
X98589527Y-62464848D01*
X98321822Y-62285973D01*
X98024363Y-62162762D01*
X97708583Y-62099950D01*
X97386617Y-62099950D01*
X97070837Y-62162762D01*
X96773378Y-62285973D01*
X96505673Y-62464848D01*
X96278008Y-62692513D01*
X96099133Y-62960218D01*
X95975922Y-63257677D01*
X95913110Y-63573457D01*
X95372090Y-63573457D01*
X95309278Y-63257677D01*
X95186067Y-62960218D01*
X95007192Y-62692513D01*
X94779527Y-62464848D01*
X94511822Y-62285973D01*
X94497600Y-62280082D01*
X94497600Y-62174922D01*
X94501276Y-62137599D01*
X94497600Y-62100276D01*
X94497600Y-62100267D01*
X94486603Y-61988614D01*
X94443146Y-61845353D01*
X94397523Y-61760000D01*
X98308359Y-61760000D01*
X99791813Y-63243455D01*
X99785922Y-63257677D01*
X99723110Y-63573457D01*
X99723110Y-63895423D01*
X99785922Y-64211203D01*
X99909133Y-64508662D01*
X100088008Y-64776367D01*
X100315673Y-65004032D01*
X100583378Y-65182907D01*
X100880837Y-65306118D01*
X101196617Y-65368930D01*
X101518583Y-65368930D01*
X101834363Y-65306118D01*
X102131822Y-65182907D01*
X102399527Y-65004032D01*
X102627192Y-64776367D01*
X102806067Y-64508662D01*
X102929278Y-64211203D01*
X102992090Y-63895423D01*
X102992090Y-63573457D01*
X102929278Y-63257677D01*
X102806067Y-62960218D01*
X102627192Y-62692513D01*
X102399527Y-62464848D01*
X102131822Y-62285973D01*
X101834363Y-62162762D01*
X101518583Y-62099950D01*
X101196617Y-62099950D01*
X100880837Y-62162762D01*
X100866615Y-62168653D01*
X99186964Y-60489003D01*
X99163161Y-60459999D01*
X99047436Y-60365026D01*
X98915407Y-60294454D01*
X98772146Y-60250997D01*
X98660493Y-60240000D01*
X98660482Y-60240000D01*
X98623160Y-60236324D01*
X98585838Y-60240000D01*
X96049573Y-60240000D01*
X96119363Y-60226118D01*
X96416822Y-60102907D01*
X96684527Y-59924032D01*
X96912192Y-59696367D01*
X97091067Y-59428662D01*
X97214278Y-59131203D01*
X97277090Y-58815423D01*
X97277090Y-58493457D01*
X97818110Y-58493457D01*
X97818110Y-58815423D01*
X97880922Y-59131203D01*
X98004133Y-59428662D01*
X98183008Y-59696367D01*
X98410673Y-59924032D01*
X98678378Y-60102907D01*
X98975837Y-60226118D01*
X99291617Y-60288930D01*
X99613583Y-60288930D01*
X99929363Y-60226118D01*
X100226822Y-60102907D01*
X100494527Y-59924032D01*
X100722192Y-59696367D01*
X100901067Y-59428662D01*
X101024278Y-59131203D01*
X101087090Y-58815423D01*
X101087090Y-58493457D01*
X101024278Y-58177677D01*
X100901067Y-57880218D01*
X100722192Y-57612513D01*
X100494527Y-57384848D01*
X100226822Y-57205973D01*
X99929363Y-57082762D01*
X99613583Y-57019950D01*
X99291617Y-57019950D01*
X98975837Y-57082762D01*
X98678378Y-57205973D01*
X98410673Y-57384848D01*
X98183008Y-57612513D01*
X98004133Y-57880218D01*
X97880922Y-58177677D01*
X97818110Y-58493457D01*
X97277090Y-58493457D01*
X97214278Y-58177677D01*
X97091067Y-57880218D01*
X96912192Y-57612513D01*
X96684527Y-57384848D01*
X96416822Y-57205973D01*
X96119363Y-57082762D01*
X95803583Y-57019950D01*
X95481617Y-57019950D01*
X95165837Y-57082762D01*
X94868378Y-57205973D01*
X94600673Y-57384848D01*
X94373008Y-57612513D01*
X94194133Y-57880218D01*
X94070922Y-58177677D01*
X94008110Y-58493457D01*
X94008110Y-58815423D01*
X94070922Y-59131203D01*
X94194133Y-59428662D01*
X94373008Y-59696367D01*
X94600673Y-59924032D01*
X94868378Y-60102907D01*
X95165837Y-60226118D01*
X95235627Y-60240000D01*
X92637322Y-60240000D01*
X92600000Y-60236324D01*
X92562678Y-60240000D01*
X92239573Y-60240000D01*
X92309363Y-60226118D01*
X92606822Y-60102907D01*
X92874527Y-59924032D01*
X93102192Y-59696367D01*
X93281067Y-59428662D01*
X93404278Y-59131203D01*
X93467090Y-58815423D01*
X93467090Y-58493457D01*
X93404278Y-58177677D01*
X93281067Y-57880218D01*
X93102192Y-57612513D01*
X92874527Y-57384848D01*
X92703938Y-57270864D01*
X93214802Y-56760000D01*
X100685199Y-56760000D01*
X104936201Y-61011003D01*
X104959999Y-61040001D01*
X104988997Y-61063799D01*
X105075723Y-61134974D01*
X105161859Y-61181015D01*
X105207753Y-61205546D01*
X105351014Y-61249003D01*
X105462667Y-61260000D01*
X105462676Y-61260000D01*
X105499999Y-61263676D01*
X105537322Y-61260000D01*
X107296289Y-61260000D01*
X107340226Y-61303937D01*
X107509744Y-61417205D01*
X107698102Y-61495226D01*
X107898061Y-61535000D01*
X108101939Y-61535000D01*
X108301898Y-61495226D01*
X108490256Y-61417205D01*
X108659774Y-61303937D01*
X108803937Y-61159774D01*
X108917205Y-60990256D01*
X108995226Y-60801898D01*
X109035000Y-60601939D01*
X109035000Y-60398061D01*
X108995226Y-60198102D01*
X108917205Y-60009744D01*
X108803937Y-59840226D01*
X108659774Y-59696063D01*
X108490256Y-59582795D01*
X108301898Y-59504774D01*
X108101939Y-59465000D01*
X107898061Y-59465000D01*
X107698102Y-59504774D01*
X107509744Y-59582795D01*
X107340226Y-59696063D01*
X107296289Y-59740000D01*
X105814802Y-59740000D01*
X102122922Y-56048120D01*
X106622420Y-56048120D01*
X106622420Y-57262799D01*
X106654035Y-57583794D01*
X106778976Y-57995668D01*
X106981869Y-58375254D01*
X107254916Y-58707964D01*
X107587626Y-58981011D01*
X107967211Y-59183904D01*
X108379085Y-59308845D01*
X108807420Y-59351032D01*
X109235754Y-59308845D01*
X109647628Y-59183904D01*
X110027214Y-58981011D01*
X110359924Y-58707964D01*
X110632971Y-58375254D01*
X110835864Y-57995669D01*
X110960805Y-57583795D01*
X110992420Y-57262800D01*
X110992420Y-56048121D01*
X110960805Y-55727126D01*
X110835864Y-55315252D01*
X110632971Y-54935666D01*
X110359924Y-54602956D01*
X110027214Y-54329909D01*
X109647629Y-54127016D01*
X109235755Y-54002075D01*
X108807420Y-53959888D01*
X108379086Y-54002075D01*
X107967212Y-54127016D01*
X107587627Y-54329909D01*
X107254917Y-54602956D01*
X106981870Y-54935666D01*
X106778976Y-55315251D01*
X106654035Y-55727125D01*
X106622420Y-56048120D01*
X102122922Y-56048120D01*
X101563804Y-55489003D01*
X101540001Y-55459999D01*
X101424276Y-55365026D01*
X101292247Y-55294454D01*
X101148986Y-55250997D01*
X101037333Y-55240000D01*
X101037322Y-55240000D01*
X101000000Y-55236324D01*
X100962678Y-55240000D01*
X92937333Y-55240000D01*
X92900000Y-55236323D01*
X92862667Y-55240000D01*
X92751014Y-55250997D01*
X92607753Y-55294454D01*
X92475724Y-55365026D01*
X92359999Y-55459999D01*
X92336201Y-55488997D01*
X91321598Y-56503601D01*
X91292600Y-56527399D01*
X91268802Y-56556397D01*
X91268801Y-56556398D01*
X91197626Y-56643124D01*
X91127054Y-56775154D01*
X91083598Y-56918415D01*
X91068924Y-57067400D01*
X91072601Y-57104732D01*
X91072601Y-57200082D01*
X91058378Y-57205973D01*
X90790673Y-57384848D01*
X90563008Y-57612513D01*
X90384133Y-57880218D01*
X90260922Y-58177677D01*
X90198110Y-58493457D01*
X90198110Y-58815423D01*
X90260922Y-59131203D01*
X90384133Y-59428662D01*
X90563008Y-59696367D01*
X90790673Y-59924032D01*
X91058378Y-60102907D01*
X91355837Y-60226118D01*
X91425627Y-60240000D01*
X88429573Y-60240000D01*
X88499363Y-60226118D01*
X88796822Y-60102907D01*
X89064527Y-59924032D01*
X89292192Y-59696367D01*
X89471067Y-59428662D01*
X89594278Y-59131203D01*
X89657090Y-58815423D01*
X89657090Y-58493457D01*
X89594278Y-58177677D01*
X89471067Y-57880218D01*
X89292192Y-57612513D01*
X89064527Y-57384848D01*
X88796822Y-57205973D01*
X88499363Y-57082762D01*
X88183583Y-57019950D01*
X87861617Y-57019950D01*
X87545837Y-57082762D01*
X87248378Y-57205973D01*
X86980673Y-57384848D01*
X86753008Y-57612513D01*
X86574133Y-57880218D01*
X86450922Y-58177677D01*
X86388110Y-58493457D01*
X86388110Y-58815423D01*
X86450922Y-59131203D01*
X86574133Y-59428662D01*
X86753008Y-59696367D01*
X86980673Y-59924032D01*
X87248378Y-60102907D01*
X87545837Y-60226118D01*
X87615627Y-60240000D01*
X85247322Y-60240000D01*
X85210000Y-60236324D01*
X85172678Y-60240000D01*
X84619573Y-60240000D01*
X84689363Y-60226118D01*
X84986822Y-60102907D01*
X85254527Y-59924032D01*
X85482192Y-59696367D01*
X85661067Y-59428662D01*
X85784278Y-59131203D01*
X85847090Y-58815423D01*
X85847090Y-58493457D01*
X85784278Y-58177677D01*
X85661067Y-57880218D01*
X85482192Y-57612513D01*
X85254527Y-57384848D01*
X84986822Y-57205973D01*
X84689363Y-57082762D01*
X84373583Y-57019950D01*
X84051617Y-57019950D01*
X83735837Y-57082762D01*
X83438378Y-57205973D01*
X83170673Y-57384848D01*
X82943008Y-57612513D01*
X82764133Y-57880218D01*
X82640922Y-58177677D01*
X82578110Y-58493457D01*
X82578110Y-58815423D01*
X82640922Y-59131203D01*
X82764133Y-59428662D01*
X82943008Y-59696367D01*
X83170673Y-59924032D01*
X83438378Y-60102907D01*
X83735837Y-60226118D01*
X83805627Y-60240000D01*
X80809573Y-60240000D01*
X80879363Y-60226118D01*
X81176822Y-60102907D01*
X81444527Y-59924032D01*
X81672192Y-59696367D01*
X81851067Y-59428662D01*
X81974278Y-59131203D01*
X82037090Y-58815423D01*
X82037090Y-58493457D01*
X81974278Y-58177677D01*
X81851067Y-57880218D01*
X81672192Y-57612513D01*
X81444527Y-57384848D01*
X81176822Y-57205973D01*
X80879363Y-57082762D01*
X80563583Y-57019950D01*
X80241617Y-57019950D01*
X79925837Y-57082762D01*
X79628378Y-57205973D01*
X79360673Y-57384848D01*
X79133008Y-57612513D01*
X78954133Y-57880218D01*
X78830922Y-58177677D01*
X78768110Y-58493457D01*
X78768110Y-58815423D01*
X78830922Y-59131203D01*
X78954133Y-59428662D01*
X79133008Y-59696367D01*
X79360673Y-59924032D01*
X79628378Y-60102907D01*
X79925837Y-60226118D01*
X79995627Y-60240000D01*
X77657322Y-60240000D01*
X77620000Y-60236324D01*
X77582678Y-60240000D01*
X77537333Y-60240000D01*
X77500000Y-60236323D01*
X77462667Y-60240000D01*
X76999573Y-60240000D01*
X77069363Y-60226118D01*
X77366822Y-60102907D01*
X77634527Y-59924032D01*
X77862192Y-59696367D01*
X78041067Y-59428662D01*
X78164278Y-59131203D01*
X78227090Y-58815423D01*
X78227090Y-58493457D01*
X78164278Y-58177677D01*
X78041067Y-57880218D01*
X77862192Y-57612513D01*
X77634527Y-57384848D01*
X77366822Y-57205973D01*
X77069363Y-57082762D01*
X76753583Y-57019950D01*
X76431617Y-57019950D01*
X76115837Y-57082762D01*
X75818378Y-57205973D01*
X75550673Y-57384848D01*
X75323008Y-57612513D01*
X75144133Y-57880218D01*
X75020922Y-58177677D01*
X74958110Y-58493457D01*
X74958110Y-58815423D01*
X75020922Y-59131203D01*
X75144133Y-59428662D01*
X75323008Y-59696367D01*
X75550673Y-59924032D01*
X75818378Y-60102907D01*
X76115837Y-60226118D01*
X76185627Y-60240000D01*
X73189573Y-60240000D01*
X73259363Y-60226118D01*
X73556822Y-60102907D01*
X73824527Y-59924032D01*
X74052192Y-59696367D01*
X74231067Y-59428662D01*
X74354278Y-59131203D01*
X74417090Y-58815423D01*
X74417090Y-58493457D01*
X74354278Y-58177677D01*
X74231067Y-57880218D01*
X74052192Y-57612513D01*
X73824527Y-57384848D01*
X73556822Y-57205973D01*
X73259363Y-57082762D01*
X72943583Y-57019950D01*
X72621617Y-57019950D01*
X72305837Y-57082762D01*
X72008378Y-57205973D01*
X71740673Y-57384848D01*
X71513008Y-57612513D01*
X71334133Y-57880218D01*
X71210922Y-58177677D01*
X71148110Y-58493457D01*
X71148110Y-58815423D01*
X71210922Y-59131203D01*
X71334133Y-59428662D01*
X71513008Y-59696367D01*
X71740673Y-59924032D01*
X72008378Y-60102907D01*
X72305837Y-60226118D01*
X72375627Y-60240000D01*
X71797322Y-60240000D01*
X71759999Y-60236324D01*
X71722676Y-60240000D01*
X71722667Y-60240000D01*
X71611014Y-60250997D01*
X71485964Y-60288930D01*
X71467753Y-60294454D01*
X71335723Y-60365026D01*
X71252083Y-60433668D01*
X71219999Y-60459999D01*
X71196201Y-60488997D01*
X70366598Y-61318601D01*
X70337600Y-61342399D01*
X70313802Y-61371397D01*
X70313801Y-61371398D01*
X70242626Y-61458124D01*
X70172054Y-61590154D01*
X70142699Y-61686929D01*
X70128598Y-61733414D01*
X70122231Y-61798061D01*
X70113924Y-61882400D01*
X70117601Y-61919732D01*
X70117601Y-62280082D01*
X70103378Y-62285973D01*
X69835673Y-62464848D01*
X69608008Y-62692513D01*
X69429133Y-62960218D01*
X69305922Y-63257677D01*
X69243110Y-63573457D01*
X68702090Y-63573457D01*
X68639278Y-63257677D01*
X68516067Y-62960218D01*
X68337192Y-62692513D01*
X68109527Y-62464848D01*
X67841822Y-62285973D01*
X67544363Y-62162762D01*
X67228583Y-62099950D01*
X66906617Y-62099950D01*
X66590837Y-62162762D01*
X66293378Y-62285973D01*
X66025673Y-62464848D01*
X65798008Y-62692513D01*
X65619133Y-62960218D01*
X65495922Y-63257677D01*
X65433110Y-63573457D01*
X64892090Y-63573457D01*
X64829278Y-63257677D01*
X64706067Y-62960218D01*
X64527192Y-62692513D01*
X64299527Y-62464848D01*
X64031822Y-62285973D01*
X63734363Y-62162762D01*
X63418583Y-62099950D01*
X63096617Y-62099950D01*
X62780837Y-62162762D01*
X62483378Y-62285973D01*
X62215673Y-62464848D01*
X61988008Y-62692513D01*
X61809133Y-62960218D01*
X61685922Y-63257677D01*
X61623110Y-63573457D01*
X50456139Y-63573457D01*
X50449003Y-63501014D01*
X50405546Y-63357753D01*
X50380100Y-63310147D01*
X50334974Y-63225723D01*
X50263799Y-63138997D01*
X50240001Y-63109999D01*
X50211004Y-63086202D01*
X47473794Y-60348993D01*
X47449991Y-60319989D01*
X47334266Y-60225016D01*
X47202237Y-60154444D01*
X47058976Y-60110987D01*
X46947323Y-60099990D01*
X46947312Y-60099990D01*
X46909990Y-60096314D01*
X46872668Y-60099990D01*
X18787332Y-60099990D01*
X18750009Y-60096314D01*
X18712686Y-60099990D01*
X18712677Y-60099990D01*
X18601024Y-60110987D01*
X18457763Y-60154444D01*
X18325734Y-60225016D01*
X18210009Y-60319989D01*
X18186211Y-60348987D01*
X17670199Y-60865000D01*
X17608061Y-60865000D01*
X17408102Y-60904774D01*
X17219744Y-60982795D01*
X17050226Y-61096063D01*
X16906063Y-61240226D01*
X16792795Y-61409744D01*
X16714774Y-61598102D01*
X16675000Y-61798061D01*
X16675000Y-62001939D01*
X16714774Y-62201898D01*
X16792795Y-62390256D01*
X16906063Y-62559774D01*
X17050226Y-62703937D01*
X17219744Y-62817205D01*
X17408102Y-62895226D01*
X17608061Y-62935000D01*
X17811939Y-62935000D01*
X18011898Y-62895226D01*
X18200256Y-62817205D01*
X18369774Y-62703937D01*
X18513937Y-62559774D01*
X18627205Y-62390256D01*
X18705226Y-62201898D01*
X18745000Y-62001939D01*
X18745000Y-61939801D01*
X19064812Y-61619990D01*
X24594398Y-61619990D01*
X24555000Y-61818061D01*
X24555000Y-62021939D01*
X24594774Y-62221898D01*
X24672795Y-62410256D01*
X24786063Y-62579774D01*
X24930226Y-62723937D01*
X25099744Y-62837205D01*
X25288102Y-62915226D01*
X25488061Y-62955000D01*
X25691939Y-62955000D01*
X25891898Y-62915226D01*
X26080256Y-62837205D01*
X26249774Y-62723937D01*
X26393937Y-62579774D01*
X26507205Y-62410256D01*
X26585226Y-62221898D01*
X26615440Y-62070000D01*
X26821865Y-62070000D01*
X26730147Y-62291426D01*
X26675000Y-62568665D01*
X26675000Y-62851335D01*
X26730147Y-63128574D01*
X26785647Y-63262562D01*
X26546426Y-63310147D01*
X26285273Y-63418320D01*
X26050241Y-63575363D01*
X25850363Y-63775241D01*
X25693320Y-64010273D01*
X25585147Y-64271426D01*
X25530000Y-64548665D01*
X25530000Y-64831335D01*
X25585147Y-65108574D01*
X25693320Y-65369727D01*
X25850363Y-65604759D01*
X26050241Y-65804637D01*
X26285273Y-65961680D01*
X26546426Y-66069853D01*
X26671928Y-66094817D01*
X26671928Y-67470000D01*
X26684188Y-67594482D01*
X26720498Y-67714180D01*
X26779463Y-67824494D01*
X26858815Y-67921185D01*
X26955506Y-68000537D01*
X27065820Y-68059502D01*
X27185518Y-68095812D01*
X27310000Y-68108072D01*
X27348104Y-68108072D01*
X27350001Y-68127333D01*
X27360998Y-68238986D01*
X27364642Y-68250998D01*
X27404454Y-68382246D01*
X27475026Y-68514276D01*
X27531259Y-68582795D01*
X27570000Y-68630001D01*
X27598998Y-68653799D01*
X29856220Y-70911022D01*
X29880019Y-70940021D01*
X29995744Y-71034994D01*
X30112176Y-71097229D01*
X29929744Y-71172795D01*
X29760226Y-71286063D01*
X29616063Y-71430226D01*
X29502795Y-71599744D01*
X29424774Y-71788102D01*
X29385000Y-71988061D01*
X29385000Y-72191939D01*
X29394560Y-72240000D01*
X28123711Y-72240000D01*
X28079774Y-72196063D01*
X27910256Y-72082795D01*
X27721898Y-72004774D01*
X27521939Y-71965000D01*
X27318061Y-71965000D01*
X27118102Y-72004774D01*
X26929744Y-72082795D01*
X26760226Y-72196063D01*
X26716289Y-72240000D01*
X10314802Y-72240000D01*
X8035000Y-69960199D01*
X8035000Y-69898061D01*
X7995226Y-69698102D01*
X7917205Y-69509744D01*
X7803937Y-69340226D01*
X7659774Y-69196063D01*
X7490256Y-69082795D01*
X7301898Y-69004774D01*
X7101939Y-68965000D01*
X6898061Y-68965000D01*
X6698102Y-69004774D01*
X6509744Y-69082795D01*
X6340226Y-69196063D01*
X6196063Y-69340226D01*
X6082795Y-69509744D01*
X6004774Y-69698102D01*
X5965000Y-69898061D01*
X5965000Y-70101939D01*
X6004774Y-70301898D01*
X6082795Y-70490256D01*
X6196063Y-70659774D01*
X6340226Y-70803937D01*
X6509744Y-70917205D01*
X6698102Y-70995226D01*
X6898061Y-71035000D01*
X6960199Y-71035000D01*
X9436201Y-73511003D01*
X9459999Y-73540001D01*
X9575724Y-73634974D01*
X9707753Y-73705546D01*
X9851014Y-73749003D01*
X9962667Y-73760000D01*
X9962675Y-73760000D01*
X10000000Y-73763676D01*
X10037325Y-73760000D01*
X26716289Y-73760000D01*
X26760226Y-73803937D01*
X26929744Y-73917205D01*
X27118102Y-73995226D01*
X27318061Y-74035000D01*
X27521939Y-74035000D01*
X27721898Y-73995226D01*
X27910256Y-73917205D01*
X28079774Y-73803937D01*
X28123711Y-73760000D01*
X34885198Y-73760000D01*
X32943886Y-75701312D01*
X32761335Y-75665000D01*
X32478665Y-75665000D01*
X32201426Y-75720147D01*
X31940273Y-75828320D01*
X31705241Y-75985363D01*
X31505363Y-76185241D01*
X31348320Y-76420273D01*
X31240147Y-76681426D01*
X31185000Y-76958665D01*
X31185000Y-77241335D01*
X31240147Y-77518574D01*
X31348320Y-77779727D01*
X31505363Y-78014759D01*
X31705241Y-78214637D01*
X31937759Y-78370000D01*
X31705241Y-78525363D01*
X31505363Y-78725241D01*
X31348320Y-78960273D01*
X31240147Y-79221426D01*
X31185000Y-79498665D01*
X31185000Y-79781335D01*
X31240147Y-80058574D01*
X31348320Y-80319727D01*
X31505363Y-80554759D01*
X31705241Y-80754637D01*
X31937759Y-80910000D01*
X31705241Y-81065363D01*
X31505363Y-81265241D01*
X31348320Y-81500273D01*
X31240147Y-81761426D01*
X31185000Y-82038665D01*
X31185000Y-82321335D01*
X31240147Y-82598574D01*
X31348320Y-82859727D01*
X31505363Y-83094759D01*
X31705241Y-83294637D01*
X31937759Y-83450000D01*
X31705241Y-83605363D01*
X31505363Y-83805241D01*
X31348320Y-84040273D01*
X31240147Y-84301426D01*
X31185000Y-84578665D01*
X31185000Y-84861335D01*
X31240147Y-85138574D01*
X31348320Y-85399727D01*
X31505363Y-85634759D01*
X31705241Y-85834637D01*
X31940273Y-85991680D01*
X32201426Y-86099853D01*
X32403256Y-86140000D01*
X27494802Y-86140000D01*
X26398688Y-85043886D01*
X26435000Y-84861335D01*
X26435000Y-84578665D01*
X26379853Y-84301426D01*
X26271680Y-84040273D01*
X26114637Y-83805241D01*
X25914759Y-83605363D01*
X25682241Y-83450000D01*
X25914759Y-83294637D01*
X26114637Y-83094759D01*
X26218043Y-82940000D01*
X29092678Y-82940000D01*
X29130000Y-82943676D01*
X29167322Y-82940000D01*
X29167333Y-82940000D01*
X29278986Y-82929003D01*
X29422247Y-82885546D01*
X29554276Y-82814974D01*
X29670001Y-82720001D01*
X29693803Y-82690998D01*
X30459802Y-81925000D01*
X30521939Y-81925000D01*
X30721898Y-81885226D01*
X30910256Y-81807205D01*
X31079774Y-81693937D01*
X31223937Y-81549774D01*
X31337205Y-81380256D01*
X31415226Y-81191898D01*
X31455000Y-80991939D01*
X31455000Y-80788061D01*
X31415226Y-80588102D01*
X31337205Y-80399744D01*
X31223937Y-80230226D01*
X31079774Y-80086063D01*
X30910256Y-79972795D01*
X30721898Y-79894774D01*
X30521939Y-79855000D01*
X30318061Y-79855000D01*
X30118102Y-79894774D01*
X29929744Y-79972795D01*
X29760226Y-80086063D01*
X29616063Y-80230226D01*
X29502795Y-80399744D01*
X29424774Y-80588102D01*
X29385000Y-80788061D01*
X29385000Y-80850198D01*
X28815199Y-81420000D01*
X26218043Y-81420000D01*
X26114637Y-81265241D01*
X25914759Y-81065363D01*
X25682241Y-80910000D01*
X25914759Y-80754637D01*
X26114637Y-80554759D01*
X26271680Y-80319727D01*
X26379853Y-80058574D01*
X26435000Y-79781335D01*
X26435000Y-79498665D01*
X26379853Y-79221426D01*
X26271680Y-78960273D01*
X26114637Y-78725241D01*
X25916039Y-78526643D01*
X25924482Y-78525812D01*
X26044180Y-78489502D01*
X26154494Y-78430537D01*
X26251185Y-78351185D01*
X26330537Y-78254494D01*
X26389502Y-78144180D01*
X26425812Y-78024482D01*
X26438072Y-77900000D01*
X26438072Y-76300000D01*
X26425812Y-76175518D01*
X26389502Y-76055820D01*
X26330537Y-75945506D01*
X26251185Y-75848815D01*
X26154494Y-75769463D01*
X26044180Y-75710498D01*
X25924482Y-75674188D01*
X25800000Y-75661928D01*
X24200000Y-75661928D01*
X24075518Y-75674188D01*
X23955820Y-75710498D01*
X23845506Y-75769463D01*
X23748815Y-75848815D01*
X23669463Y-75945506D01*
X23610498Y-76055820D01*
X23574188Y-76175518D01*
X23561928Y-76300000D01*
X23561928Y-77900000D01*
X23574188Y-78024482D01*
X23610498Y-78144180D01*
X23669463Y-78254494D01*
X23748815Y-78351185D01*
X23845506Y-78430537D01*
X23955820Y-78489502D01*
X24075518Y-78525812D01*
X24083961Y-78526643D01*
X23885363Y-78725241D01*
X23808684Y-78840000D01*
X22218043Y-78840000D01*
X22114637Y-78685241D01*
X21914759Y-78485363D01*
X21679727Y-78328320D01*
X21418574Y-78220147D01*
X21141335Y-78165000D01*
X20858665Y-78165000D01*
X20581426Y-78220147D01*
X20320273Y-78328320D01*
X20085241Y-78485363D01*
X19885363Y-78685241D01*
X19750000Y-78887827D01*
X19614637Y-78685241D01*
X19414759Y-78485363D01*
X19179727Y-78328320D01*
X18918574Y-78220147D01*
X18641335Y-78165000D01*
X18358665Y-78165000D01*
X18081426Y-78220147D01*
X17820273Y-78328320D01*
X17585241Y-78485363D01*
X17385363Y-78685241D01*
X17228320Y-78920273D01*
X17120147Y-79181426D01*
X17065000Y-79458665D01*
X17065000Y-79741335D01*
X17120147Y-80018574D01*
X17228320Y-80279727D01*
X17385363Y-80514759D01*
X17585241Y-80714637D01*
X17820273Y-80871680D01*
X18081426Y-80979853D01*
X18358665Y-81035000D01*
X18641335Y-81035000D01*
X18918574Y-80979853D01*
X19179727Y-80871680D01*
X19414759Y-80714637D01*
X19614637Y-80514759D01*
X19750000Y-80312173D01*
X19885363Y-80514759D01*
X20085241Y-80714637D01*
X20320273Y-80871680D01*
X20581426Y-80979853D01*
X20858665Y-81035000D01*
X21141335Y-81035000D01*
X21418574Y-80979853D01*
X21679727Y-80871680D01*
X21914759Y-80714637D01*
X22114637Y-80514759D01*
X22218043Y-80360000D01*
X23755229Y-80360000D01*
X23885363Y-80554759D01*
X24085241Y-80754637D01*
X24317759Y-80910000D01*
X24085241Y-81065363D01*
X23885363Y-81265241D01*
X23728320Y-81500273D01*
X23620147Y-81761426D01*
X23565000Y-82038665D01*
X23565000Y-82321335D01*
X23620147Y-82598574D01*
X23728320Y-82859727D01*
X23885363Y-83094759D01*
X24085241Y-83294637D01*
X24317759Y-83450000D01*
X24085241Y-83605363D01*
X23885363Y-83805241D01*
X23781957Y-83960000D01*
X10009140Y-83960000D01*
X9976094Y-83793865D01*
X9664389Y-83041343D01*
X9211864Y-82364091D01*
X8635909Y-81788136D01*
X7958657Y-81335611D01*
X7206135Y-81023906D01*
X6407262Y-80865000D01*
X5592738Y-80865000D01*
X4793865Y-81023906D01*
X4041343Y-81335611D01*
X3364091Y-81788136D01*
X2788136Y-82364091D01*
X2335611Y-83041343D01*
X2023906Y-83793865D01*
X1865000Y-84592738D01*
X660000Y-84592738D01*
X660000Y-64990475D01*
X17290000Y-64990475D01*
X17290000Y-65509525D01*
X17391261Y-66018601D01*
X17589893Y-66498141D01*
X17878262Y-66929715D01*
X18245285Y-67296738D01*
X18676859Y-67585107D01*
X19156399Y-67783739D01*
X19665475Y-67885000D01*
X20184525Y-67885000D01*
X20693601Y-67783739D01*
X21173141Y-67585107D01*
X21604715Y-67296738D01*
X21971738Y-66929715D01*
X22260107Y-66498141D01*
X22458739Y-66018601D01*
X22560000Y-65509525D01*
X22560000Y-64990475D01*
X22458739Y-64481399D01*
X22260107Y-64001859D01*
X21971738Y-63570285D01*
X21604715Y-63203262D01*
X21173141Y-62914893D01*
X20693601Y-62716261D01*
X20184525Y-62615000D01*
X19665475Y-62615000D01*
X19156399Y-62716261D01*
X18676859Y-62914893D01*
X18245285Y-63203262D01*
X17878262Y-63570285D01*
X17589893Y-64001859D01*
X17391261Y-64481399D01*
X17290000Y-64990475D01*
X660000Y-64990475D01*
X660000Y-52027089D01*
X695710Y-51592738D01*
X1865000Y-51592738D01*
X1865000Y-52407262D01*
X2023906Y-53206135D01*
X2335611Y-53958657D01*
X2788136Y-54635909D01*
X3364091Y-55211864D01*
X4041343Y-55664389D01*
X4793865Y-55976094D01*
X5592738Y-56135000D01*
X6407262Y-56135000D01*
X6844036Y-56048120D01*
X53622780Y-56048120D01*
X53622780Y-57262799D01*
X53654395Y-57583794D01*
X53779336Y-57995668D01*
X53982229Y-58375254D01*
X54255276Y-58707964D01*
X54587986Y-58981011D01*
X54967571Y-59183904D01*
X55379445Y-59308845D01*
X55807780Y-59351032D01*
X56236114Y-59308845D01*
X56647988Y-59183904D01*
X57027574Y-58981011D01*
X57360284Y-58707964D01*
X57536324Y-58493457D01*
X63528110Y-58493457D01*
X63528110Y-58815423D01*
X63590922Y-59131203D01*
X63714133Y-59428662D01*
X63893008Y-59696367D01*
X64120673Y-59924032D01*
X64388378Y-60102907D01*
X64685837Y-60226118D01*
X65001617Y-60288930D01*
X65323583Y-60288930D01*
X65639363Y-60226118D01*
X65936822Y-60102907D01*
X66204527Y-59924032D01*
X66432192Y-59696367D01*
X66611067Y-59428662D01*
X66734278Y-59131203D01*
X66797090Y-58815423D01*
X66797090Y-58493457D01*
X67338110Y-58493457D01*
X67338110Y-58815423D01*
X67400922Y-59131203D01*
X67524133Y-59428662D01*
X67703008Y-59696367D01*
X67930673Y-59924032D01*
X68198378Y-60102907D01*
X68495837Y-60226118D01*
X68811617Y-60288930D01*
X69133583Y-60288930D01*
X69449363Y-60226118D01*
X69746822Y-60102907D01*
X70014527Y-59924032D01*
X70242192Y-59696367D01*
X70421067Y-59428662D01*
X70544278Y-59131203D01*
X70607090Y-58815423D01*
X70607090Y-58493457D01*
X70544278Y-58177677D01*
X70421067Y-57880218D01*
X70242192Y-57612513D01*
X70014527Y-57384848D01*
X69746822Y-57205973D01*
X69449363Y-57082762D01*
X69133583Y-57019950D01*
X68811617Y-57019950D01*
X68495837Y-57082762D01*
X68198378Y-57205973D01*
X67930673Y-57384848D01*
X67703008Y-57612513D01*
X67524133Y-57880218D01*
X67400922Y-58177677D01*
X67338110Y-58493457D01*
X66797090Y-58493457D01*
X66734278Y-58177677D01*
X66611067Y-57880218D01*
X66432192Y-57612513D01*
X66204527Y-57384848D01*
X65936822Y-57205973D01*
X65639363Y-57082762D01*
X65323583Y-57019950D01*
X65001617Y-57019950D01*
X64685837Y-57082762D01*
X64388378Y-57205973D01*
X64120673Y-57384848D01*
X63893008Y-57612513D01*
X63714133Y-57880218D01*
X63590922Y-58177677D01*
X63528110Y-58493457D01*
X57536324Y-58493457D01*
X57633331Y-58375254D01*
X57836224Y-57995669D01*
X57961165Y-57583795D01*
X57992780Y-57262800D01*
X57992780Y-56048121D01*
X57961165Y-55727126D01*
X57836224Y-55315252D01*
X57633331Y-54935666D01*
X57360284Y-54602956D01*
X57027574Y-54329909D01*
X56647989Y-54127016D01*
X56236115Y-54002075D01*
X55807780Y-53959888D01*
X55379446Y-54002075D01*
X54967572Y-54127016D01*
X54587987Y-54329909D01*
X54255277Y-54602956D01*
X53982230Y-54935666D01*
X53779336Y-55315251D01*
X53654395Y-55727125D01*
X53622780Y-56048120D01*
X6844036Y-56048120D01*
X7206135Y-55976094D01*
X7958657Y-55664389D01*
X8635909Y-55211864D01*
X9211864Y-54635909D01*
X9664389Y-53958657D01*
X9976094Y-53206135D01*
X10135000Y-52407262D01*
X10135000Y-51592738D01*
X114865000Y-51592738D01*
X114865000Y-52407262D01*
X115023906Y-53206135D01*
X115335611Y-53958657D01*
X115788136Y-54635909D01*
X116364091Y-55211864D01*
X117041343Y-55664389D01*
X117793865Y-55976094D01*
X118592738Y-56135000D01*
X119407262Y-56135000D01*
X120206135Y-55976094D01*
X120958657Y-55664389D01*
X121635909Y-55211864D01*
X122211864Y-54635909D01*
X122664389Y-53958657D01*
X122976094Y-53206135D01*
X123135000Y-52407262D01*
X123135000Y-51592738D01*
X122976094Y-50793865D01*
X122664389Y-50041343D01*
X122211864Y-49364091D01*
X121635909Y-48788136D01*
X120958657Y-48335611D01*
X120206135Y-48023906D01*
X119407262Y-47865000D01*
X118592738Y-47865000D01*
X117793865Y-48023906D01*
X117041343Y-48335611D01*
X116364091Y-48788136D01*
X115788136Y-49364091D01*
X115335611Y-50041343D01*
X115023906Y-50793865D01*
X114865000Y-51592738D01*
X10135000Y-51592738D01*
X9976094Y-50793865D01*
X9664389Y-50041343D01*
X9211864Y-49364091D01*
X8635909Y-48788136D01*
X7958657Y-48335611D01*
X7206135Y-48023906D01*
X6407262Y-47865000D01*
X5592738Y-47865000D01*
X4793865Y-48023906D01*
X4041343Y-48335611D01*
X3364091Y-48788136D01*
X2788136Y-49364091D01*
X2335611Y-50041343D01*
X2023906Y-50793865D01*
X1865000Y-51592738D01*
X695710Y-51592738D01*
X733902Y-51128203D01*
X947001Y-50279818D01*
X1295803Y-49477629D01*
X1770938Y-48743182D01*
X2359646Y-48096202D01*
X3046125Y-47554054D01*
X3811928Y-47131308D01*
X4636491Y-46839316D01*
X5509076Y-46683884D01*
X6015547Y-46660000D01*
X118972911Y-46660000D01*
X119871797Y-46733902D01*
G36*
X68192366Y-79122756D02*
G01*
X68365515Y-79333736D01*
X68576495Y-79506884D01*
X68608599Y-79524044D01*
X68644454Y-79642246D01*
X68715026Y-79774276D01*
X68781275Y-79855000D01*
X68810000Y-79890001D01*
X68838998Y-79913799D01*
X70936201Y-82011003D01*
X70959999Y-82040001D01*
X71075724Y-82134974D01*
X71207753Y-82205546D01*
X71351014Y-82249003D01*
X71462667Y-82260000D01*
X71462676Y-82260000D01*
X71499999Y-82263676D01*
X71537322Y-82260000D01*
X81276289Y-82260000D01*
X81196063Y-82340226D01*
X81082795Y-82509744D01*
X81004774Y-82698102D01*
X80996440Y-82740000D01*
X63615002Y-82740000D01*
X63638804Y-82710997D01*
X64781004Y-81568798D01*
X64810001Y-81545001D01*
X64904974Y-81429276D01*
X64975546Y-81297247D01*
X65019003Y-81153986D01*
X65030000Y-81042333D01*
X65030000Y-81042324D01*
X65033676Y-81005001D01*
X65030000Y-80967678D01*
X65030000Y-79514103D01*
X65043506Y-79506884D01*
X65254486Y-79333736D01*
X65427634Y-79122756D01*
X65540000Y-78912532D01*
X65652366Y-79122756D01*
X65825515Y-79333736D01*
X66036495Y-79506884D01*
X66277201Y-79635543D01*
X66538382Y-79714772D01*
X66810000Y-79741524D01*
X67081619Y-79714772D01*
X67342800Y-79635543D01*
X67583506Y-79506884D01*
X67794486Y-79333736D01*
X67967634Y-79122756D01*
X68080000Y-78912532D01*
X68192366Y-79122756D01*
G37*
X68192366Y-79122756D02*
X68365515Y-79333736D01*
X68576495Y-79506884D01*
X68608599Y-79524044D01*
X68644454Y-79642246D01*
X68715026Y-79774276D01*
X68781275Y-79855000D01*
X68810000Y-79890001D01*
X68838998Y-79913799D01*
X70936201Y-82011003D01*
X70959999Y-82040001D01*
X71075724Y-82134974D01*
X71207753Y-82205546D01*
X71351014Y-82249003D01*
X71462667Y-82260000D01*
X71462676Y-82260000D01*
X71499999Y-82263676D01*
X71537322Y-82260000D01*
X81276289Y-82260000D01*
X81196063Y-82340226D01*
X81082795Y-82509744D01*
X81004774Y-82698102D01*
X80996440Y-82740000D01*
X63615002Y-82740000D01*
X63638804Y-82710997D01*
X64781004Y-81568798D01*
X64810001Y-81545001D01*
X64904974Y-81429276D01*
X64975546Y-81297247D01*
X65019003Y-81153986D01*
X65030000Y-81042333D01*
X65030000Y-81042324D01*
X65033676Y-81005001D01*
X65030000Y-80967678D01*
X65030000Y-79514103D01*
X65043506Y-79506884D01*
X65254486Y-79333736D01*
X65427634Y-79122756D01*
X65540000Y-78912532D01*
X65652366Y-79122756D01*
X65825515Y-79333736D01*
X66036495Y-79506884D01*
X66277201Y-79635543D01*
X66538382Y-79714772D01*
X66810000Y-79741524D01*
X67081619Y-79714772D01*
X67342800Y-79635543D01*
X67583506Y-79506884D01*
X67794486Y-79333736D01*
X67967634Y-79122756D01*
X68080000Y-78912532D01*
X68192366Y-79122756D01*
G36*
X57965000Y-71039802D02*
G01*
X57965000Y-71101939D01*
X58004774Y-71301898D01*
X58082795Y-71490256D01*
X58196063Y-71659774D01*
X58340226Y-71803937D01*
X58509744Y-71917205D01*
X58698102Y-71995226D01*
X58898061Y-72035000D01*
X58960199Y-72035000D01*
X59936201Y-73011003D01*
X59959999Y-73040001D01*
X60075724Y-73134974D01*
X60207753Y-73205546D01*
X60321335Y-73240000D01*
X40567728Y-73240000D01*
X40575226Y-73221898D01*
X40615000Y-73021939D01*
X40615000Y-72818061D01*
X40575226Y-72618102D01*
X40501453Y-72440000D01*
X40882678Y-72440000D01*
X40920000Y-72443676D01*
X40957322Y-72440000D01*
X40957333Y-72440000D01*
X41068986Y-72429003D01*
X41212247Y-72385546D01*
X41344276Y-72314974D01*
X41405170Y-72265000D01*
X41471939Y-72265000D01*
X41671898Y-72225226D01*
X41860256Y-72147205D01*
X42029774Y-72033937D01*
X42173937Y-71889774D01*
X42287205Y-71720256D01*
X42365226Y-71531898D01*
X42405000Y-71331939D01*
X42405000Y-71160020D01*
X54585219Y-71160020D01*
X55465000Y-72039802D01*
X55465000Y-72101939D01*
X55504774Y-72301898D01*
X55582795Y-72490256D01*
X55696063Y-72659774D01*
X55840226Y-72803937D01*
X56009744Y-72917205D01*
X56198102Y-72995226D01*
X56398061Y-73035000D01*
X56601939Y-73035000D01*
X56801898Y-72995226D01*
X56990256Y-72917205D01*
X57159774Y-72803937D01*
X57303937Y-72659774D01*
X57417205Y-72490256D01*
X57495226Y-72301898D01*
X57535000Y-72101939D01*
X57535000Y-71898061D01*
X57495226Y-71698102D01*
X57417205Y-71509744D01*
X57303937Y-71340226D01*
X57159774Y-71196063D01*
X56990256Y-71082795D01*
X56801898Y-71004774D01*
X56601939Y-70965000D01*
X56539802Y-70965000D01*
X56284812Y-70710010D01*
X57635209Y-70710010D01*
X57965000Y-71039802D01*
G37*
X57965000Y-71039802D02*
X57965000Y-71101939D01*
X58004774Y-71301898D01*
X58082795Y-71490256D01*
X58196063Y-71659774D01*
X58340226Y-71803937D01*
X58509744Y-71917205D01*
X58698102Y-71995226D01*
X58898061Y-72035000D01*
X58960199Y-72035000D01*
X59936201Y-73011003D01*
X59959999Y-73040001D01*
X60075724Y-73134974D01*
X60207753Y-73205546D01*
X60321335Y-73240000D01*
X40567728Y-73240000D01*
X40575226Y-73221898D01*
X40615000Y-73021939D01*
X40615000Y-72818061D01*
X40575226Y-72618102D01*
X40501453Y-72440000D01*
X40882678Y-72440000D01*
X40920000Y-72443676D01*
X40957322Y-72440000D01*
X40957333Y-72440000D01*
X41068986Y-72429003D01*
X41212247Y-72385546D01*
X41344276Y-72314974D01*
X41405170Y-72265000D01*
X41471939Y-72265000D01*
X41671898Y-72225226D01*
X41860256Y-72147205D01*
X42029774Y-72033937D01*
X42173937Y-71889774D01*
X42287205Y-71720256D01*
X42365226Y-71531898D01*
X42405000Y-71331939D01*
X42405000Y-71160020D01*
X54585219Y-71160020D01*
X55465000Y-72039802D01*
X55465000Y-72101939D01*
X55504774Y-72301898D01*
X55582795Y-72490256D01*
X55696063Y-72659774D01*
X55840226Y-72803937D01*
X56009744Y-72917205D01*
X56198102Y-72995226D01*
X56398061Y-73035000D01*
X56601939Y-73035000D01*
X56801898Y-72995226D01*
X56990256Y-72917205D01*
X57159774Y-72803937D01*
X57303937Y-72659774D01*
X57417205Y-72490256D01*
X57495226Y-72301898D01*
X57535000Y-72101939D01*
X57535000Y-71898061D01*
X57495226Y-71698102D01*
X57417205Y-71509744D01*
X57303937Y-71340226D01*
X57159774Y-71196063D01*
X56990256Y-71082795D01*
X56801898Y-71004774D01*
X56601939Y-70965000D01*
X56539802Y-70965000D01*
X56284812Y-70710010D01*
X57635209Y-70710010D01*
X57965000Y-71039802D01*
G36*
X60465000Y-71039802D02*
G01*
X60465000Y-71101939D01*
X60504774Y-71301898D01*
X60582795Y-71490256D01*
X60618512Y-71543710D01*
X60035000Y-70960199D01*
X60035000Y-70898061D01*
X59995226Y-70698102D01*
X59917205Y-70509744D01*
X59881487Y-70456289D01*
X60465000Y-71039802D01*
G37*
X60465000Y-71039802D02*
X60465000Y-71101939D01*
X60504774Y-71301898D01*
X60582795Y-71490256D01*
X60618512Y-71543710D01*
X60035000Y-70960199D01*
X60035000Y-70898061D01*
X59995226Y-70698102D01*
X59917205Y-70509744D01*
X59881487Y-70456289D01*
X60465000Y-71039802D01*
G36*
X65965000Y-69539802D02*
G01*
X65965000Y-69601939D01*
X66004774Y-69801898D01*
X66082795Y-69990256D01*
X66196063Y-70159774D01*
X66276289Y-70240000D01*
X62203711Y-70240000D01*
X62159774Y-70196063D01*
X61990256Y-70082795D01*
X61801898Y-70004774D01*
X61601939Y-69965000D01*
X61539802Y-69965000D01*
X60834801Y-69260000D01*
X65685199Y-69260000D01*
X65965000Y-69539802D01*
G37*
X65965000Y-69539802D02*
X65965000Y-69601939D01*
X66004774Y-69801898D01*
X66082795Y-69990256D01*
X66196063Y-70159774D01*
X66276289Y-70240000D01*
X62203711Y-70240000D01*
X62159774Y-70196063D01*
X61990256Y-70082795D01*
X61801898Y-70004774D01*
X61601939Y-69965000D01*
X61539802Y-69965000D01*
X60834801Y-69260000D01*
X65685199Y-69260000D01*
X65965000Y-69539802D01*
G36*
X29485241Y-67784637D02*
G01*
X29639022Y-67887390D01*
X29650998Y-68008985D01*
X29694454Y-68152246D01*
X29765026Y-68284276D01*
X29836201Y-68371002D01*
X29860000Y-68400001D01*
X29888998Y-68423799D01*
X31105218Y-69640020D01*
X30734822Y-69640020D01*
X29154260Y-68059459D01*
X29264494Y-68000537D01*
X29361185Y-67921185D01*
X29440537Y-67824494D01*
X29469992Y-67769388D01*
X29485241Y-67784637D01*
G37*
X29485241Y-67784637D02*
X29639022Y-67887390D01*
X29650998Y-68008985D01*
X29694454Y-68152246D01*
X29765026Y-68284276D01*
X29836201Y-68371002D01*
X29860000Y-68400001D01*
X29888998Y-68423799D01*
X31105218Y-69640020D01*
X30734822Y-69640020D01*
X29154260Y-68059459D01*
X29264494Y-68000537D01*
X29361185Y-67921185D01*
X29440537Y-67824494D01*
X29469992Y-67769388D01*
X29485241Y-67784637D01*
G36*
X48940000Y-63964802D02*
G01*
X48940001Y-66332668D01*
X48936324Y-66370000D01*
X48940001Y-66407333D01*
X48950998Y-66518986D01*
X48953934Y-66528665D01*
X48994454Y-66662246D01*
X49065026Y-66794276D01*
X49130037Y-66873491D01*
X49160000Y-66910001D01*
X49188998Y-66933799D01*
X50995198Y-68740000D01*
X33944802Y-68740000D01*
X33450000Y-68245199D01*
X33450000Y-67888043D01*
X33604759Y-67784637D01*
X33804637Y-67584759D01*
X33835000Y-67539317D01*
X33865363Y-67584759D01*
X34065241Y-67784637D01*
X34300273Y-67941680D01*
X34561426Y-68049853D01*
X34838665Y-68105000D01*
X35121335Y-68105000D01*
X35398574Y-68049853D01*
X35659727Y-67941680D01*
X35894759Y-67784637D01*
X36094637Y-67584759D01*
X36125000Y-67539317D01*
X36155363Y-67584759D01*
X36355241Y-67784637D01*
X36590273Y-67941680D01*
X36851426Y-68049853D01*
X37128665Y-68105000D01*
X37411335Y-68105000D01*
X37688574Y-68049853D01*
X37949727Y-67941680D01*
X38184759Y-67784637D01*
X38384637Y-67584759D01*
X38541680Y-67349727D01*
X38649853Y-67088574D01*
X38705000Y-66811335D01*
X38705000Y-66528665D01*
X38649853Y-66251426D01*
X38541680Y-65990273D01*
X38384637Y-65755241D01*
X38184759Y-65555363D01*
X38032034Y-65453315D01*
X38019003Y-65321014D01*
X37975546Y-65177753D01*
X37904974Y-65045724D01*
X37859633Y-64990475D01*
X42290000Y-64990475D01*
X42290000Y-65509525D01*
X42391261Y-66018601D01*
X42589893Y-66498141D01*
X42878262Y-66929715D01*
X43245285Y-67296738D01*
X43676859Y-67585107D01*
X44156399Y-67783739D01*
X44665475Y-67885000D01*
X45184525Y-67885000D01*
X45693601Y-67783739D01*
X46173141Y-67585107D01*
X46604715Y-67296738D01*
X46971738Y-66929715D01*
X47260107Y-66498141D01*
X47458739Y-66018601D01*
X47560000Y-65509525D01*
X47560000Y-64990475D01*
X47458739Y-64481399D01*
X47260107Y-64001859D01*
X46971738Y-63570285D01*
X46604715Y-63203262D01*
X46173141Y-62914893D01*
X45693601Y-62716261D01*
X45184525Y-62615000D01*
X44665475Y-62615000D01*
X44156399Y-62716261D01*
X43676859Y-62914893D01*
X43245285Y-63203262D01*
X42878262Y-63570285D01*
X42589893Y-64001859D01*
X42391261Y-64481399D01*
X42290000Y-64990475D01*
X37859633Y-64990475D01*
X37833799Y-64958997D01*
X37810001Y-64929999D01*
X37781004Y-64906202D01*
X37560000Y-64685198D01*
X37560000Y-64548665D01*
X37504853Y-64271426D01*
X37449353Y-64137438D01*
X37688574Y-64089853D01*
X37949727Y-63981680D01*
X38184759Y-63824637D01*
X38384637Y-63624759D01*
X38541680Y-63389727D01*
X38649853Y-63128574D01*
X38705000Y-62851335D01*
X38705000Y-62568665D01*
X38682893Y-62457527D01*
X38749744Y-62502195D01*
X38938102Y-62580216D01*
X39138061Y-62619990D01*
X39341939Y-62619990D01*
X39541898Y-62580216D01*
X39730256Y-62502195D01*
X39899774Y-62388927D01*
X40043937Y-62244764D01*
X40157205Y-62075246D01*
X40235226Y-61886888D01*
X40275000Y-61686929D01*
X40275000Y-61619990D01*
X46595189Y-61619990D01*
X48940000Y-63964802D01*
G37*
X48940000Y-63964802D02*
X48940001Y-66332668D01*
X48936324Y-66370000D01*
X48940001Y-66407333D01*
X48950998Y-66518986D01*
X48953934Y-66528665D01*
X48994454Y-66662246D01*
X49065026Y-66794276D01*
X49130037Y-66873491D01*
X49160000Y-66910001D01*
X49188998Y-66933799D01*
X50995198Y-68740000D01*
X33944802Y-68740000D01*
X33450000Y-68245199D01*
X33450000Y-67888043D01*
X33604759Y-67784637D01*
X33804637Y-67584759D01*
X33835000Y-67539317D01*
X33865363Y-67584759D01*
X34065241Y-67784637D01*
X34300273Y-67941680D01*
X34561426Y-68049853D01*
X34838665Y-68105000D01*
X35121335Y-68105000D01*
X35398574Y-68049853D01*
X35659727Y-67941680D01*
X35894759Y-67784637D01*
X36094637Y-67584759D01*
X36125000Y-67539317D01*
X36155363Y-67584759D01*
X36355241Y-67784637D01*
X36590273Y-67941680D01*
X36851426Y-68049853D01*
X37128665Y-68105000D01*
X37411335Y-68105000D01*
X37688574Y-68049853D01*
X37949727Y-67941680D01*
X38184759Y-67784637D01*
X38384637Y-67584759D01*
X38541680Y-67349727D01*
X38649853Y-67088574D01*
X38705000Y-66811335D01*
X38705000Y-66528665D01*
X38649853Y-66251426D01*
X38541680Y-65990273D01*
X38384637Y-65755241D01*
X38184759Y-65555363D01*
X38032034Y-65453315D01*
X38019003Y-65321014D01*
X37975546Y-65177753D01*
X37904974Y-65045724D01*
X37859633Y-64990475D01*
X42290000Y-64990475D01*
X42290000Y-65509525D01*
X42391261Y-66018601D01*
X42589893Y-66498141D01*
X42878262Y-66929715D01*
X43245285Y-67296738D01*
X43676859Y-67585107D01*
X44156399Y-67783739D01*
X44665475Y-67885000D01*
X45184525Y-67885000D01*
X45693601Y-67783739D01*
X46173141Y-67585107D01*
X46604715Y-67296738D01*
X46971738Y-66929715D01*
X47260107Y-66498141D01*
X47458739Y-66018601D01*
X47560000Y-65509525D01*
X47560000Y-64990475D01*
X47458739Y-64481399D01*
X47260107Y-64001859D01*
X46971738Y-63570285D01*
X46604715Y-63203262D01*
X46173141Y-62914893D01*
X45693601Y-62716261D01*
X45184525Y-62615000D01*
X44665475Y-62615000D01*
X44156399Y-62716261D01*
X43676859Y-62914893D01*
X43245285Y-63203262D01*
X42878262Y-63570285D01*
X42589893Y-64001859D01*
X42391261Y-64481399D01*
X42290000Y-64990475D01*
X37859633Y-64990475D01*
X37833799Y-64958997D01*
X37810001Y-64929999D01*
X37781004Y-64906202D01*
X37560000Y-64685198D01*
X37560000Y-64548665D01*
X37504853Y-64271426D01*
X37449353Y-64137438D01*
X37688574Y-64089853D01*
X37949727Y-63981680D01*
X38184759Y-63824637D01*
X38384637Y-63624759D01*
X38541680Y-63389727D01*
X38649853Y-63128574D01*
X38705000Y-62851335D01*
X38705000Y-62568665D01*
X38682893Y-62457527D01*
X38749744Y-62502195D01*
X38938102Y-62580216D01*
X39138061Y-62619990D01*
X39341939Y-62619990D01*
X39541898Y-62580216D01*
X39730256Y-62502195D01*
X39899774Y-62388927D01*
X40043937Y-62244764D01*
X40157205Y-62075246D01*
X40235226Y-61886888D01*
X40275000Y-61686929D01*
X40275000Y-61619990D01*
X46595189Y-61619990D01*
X48940000Y-63964802D01*
G36*
X31575363Y-67584759D02*
G01*
X31775241Y-67784637D01*
X31930001Y-67888044D01*
X31930001Y-68315199D01*
X31357099Y-67742297D01*
X31514637Y-67584759D01*
X31545000Y-67539317D01*
X31575363Y-67584759D01*
G37*
X31575363Y-67584759D02*
X31775241Y-67784637D01*
X31930001Y-67888044D01*
X31930001Y-68315199D01*
X31357099Y-67742297D01*
X31514637Y-67584759D01*
X31545000Y-67539317D01*
X31575363Y-67584759D01*
G36*
X33865363Y-61795241D02*
G01*
X33835000Y-61840683D01*
X33804637Y-61795241D01*
X33629386Y-61619990D01*
X34040614Y-61619990D01*
X33865363Y-61795241D01*
G37*
X33865363Y-61795241D02*
X33835000Y-61840683D01*
X33804637Y-61795241D01*
X33629386Y-61619990D01*
X34040614Y-61619990D01*
X33865363Y-61795241D01*
M02*
