G04 #@! TF.GenerationSoftware,KiCad,Pcbnew,5.1.6*
G04 #@! TF.CreationDate,2020-10-16T21:43:55+02:00*
G04 #@! TF.ProjectId,raveracer,72617665-7261-4636-9572-2e6b69636164,rev?*
G04 #@! TF.SameCoordinates,Original*
G04 #@! TF.FileFunction,Soldermask,Bot*
G04 #@! TF.FilePolarity,Negative*
%FSLAX46Y46*%
G04 Gerber Fmt 4.6, Leading zero omitted, Abs format (unit mm)*
G04 Created by KiCad (PCBNEW 5.1.6) date 2020-10-16 21:43:55*
%MOMM*%
%LPD*%
G01*
G04 APERTURE LIST*
%ADD10C,0.100000*%
G04 APERTURE END LIST*
D10*
G36*
X7035787Y-81585462D02*
G01*
X7161466Y-81637520D01*
X7682029Y-81853144D01*
X8263631Y-82241758D01*
X8758242Y-82736369D01*
X9146856Y-83317971D01*
X9146856Y-83317972D01*
X9414538Y-83964213D01*
X9551000Y-84650256D01*
X9551000Y-85349744D01*
X9414538Y-86035787D01*
X9414537Y-86035789D01*
X9146856Y-86682029D01*
X8758242Y-87263631D01*
X8263631Y-87758242D01*
X7682029Y-88146856D01*
X7225068Y-88336135D01*
X7035787Y-88414538D01*
X6349744Y-88551000D01*
X5650256Y-88551000D01*
X4964213Y-88414538D01*
X4774932Y-88336135D01*
X4317971Y-88146856D01*
X3736369Y-87758242D01*
X3241758Y-87263631D01*
X2853144Y-86682029D01*
X2585463Y-86035789D01*
X2585462Y-86035787D01*
X2449000Y-85349744D01*
X2449000Y-84650256D01*
X2585462Y-83964213D01*
X2853144Y-83317972D01*
X2853144Y-83317971D01*
X3241758Y-82736369D01*
X3736369Y-82241758D01*
X4317971Y-81853144D01*
X4838534Y-81637520D01*
X4964213Y-81585462D01*
X5650256Y-81449000D01*
X6349744Y-81449000D01*
X7035787Y-81585462D01*
G37*
G36*
X120035787Y-81585462D02*
G01*
X120161466Y-81637520D01*
X120682029Y-81853144D01*
X121263631Y-82241758D01*
X121758242Y-82736369D01*
X122146856Y-83317971D01*
X122146856Y-83317972D01*
X122414538Y-83964213D01*
X122551000Y-84650256D01*
X122551000Y-85349744D01*
X122414538Y-86035787D01*
X122414537Y-86035789D01*
X122146856Y-86682029D01*
X121758242Y-87263631D01*
X121263631Y-87758242D01*
X120682029Y-88146856D01*
X120225068Y-88336135D01*
X120035787Y-88414538D01*
X119349744Y-88551000D01*
X118650256Y-88551000D01*
X117964213Y-88414538D01*
X117774932Y-88336135D01*
X117317971Y-88146856D01*
X116736369Y-87758242D01*
X116241758Y-87263631D01*
X115853144Y-86682029D01*
X115585463Y-86035789D01*
X115585462Y-86035787D01*
X115449000Y-85349744D01*
X115449000Y-84650256D01*
X115585462Y-83964213D01*
X115853144Y-83317972D01*
X115853144Y-83317971D01*
X116241758Y-82736369D01*
X116736369Y-82241758D01*
X117317971Y-81853144D01*
X117838534Y-81637520D01*
X117964213Y-81585462D01*
X118650256Y-81449000D01*
X119349744Y-81449000D01*
X120035787Y-81585462D01*
G37*
G36*
X32868228Y-83901703D02*
G01*
X33023100Y-83965853D01*
X33162481Y-84058985D01*
X33281015Y-84177519D01*
X33374147Y-84316900D01*
X33438297Y-84471772D01*
X33471000Y-84636184D01*
X33471000Y-84803816D01*
X33438297Y-84968228D01*
X33374147Y-85123100D01*
X33281015Y-85262481D01*
X33162481Y-85381015D01*
X33023100Y-85474147D01*
X32868228Y-85538297D01*
X32703816Y-85571000D01*
X32536184Y-85571000D01*
X32371772Y-85538297D01*
X32216900Y-85474147D01*
X32077519Y-85381015D01*
X31958985Y-85262481D01*
X31865853Y-85123100D01*
X31801703Y-84968228D01*
X31769000Y-84803816D01*
X31769000Y-84636184D01*
X31801703Y-84471772D01*
X31865853Y-84316900D01*
X31958985Y-84177519D01*
X32077519Y-84058985D01*
X32216900Y-83965853D01*
X32371772Y-83901703D01*
X32536184Y-83869000D01*
X32703816Y-83869000D01*
X32868228Y-83901703D01*
G37*
G36*
X25248228Y-83901703D02*
G01*
X25403100Y-83965853D01*
X25542481Y-84058985D01*
X25661015Y-84177519D01*
X25754147Y-84316900D01*
X25818297Y-84471772D01*
X25851000Y-84636184D01*
X25851000Y-84803816D01*
X25818297Y-84968228D01*
X25754147Y-85123100D01*
X25661015Y-85262481D01*
X25542481Y-85381015D01*
X25403100Y-85474147D01*
X25248228Y-85538297D01*
X25083816Y-85571000D01*
X24916184Y-85571000D01*
X24751772Y-85538297D01*
X24596900Y-85474147D01*
X24457519Y-85381015D01*
X24338985Y-85262481D01*
X24245853Y-85123100D01*
X24181703Y-84968228D01*
X24149000Y-84803816D01*
X24149000Y-84636184D01*
X24181703Y-84471772D01*
X24245853Y-84316900D01*
X24338985Y-84177519D01*
X24457519Y-84058985D01*
X24596900Y-83965853D01*
X24751772Y-83901703D01*
X24916184Y-83869000D01*
X25083816Y-83869000D01*
X25248228Y-83901703D01*
G37*
G36*
X25248228Y-81361703D02*
G01*
X25403100Y-81425853D01*
X25542481Y-81518985D01*
X25661015Y-81637519D01*
X25754147Y-81776900D01*
X25818297Y-81931772D01*
X25851000Y-82096184D01*
X25851000Y-82263816D01*
X25818297Y-82428228D01*
X25754147Y-82583100D01*
X25661015Y-82722481D01*
X25542481Y-82841015D01*
X25403100Y-82934147D01*
X25248228Y-82998297D01*
X25083816Y-83031000D01*
X24916184Y-83031000D01*
X24751772Y-82998297D01*
X24596900Y-82934147D01*
X24457519Y-82841015D01*
X24338985Y-82722481D01*
X24245853Y-82583100D01*
X24181703Y-82428228D01*
X24149000Y-82263816D01*
X24149000Y-82096184D01*
X24181703Y-81931772D01*
X24245853Y-81776900D01*
X24338985Y-81637519D01*
X24457519Y-81518985D01*
X24596900Y-81425853D01*
X24751772Y-81361703D01*
X24916184Y-81329000D01*
X25083816Y-81329000D01*
X25248228Y-81361703D01*
G37*
G36*
X32868228Y-81361703D02*
G01*
X33023100Y-81425853D01*
X33162481Y-81518985D01*
X33281015Y-81637519D01*
X33374147Y-81776900D01*
X33438297Y-81931772D01*
X33471000Y-82096184D01*
X33471000Y-82263816D01*
X33438297Y-82428228D01*
X33374147Y-82583100D01*
X33281015Y-82722481D01*
X33162481Y-82841015D01*
X33023100Y-82934147D01*
X32868228Y-82998297D01*
X32703816Y-83031000D01*
X32536184Y-83031000D01*
X32371772Y-82998297D01*
X32216900Y-82934147D01*
X32077519Y-82841015D01*
X31958985Y-82722481D01*
X31865853Y-82583100D01*
X31801703Y-82428228D01*
X31769000Y-82263816D01*
X31769000Y-82096184D01*
X31801703Y-81931772D01*
X31865853Y-81776900D01*
X31958985Y-81637519D01*
X32077519Y-81518985D01*
X32216900Y-81425853D01*
X32371772Y-81361703D01*
X32536184Y-81329000D01*
X32703816Y-81329000D01*
X32868228Y-81361703D01*
G37*
G36*
X42319059Y-81477860D02*
G01*
X42418344Y-81518985D01*
X42455732Y-81534472D01*
X42578735Y-81616660D01*
X42683340Y-81721265D01*
X42683341Y-81721267D01*
X42765529Y-81844270D01*
X42822140Y-81980941D01*
X42851000Y-82126033D01*
X42851000Y-82273967D01*
X42822140Y-82419059D01*
X42765528Y-82555732D01*
X42683340Y-82678735D01*
X42578735Y-82783340D01*
X42455732Y-82865528D01*
X42455731Y-82865529D01*
X42455730Y-82865529D01*
X42319059Y-82922140D01*
X42173968Y-82951000D01*
X42026032Y-82951000D01*
X41880941Y-82922140D01*
X41744270Y-82865529D01*
X41744269Y-82865529D01*
X41744268Y-82865528D01*
X41621265Y-82783340D01*
X41516660Y-82678735D01*
X41434472Y-82555732D01*
X41377860Y-82419059D01*
X41349000Y-82273967D01*
X41349000Y-82126033D01*
X41377860Y-81980941D01*
X41434471Y-81844270D01*
X41516659Y-81721267D01*
X41516660Y-81721265D01*
X41621265Y-81616660D01*
X41744268Y-81534472D01*
X41781657Y-81518985D01*
X41880941Y-81477860D01*
X42026032Y-81449000D01*
X42173968Y-81449000D01*
X42319059Y-81477860D01*
G37*
G36*
X37239059Y-81477860D02*
G01*
X37338344Y-81518985D01*
X37375732Y-81534472D01*
X37498735Y-81616660D01*
X37603340Y-81721265D01*
X37603341Y-81721267D01*
X37685529Y-81844270D01*
X37742140Y-81980941D01*
X37771000Y-82126033D01*
X37771000Y-82273967D01*
X37742140Y-82419059D01*
X37685528Y-82555732D01*
X37603340Y-82678735D01*
X37498735Y-82783340D01*
X37375732Y-82865528D01*
X37375731Y-82865529D01*
X37375730Y-82865529D01*
X37239059Y-82922140D01*
X37093968Y-82951000D01*
X36946032Y-82951000D01*
X36800941Y-82922140D01*
X36664270Y-82865529D01*
X36664269Y-82865529D01*
X36664268Y-82865528D01*
X36541265Y-82783340D01*
X36436660Y-82678735D01*
X36354472Y-82555732D01*
X36297860Y-82419059D01*
X36269000Y-82273967D01*
X36269000Y-82126033D01*
X36297860Y-81980941D01*
X36354471Y-81844270D01*
X36436659Y-81721267D01*
X36436660Y-81721265D01*
X36541265Y-81616660D01*
X36664268Y-81534472D01*
X36701657Y-81518985D01*
X36800941Y-81477860D01*
X36946032Y-81449000D01*
X37093968Y-81449000D01*
X37239059Y-81477860D01*
G37*
G36*
X25248228Y-78821703D02*
G01*
X25403100Y-78885853D01*
X25542481Y-78978985D01*
X25661015Y-79097519D01*
X25754147Y-79236900D01*
X25818297Y-79391772D01*
X25851000Y-79556184D01*
X25851000Y-79723816D01*
X25818297Y-79888228D01*
X25754147Y-80043100D01*
X25661015Y-80182481D01*
X25542481Y-80301015D01*
X25403100Y-80394147D01*
X25248228Y-80458297D01*
X25083816Y-80491000D01*
X24916184Y-80491000D01*
X24751772Y-80458297D01*
X24596900Y-80394147D01*
X24457519Y-80301015D01*
X24338985Y-80182481D01*
X24245853Y-80043100D01*
X24181703Y-79888228D01*
X24149000Y-79723816D01*
X24149000Y-79556184D01*
X24181703Y-79391772D01*
X24245853Y-79236900D01*
X24338985Y-79097519D01*
X24457519Y-78978985D01*
X24596900Y-78885853D01*
X24751772Y-78821703D01*
X24916184Y-78789000D01*
X25083816Y-78789000D01*
X25248228Y-78821703D01*
G37*
G36*
X32868228Y-78821703D02*
G01*
X33023100Y-78885853D01*
X33162481Y-78978985D01*
X33281015Y-79097519D01*
X33374147Y-79236900D01*
X33438297Y-79391772D01*
X33471000Y-79556184D01*
X33471000Y-79723816D01*
X33438297Y-79888228D01*
X33374147Y-80043100D01*
X33281015Y-80182481D01*
X33162481Y-80301015D01*
X33023100Y-80394147D01*
X32868228Y-80458297D01*
X32703816Y-80491000D01*
X32536184Y-80491000D01*
X32371772Y-80458297D01*
X32216900Y-80394147D01*
X32077519Y-80301015D01*
X31958985Y-80182481D01*
X31865853Y-80043100D01*
X31801703Y-79888228D01*
X31769000Y-79723816D01*
X31769000Y-79556184D01*
X31801703Y-79391772D01*
X31865853Y-79236900D01*
X31958985Y-79097519D01*
X32077519Y-78978985D01*
X32216900Y-78885853D01*
X32371772Y-78821703D01*
X32536184Y-78789000D01*
X32703816Y-78789000D01*
X32868228Y-78821703D01*
G37*
G36*
X18748228Y-78781703D02*
G01*
X18903100Y-78845853D01*
X19042481Y-78938985D01*
X19161015Y-79057519D01*
X19254147Y-79196900D01*
X19318297Y-79351772D01*
X19351000Y-79516184D01*
X19351000Y-79683816D01*
X19318297Y-79848228D01*
X19254147Y-80003100D01*
X19161015Y-80142481D01*
X19042481Y-80261015D01*
X18903100Y-80354147D01*
X18748228Y-80418297D01*
X18583816Y-80451000D01*
X18416184Y-80451000D01*
X18251772Y-80418297D01*
X18096900Y-80354147D01*
X17957519Y-80261015D01*
X17838985Y-80142481D01*
X17745853Y-80003100D01*
X17681703Y-79848228D01*
X17649000Y-79683816D01*
X17649000Y-79516184D01*
X17681703Y-79351772D01*
X17745853Y-79196900D01*
X17838985Y-79057519D01*
X17957519Y-78938985D01*
X18096900Y-78845853D01*
X18251772Y-78781703D01*
X18416184Y-78749000D01*
X18583816Y-78749000D01*
X18748228Y-78781703D01*
G37*
G36*
X21248228Y-78781703D02*
G01*
X21403100Y-78845853D01*
X21542481Y-78938985D01*
X21661015Y-79057519D01*
X21754147Y-79196900D01*
X21818297Y-79351772D01*
X21851000Y-79516184D01*
X21851000Y-79683816D01*
X21818297Y-79848228D01*
X21754147Y-80003100D01*
X21661015Y-80142481D01*
X21542481Y-80261015D01*
X21403100Y-80354147D01*
X21248228Y-80418297D01*
X21083816Y-80451000D01*
X20916184Y-80451000D01*
X20751772Y-80418297D01*
X20596900Y-80354147D01*
X20457519Y-80261015D01*
X20338985Y-80142481D01*
X20245853Y-80003100D01*
X20181703Y-79848228D01*
X20149000Y-79683816D01*
X20149000Y-79516184D01*
X20181703Y-79351772D01*
X20245853Y-79196900D01*
X20338985Y-79057519D01*
X20457519Y-78938985D01*
X20596900Y-78845853D01*
X20751772Y-78781703D01*
X20916184Y-78749000D01*
X21083816Y-78749000D01*
X21248228Y-78781703D01*
G37*
G36*
X69507134Y-76860778D02*
G01*
X69658231Y-76906613D01*
X69797482Y-76981044D01*
X69919538Y-77081212D01*
X70019706Y-77203267D01*
X70094137Y-77342518D01*
X70139972Y-77493615D01*
X70151570Y-77611375D01*
X70151570Y-78388625D01*
X70139972Y-78506385D01*
X70094137Y-78657482D01*
X70019706Y-78796733D01*
X69919538Y-78918788D01*
X69797483Y-79018956D01*
X69658232Y-79093387D01*
X69507135Y-79139222D01*
X69350000Y-79154698D01*
X69192866Y-79139222D01*
X69041769Y-79093387D01*
X68902518Y-79018956D01*
X68780463Y-78918788D01*
X68680295Y-78796733D01*
X68605864Y-78657482D01*
X68605863Y-78657481D01*
X68560028Y-78506386D01*
X68548430Y-78388626D01*
X68548430Y-77611375D01*
X68560028Y-77493618D01*
X68560028Y-77493616D01*
X68605863Y-77342519D01*
X68680294Y-77203268D01*
X68780462Y-77081212D01*
X68902517Y-76981044D01*
X69041768Y-76906613D01*
X69192865Y-76860778D01*
X69350000Y-76845302D01*
X69507134Y-76860778D01*
G37*
G36*
X61887134Y-76860778D02*
G01*
X62038231Y-76906613D01*
X62177482Y-76981044D01*
X62299538Y-77081212D01*
X62399706Y-77203267D01*
X62474137Y-77342518D01*
X62519972Y-77493615D01*
X62531570Y-77611375D01*
X62531570Y-78388625D01*
X62519972Y-78506385D01*
X62474137Y-78657482D01*
X62399706Y-78796733D01*
X62299538Y-78918788D01*
X62177483Y-79018956D01*
X62038232Y-79093387D01*
X61887135Y-79139222D01*
X61730000Y-79154698D01*
X61572866Y-79139222D01*
X61421769Y-79093387D01*
X61282518Y-79018956D01*
X61160463Y-78918788D01*
X61060295Y-78796733D01*
X60985864Y-78657482D01*
X60985863Y-78657481D01*
X60940028Y-78506386D01*
X60928430Y-78388626D01*
X60928430Y-77611375D01*
X60940028Y-77493618D01*
X60940028Y-77493616D01*
X60985863Y-77342519D01*
X61060294Y-77203268D01*
X61160462Y-77081212D01*
X61282517Y-76981044D01*
X61421768Y-76906613D01*
X61572865Y-76860778D01*
X61730000Y-76845302D01*
X61887134Y-76860778D01*
G37*
G36*
X64427134Y-76860778D02*
G01*
X64578231Y-76906613D01*
X64717482Y-76981044D01*
X64839538Y-77081212D01*
X64939706Y-77203267D01*
X65014137Y-77342518D01*
X65059972Y-77493615D01*
X65071570Y-77611375D01*
X65071570Y-78388625D01*
X65059972Y-78506385D01*
X65014137Y-78657482D01*
X64939706Y-78796733D01*
X64839538Y-78918788D01*
X64717483Y-79018956D01*
X64578232Y-79093387D01*
X64427135Y-79139222D01*
X64270000Y-79154698D01*
X64112866Y-79139222D01*
X63961769Y-79093387D01*
X63822518Y-79018956D01*
X63700463Y-78918788D01*
X63600295Y-78796733D01*
X63525864Y-78657482D01*
X63525863Y-78657481D01*
X63480028Y-78506386D01*
X63468430Y-78388626D01*
X63468430Y-77611375D01*
X63480028Y-77493618D01*
X63480028Y-77493616D01*
X63525863Y-77342519D01*
X63600294Y-77203268D01*
X63700462Y-77081212D01*
X63822517Y-76981044D01*
X63961768Y-76906613D01*
X64112865Y-76860778D01*
X64270000Y-76845302D01*
X64427134Y-76860778D01*
G37*
G36*
X66967134Y-76860778D02*
G01*
X67118231Y-76906613D01*
X67257482Y-76981044D01*
X67379538Y-77081212D01*
X67479706Y-77203267D01*
X67554137Y-77342518D01*
X67599972Y-77493615D01*
X67611570Y-77611375D01*
X67611570Y-78388625D01*
X67599972Y-78506385D01*
X67554137Y-78657482D01*
X67479706Y-78796733D01*
X67379538Y-78918788D01*
X67257483Y-79018956D01*
X67118232Y-79093387D01*
X66967135Y-79139222D01*
X66810000Y-79154698D01*
X66652866Y-79139222D01*
X66501769Y-79093387D01*
X66362518Y-79018956D01*
X66240463Y-78918788D01*
X66140295Y-78796733D01*
X66065864Y-78657482D01*
X66065863Y-78657481D01*
X66020028Y-78506386D01*
X66008430Y-78388626D01*
X66008430Y-77611375D01*
X66020028Y-77493618D01*
X66020028Y-77493616D01*
X66065863Y-77342519D01*
X66140294Y-77203268D01*
X66240462Y-77081212D01*
X66362517Y-76981044D01*
X66501768Y-76906613D01*
X66652865Y-76860778D01*
X66810000Y-76845302D01*
X66967134Y-76860778D01*
G37*
G36*
X59347134Y-76860778D02*
G01*
X59498231Y-76906613D01*
X59637482Y-76981044D01*
X59759538Y-77081212D01*
X59859706Y-77203267D01*
X59934137Y-77342518D01*
X59979972Y-77493615D01*
X59991570Y-77611375D01*
X59991570Y-78388625D01*
X59979972Y-78506385D01*
X59934137Y-78657482D01*
X59859706Y-78796733D01*
X59759538Y-78918788D01*
X59637483Y-79018956D01*
X59498232Y-79093387D01*
X59347135Y-79139222D01*
X59190000Y-79154698D01*
X59032866Y-79139222D01*
X58881769Y-79093387D01*
X58742518Y-79018956D01*
X58620463Y-78918788D01*
X58520295Y-78796733D01*
X58445864Y-78657482D01*
X58445863Y-78657481D01*
X58400028Y-78506386D01*
X58388430Y-78388626D01*
X58388430Y-77611375D01*
X58400028Y-77493618D01*
X58400028Y-77493616D01*
X58445863Y-77342519D01*
X58520294Y-77203268D01*
X58620462Y-77081212D01*
X58742517Y-76981044D01*
X58881768Y-76906613D01*
X59032865Y-76860778D01*
X59190000Y-76845302D01*
X59347134Y-76860778D01*
G37*
G36*
X57451570Y-79150820D02*
G01*
X55848430Y-79150820D01*
X55848430Y-76849180D01*
X57451570Y-76849180D01*
X57451570Y-79150820D01*
G37*
G36*
X41348228Y-77381703D02*
G01*
X41503100Y-77445853D01*
X41642481Y-77538985D01*
X41761015Y-77657519D01*
X41854147Y-77796900D01*
X41918297Y-77951772D01*
X41951000Y-78116184D01*
X41951000Y-78283816D01*
X41918297Y-78448228D01*
X41854147Y-78603100D01*
X41761015Y-78742481D01*
X41642481Y-78861015D01*
X41503100Y-78954147D01*
X41348228Y-79018297D01*
X41183816Y-79051000D01*
X41016184Y-79051000D01*
X40851772Y-79018297D01*
X40696900Y-78954147D01*
X40557519Y-78861015D01*
X40438985Y-78742481D01*
X40345853Y-78603100D01*
X40281703Y-78448228D01*
X40249000Y-78283816D01*
X40249000Y-78116184D01*
X40281703Y-77951772D01*
X40345853Y-77796900D01*
X40438985Y-77657519D01*
X40557519Y-77538985D01*
X40696900Y-77445853D01*
X40851772Y-77381703D01*
X41016184Y-77349000D01*
X41183816Y-77349000D01*
X41348228Y-77381703D01*
G37*
G36*
X38848228Y-77381703D02*
G01*
X39003100Y-77445853D01*
X39142481Y-77538985D01*
X39261015Y-77657519D01*
X39354147Y-77796900D01*
X39418297Y-77951772D01*
X39451000Y-78116184D01*
X39451000Y-78283816D01*
X39418297Y-78448228D01*
X39354147Y-78603100D01*
X39261015Y-78742481D01*
X39142481Y-78861015D01*
X39003100Y-78954147D01*
X38848228Y-79018297D01*
X38683816Y-79051000D01*
X38516184Y-79051000D01*
X38351772Y-79018297D01*
X38196900Y-78954147D01*
X38057519Y-78861015D01*
X37938985Y-78742481D01*
X37845853Y-78603100D01*
X37781703Y-78448228D01*
X37749000Y-78283816D01*
X37749000Y-78116184D01*
X37781703Y-77951772D01*
X37845853Y-77796900D01*
X37938985Y-77657519D01*
X38057519Y-77538985D01*
X38196900Y-77445853D01*
X38351772Y-77381703D01*
X38516184Y-77349000D01*
X38683816Y-77349000D01*
X38848228Y-77381703D01*
G37*
G36*
X84949512Y-76573927D02*
G01*
X85098812Y-76603624D01*
X85262784Y-76671544D01*
X85410354Y-76770147D01*
X85535853Y-76895646D01*
X85634456Y-77043216D01*
X85702376Y-77207188D01*
X85737000Y-77381259D01*
X85737000Y-77558741D01*
X85702376Y-77732812D01*
X85634456Y-77896784D01*
X85535853Y-78044354D01*
X85410354Y-78169853D01*
X85262784Y-78268456D01*
X85098812Y-78336376D01*
X84949512Y-78366073D01*
X84924742Y-78371000D01*
X84747258Y-78371000D01*
X84722488Y-78366073D01*
X84573188Y-78336376D01*
X84409216Y-78268456D01*
X84261646Y-78169853D01*
X84136147Y-78044354D01*
X84037544Y-77896784D01*
X83969624Y-77732812D01*
X83935000Y-77558741D01*
X83935000Y-77381259D01*
X83969624Y-77207188D01*
X84037544Y-77043216D01*
X84136147Y-76895646D01*
X84261646Y-76770147D01*
X84409216Y-76671544D01*
X84573188Y-76603624D01*
X84722488Y-76573927D01*
X84747258Y-76569000D01*
X84924742Y-76569000D01*
X84949512Y-76573927D01*
G37*
G36*
X92569512Y-76573927D02*
G01*
X92718812Y-76603624D01*
X92882784Y-76671544D01*
X93030354Y-76770147D01*
X93155853Y-76895646D01*
X93254456Y-77043216D01*
X93322376Y-77207188D01*
X93357000Y-77381259D01*
X93357000Y-77558741D01*
X93322376Y-77732812D01*
X93254456Y-77896784D01*
X93155853Y-78044354D01*
X93030354Y-78169853D01*
X92882784Y-78268456D01*
X92718812Y-78336376D01*
X92569512Y-78366073D01*
X92544742Y-78371000D01*
X92367258Y-78371000D01*
X92342488Y-78366073D01*
X92193188Y-78336376D01*
X92029216Y-78268456D01*
X91881646Y-78169853D01*
X91756147Y-78044354D01*
X91657544Y-77896784D01*
X91589624Y-77732812D01*
X91555000Y-77558741D01*
X91555000Y-77381259D01*
X91589624Y-77207188D01*
X91657544Y-77043216D01*
X91756147Y-76895646D01*
X91881646Y-76770147D01*
X92029216Y-76671544D01*
X92193188Y-76603624D01*
X92342488Y-76573927D01*
X92367258Y-76569000D01*
X92544742Y-76569000D01*
X92569512Y-76573927D01*
G37*
G36*
X90029512Y-76573927D02*
G01*
X90178812Y-76603624D01*
X90342784Y-76671544D01*
X90490354Y-76770147D01*
X90615853Y-76895646D01*
X90714456Y-77043216D01*
X90782376Y-77207188D01*
X90817000Y-77381259D01*
X90817000Y-77558741D01*
X90782376Y-77732812D01*
X90714456Y-77896784D01*
X90615853Y-78044354D01*
X90490354Y-78169853D01*
X90342784Y-78268456D01*
X90178812Y-78336376D01*
X90029512Y-78366073D01*
X90004742Y-78371000D01*
X89827258Y-78371000D01*
X89802488Y-78366073D01*
X89653188Y-78336376D01*
X89489216Y-78268456D01*
X89341646Y-78169853D01*
X89216147Y-78044354D01*
X89117544Y-77896784D01*
X89049624Y-77732812D01*
X89015000Y-77558741D01*
X89015000Y-77381259D01*
X89049624Y-77207188D01*
X89117544Y-77043216D01*
X89216147Y-76895646D01*
X89341646Y-76770147D01*
X89489216Y-76671544D01*
X89653188Y-76603624D01*
X89802488Y-76573927D01*
X89827258Y-76569000D01*
X90004742Y-76569000D01*
X90029512Y-76573927D01*
G37*
G36*
X87489512Y-76573927D02*
G01*
X87638812Y-76603624D01*
X87802784Y-76671544D01*
X87950354Y-76770147D01*
X88075853Y-76895646D01*
X88174456Y-77043216D01*
X88242376Y-77207188D01*
X88277000Y-77381259D01*
X88277000Y-77558741D01*
X88242376Y-77732812D01*
X88174456Y-77896784D01*
X88075853Y-78044354D01*
X87950354Y-78169853D01*
X87802784Y-78268456D01*
X87638812Y-78336376D01*
X87489512Y-78366073D01*
X87464742Y-78371000D01*
X87287258Y-78371000D01*
X87262488Y-78366073D01*
X87113188Y-78336376D01*
X86949216Y-78268456D01*
X86801646Y-78169853D01*
X86676147Y-78044354D01*
X86577544Y-77896784D01*
X86509624Y-77732812D01*
X86475000Y-77558741D01*
X86475000Y-77381259D01*
X86509624Y-77207188D01*
X86577544Y-77043216D01*
X86676147Y-76895646D01*
X86801646Y-76770147D01*
X86949216Y-76671544D01*
X87113188Y-76603624D01*
X87262488Y-76573927D01*
X87287258Y-76569000D01*
X87464742Y-76569000D01*
X87489512Y-76573927D01*
G37*
G36*
X83197000Y-78371000D02*
G01*
X81395000Y-78371000D01*
X81395000Y-76569000D01*
X83197000Y-76569000D01*
X83197000Y-78371000D01*
G37*
G36*
X106728228Y-76331703D02*
G01*
X106883100Y-76395853D01*
X107022481Y-76488985D01*
X107141015Y-76607519D01*
X107234147Y-76746900D01*
X107298297Y-76901772D01*
X107331000Y-77066184D01*
X107331000Y-77233816D01*
X107298297Y-77398228D01*
X107234147Y-77553100D01*
X107141015Y-77692481D01*
X107022481Y-77811015D01*
X106883100Y-77904147D01*
X106728228Y-77968297D01*
X106563816Y-78001000D01*
X106396184Y-78001000D01*
X106231772Y-77968297D01*
X106076900Y-77904147D01*
X105937519Y-77811015D01*
X105818985Y-77692481D01*
X105725853Y-77553100D01*
X105661703Y-77398228D01*
X105629000Y-77233816D01*
X105629000Y-77066184D01*
X105661703Y-76901772D01*
X105725853Y-76746900D01*
X105818985Y-76607519D01*
X105937519Y-76488985D01*
X106076900Y-76395853D01*
X106231772Y-76331703D01*
X106396184Y-76299000D01*
X106563816Y-76299000D01*
X106728228Y-76331703D01*
G37*
G36*
X99108228Y-76331703D02*
G01*
X99263100Y-76395853D01*
X99402481Y-76488985D01*
X99521015Y-76607519D01*
X99614147Y-76746900D01*
X99678297Y-76901772D01*
X99711000Y-77066184D01*
X99711000Y-77233816D01*
X99678297Y-77398228D01*
X99614147Y-77553100D01*
X99521015Y-77692481D01*
X99402481Y-77811015D01*
X99263100Y-77904147D01*
X99108228Y-77968297D01*
X98943816Y-78001000D01*
X98776184Y-78001000D01*
X98611772Y-77968297D01*
X98456900Y-77904147D01*
X98317519Y-77811015D01*
X98198985Y-77692481D01*
X98105853Y-77553100D01*
X98041703Y-77398228D01*
X98009000Y-77233816D01*
X98009000Y-77066184D01*
X98041703Y-76901772D01*
X98105853Y-76746900D01*
X98198985Y-76607519D01*
X98317519Y-76488985D01*
X98456900Y-76395853D01*
X98611772Y-76331703D01*
X98776184Y-76299000D01*
X98943816Y-76299000D01*
X99108228Y-76331703D01*
G37*
G36*
X25851000Y-77951000D02*
G01*
X24149000Y-77951000D01*
X24149000Y-76249000D01*
X25851000Y-76249000D01*
X25851000Y-77951000D01*
G37*
G36*
X32868228Y-76281703D02*
G01*
X33023100Y-76345853D01*
X33162481Y-76438985D01*
X33281015Y-76557519D01*
X33374147Y-76696900D01*
X33438297Y-76851772D01*
X33471000Y-77016184D01*
X33471000Y-77183816D01*
X33438297Y-77348228D01*
X33374147Y-77503100D01*
X33281015Y-77642481D01*
X33162481Y-77761015D01*
X33023100Y-77854147D01*
X32868228Y-77918297D01*
X32703816Y-77951000D01*
X32536184Y-77951000D01*
X32371772Y-77918297D01*
X32216900Y-77854147D01*
X32077519Y-77761015D01*
X31958985Y-77642481D01*
X31865853Y-77503100D01*
X31801703Y-77348228D01*
X31769000Y-77183816D01*
X31769000Y-77016184D01*
X31801703Y-76851772D01*
X31865853Y-76696900D01*
X31958985Y-76557519D01*
X32077519Y-76438985D01*
X32216900Y-76345853D01*
X32371772Y-76281703D01*
X32536184Y-76249000D01*
X32703816Y-76249000D01*
X32868228Y-76281703D01*
G37*
G36*
X99038228Y-71221703D02*
G01*
X99193100Y-71285853D01*
X99332481Y-71378985D01*
X99451015Y-71497519D01*
X99544147Y-71636900D01*
X99608297Y-71791772D01*
X99641000Y-71956184D01*
X99641000Y-72123816D01*
X99608297Y-72288228D01*
X99544147Y-72443100D01*
X99451015Y-72582481D01*
X99332481Y-72701015D01*
X99193100Y-72794147D01*
X99038228Y-72858297D01*
X98873816Y-72891000D01*
X98706184Y-72891000D01*
X98541772Y-72858297D01*
X98386900Y-72794147D01*
X98247519Y-72701015D01*
X98128985Y-72582481D01*
X98035853Y-72443100D01*
X97971703Y-72288228D01*
X97939000Y-72123816D01*
X97939000Y-71956184D01*
X97971703Y-71791772D01*
X98035853Y-71636900D01*
X98128985Y-71497519D01*
X98247519Y-71378985D01*
X98386900Y-71285853D01*
X98541772Y-71221703D01*
X98706184Y-71189000D01*
X98873816Y-71189000D01*
X99038228Y-71221703D01*
G37*
G36*
X106658228Y-71221703D02*
G01*
X106813100Y-71285853D01*
X106952481Y-71378985D01*
X107071015Y-71497519D01*
X107164147Y-71636900D01*
X107228297Y-71791772D01*
X107261000Y-71956184D01*
X107261000Y-72123816D01*
X107228297Y-72288228D01*
X107164147Y-72443100D01*
X107071015Y-72582481D01*
X106952481Y-72701015D01*
X106813100Y-72794147D01*
X106658228Y-72858297D01*
X106493816Y-72891000D01*
X106326184Y-72891000D01*
X106161772Y-72858297D01*
X106006900Y-72794147D01*
X105867519Y-72701015D01*
X105748985Y-72582481D01*
X105655853Y-72443100D01*
X105591703Y-72288228D01*
X105559000Y-72123816D01*
X105559000Y-71956184D01*
X105591703Y-71791772D01*
X105655853Y-71636900D01*
X105748985Y-71497519D01*
X105867519Y-71378985D01*
X106006900Y-71285853D01*
X106161772Y-71221703D01*
X106326184Y-71189000D01*
X106493816Y-71189000D01*
X106658228Y-71221703D01*
G37*
G36*
X121341000Y-72071000D02*
G01*
X118639000Y-72071000D01*
X118639000Y-69369000D01*
X121341000Y-69369000D01*
X121341000Y-72071000D01*
G37*
G36*
X37518228Y-65851703D02*
G01*
X37673100Y-65915853D01*
X37812481Y-66008985D01*
X37931015Y-66127519D01*
X38024147Y-66266900D01*
X38088297Y-66421772D01*
X38121000Y-66586184D01*
X38121000Y-66753816D01*
X38088297Y-66918228D01*
X38024147Y-67073100D01*
X37931015Y-67212481D01*
X37812481Y-67331015D01*
X37673100Y-67424147D01*
X37518228Y-67488297D01*
X37353816Y-67521000D01*
X37186184Y-67521000D01*
X37021772Y-67488297D01*
X36866900Y-67424147D01*
X36727519Y-67331015D01*
X36608985Y-67212481D01*
X36515853Y-67073100D01*
X36451703Y-66918228D01*
X36419000Y-66753816D01*
X36419000Y-66586184D01*
X36451703Y-66421772D01*
X36515853Y-66266900D01*
X36608985Y-66127519D01*
X36727519Y-66008985D01*
X36866900Y-65915853D01*
X37021772Y-65851703D01*
X37186184Y-65819000D01*
X37353816Y-65819000D01*
X37518228Y-65851703D01*
G37*
G36*
X32938228Y-65851703D02*
G01*
X33093100Y-65915853D01*
X33232481Y-66008985D01*
X33351015Y-66127519D01*
X33444147Y-66266900D01*
X33508297Y-66421772D01*
X33541000Y-66586184D01*
X33541000Y-66753816D01*
X33508297Y-66918228D01*
X33444147Y-67073100D01*
X33351015Y-67212481D01*
X33232481Y-67331015D01*
X33093100Y-67424147D01*
X32938228Y-67488297D01*
X32773816Y-67521000D01*
X32606184Y-67521000D01*
X32441772Y-67488297D01*
X32286900Y-67424147D01*
X32147519Y-67331015D01*
X32028985Y-67212481D01*
X31935853Y-67073100D01*
X31871703Y-66918228D01*
X31839000Y-66753816D01*
X31839000Y-66586184D01*
X31871703Y-66421772D01*
X31935853Y-66266900D01*
X32028985Y-66127519D01*
X32147519Y-66008985D01*
X32286900Y-65915853D01*
X32441772Y-65851703D01*
X32606184Y-65819000D01*
X32773816Y-65819000D01*
X32938228Y-65851703D01*
G37*
G36*
X35228228Y-65851703D02*
G01*
X35383100Y-65915853D01*
X35522481Y-66008985D01*
X35641015Y-66127519D01*
X35734147Y-66266900D01*
X35798297Y-66421772D01*
X35831000Y-66586184D01*
X35831000Y-66753816D01*
X35798297Y-66918228D01*
X35734147Y-67073100D01*
X35641015Y-67212481D01*
X35522481Y-67331015D01*
X35383100Y-67424147D01*
X35228228Y-67488297D01*
X35063816Y-67521000D01*
X34896184Y-67521000D01*
X34731772Y-67488297D01*
X34576900Y-67424147D01*
X34437519Y-67331015D01*
X34318985Y-67212481D01*
X34225853Y-67073100D01*
X34161703Y-66918228D01*
X34129000Y-66753816D01*
X34129000Y-66586184D01*
X34161703Y-66421772D01*
X34225853Y-66266900D01*
X34318985Y-66127519D01*
X34437519Y-66008985D01*
X34576900Y-65915853D01*
X34731772Y-65851703D01*
X34896184Y-65819000D01*
X35063816Y-65819000D01*
X35228228Y-65851703D01*
G37*
G36*
X30648228Y-65851703D02*
G01*
X30803100Y-65915853D01*
X30942481Y-66008985D01*
X31061015Y-66127519D01*
X31154147Y-66266900D01*
X31218297Y-66421772D01*
X31251000Y-66586184D01*
X31251000Y-66753816D01*
X31218297Y-66918228D01*
X31154147Y-67073100D01*
X31061015Y-67212481D01*
X30942481Y-67331015D01*
X30803100Y-67424147D01*
X30648228Y-67488297D01*
X30483816Y-67521000D01*
X30316184Y-67521000D01*
X30151772Y-67488297D01*
X29996900Y-67424147D01*
X29857519Y-67331015D01*
X29738985Y-67212481D01*
X29645853Y-67073100D01*
X29581703Y-66918228D01*
X29549000Y-66753816D01*
X29549000Y-66586184D01*
X29581703Y-66421772D01*
X29645853Y-66266900D01*
X29738985Y-66127519D01*
X29857519Y-66008985D01*
X29996900Y-65915853D01*
X30151772Y-65851703D01*
X30316184Y-65819000D01*
X30483816Y-65819000D01*
X30648228Y-65851703D01*
G37*
G36*
X28961000Y-67521000D02*
G01*
X27259000Y-67521000D01*
X27259000Y-65819000D01*
X28961000Y-65819000D01*
X28961000Y-67521000D01*
G37*
G36*
X20523254Y-63277818D02*
G01*
X20896511Y-63432426D01*
X20896513Y-63432427D01*
X21232436Y-63656884D01*
X21518116Y-63942564D01*
X21711533Y-64232032D01*
X21742574Y-64278489D01*
X21897182Y-64651746D01*
X21976000Y-65047993D01*
X21976000Y-65452007D01*
X21897182Y-65848254D01*
X21781506Y-66127520D01*
X21742573Y-66221513D01*
X21518116Y-66557436D01*
X21232436Y-66843116D01*
X20896513Y-67067573D01*
X20896512Y-67067574D01*
X20896511Y-67067574D01*
X20523254Y-67222182D01*
X20127007Y-67301000D01*
X19722993Y-67301000D01*
X19326746Y-67222182D01*
X18953489Y-67067574D01*
X18953488Y-67067574D01*
X18953487Y-67067573D01*
X18617564Y-66843116D01*
X18331884Y-66557436D01*
X18107427Y-66221513D01*
X18068494Y-66127520D01*
X17952818Y-65848254D01*
X17874000Y-65452007D01*
X17874000Y-65047993D01*
X17952818Y-64651746D01*
X18107426Y-64278489D01*
X18138468Y-64232032D01*
X18331884Y-63942564D01*
X18617564Y-63656884D01*
X18953487Y-63432427D01*
X18953489Y-63432426D01*
X19326746Y-63277818D01*
X19722993Y-63199000D01*
X20127007Y-63199000D01*
X20523254Y-63277818D01*
G37*
G36*
X45523254Y-63277818D02*
G01*
X45896511Y-63432426D01*
X45896513Y-63432427D01*
X46232436Y-63656884D01*
X46518116Y-63942564D01*
X46711533Y-64232032D01*
X46742574Y-64278489D01*
X46897182Y-64651746D01*
X46976000Y-65047993D01*
X46976000Y-65452007D01*
X46897182Y-65848254D01*
X46781506Y-66127520D01*
X46742573Y-66221513D01*
X46518116Y-66557436D01*
X46232436Y-66843116D01*
X45896513Y-67067573D01*
X45896512Y-67067574D01*
X45896511Y-67067574D01*
X45523254Y-67222182D01*
X45127007Y-67301000D01*
X44722993Y-67301000D01*
X44326746Y-67222182D01*
X43953489Y-67067574D01*
X43953488Y-67067574D01*
X43953487Y-67067573D01*
X43617564Y-66843116D01*
X43331884Y-66557436D01*
X43107427Y-66221513D01*
X43068494Y-66127520D01*
X42952818Y-65848254D01*
X42874000Y-65452007D01*
X42874000Y-65047993D01*
X42952818Y-64651746D01*
X43107426Y-64278489D01*
X43138468Y-64232032D01*
X43331884Y-63942564D01*
X43617564Y-63656884D01*
X43953487Y-63432427D01*
X43953489Y-63432426D01*
X44326746Y-63277818D01*
X44722993Y-63199000D01*
X45127007Y-63199000D01*
X45523254Y-63277818D01*
G37*
G36*
X120384072Y-64340918D02*
G01*
X120627557Y-64441772D01*
X120629939Y-64442759D01*
X120741328Y-64517187D01*
X120851211Y-64590609D01*
X121039391Y-64778789D01*
X121187242Y-65000063D01*
X121289082Y-65245928D01*
X121341000Y-65506937D01*
X121341000Y-65773063D01*
X121325357Y-65851705D01*
X121289082Y-66034072D01*
X121187241Y-66279939D01*
X121039390Y-66501212D01*
X120851212Y-66689390D01*
X120629939Y-66837241D01*
X120629938Y-66837242D01*
X120629937Y-66837242D01*
X120384072Y-66939082D01*
X120123063Y-66991000D01*
X119856937Y-66991000D01*
X119595928Y-66939082D01*
X119350063Y-66837242D01*
X119350062Y-66837242D01*
X119350061Y-66837241D01*
X119128788Y-66689390D01*
X118940610Y-66501212D01*
X118792759Y-66279939D01*
X118690918Y-66034072D01*
X118654643Y-65851705D01*
X118639000Y-65773063D01*
X118639000Y-65506937D01*
X118690918Y-65245928D01*
X118792758Y-65000063D01*
X118940609Y-64778789D01*
X119128789Y-64590609D01*
X119238672Y-64517187D01*
X119350061Y-64442759D01*
X119352444Y-64441772D01*
X119595928Y-64340918D01*
X119856937Y-64289000D01*
X120123063Y-64289000D01*
X120384072Y-64340918D01*
G37*
G36*
X27213228Y-63871703D02*
G01*
X27368100Y-63935853D01*
X27507481Y-64028985D01*
X27626015Y-64147519D01*
X27719147Y-64286900D01*
X27783297Y-64441772D01*
X27816000Y-64606184D01*
X27816000Y-64773816D01*
X27783297Y-64938228D01*
X27719147Y-65093100D01*
X27626015Y-65232481D01*
X27507481Y-65351015D01*
X27368100Y-65444147D01*
X27213228Y-65508297D01*
X27048816Y-65541000D01*
X26881184Y-65541000D01*
X26716772Y-65508297D01*
X26561900Y-65444147D01*
X26422519Y-65351015D01*
X26303985Y-65232481D01*
X26210853Y-65093100D01*
X26146703Y-64938228D01*
X26114000Y-64773816D01*
X26114000Y-64606184D01*
X26146703Y-64441772D01*
X26210853Y-64286900D01*
X26303985Y-64147519D01*
X26422519Y-64028985D01*
X26561900Y-63935853D01*
X26716772Y-63871703D01*
X26881184Y-63839000D01*
X27048816Y-63839000D01*
X27213228Y-63871703D01*
G37*
G36*
X29503228Y-63871703D02*
G01*
X29658100Y-63935853D01*
X29797481Y-64028985D01*
X29916015Y-64147519D01*
X30009147Y-64286900D01*
X30073297Y-64441772D01*
X30106000Y-64606184D01*
X30106000Y-64773816D01*
X30073297Y-64938228D01*
X30009147Y-65093100D01*
X29916015Y-65232481D01*
X29797481Y-65351015D01*
X29658100Y-65444147D01*
X29503228Y-65508297D01*
X29338816Y-65541000D01*
X29171184Y-65541000D01*
X29006772Y-65508297D01*
X28851900Y-65444147D01*
X28712519Y-65351015D01*
X28593985Y-65232481D01*
X28500853Y-65093100D01*
X28436703Y-64938228D01*
X28404000Y-64773816D01*
X28404000Y-64606184D01*
X28436703Y-64441772D01*
X28500853Y-64286900D01*
X28593985Y-64147519D01*
X28712519Y-64028985D01*
X28851900Y-63935853D01*
X29006772Y-63871703D01*
X29171184Y-63839000D01*
X29338816Y-63839000D01*
X29503228Y-63871703D01*
G37*
G36*
X31793228Y-63871703D02*
G01*
X31948100Y-63935853D01*
X32087481Y-64028985D01*
X32206015Y-64147519D01*
X32299147Y-64286900D01*
X32363297Y-64441772D01*
X32396000Y-64606184D01*
X32396000Y-64773816D01*
X32363297Y-64938228D01*
X32299147Y-65093100D01*
X32206015Y-65232481D01*
X32087481Y-65351015D01*
X31948100Y-65444147D01*
X31793228Y-65508297D01*
X31628816Y-65541000D01*
X31461184Y-65541000D01*
X31296772Y-65508297D01*
X31141900Y-65444147D01*
X31002519Y-65351015D01*
X30883985Y-65232481D01*
X30790853Y-65093100D01*
X30726703Y-64938228D01*
X30694000Y-64773816D01*
X30694000Y-64606184D01*
X30726703Y-64441772D01*
X30790853Y-64286900D01*
X30883985Y-64147519D01*
X31002519Y-64028985D01*
X31141900Y-63935853D01*
X31296772Y-63871703D01*
X31461184Y-63839000D01*
X31628816Y-63839000D01*
X31793228Y-63871703D01*
G37*
G36*
X34083228Y-63871703D02*
G01*
X34238100Y-63935853D01*
X34377481Y-64028985D01*
X34496015Y-64147519D01*
X34589147Y-64286900D01*
X34653297Y-64441772D01*
X34686000Y-64606184D01*
X34686000Y-64773816D01*
X34653297Y-64938228D01*
X34589147Y-65093100D01*
X34496015Y-65232481D01*
X34377481Y-65351015D01*
X34238100Y-65444147D01*
X34083228Y-65508297D01*
X33918816Y-65541000D01*
X33751184Y-65541000D01*
X33586772Y-65508297D01*
X33431900Y-65444147D01*
X33292519Y-65351015D01*
X33173985Y-65232481D01*
X33080853Y-65093100D01*
X33016703Y-64938228D01*
X32984000Y-64773816D01*
X32984000Y-64606184D01*
X33016703Y-64441772D01*
X33080853Y-64286900D01*
X33173985Y-64147519D01*
X33292519Y-64028985D01*
X33431900Y-63935853D01*
X33586772Y-63871703D01*
X33751184Y-63839000D01*
X33918816Y-63839000D01*
X34083228Y-63871703D01*
G37*
G36*
X36373228Y-63871703D02*
G01*
X36528100Y-63935853D01*
X36667481Y-64028985D01*
X36786015Y-64147519D01*
X36879147Y-64286900D01*
X36943297Y-64441772D01*
X36976000Y-64606184D01*
X36976000Y-64773816D01*
X36943297Y-64938228D01*
X36879147Y-65093100D01*
X36786015Y-65232481D01*
X36667481Y-65351015D01*
X36528100Y-65444147D01*
X36373228Y-65508297D01*
X36208816Y-65541000D01*
X36041184Y-65541000D01*
X35876772Y-65508297D01*
X35721900Y-65444147D01*
X35582519Y-65351015D01*
X35463985Y-65232481D01*
X35370853Y-65093100D01*
X35306703Y-64938228D01*
X35274000Y-64773816D01*
X35274000Y-64606184D01*
X35306703Y-64441772D01*
X35370853Y-64286900D01*
X35463985Y-64147519D01*
X35582519Y-64028985D01*
X35721900Y-63935853D01*
X35876772Y-63871703D01*
X36041184Y-63839000D01*
X36208816Y-63839000D01*
X36373228Y-63871703D01*
G37*
G36*
X71184016Y-62724319D02*
G01*
X71375192Y-62803507D01*
X71375194Y-62803508D01*
X71547248Y-62918471D01*
X71693569Y-63064792D01*
X71808533Y-63236848D01*
X71887721Y-63428024D01*
X71928090Y-63630974D01*
X71928090Y-63837906D01*
X71887721Y-64040856D01*
X71843539Y-64147520D01*
X71808532Y-64232034D01*
X71693569Y-64404088D01*
X71547248Y-64550409D01*
X71375194Y-64665372D01*
X71375193Y-64665373D01*
X71375192Y-64665373D01*
X71184016Y-64744561D01*
X70981066Y-64784930D01*
X70774134Y-64784930D01*
X70571184Y-64744561D01*
X70380008Y-64665373D01*
X70380007Y-64665373D01*
X70380006Y-64665372D01*
X70207952Y-64550409D01*
X70061631Y-64404088D01*
X69946668Y-64232034D01*
X69911661Y-64147520D01*
X69867479Y-64040856D01*
X69827110Y-63837906D01*
X69827110Y-63630974D01*
X69867479Y-63428024D01*
X69946667Y-63236848D01*
X70061631Y-63064792D01*
X70207952Y-62918471D01*
X70380006Y-62803508D01*
X70380008Y-62803507D01*
X70571184Y-62724319D01*
X70774134Y-62683950D01*
X70981066Y-62683950D01*
X71184016Y-62724319D01*
G37*
G36*
X90234016Y-62724319D02*
G01*
X90425192Y-62803507D01*
X90425194Y-62803508D01*
X90597248Y-62918471D01*
X90743569Y-63064792D01*
X90858533Y-63236848D01*
X90937721Y-63428024D01*
X90978090Y-63630974D01*
X90978090Y-63837906D01*
X90937721Y-64040856D01*
X90893539Y-64147520D01*
X90858532Y-64232034D01*
X90743569Y-64404088D01*
X90597248Y-64550409D01*
X90425194Y-64665372D01*
X90425193Y-64665373D01*
X90425192Y-64665373D01*
X90234016Y-64744561D01*
X90031066Y-64784930D01*
X89824134Y-64784930D01*
X89621184Y-64744561D01*
X89430008Y-64665373D01*
X89430007Y-64665373D01*
X89430006Y-64665372D01*
X89257952Y-64550409D01*
X89111631Y-64404088D01*
X88996668Y-64232034D01*
X88961661Y-64147520D01*
X88917479Y-64040856D01*
X88877110Y-63837906D01*
X88877110Y-63630974D01*
X88917479Y-63428024D01*
X88996667Y-63236848D01*
X89111631Y-63064792D01*
X89257952Y-62918471D01*
X89430006Y-62803508D01*
X89430008Y-62803507D01*
X89621184Y-62724319D01*
X89824134Y-62683950D01*
X90031066Y-62683950D01*
X90234016Y-62724319D01*
G37*
G36*
X94044016Y-62724319D02*
G01*
X94235192Y-62803507D01*
X94235194Y-62803508D01*
X94407248Y-62918471D01*
X94553569Y-63064792D01*
X94668533Y-63236848D01*
X94747721Y-63428024D01*
X94788090Y-63630974D01*
X94788090Y-63837906D01*
X94747721Y-64040856D01*
X94703539Y-64147520D01*
X94668532Y-64232034D01*
X94553569Y-64404088D01*
X94407248Y-64550409D01*
X94235194Y-64665372D01*
X94235193Y-64665373D01*
X94235192Y-64665373D01*
X94044016Y-64744561D01*
X93841066Y-64784930D01*
X93634134Y-64784930D01*
X93431184Y-64744561D01*
X93240008Y-64665373D01*
X93240007Y-64665373D01*
X93240006Y-64665372D01*
X93067952Y-64550409D01*
X92921631Y-64404088D01*
X92806668Y-64232034D01*
X92771661Y-64147520D01*
X92727479Y-64040856D01*
X92687110Y-63837906D01*
X92687110Y-63630974D01*
X92727479Y-63428024D01*
X92806667Y-63236848D01*
X92921631Y-63064792D01*
X93067952Y-62918471D01*
X93240006Y-62803508D01*
X93240008Y-62803507D01*
X93431184Y-62724319D01*
X93634134Y-62683950D01*
X93841066Y-62683950D01*
X94044016Y-62724319D01*
G37*
G36*
X97854016Y-62724319D02*
G01*
X98045192Y-62803507D01*
X98045194Y-62803508D01*
X98217248Y-62918471D01*
X98363569Y-63064792D01*
X98478533Y-63236848D01*
X98557721Y-63428024D01*
X98598090Y-63630974D01*
X98598090Y-63837906D01*
X98557721Y-64040856D01*
X98513539Y-64147520D01*
X98478532Y-64232034D01*
X98363569Y-64404088D01*
X98217248Y-64550409D01*
X98045194Y-64665372D01*
X98045193Y-64665373D01*
X98045192Y-64665373D01*
X97854016Y-64744561D01*
X97651066Y-64784930D01*
X97444134Y-64784930D01*
X97241184Y-64744561D01*
X97050008Y-64665373D01*
X97050007Y-64665373D01*
X97050006Y-64665372D01*
X96877952Y-64550409D01*
X96731631Y-64404088D01*
X96616668Y-64232034D01*
X96581661Y-64147520D01*
X96537479Y-64040856D01*
X96497110Y-63837906D01*
X96497110Y-63630974D01*
X96537479Y-63428024D01*
X96616667Y-63236848D01*
X96731631Y-63064792D01*
X96877952Y-62918471D01*
X97050006Y-62803508D01*
X97050008Y-62803507D01*
X97241184Y-62724319D01*
X97444134Y-62683950D01*
X97651066Y-62683950D01*
X97854016Y-62724319D01*
G37*
G36*
X86424016Y-62724319D02*
G01*
X86615192Y-62803507D01*
X86615194Y-62803508D01*
X86787248Y-62918471D01*
X86933569Y-63064792D01*
X87048533Y-63236848D01*
X87127721Y-63428024D01*
X87168090Y-63630974D01*
X87168090Y-63837906D01*
X87127721Y-64040856D01*
X87083539Y-64147520D01*
X87048532Y-64232034D01*
X86933569Y-64404088D01*
X86787248Y-64550409D01*
X86615194Y-64665372D01*
X86615193Y-64665373D01*
X86615192Y-64665373D01*
X86424016Y-64744561D01*
X86221066Y-64784930D01*
X86014134Y-64784930D01*
X85811184Y-64744561D01*
X85620008Y-64665373D01*
X85620007Y-64665373D01*
X85620006Y-64665372D01*
X85447952Y-64550409D01*
X85301631Y-64404088D01*
X85186668Y-64232034D01*
X85151661Y-64147520D01*
X85107479Y-64040856D01*
X85067110Y-63837906D01*
X85067110Y-63630974D01*
X85107479Y-63428024D01*
X85186667Y-63236848D01*
X85301631Y-63064792D01*
X85447952Y-62918471D01*
X85620006Y-62803508D01*
X85620008Y-62803507D01*
X85811184Y-62724319D01*
X86014134Y-62683950D01*
X86221066Y-62683950D01*
X86424016Y-62724319D01*
G37*
G36*
X82614016Y-62724319D02*
G01*
X82805192Y-62803507D01*
X82805194Y-62803508D01*
X82977248Y-62918471D01*
X83123569Y-63064792D01*
X83238533Y-63236848D01*
X83317721Y-63428024D01*
X83358090Y-63630974D01*
X83358090Y-63837906D01*
X83317721Y-64040856D01*
X83273539Y-64147520D01*
X83238532Y-64232034D01*
X83123569Y-64404088D01*
X82977248Y-64550409D01*
X82805194Y-64665372D01*
X82805193Y-64665373D01*
X82805192Y-64665373D01*
X82614016Y-64744561D01*
X82411066Y-64784930D01*
X82204134Y-64784930D01*
X82001184Y-64744561D01*
X81810008Y-64665373D01*
X81810007Y-64665373D01*
X81810006Y-64665372D01*
X81637952Y-64550409D01*
X81491631Y-64404088D01*
X81376668Y-64232034D01*
X81341661Y-64147520D01*
X81297479Y-64040856D01*
X81257110Y-63837906D01*
X81257110Y-63630974D01*
X81297479Y-63428024D01*
X81376667Y-63236848D01*
X81491631Y-63064792D01*
X81637952Y-62918471D01*
X81810006Y-62803508D01*
X81810008Y-62803507D01*
X82001184Y-62724319D01*
X82204134Y-62683950D01*
X82411066Y-62683950D01*
X82614016Y-62724319D01*
G37*
G36*
X78804016Y-62724319D02*
G01*
X78995192Y-62803507D01*
X78995194Y-62803508D01*
X79167248Y-62918471D01*
X79313569Y-63064792D01*
X79428533Y-63236848D01*
X79507721Y-63428024D01*
X79548090Y-63630974D01*
X79548090Y-63837906D01*
X79507721Y-64040856D01*
X79463539Y-64147520D01*
X79428532Y-64232034D01*
X79313569Y-64404088D01*
X79167248Y-64550409D01*
X78995194Y-64665372D01*
X78995193Y-64665373D01*
X78995192Y-64665373D01*
X78804016Y-64744561D01*
X78601066Y-64784930D01*
X78394134Y-64784930D01*
X78191184Y-64744561D01*
X78000008Y-64665373D01*
X78000007Y-64665373D01*
X78000006Y-64665372D01*
X77827952Y-64550409D01*
X77681631Y-64404088D01*
X77566668Y-64232034D01*
X77531661Y-64147520D01*
X77487479Y-64040856D01*
X77447110Y-63837906D01*
X77447110Y-63630974D01*
X77487479Y-63428024D01*
X77566667Y-63236848D01*
X77681631Y-63064792D01*
X77827952Y-62918471D01*
X78000006Y-62803508D01*
X78000008Y-62803507D01*
X78191184Y-62724319D01*
X78394134Y-62683950D01*
X78601066Y-62683950D01*
X78804016Y-62724319D01*
G37*
G36*
X74994016Y-62724319D02*
G01*
X75185192Y-62803507D01*
X75185194Y-62803508D01*
X75357248Y-62918471D01*
X75503569Y-63064792D01*
X75618533Y-63236848D01*
X75697721Y-63428024D01*
X75738090Y-63630974D01*
X75738090Y-63837906D01*
X75697721Y-64040856D01*
X75653539Y-64147520D01*
X75618532Y-64232034D01*
X75503569Y-64404088D01*
X75357248Y-64550409D01*
X75185194Y-64665372D01*
X75185193Y-64665373D01*
X75185192Y-64665373D01*
X74994016Y-64744561D01*
X74791066Y-64784930D01*
X74584134Y-64784930D01*
X74381184Y-64744561D01*
X74190008Y-64665373D01*
X74190007Y-64665373D01*
X74190006Y-64665372D01*
X74017952Y-64550409D01*
X73871631Y-64404088D01*
X73756668Y-64232034D01*
X73721661Y-64147520D01*
X73677479Y-64040856D01*
X73637110Y-63837906D01*
X73637110Y-63630974D01*
X73677479Y-63428024D01*
X73756667Y-63236848D01*
X73871631Y-63064792D01*
X74017952Y-62918471D01*
X74190006Y-62803508D01*
X74190008Y-62803507D01*
X74381184Y-62724319D01*
X74584134Y-62683950D01*
X74791066Y-62683950D01*
X74994016Y-62724319D01*
G37*
G36*
X67374016Y-62724319D02*
G01*
X67565192Y-62803507D01*
X67565194Y-62803508D01*
X67737248Y-62918471D01*
X67883569Y-63064792D01*
X67998533Y-63236848D01*
X68077721Y-63428024D01*
X68118090Y-63630974D01*
X68118090Y-63837906D01*
X68077721Y-64040856D01*
X68033539Y-64147520D01*
X67998532Y-64232034D01*
X67883569Y-64404088D01*
X67737248Y-64550409D01*
X67565194Y-64665372D01*
X67565193Y-64665373D01*
X67565192Y-64665373D01*
X67374016Y-64744561D01*
X67171066Y-64784930D01*
X66964134Y-64784930D01*
X66761184Y-64744561D01*
X66570008Y-64665373D01*
X66570007Y-64665373D01*
X66570006Y-64665372D01*
X66397952Y-64550409D01*
X66251631Y-64404088D01*
X66136668Y-64232034D01*
X66101661Y-64147520D01*
X66057479Y-64040856D01*
X66017110Y-63837906D01*
X66017110Y-63630974D01*
X66057479Y-63428024D01*
X66136667Y-63236848D01*
X66251631Y-63064792D01*
X66397952Y-62918471D01*
X66570006Y-62803508D01*
X66570008Y-62803507D01*
X66761184Y-62724319D01*
X66964134Y-62683950D01*
X67171066Y-62683950D01*
X67374016Y-62724319D01*
G37*
G36*
X63564016Y-62724319D02*
G01*
X63755192Y-62803507D01*
X63755194Y-62803508D01*
X63927248Y-62918471D01*
X64073569Y-63064792D01*
X64188533Y-63236848D01*
X64267721Y-63428024D01*
X64308090Y-63630974D01*
X64308090Y-63837906D01*
X64267721Y-64040856D01*
X64223539Y-64147520D01*
X64188532Y-64232034D01*
X64073569Y-64404088D01*
X63927248Y-64550409D01*
X63755194Y-64665372D01*
X63755193Y-64665373D01*
X63755192Y-64665373D01*
X63564016Y-64744561D01*
X63361066Y-64784930D01*
X63154134Y-64784930D01*
X62951184Y-64744561D01*
X62760008Y-64665373D01*
X62760007Y-64665373D01*
X62760006Y-64665372D01*
X62587952Y-64550409D01*
X62441631Y-64404088D01*
X62326668Y-64232034D01*
X62291661Y-64147520D01*
X62247479Y-64040856D01*
X62207110Y-63837906D01*
X62207110Y-63630974D01*
X62247479Y-63428024D01*
X62326667Y-63236848D01*
X62441631Y-63064792D01*
X62587952Y-62918471D01*
X62760006Y-62803508D01*
X62760008Y-62803507D01*
X62951184Y-62724319D01*
X63154134Y-62683950D01*
X63361066Y-62683950D01*
X63564016Y-62724319D01*
G37*
G36*
X101664016Y-62724319D02*
G01*
X101855192Y-62803507D01*
X101855194Y-62803508D01*
X102027248Y-62918471D01*
X102173569Y-63064792D01*
X102288533Y-63236848D01*
X102367721Y-63428024D01*
X102408090Y-63630974D01*
X102408090Y-63837906D01*
X102367721Y-64040856D01*
X102323539Y-64147520D01*
X102288532Y-64232034D01*
X102173569Y-64404088D01*
X102027248Y-64550409D01*
X101855194Y-64665372D01*
X101855193Y-64665373D01*
X101855192Y-64665373D01*
X101664016Y-64744561D01*
X101461066Y-64784930D01*
X101254134Y-64784930D01*
X101051184Y-64744561D01*
X100860008Y-64665373D01*
X100860007Y-64665373D01*
X100860006Y-64665372D01*
X100687952Y-64550409D01*
X100541631Y-64404088D01*
X100426668Y-64232034D01*
X100391661Y-64147520D01*
X100347479Y-64040856D01*
X100307110Y-63837906D01*
X100307110Y-63630974D01*
X100347479Y-63428024D01*
X100426667Y-63236848D01*
X100541631Y-63064792D01*
X100687952Y-62918471D01*
X100860006Y-62803508D01*
X100860008Y-62803507D01*
X101051184Y-62724319D01*
X101254134Y-62683950D01*
X101461066Y-62683950D01*
X101664016Y-62724319D01*
G37*
G36*
X35228228Y-61891703D02*
G01*
X35383100Y-61955853D01*
X35522481Y-62048985D01*
X35641015Y-62167519D01*
X35734147Y-62306900D01*
X35798297Y-62461772D01*
X35831000Y-62626184D01*
X35831000Y-62793816D01*
X35798297Y-62958228D01*
X35734147Y-63113100D01*
X35641015Y-63252481D01*
X35522481Y-63371015D01*
X35383100Y-63464147D01*
X35228228Y-63528297D01*
X35063816Y-63561000D01*
X34896184Y-63561000D01*
X34731772Y-63528297D01*
X34576900Y-63464147D01*
X34437519Y-63371015D01*
X34318985Y-63252481D01*
X34225853Y-63113100D01*
X34161703Y-62958228D01*
X34129000Y-62793816D01*
X34129000Y-62626184D01*
X34161703Y-62461772D01*
X34225853Y-62306900D01*
X34318985Y-62167519D01*
X34437519Y-62048985D01*
X34576900Y-61955853D01*
X34731772Y-61891703D01*
X34896184Y-61859000D01*
X35063816Y-61859000D01*
X35228228Y-61891703D01*
G37*
G36*
X32938228Y-61891703D02*
G01*
X33093100Y-61955853D01*
X33232481Y-62048985D01*
X33351015Y-62167519D01*
X33444147Y-62306900D01*
X33508297Y-62461772D01*
X33541000Y-62626184D01*
X33541000Y-62793816D01*
X33508297Y-62958228D01*
X33444147Y-63113100D01*
X33351015Y-63252481D01*
X33232481Y-63371015D01*
X33093100Y-63464147D01*
X32938228Y-63528297D01*
X32773816Y-63561000D01*
X32606184Y-63561000D01*
X32441772Y-63528297D01*
X32286900Y-63464147D01*
X32147519Y-63371015D01*
X32028985Y-63252481D01*
X31935853Y-63113100D01*
X31871703Y-62958228D01*
X31839000Y-62793816D01*
X31839000Y-62626184D01*
X31871703Y-62461772D01*
X31935853Y-62306900D01*
X32028985Y-62167519D01*
X32147519Y-62048985D01*
X32286900Y-61955853D01*
X32441772Y-61891703D01*
X32606184Y-61859000D01*
X32773816Y-61859000D01*
X32938228Y-61891703D01*
G37*
G36*
X30648228Y-61891703D02*
G01*
X30803100Y-61955853D01*
X30942481Y-62048985D01*
X31061015Y-62167519D01*
X31154147Y-62306900D01*
X31218297Y-62461772D01*
X31251000Y-62626184D01*
X31251000Y-62793816D01*
X31218297Y-62958228D01*
X31154147Y-63113100D01*
X31061015Y-63252481D01*
X30942481Y-63371015D01*
X30803100Y-63464147D01*
X30648228Y-63528297D01*
X30483816Y-63561000D01*
X30316184Y-63561000D01*
X30151772Y-63528297D01*
X29996900Y-63464147D01*
X29857519Y-63371015D01*
X29738985Y-63252481D01*
X29645853Y-63113100D01*
X29581703Y-62958228D01*
X29549000Y-62793816D01*
X29549000Y-62626184D01*
X29581703Y-62461772D01*
X29645853Y-62306900D01*
X29738985Y-62167519D01*
X29857519Y-62048985D01*
X29996900Y-61955853D01*
X30151772Y-61891703D01*
X30316184Y-61859000D01*
X30483816Y-61859000D01*
X30648228Y-61891703D01*
G37*
G36*
X28358228Y-61891703D02*
G01*
X28513100Y-61955853D01*
X28652481Y-62048985D01*
X28771015Y-62167519D01*
X28864147Y-62306900D01*
X28928297Y-62461772D01*
X28961000Y-62626184D01*
X28961000Y-62793816D01*
X28928297Y-62958228D01*
X28864147Y-63113100D01*
X28771015Y-63252481D01*
X28652481Y-63371015D01*
X28513100Y-63464147D01*
X28358228Y-63528297D01*
X28193816Y-63561000D01*
X28026184Y-63561000D01*
X27861772Y-63528297D01*
X27706900Y-63464147D01*
X27567519Y-63371015D01*
X27448985Y-63252481D01*
X27355853Y-63113100D01*
X27291703Y-62958228D01*
X27259000Y-62793816D01*
X27259000Y-62626184D01*
X27291703Y-62461772D01*
X27355853Y-62306900D01*
X27448985Y-62167519D01*
X27567519Y-62048985D01*
X27706900Y-61955853D01*
X27861772Y-61891703D01*
X28026184Y-61859000D01*
X28193816Y-61859000D01*
X28358228Y-61891703D01*
G37*
G36*
X37518228Y-61891703D02*
G01*
X37673100Y-61955853D01*
X37812481Y-62048985D01*
X37931015Y-62167519D01*
X38024147Y-62306900D01*
X38088297Y-62461772D01*
X38121000Y-62626184D01*
X38121000Y-62793816D01*
X38088297Y-62958228D01*
X38024147Y-63113100D01*
X37931015Y-63252481D01*
X37812481Y-63371015D01*
X37673100Y-63464147D01*
X37518228Y-63528297D01*
X37353816Y-63561000D01*
X37186184Y-63561000D01*
X37021772Y-63528297D01*
X36866900Y-63464147D01*
X36727519Y-63371015D01*
X36608985Y-63252481D01*
X36515853Y-63113100D01*
X36451703Y-62958228D01*
X36419000Y-62793816D01*
X36419000Y-62626184D01*
X36451703Y-62461772D01*
X36515853Y-62306900D01*
X36608985Y-62167519D01*
X36727519Y-62048985D01*
X36866900Y-61955853D01*
X37021772Y-61891703D01*
X37186184Y-61859000D01*
X37353816Y-61859000D01*
X37518228Y-61891703D01*
G37*
G36*
X95949016Y-57644319D02*
G01*
X96140192Y-57723507D01*
X96140194Y-57723508D01*
X96211419Y-57771099D01*
X96312248Y-57838471D01*
X96458569Y-57984792D01*
X96573533Y-58156848D01*
X96652721Y-58348024D01*
X96693090Y-58550974D01*
X96693090Y-58757906D01*
X96652721Y-58960856D01*
X96573533Y-59152032D01*
X96573532Y-59152034D01*
X96458569Y-59324088D01*
X96312248Y-59470409D01*
X96140194Y-59585372D01*
X96140193Y-59585373D01*
X96140192Y-59585373D01*
X95949016Y-59664561D01*
X95746066Y-59704930D01*
X95539134Y-59704930D01*
X95336184Y-59664561D01*
X95145008Y-59585373D01*
X95145007Y-59585373D01*
X95145006Y-59585372D01*
X94972952Y-59470409D01*
X94826631Y-59324088D01*
X94711668Y-59152034D01*
X94711667Y-59152032D01*
X94632479Y-58960856D01*
X94592110Y-58757906D01*
X94592110Y-58550974D01*
X94632479Y-58348024D01*
X94711667Y-58156848D01*
X94826631Y-57984792D01*
X94972952Y-57838471D01*
X95073781Y-57771099D01*
X95145006Y-57723508D01*
X95145008Y-57723507D01*
X95336184Y-57644319D01*
X95539134Y-57603950D01*
X95746066Y-57603950D01*
X95949016Y-57644319D01*
G37*
G36*
X99759016Y-57644319D02*
G01*
X99950192Y-57723507D01*
X99950194Y-57723508D01*
X100021419Y-57771099D01*
X100122248Y-57838471D01*
X100268569Y-57984792D01*
X100383533Y-58156848D01*
X100462721Y-58348024D01*
X100503090Y-58550974D01*
X100503090Y-58757906D01*
X100462721Y-58960856D01*
X100383533Y-59152032D01*
X100383532Y-59152034D01*
X100268569Y-59324088D01*
X100122248Y-59470409D01*
X99950194Y-59585372D01*
X99950193Y-59585373D01*
X99950192Y-59585373D01*
X99759016Y-59664561D01*
X99556066Y-59704930D01*
X99349134Y-59704930D01*
X99146184Y-59664561D01*
X98955008Y-59585373D01*
X98955007Y-59585373D01*
X98955006Y-59585372D01*
X98782952Y-59470409D01*
X98636631Y-59324088D01*
X98521668Y-59152034D01*
X98521667Y-59152032D01*
X98442479Y-58960856D01*
X98402110Y-58757906D01*
X98402110Y-58550974D01*
X98442479Y-58348024D01*
X98521667Y-58156848D01*
X98636631Y-57984792D01*
X98782952Y-57838471D01*
X98883781Y-57771099D01*
X98955006Y-57723508D01*
X98955008Y-57723507D01*
X99146184Y-57644319D01*
X99349134Y-57603950D01*
X99556066Y-57603950D01*
X99759016Y-57644319D01*
G37*
G36*
X69279016Y-57644319D02*
G01*
X69470192Y-57723507D01*
X69470194Y-57723508D01*
X69541419Y-57771099D01*
X69642248Y-57838471D01*
X69788569Y-57984792D01*
X69903533Y-58156848D01*
X69982721Y-58348024D01*
X70023090Y-58550974D01*
X70023090Y-58757906D01*
X69982721Y-58960856D01*
X69903533Y-59152032D01*
X69903532Y-59152034D01*
X69788569Y-59324088D01*
X69642248Y-59470409D01*
X69470194Y-59585372D01*
X69470193Y-59585373D01*
X69470192Y-59585373D01*
X69279016Y-59664561D01*
X69076066Y-59704930D01*
X68869134Y-59704930D01*
X68666184Y-59664561D01*
X68475008Y-59585373D01*
X68475007Y-59585373D01*
X68475006Y-59585372D01*
X68302952Y-59470409D01*
X68156631Y-59324088D01*
X68041668Y-59152034D01*
X68041667Y-59152032D01*
X67962479Y-58960856D01*
X67922110Y-58757906D01*
X67922110Y-58550974D01*
X67962479Y-58348024D01*
X68041667Y-58156848D01*
X68156631Y-57984792D01*
X68302952Y-57838471D01*
X68403781Y-57771099D01*
X68475006Y-57723508D01*
X68475008Y-57723507D01*
X68666184Y-57644319D01*
X68869134Y-57603950D01*
X69076066Y-57603950D01*
X69279016Y-57644319D01*
G37*
G36*
X65469016Y-57644319D02*
G01*
X65660192Y-57723507D01*
X65660194Y-57723508D01*
X65731419Y-57771099D01*
X65832248Y-57838471D01*
X65978569Y-57984792D01*
X66093533Y-58156848D01*
X66172721Y-58348024D01*
X66213090Y-58550974D01*
X66213090Y-58757906D01*
X66172721Y-58960856D01*
X66093533Y-59152032D01*
X66093532Y-59152034D01*
X65978569Y-59324088D01*
X65832248Y-59470409D01*
X65660194Y-59585372D01*
X65660193Y-59585373D01*
X65660192Y-59585373D01*
X65469016Y-59664561D01*
X65266066Y-59704930D01*
X65059134Y-59704930D01*
X64856184Y-59664561D01*
X64665008Y-59585373D01*
X64665007Y-59585373D01*
X64665006Y-59585372D01*
X64492952Y-59470409D01*
X64346631Y-59324088D01*
X64231668Y-59152034D01*
X64231667Y-59152032D01*
X64152479Y-58960856D01*
X64112110Y-58757906D01*
X64112110Y-58550974D01*
X64152479Y-58348024D01*
X64231667Y-58156848D01*
X64346631Y-57984792D01*
X64492952Y-57838471D01*
X64593781Y-57771099D01*
X64665006Y-57723508D01*
X64665008Y-57723507D01*
X64856184Y-57644319D01*
X65059134Y-57603950D01*
X65266066Y-57603950D01*
X65469016Y-57644319D01*
G37*
G36*
X73089016Y-57644319D02*
G01*
X73280192Y-57723507D01*
X73280194Y-57723508D01*
X73351419Y-57771099D01*
X73452248Y-57838471D01*
X73598569Y-57984792D01*
X73713533Y-58156848D01*
X73792721Y-58348024D01*
X73833090Y-58550974D01*
X73833090Y-58757906D01*
X73792721Y-58960856D01*
X73713533Y-59152032D01*
X73713532Y-59152034D01*
X73598569Y-59324088D01*
X73452248Y-59470409D01*
X73280194Y-59585372D01*
X73280193Y-59585373D01*
X73280192Y-59585373D01*
X73089016Y-59664561D01*
X72886066Y-59704930D01*
X72679134Y-59704930D01*
X72476184Y-59664561D01*
X72285008Y-59585373D01*
X72285007Y-59585373D01*
X72285006Y-59585372D01*
X72112952Y-59470409D01*
X71966631Y-59324088D01*
X71851668Y-59152034D01*
X71851667Y-59152032D01*
X71772479Y-58960856D01*
X71732110Y-58757906D01*
X71732110Y-58550974D01*
X71772479Y-58348024D01*
X71851667Y-58156848D01*
X71966631Y-57984792D01*
X72112952Y-57838471D01*
X72213781Y-57771099D01*
X72285006Y-57723508D01*
X72285008Y-57723507D01*
X72476184Y-57644319D01*
X72679134Y-57603950D01*
X72886066Y-57603950D01*
X73089016Y-57644319D01*
G37*
G36*
X76899016Y-57644319D02*
G01*
X77090192Y-57723507D01*
X77090194Y-57723508D01*
X77161419Y-57771099D01*
X77262248Y-57838471D01*
X77408569Y-57984792D01*
X77523533Y-58156848D01*
X77602721Y-58348024D01*
X77643090Y-58550974D01*
X77643090Y-58757906D01*
X77602721Y-58960856D01*
X77523533Y-59152032D01*
X77523532Y-59152034D01*
X77408569Y-59324088D01*
X77262248Y-59470409D01*
X77090194Y-59585372D01*
X77090193Y-59585373D01*
X77090192Y-59585373D01*
X76899016Y-59664561D01*
X76696066Y-59704930D01*
X76489134Y-59704930D01*
X76286184Y-59664561D01*
X76095008Y-59585373D01*
X76095007Y-59585373D01*
X76095006Y-59585372D01*
X75922952Y-59470409D01*
X75776631Y-59324088D01*
X75661668Y-59152034D01*
X75661667Y-59152032D01*
X75582479Y-58960856D01*
X75542110Y-58757906D01*
X75542110Y-58550974D01*
X75582479Y-58348024D01*
X75661667Y-58156848D01*
X75776631Y-57984792D01*
X75922952Y-57838471D01*
X76023781Y-57771099D01*
X76095006Y-57723508D01*
X76095008Y-57723507D01*
X76286184Y-57644319D01*
X76489134Y-57603950D01*
X76696066Y-57603950D01*
X76899016Y-57644319D01*
G37*
G36*
X80709016Y-57644319D02*
G01*
X80900192Y-57723507D01*
X80900194Y-57723508D01*
X80971419Y-57771099D01*
X81072248Y-57838471D01*
X81218569Y-57984792D01*
X81333533Y-58156848D01*
X81412721Y-58348024D01*
X81453090Y-58550974D01*
X81453090Y-58757906D01*
X81412721Y-58960856D01*
X81333533Y-59152032D01*
X81333532Y-59152034D01*
X81218569Y-59324088D01*
X81072248Y-59470409D01*
X80900194Y-59585372D01*
X80900193Y-59585373D01*
X80900192Y-59585373D01*
X80709016Y-59664561D01*
X80506066Y-59704930D01*
X80299134Y-59704930D01*
X80096184Y-59664561D01*
X79905008Y-59585373D01*
X79905007Y-59585373D01*
X79905006Y-59585372D01*
X79732952Y-59470409D01*
X79586631Y-59324088D01*
X79471668Y-59152034D01*
X79471667Y-59152032D01*
X79392479Y-58960856D01*
X79352110Y-58757906D01*
X79352110Y-58550974D01*
X79392479Y-58348024D01*
X79471667Y-58156848D01*
X79586631Y-57984792D01*
X79732952Y-57838471D01*
X79833781Y-57771099D01*
X79905006Y-57723508D01*
X79905008Y-57723507D01*
X80096184Y-57644319D01*
X80299134Y-57603950D01*
X80506066Y-57603950D01*
X80709016Y-57644319D01*
G37*
G36*
X84519016Y-57644319D02*
G01*
X84710192Y-57723507D01*
X84710194Y-57723508D01*
X84781419Y-57771099D01*
X84882248Y-57838471D01*
X85028569Y-57984792D01*
X85143533Y-58156848D01*
X85222721Y-58348024D01*
X85263090Y-58550974D01*
X85263090Y-58757906D01*
X85222721Y-58960856D01*
X85143533Y-59152032D01*
X85143532Y-59152034D01*
X85028569Y-59324088D01*
X84882248Y-59470409D01*
X84710194Y-59585372D01*
X84710193Y-59585373D01*
X84710192Y-59585373D01*
X84519016Y-59664561D01*
X84316066Y-59704930D01*
X84109134Y-59704930D01*
X83906184Y-59664561D01*
X83715008Y-59585373D01*
X83715007Y-59585373D01*
X83715006Y-59585372D01*
X83542952Y-59470409D01*
X83396631Y-59324088D01*
X83281668Y-59152034D01*
X83281667Y-59152032D01*
X83202479Y-58960856D01*
X83162110Y-58757906D01*
X83162110Y-58550974D01*
X83202479Y-58348024D01*
X83281667Y-58156848D01*
X83396631Y-57984792D01*
X83542952Y-57838471D01*
X83643781Y-57771099D01*
X83715006Y-57723508D01*
X83715008Y-57723507D01*
X83906184Y-57644319D01*
X84109134Y-57603950D01*
X84316066Y-57603950D01*
X84519016Y-57644319D01*
G37*
G36*
X88329016Y-57644319D02*
G01*
X88520192Y-57723507D01*
X88520194Y-57723508D01*
X88591419Y-57771099D01*
X88692248Y-57838471D01*
X88838569Y-57984792D01*
X88953533Y-58156848D01*
X89032721Y-58348024D01*
X89073090Y-58550974D01*
X89073090Y-58757906D01*
X89032721Y-58960856D01*
X88953533Y-59152032D01*
X88953532Y-59152034D01*
X88838569Y-59324088D01*
X88692248Y-59470409D01*
X88520194Y-59585372D01*
X88520193Y-59585373D01*
X88520192Y-59585373D01*
X88329016Y-59664561D01*
X88126066Y-59704930D01*
X87919134Y-59704930D01*
X87716184Y-59664561D01*
X87525008Y-59585373D01*
X87525007Y-59585373D01*
X87525006Y-59585372D01*
X87352952Y-59470409D01*
X87206631Y-59324088D01*
X87091668Y-59152034D01*
X87091667Y-59152032D01*
X87012479Y-58960856D01*
X86972110Y-58757906D01*
X86972110Y-58550974D01*
X87012479Y-58348024D01*
X87091667Y-58156848D01*
X87206631Y-57984792D01*
X87352952Y-57838471D01*
X87453781Y-57771099D01*
X87525006Y-57723508D01*
X87525008Y-57723507D01*
X87716184Y-57644319D01*
X87919134Y-57603950D01*
X88126066Y-57603950D01*
X88329016Y-57644319D01*
G37*
G36*
X92139016Y-57644319D02*
G01*
X92330192Y-57723507D01*
X92330194Y-57723508D01*
X92401419Y-57771099D01*
X92502248Y-57838471D01*
X92648569Y-57984792D01*
X92763533Y-58156848D01*
X92842721Y-58348024D01*
X92883090Y-58550974D01*
X92883090Y-58757906D01*
X92842721Y-58960856D01*
X92763533Y-59152032D01*
X92763532Y-59152034D01*
X92648569Y-59324088D01*
X92502248Y-59470409D01*
X92330194Y-59585372D01*
X92330193Y-59585373D01*
X92330192Y-59585373D01*
X92139016Y-59664561D01*
X91936066Y-59704930D01*
X91729134Y-59704930D01*
X91526184Y-59664561D01*
X91335008Y-59585373D01*
X91335007Y-59585373D01*
X91335006Y-59585372D01*
X91162952Y-59470409D01*
X91016631Y-59324088D01*
X90901668Y-59152034D01*
X90901667Y-59152032D01*
X90822479Y-58960856D01*
X90782110Y-58757906D01*
X90782110Y-58550974D01*
X90822479Y-58348024D01*
X90901667Y-58156848D01*
X91016631Y-57984792D01*
X91162952Y-57838471D01*
X91263781Y-57771099D01*
X91335006Y-57723508D01*
X91335008Y-57723507D01*
X91526184Y-57644319D01*
X91729134Y-57603950D01*
X91936066Y-57603950D01*
X92139016Y-57644319D01*
G37*
G36*
X56121629Y-54577625D02*
G01*
X56201654Y-54601900D01*
X56423420Y-54669172D01*
X56551350Y-54737552D01*
X56701550Y-54817836D01*
X56945336Y-55017904D01*
X57145403Y-55261689D01*
X57294068Y-55539820D01*
X57361340Y-55761586D01*
X57385615Y-55841611D01*
X57408780Y-56076811D01*
X57408780Y-57234109D01*
X57385615Y-57469309D01*
X57385614Y-57469311D01*
X57294068Y-57771100D01*
X57294066Y-57771103D01*
X57145404Y-58049230D01*
X56945336Y-58293016D01*
X56701549Y-58493084D01*
X56551349Y-58573368D01*
X56423419Y-58641748D01*
X56201653Y-58709020D01*
X56121628Y-58733295D01*
X55807780Y-58764206D01*
X55493931Y-58733295D01*
X55413906Y-58709020D01*
X55192140Y-58641748D01*
X55064210Y-58573368D01*
X54914010Y-58493084D01*
X54670224Y-58293016D01*
X54470156Y-58049229D01*
X54357503Y-57838471D01*
X54321492Y-57771099D01*
X54229946Y-57469310D01*
X54229945Y-57469308D01*
X54206780Y-57234108D01*
X54206780Y-56076811D01*
X54229945Y-55841611D01*
X54254220Y-55761586D01*
X54321492Y-55539820D01*
X54470157Y-55261689D01*
X54564398Y-55146856D01*
X54670225Y-55017904D01*
X54914011Y-54817836D01*
X55064211Y-54737552D01*
X55192141Y-54669172D01*
X55413907Y-54601900D01*
X55493932Y-54577625D01*
X55807780Y-54546714D01*
X56121629Y-54577625D01*
G37*
G36*
X109121269Y-54577625D02*
G01*
X109201294Y-54601900D01*
X109423060Y-54669172D01*
X109550990Y-54737552D01*
X109701190Y-54817836D01*
X109944976Y-55017904D01*
X110145043Y-55261689D01*
X110293708Y-55539820D01*
X110360980Y-55761586D01*
X110385255Y-55841611D01*
X110408420Y-56076811D01*
X110408420Y-57234109D01*
X110385255Y-57469309D01*
X110385254Y-57469311D01*
X110293708Y-57771100D01*
X110293706Y-57771103D01*
X110145044Y-58049230D01*
X109944976Y-58293016D01*
X109701189Y-58493084D01*
X109550989Y-58573368D01*
X109423059Y-58641748D01*
X109201293Y-58709020D01*
X109121268Y-58733295D01*
X108807420Y-58764206D01*
X108493571Y-58733295D01*
X108413546Y-58709020D01*
X108191780Y-58641748D01*
X108063850Y-58573368D01*
X107913650Y-58493084D01*
X107669864Y-58293016D01*
X107469796Y-58049229D01*
X107357143Y-57838471D01*
X107321132Y-57771099D01*
X107229586Y-57469310D01*
X107229585Y-57469308D01*
X107206420Y-57234108D01*
X107206420Y-56076811D01*
X107229585Y-55841611D01*
X107253860Y-55761586D01*
X107321132Y-55539820D01*
X107469797Y-55261689D01*
X107564038Y-55146856D01*
X107669865Y-55017904D01*
X107913651Y-54817836D01*
X108063851Y-54737552D01*
X108191781Y-54669172D01*
X108413547Y-54601900D01*
X108493572Y-54577625D01*
X108807420Y-54546714D01*
X109121269Y-54577625D01*
G37*
G36*
X120035787Y-48585462D02*
G01*
X120035790Y-48585463D01*
X120035789Y-48585463D01*
X120682029Y-48853144D01*
X121263631Y-49241758D01*
X121758242Y-49736369D01*
X122146856Y-50317971D01*
X122146856Y-50317972D01*
X122414538Y-50964213D01*
X122551000Y-51650256D01*
X122551000Y-52349744D01*
X122414538Y-53035787D01*
X122414537Y-53035789D01*
X122146856Y-53682029D01*
X121758242Y-54263631D01*
X121263631Y-54758242D01*
X120682029Y-55146856D01*
X120225068Y-55336135D01*
X120035787Y-55414538D01*
X119349744Y-55551000D01*
X118650256Y-55551000D01*
X117964213Y-55414538D01*
X117774932Y-55336135D01*
X117317971Y-55146856D01*
X116736369Y-54758242D01*
X116241758Y-54263631D01*
X115853144Y-53682029D01*
X115585463Y-53035789D01*
X115585462Y-53035787D01*
X115449000Y-52349744D01*
X115449000Y-51650256D01*
X115585462Y-50964213D01*
X115853144Y-50317972D01*
X115853144Y-50317971D01*
X116241758Y-49736369D01*
X116736369Y-49241758D01*
X117317971Y-48853144D01*
X117964211Y-48585463D01*
X117964210Y-48585463D01*
X117964213Y-48585462D01*
X118650256Y-48449000D01*
X119349744Y-48449000D01*
X120035787Y-48585462D01*
G37*
G36*
X7035787Y-48585462D02*
G01*
X7035790Y-48585463D01*
X7035789Y-48585463D01*
X7682029Y-48853144D01*
X8263631Y-49241758D01*
X8758242Y-49736369D01*
X9146856Y-50317971D01*
X9146856Y-50317972D01*
X9414538Y-50964213D01*
X9551000Y-51650256D01*
X9551000Y-52349744D01*
X9414538Y-53035787D01*
X9414537Y-53035789D01*
X9146856Y-53682029D01*
X8758242Y-54263631D01*
X8263631Y-54758242D01*
X7682029Y-55146856D01*
X7225068Y-55336135D01*
X7035787Y-55414538D01*
X6349744Y-55551000D01*
X5650256Y-55551000D01*
X4964213Y-55414538D01*
X4774932Y-55336135D01*
X4317971Y-55146856D01*
X3736369Y-54758242D01*
X3241758Y-54263631D01*
X2853144Y-53682029D01*
X2585463Y-53035789D01*
X2585462Y-53035787D01*
X2449000Y-52349744D01*
X2449000Y-51650256D01*
X2585462Y-50964213D01*
X2853144Y-50317972D01*
X2853144Y-50317971D01*
X3241758Y-49736369D01*
X3736369Y-49241758D01*
X4317971Y-48853144D01*
X4964211Y-48585463D01*
X4964210Y-48585463D01*
X4964213Y-48585462D01*
X5650256Y-48449000D01*
X6349744Y-48449000D01*
X7035787Y-48585462D01*
G37*
M02*
