G04 #@! TF.GenerationSoftware,KiCad,Pcbnew,7.0.1*
G04 #@! TF.CreationDate,2023-04-07T16:46:32+02:00*
G04 #@! TF.ProjectId,raveracer,72617665-7261-4636-9572-2e6b69636164,rev?*
G04 #@! TF.SameCoordinates,Original*
G04 #@! TF.FileFunction,Legend,Bot*
G04 #@! TF.FilePolarity,Positive*
%FSLAX46Y46*%
G04 Gerber Fmt 4.6, Leading zero omitted, Abs format (unit mm)*
G04 Created by KiCad (PCBNEW 7.0.1) date 2023-04-07 16:46:32*
%MOMM*%
%LPD*%
G01*
G04 APERTURE LIST*
%ADD10C,0.187500*%
G04 APERTURE END LIST*
D10*
X115754593Y-78577500D02*
X115897450Y-78648928D01*
X115897450Y-78648928D02*
X116183164Y-78648928D01*
X116183164Y-78648928D02*
X116326021Y-78577500D01*
X116326021Y-78577500D02*
X116397450Y-78506071D01*
X116397450Y-78506071D02*
X116468878Y-78363214D01*
X116468878Y-78363214D02*
X116468878Y-77934642D01*
X116468878Y-77934642D02*
X116397450Y-77791785D01*
X116397450Y-77791785D02*
X116326021Y-77720357D01*
X116326021Y-77720357D02*
X116183164Y-77648928D01*
X116183164Y-77648928D02*
X115897450Y-77648928D01*
X115897450Y-77648928D02*
X115754593Y-77720357D01*
X114468879Y-78648928D02*
X114468879Y-77863214D01*
X114468879Y-77863214D02*
X114540307Y-77720357D01*
X114540307Y-77720357D02*
X114683164Y-77648928D01*
X114683164Y-77648928D02*
X114968879Y-77648928D01*
X114968879Y-77648928D02*
X115111736Y-77720357D01*
X114468879Y-78577500D02*
X114611736Y-78648928D01*
X114611736Y-78648928D02*
X114968879Y-78648928D01*
X114968879Y-78648928D02*
X115111736Y-78577500D01*
X115111736Y-78577500D02*
X115183164Y-78434642D01*
X115183164Y-78434642D02*
X115183164Y-78291785D01*
X115183164Y-78291785D02*
X115111736Y-78148928D01*
X115111736Y-78148928D02*
X114968879Y-78077500D01*
X114968879Y-78077500D02*
X114611736Y-78077500D01*
X114611736Y-78077500D02*
X114468879Y-78006071D01*
X113826021Y-78577500D02*
X113683164Y-78648928D01*
X113683164Y-78648928D02*
X113397450Y-78648928D01*
X113397450Y-78648928D02*
X113254593Y-78577500D01*
X113254593Y-78577500D02*
X113183164Y-78434642D01*
X113183164Y-78434642D02*
X113183164Y-78363214D01*
X113183164Y-78363214D02*
X113254593Y-78220357D01*
X113254593Y-78220357D02*
X113397450Y-78148928D01*
X113397450Y-78148928D02*
X113611736Y-78148928D01*
X113611736Y-78148928D02*
X113754593Y-78077500D01*
X113754593Y-78077500D02*
X113826021Y-77934642D01*
X113826021Y-77934642D02*
X113826021Y-77863214D01*
X113826021Y-77863214D02*
X113754593Y-77720357D01*
X113754593Y-77720357D02*
X113611736Y-77648928D01*
X113611736Y-77648928D02*
X113397450Y-77648928D01*
X113397450Y-77648928D02*
X113254593Y-77720357D01*
X111897450Y-78577500D02*
X112040307Y-78648928D01*
X112040307Y-78648928D02*
X112326021Y-78648928D01*
X112326021Y-78648928D02*
X112468878Y-78577500D01*
X112468878Y-78577500D02*
X112540307Y-78506071D01*
X112540307Y-78506071D02*
X112611735Y-78363214D01*
X112611735Y-78363214D02*
X112611735Y-77934642D01*
X112611735Y-77934642D02*
X112540307Y-77791785D01*
X112540307Y-77791785D02*
X112468878Y-77720357D01*
X112468878Y-77720357D02*
X112326021Y-77648928D01*
X112326021Y-77648928D02*
X112040307Y-77648928D01*
X112040307Y-77648928D02*
X111897450Y-77720357D01*
X111254593Y-78648928D02*
X111254593Y-77148928D01*
X110611736Y-78648928D02*
X110611736Y-77863214D01*
X110611736Y-77863214D02*
X110683164Y-77720357D01*
X110683164Y-77720357D02*
X110826021Y-77648928D01*
X110826021Y-77648928D02*
X111040307Y-77648928D01*
X111040307Y-77648928D02*
X111183164Y-77720357D01*
X111183164Y-77720357D02*
X111254593Y-77791785D01*
X109254593Y-78648928D02*
X109254593Y-77863214D01*
X109254593Y-77863214D02*
X109326021Y-77720357D01*
X109326021Y-77720357D02*
X109468878Y-77648928D01*
X109468878Y-77648928D02*
X109754593Y-77648928D01*
X109754593Y-77648928D02*
X109897450Y-77720357D01*
X109254593Y-78577500D02*
X109397450Y-78648928D01*
X109397450Y-78648928D02*
X109754593Y-78648928D01*
X109754593Y-78648928D02*
X109897450Y-78577500D01*
X109897450Y-78577500D02*
X109968878Y-78434642D01*
X109968878Y-78434642D02*
X109968878Y-78291785D01*
X109968878Y-78291785D02*
X109897450Y-78148928D01*
X109897450Y-78148928D02*
X109754593Y-78077500D01*
X109754593Y-78077500D02*
X109397450Y-78077500D01*
X109397450Y-78077500D02*
X109254593Y-78006071D01*
X114504593Y-81007500D02*
X114647450Y-81078928D01*
X114647450Y-81078928D02*
X114933164Y-81078928D01*
X114933164Y-81078928D02*
X115076021Y-81007500D01*
X115076021Y-81007500D02*
X115147450Y-80936071D01*
X115147450Y-80936071D02*
X115218878Y-80793214D01*
X115218878Y-80793214D02*
X115218878Y-80364642D01*
X115218878Y-80364642D02*
X115147450Y-80221785D01*
X115147450Y-80221785D02*
X115076021Y-80150357D01*
X115076021Y-80150357D02*
X114933164Y-80078928D01*
X114933164Y-80078928D02*
X114647450Y-80078928D01*
X114647450Y-80078928D02*
X114504593Y-80150357D01*
X113647450Y-81078928D02*
X113790307Y-81007500D01*
X113790307Y-81007500D02*
X113861736Y-80936071D01*
X113861736Y-80936071D02*
X113933164Y-80793214D01*
X113933164Y-80793214D02*
X113933164Y-80364642D01*
X113933164Y-80364642D02*
X113861736Y-80221785D01*
X113861736Y-80221785D02*
X113790307Y-80150357D01*
X113790307Y-80150357D02*
X113647450Y-80078928D01*
X113647450Y-80078928D02*
X113433164Y-80078928D01*
X113433164Y-80078928D02*
X113290307Y-80150357D01*
X113290307Y-80150357D02*
X113218879Y-80221785D01*
X113218879Y-80221785D02*
X113147450Y-80364642D01*
X113147450Y-80364642D02*
X113147450Y-80793214D01*
X113147450Y-80793214D02*
X113218879Y-80936071D01*
X113218879Y-80936071D02*
X113290307Y-81007500D01*
X113290307Y-81007500D02*
X113433164Y-81078928D01*
X113433164Y-81078928D02*
X113647450Y-81078928D01*
X112290307Y-81078928D02*
X112433164Y-81007500D01*
X112433164Y-81007500D02*
X112504593Y-80936071D01*
X112504593Y-80936071D02*
X112576021Y-80793214D01*
X112576021Y-80793214D02*
X112576021Y-80364642D01*
X112576021Y-80364642D02*
X112504593Y-80221785D01*
X112504593Y-80221785D02*
X112433164Y-80150357D01*
X112433164Y-80150357D02*
X112290307Y-80078928D01*
X112290307Y-80078928D02*
X112076021Y-80078928D01*
X112076021Y-80078928D02*
X111933164Y-80150357D01*
X111933164Y-80150357D02*
X111861736Y-80221785D01*
X111861736Y-80221785D02*
X111790307Y-80364642D01*
X111790307Y-80364642D02*
X111790307Y-80793214D01*
X111790307Y-80793214D02*
X111861736Y-80936071D01*
X111861736Y-80936071D02*
X111933164Y-81007500D01*
X111933164Y-81007500D02*
X112076021Y-81078928D01*
X112076021Y-81078928D02*
X112290307Y-81078928D01*
X111147450Y-80078928D02*
X111147450Y-81078928D01*
X111147450Y-80221785D02*
X111076021Y-80150357D01*
X111076021Y-80150357D02*
X110933164Y-80078928D01*
X110933164Y-80078928D02*
X110718878Y-80078928D01*
X110718878Y-80078928D02*
X110576021Y-80150357D01*
X110576021Y-80150357D02*
X110504593Y-80293214D01*
X110504593Y-80293214D02*
X110504593Y-81078928D01*
X117254591Y-84438928D02*
X117111734Y-84438928D01*
X117111734Y-84438928D02*
X116968877Y-84510357D01*
X116968877Y-84510357D02*
X116897449Y-84581785D01*
X116897449Y-84581785D02*
X116826020Y-84724642D01*
X116826020Y-84724642D02*
X116754591Y-85010357D01*
X116754591Y-85010357D02*
X116754591Y-85367500D01*
X116754591Y-85367500D02*
X116826020Y-85653214D01*
X116826020Y-85653214D02*
X116897449Y-85796071D01*
X116897449Y-85796071D02*
X116968877Y-85867500D01*
X116968877Y-85867500D02*
X117111734Y-85938928D01*
X117111734Y-85938928D02*
X117254591Y-85938928D01*
X117254591Y-85938928D02*
X117397449Y-85867500D01*
X117397449Y-85867500D02*
X117468877Y-85796071D01*
X117468877Y-85796071D02*
X117540306Y-85653214D01*
X117540306Y-85653214D02*
X117611734Y-85367500D01*
X117611734Y-85367500D02*
X117611734Y-85010357D01*
X117611734Y-85010357D02*
X117540306Y-84724642D01*
X117540306Y-84724642D02*
X117468877Y-84581785D01*
X117468877Y-84581785D02*
X117397449Y-84510357D01*
X117397449Y-84510357D02*
X117254591Y-84438928D01*
X115468878Y-84938928D02*
X115468878Y-85938928D01*
X115826020Y-84367500D02*
X116183163Y-85438928D01*
X116183163Y-85438928D02*
X115254592Y-85438928D01*
X113611735Y-84367500D02*
X114897449Y-86296071D01*
X113183163Y-84581785D02*
X113111735Y-84510357D01*
X113111735Y-84510357D02*
X112968878Y-84438928D01*
X112968878Y-84438928D02*
X112611735Y-84438928D01*
X112611735Y-84438928D02*
X112468878Y-84510357D01*
X112468878Y-84510357D02*
X112397449Y-84581785D01*
X112397449Y-84581785D02*
X112326020Y-84724642D01*
X112326020Y-84724642D02*
X112326020Y-84867500D01*
X112326020Y-84867500D02*
X112397449Y-85081785D01*
X112397449Y-85081785D02*
X113254592Y-85938928D01*
X113254592Y-85938928D02*
X112326020Y-85938928D01*
X111397449Y-84438928D02*
X111254592Y-84438928D01*
X111254592Y-84438928D02*
X111111735Y-84510357D01*
X111111735Y-84510357D02*
X111040307Y-84581785D01*
X111040307Y-84581785D02*
X110968878Y-84724642D01*
X110968878Y-84724642D02*
X110897449Y-85010357D01*
X110897449Y-85010357D02*
X110897449Y-85367500D01*
X110897449Y-85367500D02*
X110968878Y-85653214D01*
X110968878Y-85653214D02*
X111040307Y-85796071D01*
X111040307Y-85796071D02*
X111111735Y-85867500D01*
X111111735Y-85867500D02*
X111254592Y-85938928D01*
X111254592Y-85938928D02*
X111397449Y-85938928D01*
X111397449Y-85938928D02*
X111540307Y-85867500D01*
X111540307Y-85867500D02*
X111611735Y-85796071D01*
X111611735Y-85796071D02*
X111683164Y-85653214D01*
X111683164Y-85653214D02*
X111754592Y-85367500D01*
X111754592Y-85367500D02*
X111754592Y-85010357D01*
X111754592Y-85010357D02*
X111683164Y-84724642D01*
X111683164Y-84724642D02*
X111611735Y-84581785D01*
X111611735Y-84581785D02*
X111540307Y-84510357D01*
X111540307Y-84510357D02*
X111397449Y-84438928D01*
X110326021Y-84581785D02*
X110254593Y-84510357D01*
X110254593Y-84510357D02*
X110111736Y-84438928D01*
X110111736Y-84438928D02*
X109754593Y-84438928D01*
X109754593Y-84438928D02*
X109611736Y-84510357D01*
X109611736Y-84510357D02*
X109540307Y-84581785D01*
X109540307Y-84581785D02*
X109468878Y-84724642D01*
X109468878Y-84724642D02*
X109468878Y-84867500D01*
X109468878Y-84867500D02*
X109540307Y-85081785D01*
X109540307Y-85081785D02*
X110397450Y-85938928D01*
X110397450Y-85938928D02*
X109468878Y-85938928D01*
X108968879Y-84438928D02*
X108040307Y-84438928D01*
X108040307Y-84438928D02*
X108540307Y-85010357D01*
X108540307Y-85010357D02*
X108326022Y-85010357D01*
X108326022Y-85010357D02*
X108183165Y-85081785D01*
X108183165Y-85081785D02*
X108111736Y-85153214D01*
X108111736Y-85153214D02*
X108040307Y-85296071D01*
X108040307Y-85296071D02*
X108040307Y-85653214D01*
X108040307Y-85653214D02*
X108111736Y-85796071D01*
X108111736Y-85796071D02*
X108183165Y-85867500D01*
X108183165Y-85867500D02*
X108326022Y-85938928D01*
X108326022Y-85938928D02*
X108754593Y-85938928D01*
X108754593Y-85938928D02*
X108897450Y-85867500D01*
X108897450Y-85867500D02*
X108968879Y-85796071D01*
M02*
