M48
; DRILL file {KiCad 7.0.1} date Fri 07 Apr 2023 04:46:35 PM CEST
; FORMAT={-:-/ absolute / inch / decimal}
; #@! TF.CreationDate,2023-04-07T16:46:35+02:00
; #@! TF.GenerationSoftware,Kicad,Pcbnew,7.0.1
; #@! TF.FileFunction,Plated,1,2,PTH
FMAT,2
INCH
; #@! TA.AperFunction,Plated,PTH,ViaDrill
T1C0.0157
; #@! TA.AperFunction,Plated,PTH,ComponentDrill
T2C0.0276
; #@! TA.AperFunction,Plated,PTH,ComponentDrill
T3C0.0315
; #@! TA.AperFunction,Plated,PTH,ComponentDrill
T4C0.0394
; #@! TA.AperFunction,Plated,PTH,ComponentDrill
T5C0.0500
; #@! TA.AperFunction,Plated,PTH,ComponentDrill
T6C0.0512
; #@! TA.AperFunction,Plated,PTH,ComponentDrill
T7C0.0630
; #@! TA.AperFunction,Plated,PTH,ComponentDrill
T8C0.1378
; #@! TA.AperFunction,Plated,PTH,ComponentDrill
T9C0.1654
%
G90
G05
T1
X3.4345Y-3.8232
X3.84Y-3.41
X4.2384Y-3.9413
X4.3565Y-4.252
X4.38Y-3.9128
X4.7172Y-3.9382
X4.78Y-3.44
X4.7876Y-3.8717
X5.22Y-3.86
X5.25Y-4.35
X5.38Y-3.86
X5.52Y-3.86
X5.9558Y-3.7858
X6.1Y-3.83
X6.3704Y-3.7839
X6.3872Y-4.335
X6.4274Y-3.7839
X6.4463Y-3.6854
X6.5447Y-3.7445
X6.8Y-4.24
X7.051Y-4.2114
X7.1943Y-4.3547
X7.4109Y-3.4492
T2
X4.6164Y-4.3035
X4.8164Y-4.3035
T3
X3.8872Y-4.2012
X3.9857Y-4.2012
X4.1432Y-4.1028
X4.1432Y-4.2028
X4.1432Y-4.3028
X4.1432Y-4.4028
X4.4432Y-4.1028
X4.4432Y-4.2028
X4.4432Y-4.3028
X4.4432Y-4.4028
X4.6786Y-4.1461
X4.777Y-4.1461
X7.0483Y-3.9035
X7.051Y-4.1047
X7.3483Y-3.9035
X7.351Y-4.1047
T4
X4.2217Y-3.5929
X4.2656Y-3.6921
X4.2672Y-3.4913
X4.3119Y-3.5929
X4.3557Y-3.6921
X4.3573Y-3.4913
X4.402Y-3.5929
X4.4459Y-3.6921
X4.4475Y-3.4913
X4.4922Y-3.5929
X4.5361Y-3.6921
X4.5376Y-3.4913
X4.5823Y-3.5929
X4.6262Y-3.6921
X4.6278Y-3.4913
X6.3989Y-4.1173
X6.4989Y-4.1173
X6.5989Y-4.1173
X6.6989Y-4.1173
X6.7989Y-4.1173
T5
X5.22Y-4.12
X5.3759Y-4.12
X5.5318Y-4.12
X5.6877Y-4.12
X5.8436Y-4.12
X5.9995Y-4.12
T6
X7.8829Y-3.6516
X7.8829Y-3.8516
T7
X5.6494Y-3.5766
X5.7244Y-3.3766
X5.7994Y-3.5766
X5.8744Y-3.3766
X5.9494Y-3.5766
X6.0244Y-3.3766
X6.0994Y-3.5766
X6.1744Y-3.3766
X6.2494Y-3.5766
X6.3244Y-3.3766
X6.3994Y-3.5766
X6.4744Y-3.3766
X6.5494Y-3.5766
X6.6244Y-3.3766
X6.6994Y-3.5766
X6.7744Y-3.3766
X6.8494Y-3.5766
X6.9244Y-3.3766
X6.9994Y-3.5766
X7.0744Y-3.3766
X7.1494Y-3.5766
T8
X3.3951Y-3.1146
X3.3951Y-4.4138
X7.8439Y-3.1146
X7.8439Y-4.4138
T9
X3.9309Y-3.6134
X4.9191Y-3.6134
T0
M30
