M48
; DRILL file {KiCad 5.1.6} date Fri Oct 16 21:43:52 2020
; FORMAT={-:-/ absolute / inch / decimal}
; #@! TF.CreationDate,2020-10-16T21:43:52+02:00
; #@! TF.GenerationSoftware,Kicad,Pcbnew,5.1.6
; #@! TF.FileFunction,Plated,1,2,PTH
FMAT,2
INCH
T1C0.0157
T2C0.0276
T3C0.0315
T4C0.0394
T5C0.0394
T6C0.0472
T7C0.0512
T8C0.1260
T9C0.1378
%
G90
G05
T1
X0.2756Y-2.7559
X0.6972Y-2.437
X1.0075Y-2.4378
X1.0795Y-2.874
X1.1976Y-2.8382
X1.1976Y-3.1846
X1.5449Y-2.4246
X1.5583Y-2.8709
X1.6287Y-2.8043
X2.2244Y-2.8346
X2.2835Y-3.2874
X2.3228Y-2.7953
X2.4213Y-2.7953
X2.6378Y-2.7362
X2.7559Y-2.7756
X3.2115Y-2.7165
X3.2283Y-3.2677
X3.2685Y-2.7165
X3.2874Y-2.6181
X3.3858Y-2.6772
X3.6024Y-3.2087
X3.8921Y-3.1441
X4.0354Y-3.2874
X4.252Y-2.3819
T2
X1.4575Y-3.2362
X1.6575Y-3.2362
T3
X3.8921Y-3.0374
X4.1921Y-3.0374
X1.5197Y-3.0787
X1.6181Y-3.0787
X0.9843Y-3.0354
X0.9843Y-3.1354
X0.9843Y-3.2354
X0.9843Y-3.3354
X1.2843Y-3.0354
X1.2843Y-3.1354
X1.2843Y-3.2354
X1.2843Y-3.3354
X0.7283Y-3.1339
X0.8268Y-3.1339
X3.8894Y-2.8362
X4.1894Y-2.8362
T4
X3.24Y-3.05
X3.34Y-3.05
X3.44Y-3.05
X3.54Y-3.05
X3.64Y-3.05
X1.0616Y-2.5469
X1.1067Y-2.4689
X1.1067Y-2.6248
X1.1518Y-2.5469
X1.1969Y-2.4689
X1.1969Y-2.6248
X1.2419Y-2.5469
X1.287Y-2.4689
X1.287Y-2.6248
X1.3321Y-2.5469
X1.3772Y-2.4689
X1.3772Y-2.6248
X1.4222Y-2.5469
X1.4673Y-2.4689
X1.4673Y-2.6248
T5
X2.2303Y-3.0709
X2.3303Y-3.0709
X2.4303Y-3.0709
X2.5303Y-3.0709
X2.6303Y-3.0709
X2.7303Y-3.0709
T6
X2.4905Y-2.5092
X2.5655Y-2.3092
X2.6405Y-2.5092
X2.7155Y-2.3092
X2.7905Y-2.5092
X2.8655Y-2.3092
X2.9405Y-2.5092
X3.0155Y-2.3092
X3.0905Y-2.5092
X3.1655Y-2.3092
X3.2405Y-2.5092
X3.3155Y-2.3092
X3.3905Y-2.5092
X3.4655Y-2.3092
X3.5405Y-2.5092
X3.6155Y-2.3092
X3.6905Y-2.5092
X3.7655Y-2.3092
X3.8405Y-2.5092
X3.9155Y-2.3092
X3.9905Y-2.5092
T7
X4.724Y-2.5843
X4.724Y-2.7843
T8
X0.7844Y-2.5689
X1.7687Y-2.5689
T9
X4.685Y-2.0472
X0.2362Y-2.0472
X0.2362Y-3.3465
X4.685Y-3.3465
T0
M30
