G04 #@! TF.GenerationSoftware,KiCad,Pcbnew,7.0.1*
G04 #@! TF.CreationDate,2023-04-07T16:46:32+02:00*
G04 #@! TF.ProjectId,raveracer,72617665-7261-4636-9572-2e6b69636164,rev?*
G04 #@! TF.SameCoordinates,Original*
G04 #@! TF.FileFunction,Legend,Top*
G04 #@! TF.FilePolarity,Positive*
%FSLAX46Y46*%
G04 Gerber Fmt 4.6, Leading zero omitted, Abs format (unit mm)*
G04 Created by KiCad (PCBNEW 7.0.1) date 2023-04-07 16:46:32*
%MOMM*%
%LPD*%
G01*
G04 APERTURE LIST*
%ADD10C,0.150000*%
%ADD11C,0.300000*%
%ADD12C,0.203200*%
%ADD13C,0.304800*%
%ADD14C,0.120000*%
%ADD15C,0.381000*%
%ADD16R,1.778000X2.540000*%
%ADD17O,1.778000X2.540000*%
%ADD18O,3.100000X4.100000*%
G04 APERTURE END LIST*
D10*
X169662260Y-102039904D02*
X169614641Y-102135142D01*
X169614641Y-102135142D02*
X169614641Y-102277999D01*
X169614641Y-102277999D02*
X169662260Y-102420856D01*
X169662260Y-102420856D02*
X169757498Y-102516094D01*
X169757498Y-102516094D02*
X169852736Y-102563713D01*
X169852736Y-102563713D02*
X170043212Y-102611332D01*
X170043212Y-102611332D02*
X170186069Y-102611332D01*
X170186069Y-102611332D02*
X170376545Y-102563713D01*
X170376545Y-102563713D02*
X170471783Y-102516094D01*
X170471783Y-102516094D02*
X170567022Y-102420856D01*
X170567022Y-102420856D02*
X170614641Y-102277999D01*
X170614641Y-102277999D02*
X170614641Y-102182761D01*
X170614641Y-102182761D02*
X170567022Y-102039904D01*
X170567022Y-102039904D02*
X170519402Y-101992285D01*
X170519402Y-101992285D02*
X170186069Y-101992285D01*
X170186069Y-101992285D02*
X170186069Y-102182761D01*
X170614641Y-101563713D02*
X169614641Y-101563713D01*
X169614641Y-101563713D02*
X170614641Y-100992285D01*
X170614641Y-100992285D02*
X169614641Y-100992285D01*
X170614641Y-100516094D02*
X169614641Y-100516094D01*
X169614641Y-100516094D02*
X169614641Y-100277999D01*
X169614641Y-100277999D02*
X169662260Y-100135142D01*
X169662260Y-100135142D02*
X169757498Y-100039904D01*
X169757498Y-100039904D02*
X169852736Y-99992285D01*
X169852736Y-99992285D02*
X170043212Y-99944666D01*
X170043212Y-99944666D02*
X170186069Y-99944666D01*
X170186069Y-99944666D02*
X170376545Y-99992285D01*
X170376545Y-99992285D02*
X170471783Y-100039904D01*
X170471783Y-100039904D02*
X170567022Y-100135142D01*
X170567022Y-100135142D02*
X170614641Y-100277999D01*
X170614641Y-100277999D02*
X170614641Y-100516094D01*
X164582260Y-101873143D02*
X164534641Y-101968381D01*
X164534641Y-101968381D02*
X164534641Y-102111238D01*
X164534641Y-102111238D02*
X164582260Y-102254095D01*
X164582260Y-102254095D02*
X164677498Y-102349333D01*
X164677498Y-102349333D02*
X164772736Y-102396952D01*
X164772736Y-102396952D02*
X164963212Y-102444571D01*
X164963212Y-102444571D02*
X165106069Y-102444571D01*
X165106069Y-102444571D02*
X165296545Y-102396952D01*
X165296545Y-102396952D02*
X165391783Y-102349333D01*
X165391783Y-102349333D02*
X165487022Y-102254095D01*
X165487022Y-102254095D02*
X165534641Y-102111238D01*
X165534641Y-102111238D02*
X165534641Y-102016000D01*
X165534641Y-102016000D02*
X165487022Y-101873143D01*
X165487022Y-101873143D02*
X165439402Y-101825524D01*
X165439402Y-101825524D02*
X165106069Y-101825524D01*
X165106069Y-101825524D02*
X165106069Y-102016000D01*
X165534641Y-101396952D02*
X164867974Y-101396952D01*
X165058450Y-101396952D02*
X164963212Y-101349333D01*
X164963212Y-101349333D02*
X164915593Y-101301714D01*
X164915593Y-101301714D02*
X164867974Y-101206476D01*
X164867974Y-101206476D02*
X164867974Y-101111238D01*
X165487022Y-100396952D02*
X165534641Y-100492190D01*
X165534641Y-100492190D02*
X165534641Y-100682666D01*
X165534641Y-100682666D02*
X165487022Y-100777904D01*
X165487022Y-100777904D02*
X165391783Y-100825523D01*
X165391783Y-100825523D02*
X165010831Y-100825523D01*
X165010831Y-100825523D02*
X164915593Y-100777904D01*
X164915593Y-100777904D02*
X164867974Y-100682666D01*
X164867974Y-100682666D02*
X164867974Y-100492190D01*
X164867974Y-100492190D02*
X164915593Y-100396952D01*
X164915593Y-100396952D02*
X165010831Y-100349333D01*
X165010831Y-100349333D02*
X165106069Y-100349333D01*
X165106069Y-100349333D02*
X165201307Y-100825523D01*
X165487022Y-99539809D02*
X165534641Y-99635047D01*
X165534641Y-99635047D02*
X165534641Y-99825523D01*
X165534641Y-99825523D02*
X165487022Y-99920761D01*
X165487022Y-99920761D02*
X165391783Y-99968380D01*
X165391783Y-99968380D02*
X165010831Y-99968380D01*
X165010831Y-99968380D02*
X164915593Y-99920761D01*
X164915593Y-99920761D02*
X164867974Y-99825523D01*
X164867974Y-99825523D02*
X164867974Y-99635047D01*
X164867974Y-99635047D02*
X164915593Y-99539809D01*
X164915593Y-99539809D02*
X165010831Y-99492190D01*
X165010831Y-99492190D02*
X165106069Y-99492190D01*
X165106069Y-99492190D02*
X165201307Y-99968380D01*
X164867974Y-99063618D02*
X165534641Y-99063618D01*
X164963212Y-99063618D02*
X164915593Y-99015999D01*
X164915593Y-99015999D02*
X164867974Y-98920761D01*
X164867974Y-98920761D02*
X164867974Y-98777904D01*
X164867974Y-98777904D02*
X164915593Y-98682666D01*
X164915593Y-98682666D02*
X165010831Y-98635047D01*
X165010831Y-98635047D02*
X165534641Y-98635047D01*
X134747904Y-108873000D02*
X134890761Y-108920619D01*
X134890761Y-108920619D02*
X135128856Y-108920619D01*
X135128856Y-108920619D02*
X135224094Y-108873000D01*
X135224094Y-108873000D02*
X135271713Y-108825380D01*
X135271713Y-108825380D02*
X135319332Y-108730142D01*
X135319332Y-108730142D02*
X135319332Y-108634904D01*
X135319332Y-108634904D02*
X135271713Y-108539666D01*
X135271713Y-108539666D02*
X135224094Y-108492047D01*
X135224094Y-108492047D02*
X135128856Y-108444428D01*
X135128856Y-108444428D02*
X134938380Y-108396809D01*
X134938380Y-108396809D02*
X134843142Y-108349190D01*
X134843142Y-108349190D02*
X134795523Y-108301571D01*
X134795523Y-108301571D02*
X134747904Y-108206333D01*
X134747904Y-108206333D02*
X134747904Y-108111095D01*
X134747904Y-108111095D02*
X134795523Y-108015857D01*
X134795523Y-108015857D02*
X134843142Y-107968238D01*
X134843142Y-107968238D02*
X134938380Y-107920619D01*
X134938380Y-107920619D02*
X135176475Y-107920619D01*
X135176475Y-107920619D02*
X135319332Y-107968238D01*
X135652666Y-108253952D02*
X135890761Y-108920619D01*
X136128856Y-108253952D02*
X135890761Y-108920619D01*
X135890761Y-108920619D02*
X135795523Y-109158714D01*
X135795523Y-109158714D02*
X135747904Y-109206333D01*
X135747904Y-109206333D02*
X135652666Y-109253952D01*
X136462190Y-108873000D02*
X136557428Y-108920619D01*
X136557428Y-108920619D02*
X136747904Y-108920619D01*
X136747904Y-108920619D02*
X136843142Y-108873000D01*
X136843142Y-108873000D02*
X136890761Y-108777761D01*
X136890761Y-108777761D02*
X136890761Y-108730142D01*
X136890761Y-108730142D02*
X136843142Y-108634904D01*
X136843142Y-108634904D02*
X136747904Y-108587285D01*
X136747904Y-108587285D02*
X136605047Y-108587285D01*
X136605047Y-108587285D02*
X136509809Y-108539666D01*
X136509809Y-108539666D02*
X136462190Y-108444428D01*
X136462190Y-108444428D02*
X136462190Y-108396809D01*
X136462190Y-108396809D02*
X136509809Y-108301571D01*
X136509809Y-108301571D02*
X136605047Y-108253952D01*
X136605047Y-108253952D02*
X136747904Y-108253952D01*
X136747904Y-108253952D02*
X136843142Y-108301571D01*
X137176476Y-108253952D02*
X137557428Y-108253952D01*
X137319333Y-107920619D02*
X137319333Y-108777761D01*
X137319333Y-108777761D02*
X137366952Y-108873000D01*
X137366952Y-108873000D02*
X137462190Y-108920619D01*
X137462190Y-108920619D02*
X137557428Y-108920619D01*
X138271714Y-108873000D02*
X138176476Y-108920619D01*
X138176476Y-108920619D02*
X137986000Y-108920619D01*
X137986000Y-108920619D02*
X137890762Y-108873000D01*
X137890762Y-108873000D02*
X137843143Y-108777761D01*
X137843143Y-108777761D02*
X137843143Y-108396809D01*
X137843143Y-108396809D02*
X137890762Y-108301571D01*
X137890762Y-108301571D02*
X137986000Y-108253952D01*
X137986000Y-108253952D02*
X138176476Y-108253952D01*
X138176476Y-108253952D02*
X138271714Y-108301571D01*
X138271714Y-108301571D02*
X138319333Y-108396809D01*
X138319333Y-108396809D02*
X138319333Y-108492047D01*
X138319333Y-108492047D02*
X137843143Y-108587285D01*
X138747905Y-108920619D02*
X138747905Y-108253952D01*
X138747905Y-108349190D02*
X138795524Y-108301571D01*
X138795524Y-108301571D02*
X138890762Y-108253952D01*
X138890762Y-108253952D02*
X139033619Y-108253952D01*
X139033619Y-108253952D02*
X139128857Y-108301571D01*
X139128857Y-108301571D02*
X139176476Y-108396809D01*
X139176476Y-108396809D02*
X139176476Y-108920619D01*
X139176476Y-108396809D02*
X139224095Y-108301571D01*
X139224095Y-108301571D02*
X139319333Y-108253952D01*
X139319333Y-108253952D02*
X139462190Y-108253952D01*
X139462190Y-108253952D02*
X139557429Y-108301571D01*
X139557429Y-108301571D02*
X139605048Y-108396809D01*
X139605048Y-108396809D02*
X139605048Y-108920619D01*
X140795524Y-108015857D02*
X140843143Y-107968238D01*
X140843143Y-107968238D02*
X140938381Y-107920619D01*
X140938381Y-107920619D02*
X141176476Y-107920619D01*
X141176476Y-107920619D02*
X141271714Y-107968238D01*
X141271714Y-107968238D02*
X141319333Y-108015857D01*
X141319333Y-108015857D02*
X141366952Y-108111095D01*
X141366952Y-108111095D02*
X141366952Y-108206333D01*
X141366952Y-108206333D02*
X141319333Y-108349190D01*
X141319333Y-108349190D02*
X140747905Y-108920619D01*
X140747905Y-108920619D02*
X141366952Y-108920619D01*
X141747905Y-108015857D02*
X141795524Y-107968238D01*
X141795524Y-107968238D02*
X141890762Y-107920619D01*
X141890762Y-107920619D02*
X142128857Y-107920619D01*
X142128857Y-107920619D02*
X142224095Y-107968238D01*
X142224095Y-107968238D02*
X142271714Y-108015857D01*
X142271714Y-108015857D02*
X142319333Y-108111095D01*
X142319333Y-108111095D02*
X142319333Y-108206333D01*
X142319333Y-108206333D02*
X142271714Y-108349190D01*
X142271714Y-108349190D02*
X141700286Y-108920619D01*
X141700286Y-108920619D02*
X142319333Y-108920619D01*
X143366953Y-107920619D02*
X143700286Y-108920619D01*
X143700286Y-108920619D02*
X144033619Y-107920619D01*
X144366953Y-108920619D02*
X144366953Y-108253952D01*
X144366953Y-107920619D02*
X144319334Y-107968238D01*
X144319334Y-107968238D02*
X144366953Y-108015857D01*
X144366953Y-108015857D02*
X144414572Y-107968238D01*
X144414572Y-107968238D02*
X144366953Y-107920619D01*
X144366953Y-107920619D02*
X144366953Y-108015857D01*
X145271714Y-108920619D02*
X145271714Y-107920619D01*
X145271714Y-108873000D02*
X145176476Y-108920619D01*
X145176476Y-108920619D02*
X144986000Y-108920619D01*
X144986000Y-108920619D02*
X144890762Y-108873000D01*
X144890762Y-108873000D02*
X144843143Y-108825380D01*
X144843143Y-108825380D02*
X144795524Y-108730142D01*
X144795524Y-108730142D02*
X144795524Y-108444428D01*
X144795524Y-108444428D02*
X144843143Y-108349190D01*
X144843143Y-108349190D02*
X144890762Y-108301571D01*
X144890762Y-108301571D02*
X144986000Y-108253952D01*
X144986000Y-108253952D02*
X145176476Y-108253952D01*
X145176476Y-108253952D02*
X145271714Y-108301571D01*
X146128857Y-108873000D02*
X146033619Y-108920619D01*
X146033619Y-108920619D02*
X145843143Y-108920619D01*
X145843143Y-108920619D02*
X145747905Y-108873000D01*
X145747905Y-108873000D02*
X145700286Y-108777761D01*
X145700286Y-108777761D02*
X145700286Y-108396809D01*
X145700286Y-108396809D02*
X145747905Y-108301571D01*
X145747905Y-108301571D02*
X145843143Y-108253952D01*
X145843143Y-108253952D02*
X146033619Y-108253952D01*
X146033619Y-108253952D02*
X146128857Y-108301571D01*
X146128857Y-108301571D02*
X146176476Y-108396809D01*
X146176476Y-108396809D02*
X146176476Y-108492047D01*
X146176476Y-108492047D02*
X145700286Y-108587285D01*
X146747905Y-108920619D02*
X146652667Y-108873000D01*
X146652667Y-108873000D02*
X146605048Y-108825380D01*
X146605048Y-108825380D02*
X146557429Y-108730142D01*
X146557429Y-108730142D02*
X146557429Y-108444428D01*
X146557429Y-108444428D02*
X146605048Y-108349190D01*
X146605048Y-108349190D02*
X146652667Y-108301571D01*
X146652667Y-108301571D02*
X146747905Y-108253952D01*
X146747905Y-108253952D02*
X146890762Y-108253952D01*
X146890762Y-108253952D02*
X146986000Y-108301571D01*
X146986000Y-108301571D02*
X147033619Y-108349190D01*
X147033619Y-108349190D02*
X147081238Y-108444428D01*
X147081238Y-108444428D02*
X147081238Y-108730142D01*
X147081238Y-108730142D02*
X147033619Y-108825380D01*
X147033619Y-108825380D02*
X146986000Y-108873000D01*
X146986000Y-108873000D02*
X146890762Y-108920619D01*
X146890762Y-108920619D02*
X146747905Y-108920619D01*
X148271715Y-108920619D02*
X148271715Y-107920619D01*
X148747905Y-108253952D02*
X148747905Y-108920619D01*
X148747905Y-108349190D02*
X148795524Y-108301571D01*
X148795524Y-108301571D02*
X148890762Y-108253952D01*
X148890762Y-108253952D02*
X149033619Y-108253952D01*
X149033619Y-108253952D02*
X149128857Y-108301571D01*
X149128857Y-108301571D02*
X149176476Y-108396809D01*
X149176476Y-108396809D02*
X149176476Y-108920619D01*
X173059402Y-101881047D02*
X173107022Y-101928666D01*
X173107022Y-101928666D02*
X173154641Y-102071523D01*
X173154641Y-102071523D02*
X173154641Y-102166761D01*
X173154641Y-102166761D02*
X173107022Y-102309618D01*
X173107022Y-102309618D02*
X173011783Y-102404856D01*
X173011783Y-102404856D02*
X172916545Y-102452475D01*
X172916545Y-102452475D02*
X172726069Y-102500094D01*
X172726069Y-102500094D02*
X172583212Y-102500094D01*
X172583212Y-102500094D02*
X172392736Y-102452475D01*
X172392736Y-102452475D02*
X172297498Y-102404856D01*
X172297498Y-102404856D02*
X172202260Y-102309618D01*
X172202260Y-102309618D02*
X172154641Y-102166761D01*
X172154641Y-102166761D02*
X172154641Y-102071523D01*
X172154641Y-102071523D02*
X172202260Y-101928666D01*
X172202260Y-101928666D02*
X172249879Y-101881047D01*
X173107022Y-101500094D02*
X173154641Y-101357237D01*
X173154641Y-101357237D02*
X173154641Y-101119142D01*
X173154641Y-101119142D02*
X173107022Y-101023904D01*
X173107022Y-101023904D02*
X173059402Y-100976285D01*
X173059402Y-100976285D02*
X172964164Y-100928666D01*
X172964164Y-100928666D02*
X172868926Y-100928666D01*
X172868926Y-100928666D02*
X172773688Y-100976285D01*
X172773688Y-100976285D02*
X172726069Y-101023904D01*
X172726069Y-101023904D02*
X172678450Y-101119142D01*
X172678450Y-101119142D02*
X172630831Y-101309618D01*
X172630831Y-101309618D02*
X172583212Y-101404856D01*
X172583212Y-101404856D02*
X172535593Y-101452475D01*
X172535593Y-101452475D02*
X172440355Y-101500094D01*
X172440355Y-101500094D02*
X172345117Y-101500094D01*
X172345117Y-101500094D02*
X172249879Y-101452475D01*
X172249879Y-101452475D02*
X172202260Y-101404856D01*
X172202260Y-101404856D02*
X172154641Y-101309618D01*
X172154641Y-101309618D02*
X172154641Y-101071523D01*
X172154641Y-101071523D02*
X172202260Y-100928666D01*
X172678450Y-100309618D02*
X173154641Y-100309618D01*
X172154641Y-100642951D02*
X172678450Y-100309618D01*
X172678450Y-100309618D02*
X172154641Y-99976285D01*
X173154641Y-99642951D02*
X172154641Y-99642951D01*
X172154641Y-99642951D02*
X173154641Y-99071523D01*
X173154641Y-99071523D02*
X172154641Y-99071523D01*
X173059402Y-98023904D02*
X173107022Y-98071523D01*
X173107022Y-98071523D02*
X173154641Y-98214380D01*
X173154641Y-98214380D02*
X173154641Y-98309618D01*
X173154641Y-98309618D02*
X173107022Y-98452475D01*
X173107022Y-98452475D02*
X173011783Y-98547713D01*
X173011783Y-98547713D02*
X172916545Y-98595332D01*
X172916545Y-98595332D02*
X172726069Y-98642951D01*
X172726069Y-98642951D02*
X172583212Y-98642951D01*
X172583212Y-98642951D02*
X172392736Y-98595332D01*
X172392736Y-98595332D02*
X172297498Y-98547713D01*
X172297498Y-98547713D02*
X172202260Y-98452475D01*
X172202260Y-98452475D02*
X172154641Y-98309618D01*
X172154641Y-98309618D02*
X172154641Y-98214380D01*
X172154641Y-98214380D02*
X172202260Y-98071523D01*
X172202260Y-98071523D02*
X172249879Y-98023904D01*
X167550831Y-102095428D02*
X167598450Y-101952571D01*
X167598450Y-101952571D02*
X167646069Y-101904952D01*
X167646069Y-101904952D02*
X167741307Y-101857333D01*
X167741307Y-101857333D02*
X167884164Y-101857333D01*
X167884164Y-101857333D02*
X167979402Y-101904952D01*
X167979402Y-101904952D02*
X168027022Y-101952571D01*
X168027022Y-101952571D02*
X168074641Y-102047809D01*
X168074641Y-102047809D02*
X168074641Y-102428761D01*
X168074641Y-102428761D02*
X167074641Y-102428761D01*
X167074641Y-102428761D02*
X167074641Y-102095428D01*
X167074641Y-102095428D02*
X167122260Y-102000190D01*
X167122260Y-102000190D02*
X167169879Y-101952571D01*
X167169879Y-101952571D02*
X167265117Y-101904952D01*
X167265117Y-101904952D02*
X167360355Y-101904952D01*
X167360355Y-101904952D02*
X167455593Y-101952571D01*
X167455593Y-101952571D02*
X167503212Y-102000190D01*
X167503212Y-102000190D02*
X167550831Y-102095428D01*
X167550831Y-102095428D02*
X167550831Y-102428761D01*
X168074641Y-101285904D02*
X168027022Y-101381142D01*
X168027022Y-101381142D02*
X167931783Y-101428761D01*
X167931783Y-101428761D02*
X167074641Y-101428761D01*
X167407974Y-100476380D02*
X168074641Y-100476380D01*
X167407974Y-100904951D02*
X167931783Y-100904951D01*
X167931783Y-100904951D02*
X168027022Y-100857332D01*
X168027022Y-100857332D02*
X168074641Y-100762094D01*
X168074641Y-100762094D02*
X168074641Y-100619237D01*
X168074641Y-100619237D02*
X168027022Y-100523999D01*
X168027022Y-100523999D02*
X167979402Y-100476380D01*
X168027022Y-99619237D02*
X168074641Y-99714475D01*
X168074641Y-99714475D02*
X168074641Y-99904951D01*
X168074641Y-99904951D02*
X168027022Y-100000189D01*
X168027022Y-100000189D02*
X167931783Y-100047808D01*
X167931783Y-100047808D02*
X167550831Y-100047808D01*
X167550831Y-100047808D02*
X167455593Y-100000189D01*
X167455593Y-100000189D02*
X167407974Y-99904951D01*
X167407974Y-99904951D02*
X167407974Y-99714475D01*
X167407974Y-99714475D02*
X167455593Y-99619237D01*
X167455593Y-99619237D02*
X167550831Y-99571618D01*
X167550831Y-99571618D02*
X167646069Y-99571618D01*
X167646069Y-99571618D02*
X167741307Y-100047808D01*
D11*
X188903165Y-92992500D02*
X190046023Y-92992500D01*
X189474594Y-93563928D02*
X189474594Y-92421071D01*
X191546023Y-93563928D02*
X190688880Y-93563928D01*
X191117451Y-93563928D02*
X191117451Y-92063928D01*
X191117451Y-92063928D02*
X190974594Y-92278214D01*
X190974594Y-92278214D02*
X190831737Y-92421071D01*
X190831737Y-92421071D02*
X190688880Y-92492500D01*
X192117451Y-92206785D02*
X192188879Y-92135357D01*
X192188879Y-92135357D02*
X192331737Y-92063928D01*
X192331737Y-92063928D02*
X192688879Y-92063928D01*
X192688879Y-92063928D02*
X192831737Y-92135357D01*
X192831737Y-92135357D02*
X192903165Y-92206785D01*
X192903165Y-92206785D02*
X192974594Y-92349642D01*
X192974594Y-92349642D02*
X192974594Y-92492500D01*
X192974594Y-92492500D02*
X192903165Y-92706785D01*
X192903165Y-92706785D02*
X192046022Y-93563928D01*
X192046022Y-93563928D02*
X192974594Y-93563928D01*
X193403165Y-92063928D02*
X193903165Y-93563928D01*
X193903165Y-93563928D02*
X194403165Y-92063928D01*
X191093165Y-97135357D02*
X190950308Y-97063928D01*
X190950308Y-97063928D02*
X190736022Y-97063928D01*
X190736022Y-97063928D02*
X190521736Y-97135357D01*
X190521736Y-97135357D02*
X190378879Y-97278214D01*
X190378879Y-97278214D02*
X190307450Y-97421071D01*
X190307450Y-97421071D02*
X190236022Y-97706785D01*
X190236022Y-97706785D02*
X190236022Y-97921071D01*
X190236022Y-97921071D02*
X190307450Y-98206785D01*
X190307450Y-98206785D02*
X190378879Y-98349642D01*
X190378879Y-98349642D02*
X190521736Y-98492500D01*
X190521736Y-98492500D02*
X190736022Y-98563928D01*
X190736022Y-98563928D02*
X190878879Y-98563928D01*
X190878879Y-98563928D02*
X191093165Y-98492500D01*
X191093165Y-98492500D02*
X191164593Y-98421071D01*
X191164593Y-98421071D02*
X191164593Y-97921071D01*
X191164593Y-97921071D02*
X190878879Y-97921071D01*
X191807450Y-98563928D02*
X191807450Y-97063928D01*
X191807450Y-97063928D02*
X192664593Y-98563928D01*
X192664593Y-98563928D02*
X192664593Y-97063928D01*
X193378879Y-98563928D02*
X193378879Y-97063928D01*
X193378879Y-97063928D02*
X193736022Y-97063928D01*
X193736022Y-97063928D02*
X193950308Y-97135357D01*
X193950308Y-97135357D02*
X194093165Y-97278214D01*
X194093165Y-97278214D02*
X194164594Y-97421071D01*
X194164594Y-97421071D02*
X194236022Y-97706785D01*
X194236022Y-97706785D02*
X194236022Y-97921071D01*
X194236022Y-97921071D02*
X194164594Y-98206785D01*
X194164594Y-98206785D02*
X194093165Y-98349642D01*
X194093165Y-98349642D02*
X193950308Y-98492500D01*
X193950308Y-98492500D02*
X193736022Y-98563928D01*
X193736022Y-98563928D02*
X193378879Y-98563928D01*
D10*
X162994641Y-101849428D02*
X162518450Y-102182761D01*
X162994641Y-102420856D02*
X161994641Y-102420856D01*
X161994641Y-102420856D02*
X161994641Y-102039904D01*
X161994641Y-102039904D02*
X162042260Y-101944666D01*
X162042260Y-101944666D02*
X162089879Y-101897047D01*
X162089879Y-101897047D02*
X162185117Y-101849428D01*
X162185117Y-101849428D02*
X162327974Y-101849428D01*
X162327974Y-101849428D02*
X162423212Y-101897047D01*
X162423212Y-101897047D02*
X162470831Y-101944666D01*
X162470831Y-101944666D02*
X162518450Y-102039904D01*
X162518450Y-102039904D02*
X162518450Y-102420856D01*
X162947022Y-101039904D02*
X162994641Y-101135142D01*
X162994641Y-101135142D02*
X162994641Y-101325618D01*
X162994641Y-101325618D02*
X162947022Y-101420856D01*
X162947022Y-101420856D02*
X162851783Y-101468475D01*
X162851783Y-101468475D02*
X162470831Y-101468475D01*
X162470831Y-101468475D02*
X162375593Y-101420856D01*
X162375593Y-101420856D02*
X162327974Y-101325618D01*
X162327974Y-101325618D02*
X162327974Y-101135142D01*
X162327974Y-101135142D02*
X162375593Y-101039904D01*
X162375593Y-101039904D02*
X162470831Y-100992285D01*
X162470831Y-100992285D02*
X162566069Y-100992285D01*
X162566069Y-100992285D02*
X162661307Y-101468475D01*
X162994641Y-100135142D02*
X161994641Y-100135142D01*
X162947022Y-100135142D02*
X162994641Y-100230380D01*
X162994641Y-100230380D02*
X162994641Y-100420856D01*
X162994641Y-100420856D02*
X162947022Y-100516094D01*
X162947022Y-100516094D02*
X162899402Y-100563713D01*
X162899402Y-100563713D02*
X162804164Y-100611332D01*
X162804164Y-100611332D02*
X162518450Y-100611332D01*
X162518450Y-100611332D02*
X162423212Y-100563713D01*
X162423212Y-100563713D02*
X162375593Y-100516094D01*
X162375593Y-100516094D02*
X162327974Y-100420856D01*
X162327974Y-100420856D02*
X162327974Y-100230380D01*
X162327974Y-100230380D02*
X162375593Y-100135142D01*
D12*
X142409333Y-100292020D02*
X142409333Y-101017735D01*
X142409333Y-101017735D02*
X142360952Y-101162878D01*
X142360952Y-101162878D02*
X142264190Y-101259640D01*
X142264190Y-101259640D02*
X142119047Y-101308020D01*
X142119047Y-101308020D02*
X142022285Y-101308020D01*
X143425333Y-101308020D02*
X142844761Y-101308020D01*
X143135047Y-101308020D02*
X143135047Y-100292020D01*
X143135047Y-100292020D02*
X143038285Y-100437163D01*
X143038285Y-100437163D02*
X142941523Y-100533925D01*
X142941523Y-100533925D02*
X142844761Y-100582306D01*
D10*
X182669355Y-97242619D02*
X182336022Y-96766428D01*
X182097927Y-97242619D02*
X182097927Y-96242619D01*
X182097927Y-96242619D02*
X182478879Y-96242619D01*
X182478879Y-96242619D02*
X182574117Y-96290238D01*
X182574117Y-96290238D02*
X182621736Y-96337857D01*
X182621736Y-96337857D02*
X182669355Y-96433095D01*
X182669355Y-96433095D02*
X182669355Y-96575952D01*
X182669355Y-96575952D02*
X182621736Y-96671190D01*
X182621736Y-96671190D02*
X182574117Y-96718809D01*
X182574117Y-96718809D02*
X182478879Y-96766428D01*
X182478879Y-96766428D02*
X182097927Y-96766428D01*
X183621736Y-97242619D02*
X183050308Y-97242619D01*
X183336022Y-97242619D02*
X183336022Y-96242619D01*
X183336022Y-96242619D02*
X183240784Y-96385476D01*
X183240784Y-96385476D02*
X183145546Y-96480714D01*
X183145546Y-96480714D02*
X183050308Y-96528333D01*
X159198688Y-104042619D02*
X159198688Y-104756904D01*
X159198688Y-104756904D02*
X159151069Y-104899761D01*
X159151069Y-104899761D02*
X159055831Y-104995000D01*
X159055831Y-104995000D02*
X158912974Y-105042619D01*
X158912974Y-105042619D02*
X158817736Y-105042619D01*
X159579641Y-104042619D02*
X160198688Y-104042619D01*
X160198688Y-104042619D02*
X159865355Y-104423571D01*
X159865355Y-104423571D02*
X160008212Y-104423571D01*
X160008212Y-104423571D02*
X160103450Y-104471190D01*
X160103450Y-104471190D02*
X160151069Y-104518809D01*
X160151069Y-104518809D02*
X160198688Y-104614047D01*
X160198688Y-104614047D02*
X160198688Y-104852142D01*
X160198688Y-104852142D02*
X160151069Y-104947380D01*
X160151069Y-104947380D02*
X160103450Y-104995000D01*
X160103450Y-104995000D02*
X160008212Y-105042619D01*
X160008212Y-105042619D02*
X159722498Y-105042619D01*
X159722498Y-105042619D02*
X159627260Y-104995000D01*
X159627260Y-104995000D02*
X159579641Y-104947380D01*
X166072403Y-107836619D02*
X166072403Y-106836619D01*
X166072403Y-106836619D02*
X166310498Y-106836619D01*
X166310498Y-106836619D02*
X166453355Y-106884238D01*
X166453355Y-106884238D02*
X166548593Y-106979476D01*
X166548593Y-106979476D02*
X166596212Y-107074714D01*
X166596212Y-107074714D02*
X166643831Y-107265190D01*
X166643831Y-107265190D02*
X166643831Y-107408047D01*
X166643831Y-107408047D02*
X166596212Y-107598523D01*
X166596212Y-107598523D02*
X166548593Y-107693761D01*
X166548593Y-107693761D02*
X166453355Y-107789000D01*
X166453355Y-107789000D02*
X166310498Y-107836619D01*
X166310498Y-107836619D02*
X166072403Y-107836619D01*
X167453355Y-107789000D02*
X167358117Y-107836619D01*
X167358117Y-107836619D02*
X167167641Y-107836619D01*
X167167641Y-107836619D02*
X167072403Y-107789000D01*
X167072403Y-107789000D02*
X167024784Y-107693761D01*
X167024784Y-107693761D02*
X167024784Y-107312809D01*
X167024784Y-107312809D02*
X167072403Y-107217571D01*
X167072403Y-107217571D02*
X167167641Y-107169952D01*
X167167641Y-107169952D02*
X167358117Y-107169952D01*
X167358117Y-107169952D02*
X167453355Y-107217571D01*
X167453355Y-107217571D02*
X167500974Y-107312809D01*
X167500974Y-107312809D02*
X167500974Y-107408047D01*
X167500974Y-107408047D02*
X167024784Y-107503285D01*
X167929546Y-107836619D02*
X167929546Y-106836619D01*
X167929546Y-107217571D02*
X168024784Y-107169952D01*
X168024784Y-107169952D02*
X168215260Y-107169952D01*
X168215260Y-107169952D02*
X168310498Y-107217571D01*
X168310498Y-107217571D02*
X168358117Y-107265190D01*
X168358117Y-107265190D02*
X168405736Y-107360428D01*
X168405736Y-107360428D02*
X168405736Y-107646142D01*
X168405736Y-107646142D02*
X168358117Y-107741380D01*
X168358117Y-107741380D02*
X168310498Y-107789000D01*
X168310498Y-107789000D02*
X168215260Y-107836619D01*
X168215260Y-107836619D02*
X168024784Y-107836619D01*
X168024784Y-107836619D02*
X167929546Y-107789000D01*
X169262879Y-107169952D02*
X169262879Y-107836619D01*
X168834308Y-107169952D02*
X168834308Y-107693761D01*
X168834308Y-107693761D02*
X168881927Y-107789000D01*
X168881927Y-107789000D02*
X168977165Y-107836619D01*
X168977165Y-107836619D02*
X169120022Y-107836619D01*
X169120022Y-107836619D02*
X169215260Y-107789000D01*
X169215260Y-107789000D02*
X169262879Y-107741380D01*
X170167641Y-107169952D02*
X170167641Y-107979476D01*
X170167641Y-107979476D02*
X170120022Y-108074714D01*
X170120022Y-108074714D02*
X170072403Y-108122333D01*
X170072403Y-108122333D02*
X169977165Y-108169952D01*
X169977165Y-108169952D02*
X169834308Y-108169952D01*
X169834308Y-108169952D02*
X169739070Y-108122333D01*
X170167641Y-107789000D02*
X170072403Y-107836619D01*
X170072403Y-107836619D02*
X169881927Y-107836619D01*
X169881927Y-107836619D02*
X169786689Y-107789000D01*
X169786689Y-107789000D02*
X169739070Y-107741380D01*
X169739070Y-107741380D02*
X169691451Y-107646142D01*
X169691451Y-107646142D02*
X169691451Y-107360428D01*
X169691451Y-107360428D02*
X169739070Y-107265190D01*
X169739070Y-107265190D02*
X169786689Y-107217571D01*
X169786689Y-107217571D02*
X169881927Y-107169952D01*
X169881927Y-107169952D02*
X170072403Y-107169952D01*
X170072403Y-107169952D02*
X170167641Y-107217571D01*
X108284117Y-101342619D02*
X108284117Y-102152142D01*
X108284117Y-102152142D02*
X108331736Y-102247380D01*
X108331736Y-102247380D02*
X108379355Y-102295000D01*
X108379355Y-102295000D02*
X108474593Y-102342619D01*
X108474593Y-102342619D02*
X108665069Y-102342619D01*
X108665069Y-102342619D02*
X108760307Y-102295000D01*
X108760307Y-102295000D02*
X108807926Y-102247380D01*
X108807926Y-102247380D02*
X108855545Y-102152142D01*
X108855545Y-102152142D02*
X108855545Y-101342619D01*
X109855545Y-102342619D02*
X109284117Y-102342619D01*
X109569831Y-102342619D02*
X109569831Y-101342619D01*
X109569831Y-101342619D02*
X109474593Y-101485476D01*
X109474593Y-101485476D02*
X109379355Y-101580714D01*
X109379355Y-101580714D02*
X109284117Y-101628333D01*
X106879355Y-114622619D02*
X106403165Y-114622619D01*
X106403165Y-114622619D02*
X106403165Y-113622619D01*
X107212689Y-114622619D02*
X107212689Y-113622619D01*
X107212689Y-113622619D02*
X107546022Y-114336904D01*
X107546022Y-114336904D02*
X107879355Y-113622619D01*
X107879355Y-113622619D02*
X107879355Y-114622619D01*
X108879355Y-114622619D02*
X108307927Y-114622619D01*
X108593641Y-114622619D02*
X108593641Y-113622619D01*
X108593641Y-113622619D02*
X108498403Y-113765476D01*
X108498403Y-113765476D02*
X108403165Y-113860714D01*
X108403165Y-113860714D02*
X108307927Y-113908333D01*
X109450784Y-114051190D02*
X109355546Y-114003571D01*
X109355546Y-114003571D02*
X109307927Y-113955952D01*
X109307927Y-113955952D02*
X109260308Y-113860714D01*
X109260308Y-113860714D02*
X109260308Y-113813095D01*
X109260308Y-113813095D02*
X109307927Y-113717857D01*
X109307927Y-113717857D02*
X109355546Y-113670238D01*
X109355546Y-113670238D02*
X109450784Y-113622619D01*
X109450784Y-113622619D02*
X109641260Y-113622619D01*
X109641260Y-113622619D02*
X109736498Y-113670238D01*
X109736498Y-113670238D02*
X109784117Y-113717857D01*
X109784117Y-113717857D02*
X109831736Y-113813095D01*
X109831736Y-113813095D02*
X109831736Y-113860714D01*
X109831736Y-113860714D02*
X109784117Y-113955952D01*
X109784117Y-113955952D02*
X109736498Y-114003571D01*
X109736498Y-114003571D02*
X109641260Y-114051190D01*
X109641260Y-114051190D02*
X109450784Y-114051190D01*
X109450784Y-114051190D02*
X109355546Y-114098809D01*
X109355546Y-114098809D02*
X109307927Y-114146428D01*
X109307927Y-114146428D02*
X109260308Y-114241666D01*
X109260308Y-114241666D02*
X109260308Y-114432142D01*
X109260308Y-114432142D02*
X109307927Y-114527380D01*
X109307927Y-114527380D02*
X109355546Y-114575000D01*
X109355546Y-114575000D02*
X109450784Y-114622619D01*
X109450784Y-114622619D02*
X109641260Y-114622619D01*
X109641260Y-114622619D02*
X109736498Y-114575000D01*
X109736498Y-114575000D02*
X109784117Y-114527380D01*
X109784117Y-114527380D02*
X109831736Y-114432142D01*
X109831736Y-114432142D02*
X109831736Y-114241666D01*
X109831736Y-114241666D02*
X109784117Y-114146428D01*
X109784117Y-114146428D02*
X109736498Y-114098809D01*
X109736498Y-114098809D02*
X109641260Y-114051190D01*
X110403165Y-114051190D02*
X110307927Y-114003571D01*
X110307927Y-114003571D02*
X110260308Y-113955952D01*
X110260308Y-113955952D02*
X110212689Y-113860714D01*
X110212689Y-113860714D02*
X110212689Y-113813095D01*
X110212689Y-113813095D02*
X110260308Y-113717857D01*
X110260308Y-113717857D02*
X110307927Y-113670238D01*
X110307927Y-113670238D02*
X110403165Y-113622619D01*
X110403165Y-113622619D02*
X110593641Y-113622619D01*
X110593641Y-113622619D02*
X110688879Y-113670238D01*
X110688879Y-113670238D02*
X110736498Y-113717857D01*
X110736498Y-113717857D02*
X110784117Y-113813095D01*
X110784117Y-113813095D02*
X110784117Y-113860714D01*
X110784117Y-113860714D02*
X110736498Y-113955952D01*
X110736498Y-113955952D02*
X110688879Y-114003571D01*
X110688879Y-114003571D02*
X110593641Y-114051190D01*
X110593641Y-114051190D02*
X110403165Y-114051190D01*
X110403165Y-114051190D02*
X110307927Y-114098809D01*
X110307927Y-114098809D02*
X110260308Y-114146428D01*
X110260308Y-114146428D02*
X110212689Y-114241666D01*
X110212689Y-114241666D02*
X110212689Y-114432142D01*
X110212689Y-114432142D02*
X110260308Y-114527380D01*
X110260308Y-114527380D02*
X110307927Y-114575000D01*
X110307927Y-114575000D02*
X110403165Y-114622619D01*
X110403165Y-114622619D02*
X110593641Y-114622619D01*
X110593641Y-114622619D02*
X110688879Y-114575000D01*
X110688879Y-114575000D02*
X110736498Y-114527380D01*
X110736498Y-114527380D02*
X110784117Y-114432142D01*
X110784117Y-114432142D02*
X110784117Y-114241666D01*
X110784117Y-114241666D02*
X110736498Y-114146428D01*
X110736498Y-114146428D02*
X110688879Y-114098809D01*
X110688879Y-114098809D02*
X110593641Y-114051190D01*
X111736498Y-114622619D02*
X111165070Y-114622619D01*
X111450784Y-114622619D02*
X111450784Y-113622619D01*
X111450784Y-113622619D02*
X111355546Y-113765476D01*
X111355546Y-113765476D02*
X111260308Y-113860714D01*
X111260308Y-113860714D02*
X111165070Y-113908333D01*
X99819355Y-109127380D02*
X99771736Y-109175000D01*
X99771736Y-109175000D02*
X99628879Y-109222619D01*
X99628879Y-109222619D02*
X99533641Y-109222619D01*
X99533641Y-109222619D02*
X99390784Y-109175000D01*
X99390784Y-109175000D02*
X99295546Y-109079761D01*
X99295546Y-109079761D02*
X99247927Y-108984523D01*
X99247927Y-108984523D02*
X99200308Y-108794047D01*
X99200308Y-108794047D02*
X99200308Y-108651190D01*
X99200308Y-108651190D02*
X99247927Y-108460714D01*
X99247927Y-108460714D02*
X99295546Y-108365476D01*
X99295546Y-108365476D02*
X99390784Y-108270238D01*
X99390784Y-108270238D02*
X99533641Y-108222619D01*
X99533641Y-108222619D02*
X99628879Y-108222619D01*
X99628879Y-108222619D02*
X99771736Y-108270238D01*
X99771736Y-108270238D02*
X99819355Y-108317857D01*
X100200308Y-108317857D02*
X100247927Y-108270238D01*
X100247927Y-108270238D02*
X100343165Y-108222619D01*
X100343165Y-108222619D02*
X100581260Y-108222619D01*
X100581260Y-108222619D02*
X100676498Y-108270238D01*
X100676498Y-108270238D02*
X100724117Y-108317857D01*
X100724117Y-108317857D02*
X100771736Y-108413095D01*
X100771736Y-108413095D02*
X100771736Y-108508333D01*
X100771736Y-108508333D02*
X100724117Y-108651190D01*
X100724117Y-108651190D02*
X100152689Y-109222619D01*
X100152689Y-109222619D02*
X100771736Y-109222619D01*
X119919355Y-103627380D02*
X119871736Y-103675000D01*
X119871736Y-103675000D02*
X119728879Y-103722619D01*
X119728879Y-103722619D02*
X119633641Y-103722619D01*
X119633641Y-103722619D02*
X119490784Y-103675000D01*
X119490784Y-103675000D02*
X119395546Y-103579761D01*
X119395546Y-103579761D02*
X119347927Y-103484523D01*
X119347927Y-103484523D02*
X119300308Y-103294047D01*
X119300308Y-103294047D02*
X119300308Y-103151190D01*
X119300308Y-103151190D02*
X119347927Y-102960714D01*
X119347927Y-102960714D02*
X119395546Y-102865476D01*
X119395546Y-102865476D02*
X119490784Y-102770238D01*
X119490784Y-102770238D02*
X119633641Y-102722619D01*
X119633641Y-102722619D02*
X119728879Y-102722619D01*
X119728879Y-102722619D02*
X119871736Y-102770238D01*
X119871736Y-102770238D02*
X119919355Y-102817857D01*
X120871736Y-103722619D02*
X120300308Y-103722619D01*
X120586022Y-103722619D02*
X120586022Y-102722619D01*
X120586022Y-102722619D02*
X120490784Y-102865476D01*
X120490784Y-102865476D02*
X120395546Y-102960714D01*
X120395546Y-102960714D02*
X120300308Y-103008333D01*
X119629355Y-111692619D02*
X119296022Y-111216428D01*
X119057927Y-111692619D02*
X119057927Y-110692619D01*
X119057927Y-110692619D02*
X119438879Y-110692619D01*
X119438879Y-110692619D02*
X119534117Y-110740238D01*
X119534117Y-110740238D02*
X119581736Y-110787857D01*
X119581736Y-110787857D02*
X119629355Y-110883095D01*
X119629355Y-110883095D02*
X119629355Y-111025952D01*
X119629355Y-111025952D02*
X119581736Y-111121190D01*
X119581736Y-111121190D02*
X119534117Y-111168809D01*
X119534117Y-111168809D02*
X119438879Y-111216428D01*
X119438879Y-111216428D02*
X119057927Y-111216428D01*
X119962689Y-110692619D02*
X120581736Y-110692619D01*
X120581736Y-110692619D02*
X120248403Y-111073571D01*
X120248403Y-111073571D02*
X120391260Y-111073571D01*
X120391260Y-111073571D02*
X120486498Y-111121190D01*
X120486498Y-111121190D02*
X120534117Y-111168809D01*
X120534117Y-111168809D02*
X120581736Y-111264047D01*
X120581736Y-111264047D02*
X120581736Y-111502142D01*
X120581736Y-111502142D02*
X120534117Y-111597380D01*
X120534117Y-111597380D02*
X120486498Y-111645000D01*
X120486498Y-111645000D02*
X120391260Y-111692619D01*
X120391260Y-111692619D02*
X120105546Y-111692619D01*
X120105546Y-111692619D02*
X120010308Y-111645000D01*
X120010308Y-111645000D02*
X119962689Y-111597380D01*
X182549355Y-102222619D02*
X182216022Y-101746428D01*
X181977927Y-102222619D02*
X181977927Y-101222619D01*
X181977927Y-101222619D02*
X182358879Y-101222619D01*
X182358879Y-101222619D02*
X182454117Y-101270238D01*
X182454117Y-101270238D02*
X182501736Y-101317857D01*
X182501736Y-101317857D02*
X182549355Y-101413095D01*
X182549355Y-101413095D02*
X182549355Y-101555952D01*
X182549355Y-101555952D02*
X182501736Y-101651190D01*
X182501736Y-101651190D02*
X182454117Y-101698809D01*
X182454117Y-101698809D02*
X182358879Y-101746428D01*
X182358879Y-101746428D02*
X181977927Y-101746428D01*
X182930308Y-101317857D02*
X182977927Y-101270238D01*
X182977927Y-101270238D02*
X183073165Y-101222619D01*
X183073165Y-101222619D02*
X183311260Y-101222619D01*
X183311260Y-101222619D02*
X183406498Y-101270238D01*
X183406498Y-101270238D02*
X183454117Y-101317857D01*
X183454117Y-101317857D02*
X183501736Y-101413095D01*
X183501736Y-101413095D02*
X183501736Y-101508333D01*
X183501736Y-101508333D02*
X183454117Y-101651190D01*
X183454117Y-101651190D02*
X182882689Y-102222619D01*
X182882689Y-102222619D02*
X183501736Y-102222619D01*
X203492688Y-88192619D02*
X203492688Y-88906904D01*
X203492688Y-88906904D02*
X203445069Y-89049761D01*
X203445069Y-89049761D02*
X203349831Y-89145000D01*
X203349831Y-89145000D02*
X203206974Y-89192619D01*
X203206974Y-89192619D02*
X203111736Y-89192619D01*
X204445069Y-88192619D02*
X203968879Y-88192619D01*
X203968879Y-88192619D02*
X203921260Y-88668809D01*
X203921260Y-88668809D02*
X203968879Y-88621190D01*
X203968879Y-88621190D02*
X204064117Y-88573571D01*
X204064117Y-88573571D02*
X204302212Y-88573571D01*
X204302212Y-88573571D02*
X204397450Y-88621190D01*
X204397450Y-88621190D02*
X204445069Y-88668809D01*
X204445069Y-88668809D02*
X204492688Y-88764047D01*
X204492688Y-88764047D02*
X204492688Y-89002142D01*
X204492688Y-89002142D02*
X204445069Y-89097380D01*
X204445069Y-89097380D02*
X204397450Y-89145000D01*
X204397450Y-89145000D02*
X204302212Y-89192619D01*
X204302212Y-89192619D02*
X204064117Y-89192619D01*
X204064117Y-89192619D02*
X203968879Y-89145000D01*
X203968879Y-89145000D02*
X203921260Y-89097380D01*
D13*
X109826307Y-96961031D02*
X110334307Y-98485031D01*
X110334307Y-98485031D02*
X110842307Y-96961031D01*
X112148593Y-97033602D02*
X112003451Y-96961031D01*
X112003451Y-96961031D02*
X111785736Y-96961031D01*
X111785736Y-96961031D02*
X111568022Y-97033602D01*
X111568022Y-97033602D02*
X111422879Y-97178745D01*
X111422879Y-97178745D02*
X111350308Y-97323888D01*
X111350308Y-97323888D02*
X111277736Y-97614174D01*
X111277736Y-97614174D02*
X111277736Y-97831888D01*
X111277736Y-97831888D02*
X111350308Y-98122174D01*
X111350308Y-98122174D02*
X111422879Y-98267317D01*
X111422879Y-98267317D02*
X111568022Y-98412460D01*
X111568022Y-98412460D02*
X111785736Y-98485031D01*
X111785736Y-98485031D02*
X111930879Y-98485031D01*
X111930879Y-98485031D02*
X112148593Y-98412460D01*
X112148593Y-98412460D02*
X112221165Y-98339888D01*
X112221165Y-98339888D02*
X112221165Y-97831888D01*
X112221165Y-97831888D02*
X111930879Y-97831888D01*
X112801736Y-98049602D02*
X113527451Y-98049602D01*
X112656593Y-98485031D02*
X113164593Y-96961031D01*
X113164593Y-96961031D02*
X113672593Y-98485031D01*
X114180594Y-97904460D02*
X115341737Y-97904460D01*
X116575451Y-97686745D02*
X116067451Y-97686745D01*
X116067451Y-98485031D02*
X116067451Y-96961031D01*
X116067451Y-96961031D02*
X116793165Y-96961031D01*
X162035621Y-77645511D02*
X162035621Y-78734082D01*
X162035621Y-78734082D02*
X161963050Y-78951797D01*
X161963050Y-78951797D02*
X161817907Y-79096940D01*
X161817907Y-79096940D02*
X161600193Y-79169511D01*
X161600193Y-79169511D02*
X161455050Y-79169511D01*
X162688764Y-77790654D02*
X162761336Y-77718082D01*
X162761336Y-77718082D02*
X162906479Y-77645511D01*
X162906479Y-77645511D02*
X163269336Y-77645511D01*
X163269336Y-77645511D02*
X163414479Y-77718082D01*
X163414479Y-77718082D02*
X163487050Y-77790654D01*
X163487050Y-77790654D02*
X163559621Y-77935797D01*
X163559621Y-77935797D02*
X163559621Y-78080940D01*
X163559621Y-78080940D02*
X163487050Y-78298654D01*
X163487050Y-78298654D02*
X162616193Y-79169511D01*
X162616193Y-79169511D02*
X163559621Y-79169511D01*
X157753907Y-94103260D02*
X157971622Y-94175831D01*
X157971622Y-94175831D02*
X158334479Y-94175831D01*
X158334479Y-94175831D02*
X158479622Y-94103260D01*
X158479622Y-94103260D02*
X158552193Y-94030688D01*
X158552193Y-94030688D02*
X158624764Y-93885545D01*
X158624764Y-93885545D02*
X158624764Y-93740402D01*
X158624764Y-93740402D02*
X158552193Y-93595260D01*
X158552193Y-93595260D02*
X158479622Y-93522688D01*
X158479622Y-93522688D02*
X158334479Y-93450117D01*
X158334479Y-93450117D02*
X158044193Y-93377545D01*
X158044193Y-93377545D02*
X157899050Y-93304974D01*
X157899050Y-93304974D02*
X157826479Y-93232402D01*
X157826479Y-93232402D02*
X157753907Y-93087260D01*
X157753907Y-93087260D02*
X157753907Y-92942117D01*
X157753907Y-92942117D02*
X157826479Y-92796974D01*
X157826479Y-92796974D02*
X157899050Y-92724402D01*
X157899050Y-92724402D02*
X158044193Y-92651831D01*
X158044193Y-92651831D02*
X158407050Y-92651831D01*
X158407050Y-92651831D02*
X158624764Y-92724402D01*
X160148765Y-94030688D02*
X160076193Y-94103260D01*
X160076193Y-94103260D02*
X159858479Y-94175831D01*
X159858479Y-94175831D02*
X159713336Y-94175831D01*
X159713336Y-94175831D02*
X159495622Y-94103260D01*
X159495622Y-94103260D02*
X159350479Y-93958117D01*
X159350479Y-93958117D02*
X159277908Y-93812974D01*
X159277908Y-93812974D02*
X159205336Y-93522688D01*
X159205336Y-93522688D02*
X159205336Y-93304974D01*
X159205336Y-93304974D02*
X159277908Y-93014688D01*
X159277908Y-93014688D02*
X159350479Y-92869545D01*
X159350479Y-92869545D02*
X159495622Y-92724402D01*
X159495622Y-92724402D02*
X159713336Y-92651831D01*
X159713336Y-92651831D02*
X159858479Y-92651831D01*
X159858479Y-92651831D02*
X160076193Y-92724402D01*
X160076193Y-92724402D02*
X160148765Y-92796974D01*
X160729336Y-93740402D02*
X161455051Y-93740402D01*
X160584193Y-94175831D02*
X161092193Y-92651831D01*
X161092193Y-92651831D02*
X161600193Y-94175831D01*
X162979051Y-94175831D02*
X162471051Y-93450117D01*
X162108194Y-94175831D02*
X162108194Y-92651831D01*
X162108194Y-92651831D02*
X162688765Y-92651831D01*
X162688765Y-92651831D02*
X162833908Y-92724402D01*
X162833908Y-92724402D02*
X162906479Y-92796974D01*
X162906479Y-92796974D02*
X162979051Y-92942117D01*
X162979051Y-92942117D02*
X162979051Y-93159831D01*
X162979051Y-93159831D02*
X162906479Y-93304974D01*
X162906479Y-93304974D02*
X162833908Y-93377545D01*
X162833908Y-93377545D02*
X162688765Y-93450117D01*
X162688765Y-93450117D02*
X162108194Y-93450117D01*
X163414479Y-92651831D02*
X164285337Y-92651831D01*
X163849908Y-94175831D02*
X163849908Y-92651831D01*
X164793337Y-93595260D02*
X165954480Y-93595260D01*
X167188194Y-93377545D02*
X166680194Y-93377545D01*
X166680194Y-94175831D02*
X166680194Y-92651831D01*
X166680194Y-92651831D02*
X167405908Y-92651831D01*
X130037840Y-107147360D02*
X130037840Y-102148640D01*
X130439160Y-102547420D02*
X130439160Y-106748580D01*
X131638040Y-106748580D02*
X130439160Y-106748580D01*
X131638040Y-106748580D02*
X131638040Y-107147360D01*
X137637520Y-102547420D02*
X130439160Y-102547420D01*
X137637520Y-102547420D02*
X140238480Y-102547420D01*
X153337960Y-107147360D02*
X153337960Y-106748580D01*
X154536840Y-102547420D02*
X140238480Y-102547420D01*
X154536840Y-106748580D02*
X153337960Y-106748580D01*
X154536840Y-106748580D02*
X154536840Y-102547420D01*
X154938160Y-102148640D02*
X130037840Y-102148640D01*
X154938160Y-102148640D02*
X154938160Y-107147360D01*
X154938160Y-107147360D02*
X130037840Y-107147360D01*
D14*
X179566022Y-98110000D02*
X179566022Y-97780000D01*
X186106022Y-100520000D02*
X186106022Y-100190000D01*
X179566022Y-100520000D02*
X186106022Y-100520000D01*
X179566022Y-97780000D02*
X186106022Y-97780000D01*
X186106022Y-97780000D02*
X186106022Y-98110000D01*
X179566022Y-100190000D02*
X179566022Y-100520000D01*
X174022022Y-105910000D02*
X174022022Y-103250000D01*
X161202022Y-105910000D02*
X161202022Y-104580000D01*
X163802022Y-105910000D02*
X174022022Y-105910000D01*
X163802022Y-105910000D02*
X163802022Y-103250000D01*
X163802022Y-103250000D02*
X174022022Y-103250000D01*
X162532022Y-105910000D02*
X161202022Y-105910000D01*
X108046022Y-102880000D02*
G75*
G03*
X110046022Y-102880000I1000000J0D01*
G01*
X108046022Y-102880000D02*
X106396022Y-102880000D01*
X111696022Y-113160000D02*
X111696022Y-102880000D01*
X106396022Y-102880000D02*
X106396022Y-113160000D01*
X111696022Y-102880000D02*
X110046022Y-102880000D01*
X106396022Y-113160000D02*
X111696022Y-113160000D01*
X100615022Y-107630000D02*
X99357022Y-107630000D01*
X100615022Y-105790000D02*
X99357022Y-105790000D01*
X119457022Y-104390000D02*
X120715022Y-104390000D01*
X119457022Y-106230000D02*
X120715022Y-106230000D01*
X121716022Y-108390000D02*
X117876022Y-108390000D01*
X121716022Y-110230000D02*
X117876022Y-110230000D01*
X186176022Y-105630000D02*
X179636022Y-105630000D01*
X179636022Y-102890000D02*
X179636022Y-103220000D01*
X186176022Y-103220000D02*
X186176022Y-102890000D01*
X179636022Y-105630000D02*
X179636022Y-105300000D01*
X186176022Y-105300000D02*
X186176022Y-105630000D01*
X186176022Y-102890000D02*
X179636022Y-102890000D01*
X201906022Y-92750000D02*
G75*
G03*
X201906022Y-92750000I-1680000J0D01*
G01*
X198691023Y-97146001D02*
G75*
G03*
X198690596Y-98513042I1534992J-684000D01*
G01*
X201906021Y-97830000D02*
G75*
G03*
X201760777Y-97146682I-1679999J0D01*
G01*
X201761021Y-98514000D02*
G75*
G03*
X201906274Y-97801195I-1535000J683999D01*
G01*
X200910022Y-96295000D02*
G75*
G03*
X199542980Y-96294574I-684000J-1535000D01*
G01*
X199542023Y-99364999D02*
G75*
G03*
X200909064Y-99365426I684000J1534992D01*
G01*
X201249022Y-93977000D02*
X201295022Y-94024000D01*
X202826022Y-100430000D02*
X202826022Y-90150000D01*
X197925022Y-100430000D02*
X197925022Y-90150000D01*
X204386022Y-100670000D02*
X205126022Y-100670000D01*
X194965022Y-100430000D02*
X194965022Y-90150000D01*
X194965022Y-100430000D02*
X204886022Y-100430000D01*
X205126022Y-100670000D02*
X205126022Y-100170000D01*
X198951022Y-91680000D02*
X198987022Y-91715000D01*
X204886022Y-100430000D02*
X204886022Y-90150000D01*
X194965022Y-90150000D02*
X204886022Y-90150000D01*
X199157022Y-91475000D02*
X199203022Y-91522000D01*
X201465022Y-93784000D02*
X201500022Y-93819000D01*
X204326022Y-100430000D02*
X204326022Y-90150000D01*
X97176022Y-95420000D02*
X97176022Y-81530000D01*
X128146022Y-95420000D02*
X97176022Y-95420000D01*
X128146022Y-81530000D02*
X128146022Y-95420000D01*
X108096022Y-96314338D02*
X108346022Y-95881325D01*
X108596022Y-96314338D02*
X108096022Y-96314338D01*
X108346022Y-95881325D02*
X108596022Y-96314338D01*
D15*
X138667622Y-75055800D02*
X138667622Y-81913800D01*
X185911622Y-75055800D02*
X185911622Y-81913800D01*
X135492622Y-84961800D02*
X135492622Y-81913800D01*
X185911622Y-84961800D02*
X185911622Y-92073800D01*
X189594622Y-84961800D02*
X135492622Y-84961800D01*
X185911622Y-75055800D02*
X138667622Y-75055800D01*
X138667622Y-92073800D02*
X138667622Y-84961800D01*
X135492622Y-81913800D02*
X189594622Y-81913800D01*
X185911622Y-92073800D02*
X138667622Y-92073800D01*
X187943622Y-84961800D02*
X187943622Y-81913800D01*
X189594622Y-84961800D02*
X189594622Y-81913800D01*
X137143622Y-84961800D02*
X137143622Y-81913800D01*
D16*
X132588000Y-104648000D03*
D17*
X136548000Y-104648000D03*
X140508000Y-104648000D03*
X144468000Y-104648000D03*
X148428000Y-104648000D03*
X152388000Y-104648000D03*
D18*
X136043802Y-83765460D03*
X189043442Y-83765460D03*
M02*
