G04 #@! TF.GenerationSoftware,KiCad,Pcbnew,7.0.1*
G04 #@! TF.CreationDate,2023-04-07T16:46:31+02:00*
G04 #@! TF.ProjectId,raveracer,72617665-7261-4636-9572-2e6b69636164,rev?*
G04 #@! TF.SameCoordinates,Original*
G04 #@! TF.FileFunction,Copper,L1,Top*
G04 #@! TF.FilePolarity,Positive*
%FSLAX46Y46*%
G04 Gerber Fmt 4.6, Leading zero omitted, Abs format (unit mm)*
G04 Created by KiCad (PCBNEW 7.0.1) date 2023-04-07 16:46:31*
%MOMM*%
%LPD*%
G01*
G04 APERTURE LIST*
G04 #@! TA.AperFunction,ComponentPad*
%ADD10R,1.778000X2.540000*%
G04 #@! TD*
G04 #@! TA.AperFunction,ComponentPad*
%ADD11O,1.778000X2.540000*%
G04 #@! TD*
G04 #@! TA.AperFunction,ComponentPad*
%ADD12O,1.600000X1.600000*%
G04 #@! TD*
G04 #@! TA.AperFunction,ComponentPad*
%ADD13C,1.600000*%
G04 #@! TD*
G04 #@! TA.AperFunction,ComponentPad*
%ADD14O,1.700000X1.700000*%
G04 #@! TD*
G04 #@! TA.AperFunction,ComponentPad*
%ADD15R,1.700000X1.700000*%
G04 #@! TD*
G04 #@! TA.AperFunction,ComponentPad*
%ADD16R,1.600000X1.600000*%
G04 #@! TD*
G04 #@! TA.AperFunction,ComponentPad*
%ADD17O,1.400000X1.400000*%
G04 #@! TD*
G04 #@! TA.AperFunction,ComponentPad*
%ADD18C,1.400000*%
G04 #@! TD*
G04 #@! TA.AperFunction,ComponentPad*
%ADD19C,7.000000*%
G04 #@! TD*
G04 #@! TA.AperFunction,ComponentPad*
%ADD20C,2.600000*%
G04 #@! TD*
G04 #@! TA.AperFunction,ComponentPad*
%ADD21R,2.600000X2.600000*%
G04 #@! TD*
G04 #@! TA.AperFunction,ComponentPad*
%ADD22C,5.000000*%
G04 #@! TD*
G04 #@! TA.AperFunction,ComponentPad*
%ADD23C,2.400000*%
G04 #@! TD*
G04 #@! TA.AperFunction,WasherPad*
%ADD24O,3.100000X4.100000*%
G04 #@! TD*
G04 #@! TA.AperFunction,ViaPad*
%ADD25C,0.800000*%
G04 #@! TD*
G04 #@! TA.AperFunction,Conductor*
%ADD26C,0.250000*%
G04 #@! TD*
G04 APERTURE END LIST*
D10*
X132588000Y-104648000D03*
D11*
X136548000Y-104648000D03*
X140508000Y-104648000D03*
X144468000Y-104648000D03*
X148428000Y-104648000D03*
X152388000Y-104648000D03*
D12*
X186646022Y-99150000D03*
D13*
X179026022Y-99150000D03*
D14*
X172692022Y-104580000D03*
X170152022Y-104580000D03*
X167612022Y-104580000D03*
X165072022Y-104580000D03*
D15*
X162532022Y-104580000D03*
D12*
X112856022Y-104210000D03*
X112856022Y-106750000D03*
X112856022Y-109290000D03*
X112856022Y-111830000D03*
X105236022Y-111830000D03*
X105236022Y-109290000D03*
X105236022Y-106750000D03*
D16*
X105236022Y-104210000D03*
D13*
X98736022Y-106710000D03*
X101236022Y-106710000D03*
X121336022Y-105310000D03*
X118836022Y-105310000D03*
D17*
X117256022Y-109310000D03*
D18*
X122336022Y-109310000D03*
D12*
X179096022Y-104260000D03*
D13*
X186716022Y-104260000D03*
D19*
X199236022Y-112110000D03*
D20*
X200226022Y-92750000D03*
D21*
X200226022Y-97830000D03*
D19*
X86236022Y-79110000D03*
X86236022Y-112110000D03*
X199236022Y-79110000D03*
D13*
X117546022Y-88680000D03*
X115256022Y-88680000D03*
X112966022Y-88680000D03*
X110676022Y-88680000D03*
X108386022Y-88680000D03*
X116391022Y-91260000D03*
X114101022Y-91260000D03*
X111811022Y-91260000D03*
X109521022Y-91260000D03*
X107231022Y-91260000D03*
X117506022Y-93780000D03*
X115216022Y-93780000D03*
X112926022Y-93780000D03*
X110636022Y-93780000D03*
D16*
X108346022Y-93780000D03*
D22*
X99846022Y-91780000D03*
X124946022Y-91780000D03*
D23*
X181593622Y-90844440D03*
X179688622Y-85764440D03*
X177783622Y-90844440D03*
X175878622Y-85764440D03*
X173973622Y-90844440D03*
X172068622Y-85764440D03*
X170163622Y-90844440D03*
X168258622Y-85764440D03*
X166353622Y-90844440D03*
X164448622Y-85764440D03*
X162543622Y-90844440D03*
X160638622Y-85764440D03*
X158733622Y-90844440D03*
X156828622Y-85764440D03*
X154923622Y-90844440D03*
X153018622Y-85764440D03*
X151113622Y-90844440D03*
X149208622Y-85764440D03*
X147303622Y-90844440D03*
X145398622Y-85764440D03*
X143493622Y-90844440D03*
D24*
X136043802Y-83765460D03*
X189043442Y-83765460D03*
D25*
X111252000Y-99385500D03*
X151278000Y-96160000D03*
X140208000Y-98044000D03*
X136652000Y-98044000D03*
X154940000Y-97282000D03*
X172720000Y-107696000D03*
X162236022Y-110110000D03*
X133350000Y-110490000D03*
X132588000Y-98044000D03*
X163736022Y-93610000D03*
X161807022Y-96110000D03*
X163257022Y-96110000D03*
X166236022Y-95110000D03*
X107656022Y-100110000D03*
X179096022Y-106970000D03*
X87236022Y-97110000D03*
X119816022Y-100030000D03*
X182736022Y-110610000D03*
X97536000Y-86614000D03*
X188236022Y-87610000D03*
X110656022Y-108000000D03*
X121412000Y-87376000D03*
X121606022Y-98340000D03*
D26*
X111252000Y-99385500D02*
X111332500Y-99305000D01*
X111332500Y-99305000D02*
X120641022Y-99305000D01*
X120641022Y-99305000D02*
X121606022Y-98340000D01*
X140208000Y-98044000D02*
X154178000Y-98044000D01*
X154178000Y-98044000D02*
X154940000Y-97282000D01*
X136652000Y-98044000D02*
X139268000Y-100660000D01*
X139268000Y-100660000D02*
X160706000Y-100660000D01*
X160706000Y-100660000D02*
X161807022Y-99558978D01*
X161807022Y-99558978D02*
X161807022Y-96110000D01*
X143311022Y-109310000D02*
X144468000Y-108153022D01*
X144468000Y-108153022D02*
X144468000Y-104648000D01*
X129286000Y-95504000D02*
X129286000Y-89916000D01*
X125984000Y-86614000D02*
X97536000Y-86614000D01*
X151278000Y-96160000D02*
X129942000Y-96160000D01*
X129942000Y-96160000D02*
X129286000Y-95504000D01*
X129286000Y-89916000D02*
X125984000Y-86614000D01*
X172720000Y-107696000D02*
X171958000Y-108458000D01*
X171958000Y-108458000D02*
X153162000Y-108458000D01*
X153162000Y-108458000D02*
X152388000Y-107684000D01*
X152388000Y-107684000D02*
X152388000Y-104648000D01*
X136652000Y-98044000D02*
X135668010Y-97060010D01*
X135668010Y-97060010D02*
X112726032Y-97060010D01*
X112726032Y-97060010D02*
X110636022Y-94970000D01*
X110636022Y-94970000D02*
X110636022Y-93780000D01*
X112926022Y-93780000D02*
X112926022Y-95670000D01*
X138774000Y-96610000D02*
X140208000Y-98044000D01*
X112926022Y-95670000D02*
X113866022Y-96610000D01*
X113866022Y-96610000D02*
X138774000Y-96610000D01*
X133350000Y-110490000D02*
X161856022Y-110490000D01*
X161856022Y-110490000D02*
X162236022Y-110110000D01*
X132054010Y-97510010D02*
X132588000Y-98044000D01*
X131292010Y-97510010D02*
X132054010Y-97510010D01*
X108346022Y-93780000D02*
X108346022Y-95200000D01*
X108346022Y-95200000D02*
X110656032Y-97510010D01*
X110656032Y-97510010D02*
X131292010Y-97510010D01*
X168296022Y-93610000D02*
X170163622Y-91742400D01*
X163736022Y-93610000D02*
X168296022Y-93610000D01*
X170163622Y-91742400D02*
X170163622Y-90844440D01*
X161807022Y-96110000D02*
X163257022Y-96110000D01*
X154923622Y-90844440D02*
X159189182Y-95110000D01*
X159189182Y-95110000D02*
X166236022Y-95110000D01*
X107416022Y-114010000D02*
X119636022Y-114010000D01*
X198236022Y-111110000D02*
X183236022Y-111110000D01*
X173973622Y-89247600D02*
X172836022Y-88110000D01*
X119736022Y-100110000D02*
X119816022Y-100030000D01*
X122336022Y-109310000D02*
X143311022Y-109310000D01*
X183236022Y-111110000D02*
X182736022Y-110610000D01*
X105236022Y-111830000D02*
X107416022Y-114010000D01*
X151113622Y-90844440D02*
X151113622Y-88992400D01*
X157736022Y-88122040D02*
X157736022Y-88110000D01*
X165368062Y-88110000D02*
X166736022Y-88110000D01*
X165446022Y-88110000D02*
X166736022Y-88110000D01*
X166353622Y-90844440D02*
X166353622Y-89017600D01*
X166736022Y-88110000D02*
X172836022Y-88110000D01*
X107656022Y-100110000D02*
X90236022Y-100110000D01*
X90236022Y-100110000D02*
X87236022Y-97110000D01*
X166353622Y-89017600D02*
X165446022Y-88110000D01*
X173973622Y-90844440D02*
X173973622Y-89247600D01*
X87236022Y-97110000D02*
X87736022Y-97610000D01*
X116361022Y-91800000D02*
X116726022Y-91800000D01*
X170152022Y-104580000D02*
X170152022Y-105746000D01*
X151113622Y-88992400D02*
X151996022Y-88110000D01*
X172836022Y-88110000D02*
X173736022Y-88110000D01*
X119636022Y-114010000D02*
X122336022Y-111310000D01*
X178859182Y-88110000D02*
X173736022Y-88110000D01*
X122336022Y-111310000D02*
X122336022Y-109310000D01*
X157856022Y-88110000D02*
X165446022Y-88110000D01*
X171376022Y-106970000D02*
X179096022Y-106970000D01*
X181593622Y-90844440D02*
X178859182Y-88110000D01*
X107656022Y-100110000D02*
X119736022Y-100110000D01*
X157736022Y-88110000D02*
X157856022Y-88110000D01*
X151996022Y-88110000D02*
X157736022Y-88110000D01*
X86956022Y-111830000D02*
X86236022Y-111110000D01*
X158733622Y-90844440D02*
X158733622Y-88987600D01*
X197736022Y-79110000D02*
X198236022Y-78610000D01*
X170152022Y-105746000D02*
X171376022Y-106970000D01*
X105236022Y-111830000D02*
X86956022Y-111830000D01*
X158733622Y-88987600D02*
X157856022Y-88110000D01*
X181236022Y-83110000D02*
X185736022Y-87610000D01*
X173136022Y-83110000D02*
X181236022Y-83110000D01*
X185736022Y-87610000D02*
X188236022Y-87610000D01*
X172068622Y-85764440D02*
X172068622Y-84177400D01*
X172068622Y-84177400D02*
X173136022Y-83110000D01*
X117236022Y-109290000D02*
X117256022Y-109310000D01*
X112856022Y-109290000D02*
X117236022Y-109290000D01*
X101236022Y-106710000D02*
X105196022Y-106710000D01*
X105196022Y-106710000D02*
X105236022Y-106750000D01*
X177066022Y-101110000D02*
X176556022Y-101110000D01*
X179026022Y-99150000D02*
X177066022Y-101110000D01*
X115956022Y-101110000D02*
X176556022Y-101110000D01*
X179026022Y-99150000D02*
X185426022Y-92750000D01*
X185426022Y-92750000D02*
X200226022Y-92750000D01*
X112856022Y-104210000D02*
X115956022Y-101110000D01*
X112926022Y-88970000D02*
X112376022Y-88420000D01*
X115216022Y-89110000D02*
X115886022Y-88440000D01*
X109366022Y-109290000D02*
X110656022Y-108000000D01*
X121412000Y-87376000D02*
X116560022Y-87376000D01*
X116560022Y-87376000D02*
X115256022Y-88680000D01*
X105236022Y-109290000D02*
X109366022Y-109290000D01*
X117186022Y-88440000D02*
X117206022Y-88420000D01*
G04 #@! TA.AperFunction,Conductor*
G36*
X125717624Y-87257091D02*
G01*
X125758501Y-87284405D01*
X128615595Y-90141499D01*
X128642909Y-90182376D01*
X128652500Y-90230594D01*
X128652500Y-95420147D01*
X128650204Y-95440935D01*
X128652438Y-95511986D01*
X128652500Y-95515945D01*
X128652500Y-95543857D01*
X128653007Y-95547873D01*
X128653937Y-95559696D01*
X128655326Y-95603892D01*
X128660977Y-95623341D01*
X128664986Y-95642696D01*
X128667525Y-95662794D01*
X128667525Y-95662796D01*
X128667526Y-95662797D01*
X128683718Y-95703695D01*
X128683801Y-95703903D01*
X128687644Y-95715130D01*
X128699980Y-95757590D01*
X128710294Y-95775030D01*
X128718991Y-95792784D01*
X128723478Y-95804117D01*
X128731565Y-95864327D01*
X128710538Y-95921323D01*
X128665285Y-95961855D01*
X128606326Y-95976500D01*
X114180617Y-95976500D01*
X114132399Y-95966909D01*
X114091521Y-95939595D01*
X113596426Y-95444499D01*
X113569113Y-95403622D01*
X113559522Y-95355404D01*
X113559522Y-94999393D01*
X113573759Y-94941213D01*
X113613249Y-94896181D01*
X113770322Y-94786198D01*
X113932220Y-94624300D01*
X113967808Y-94573474D01*
X114012841Y-94533981D01*
X114071022Y-94519744D01*
X114129203Y-94533981D01*
X114174235Y-94573474D01*
X114209824Y-94624301D01*
X114371718Y-94786195D01*
X114371721Y-94786197D01*
X114371722Y-94786198D01*
X114410455Y-94813319D01*
X114559271Y-94917522D01*
X114766778Y-95014284D01*
X114809369Y-95025696D01*
X114987935Y-95073543D01*
X115216022Y-95093498D01*
X115444109Y-95073543D01*
X115665265Y-95014284D01*
X115872771Y-94917523D01*
X115944782Y-94867100D01*
X116778132Y-94867100D01*
X116849519Y-94917085D01*
X117056951Y-95013813D01*
X117278022Y-95073048D01*
X117506022Y-95092995D01*
X117734021Y-95073048D01*
X117955092Y-95013813D01*
X118162520Y-94917087D01*
X118233910Y-94867099D01*
X118233910Y-94867097D01*
X117506023Y-94139210D01*
X117506022Y-94139210D01*
X116778132Y-94867098D01*
X116778132Y-94867100D01*
X115944782Y-94867100D01*
X116060322Y-94786198D01*
X116222220Y-94624300D01*
X116268656Y-94557981D01*
X116318618Y-94516058D01*
X116382850Y-94504733D01*
X116418921Y-94507888D01*
X117146811Y-93780001D01*
X117865232Y-93780001D01*
X118593119Y-94507888D01*
X118593121Y-94507888D01*
X118643109Y-94436498D01*
X118739835Y-94229070D01*
X118799070Y-94007999D01*
X118819017Y-93779999D01*
X118799070Y-93552000D01*
X118739835Y-93330929D01*
X118643107Y-93123497D01*
X118593122Y-93052110D01*
X118593120Y-93052110D01*
X117865232Y-93780000D01*
X117865232Y-93780001D01*
X117146811Y-93780001D01*
X117146812Y-93780000D01*
X117146812Y-93779999D01*
X116418921Y-93052108D01*
X116382850Y-93055265D01*
X116318618Y-93043940D01*
X116268655Y-93002016D01*
X116257809Y-92986526D01*
X116222220Y-92935700D01*
X116222219Y-92935699D01*
X116222217Y-92935696D01*
X116053345Y-92766824D01*
X116021946Y-92714568D01*
X116018755Y-92653687D01*
X116044520Y-92598435D01*
X116093208Y-92561745D01*
X116153422Y-92552208D01*
X116391022Y-92572995D01*
X116619019Y-92553048D01*
X116620661Y-92552609D01*
X116625174Y-92552510D01*
X116630003Y-92552088D01*
X116630030Y-92552404D01*
X116680545Y-92551301D01*
X116734266Y-92577792D01*
X116769684Y-92626096D01*
X116778797Y-92685297D01*
X116778131Y-92692900D01*
X117506021Y-93420790D01*
X117506022Y-93420790D01*
X118233910Y-92692899D01*
X118162519Y-92642912D01*
X117955092Y-92546186D01*
X117734021Y-92486951D01*
X117506022Y-92467004D01*
X117278020Y-92486951D01*
X117276376Y-92487392D01*
X117271858Y-92487490D01*
X117267041Y-92487912D01*
X117267013Y-92487596D01*
X117216494Y-92488698D01*
X117162774Y-92462206D01*
X117127357Y-92413903D01*
X117118245Y-92354704D01*
X117118910Y-92347097D01*
X116391023Y-91619210D01*
X116391022Y-91619210D01*
X115663131Y-92347099D01*
X115665191Y-92370637D01*
X115656078Y-92429836D01*
X115620661Y-92478139D01*
X115566942Y-92504630D01*
X115507060Y-92503324D01*
X115444111Y-92486457D01*
X115273149Y-92471500D01*
X115216022Y-92466502D01*
X115216021Y-92466502D01*
X115044724Y-92481488D01*
X114984510Y-92471950D01*
X114935822Y-92435261D01*
X114910058Y-92380008D01*
X114913249Y-92319128D01*
X114944648Y-92266871D01*
X114945318Y-92266200D01*
X114945322Y-92266198D01*
X115107220Y-92104300D01*
X115153656Y-92037981D01*
X115203618Y-91996058D01*
X115267850Y-91984733D01*
X115303921Y-91987888D01*
X116031811Y-91260001D01*
X116750232Y-91260001D01*
X117478119Y-91987888D01*
X117478121Y-91987888D01*
X117528109Y-91916498D01*
X117591760Y-91779999D01*
X121932422Y-91779999D01*
X121945806Y-92009774D01*
X121952800Y-92129857D01*
X121995256Y-92370637D01*
X122013655Y-92474984D01*
X122114166Y-92810716D01*
X122181542Y-92966909D01*
X122252972Y-93132501D01*
X122256889Y-93139285D01*
X122419415Y-93420790D01*
X122428197Y-93436000D01*
X122637471Y-93717104D01*
X122877965Y-93972012D01*
X122955208Y-94036827D01*
X123146422Y-94197276D01*
X123146424Y-94197277D01*
X123146425Y-94197278D01*
X123439222Y-94389853D01*
X123752396Y-94547135D01*
X124081712Y-94666996D01*
X124422716Y-94747816D01*
X124697004Y-94779875D01*
X124770796Y-94788500D01*
X124770797Y-94788500D01*
X125121247Y-94788500D01*
X125121248Y-94788500D01*
X125195040Y-94779875D01*
X125469328Y-94747816D01*
X125810332Y-94666996D01*
X126139648Y-94547135D01*
X126452822Y-94389853D01*
X126745619Y-94197278D01*
X127014079Y-93972012D01*
X127254573Y-93717104D01*
X127463847Y-93436000D01*
X127639072Y-93132501D01*
X127777879Y-92810712D01*
X127878389Y-92474984D01*
X127939244Y-92129857D01*
X127959621Y-91780000D01*
X127939244Y-91430143D01*
X127878389Y-91085016D01*
X127777879Y-90749288D01*
X127639072Y-90427499D01*
X127463847Y-90124000D01*
X127254573Y-89842896D01*
X127014079Y-89587988D01*
X126877607Y-89473474D01*
X126745621Y-89362723D01*
X126452822Y-89170147D01*
X126139644Y-89012863D01*
X125810336Y-88893005D01*
X125810332Y-88893004D01*
X125469328Y-88812184D01*
X125469326Y-88812183D01*
X125469323Y-88812183D01*
X125121248Y-88771500D01*
X125121247Y-88771500D01*
X124770797Y-88771500D01*
X124770796Y-88771500D01*
X124422720Y-88812183D01*
X124081707Y-88893005D01*
X123752399Y-89012863D01*
X123439221Y-89170147D01*
X123146422Y-89362723D01*
X122877967Y-89587986D01*
X122637471Y-89842895D01*
X122428194Y-90124004D01*
X122252972Y-90427499D01*
X122114166Y-90749283D01*
X122013655Y-91085015D01*
X121952800Y-91430144D01*
X121932422Y-91779999D01*
X117591760Y-91779999D01*
X117624835Y-91709070D01*
X117684070Y-91487999D01*
X117704017Y-91260000D01*
X117684070Y-91032000D01*
X117624835Y-90810929D01*
X117528107Y-90603497D01*
X117478122Y-90532110D01*
X117478120Y-90532110D01*
X116750232Y-91260000D01*
X116750232Y-91260001D01*
X116031811Y-91260001D01*
X116031812Y-91260000D01*
X116031812Y-91259999D01*
X115303921Y-90532108D01*
X115267850Y-90535265D01*
X115203618Y-90523940D01*
X115153655Y-90482016D01*
X115107217Y-90415696D01*
X114945325Y-90253804D01*
X114831103Y-90173824D01*
X114787390Y-90119842D01*
X114778925Y-90050899D01*
X114808281Y-89987947D01*
X114866536Y-89950116D01*
X114935985Y-89948905D01*
X114940505Y-89950116D01*
X115027930Y-89973542D01*
X115027931Y-89973542D01*
X115027935Y-89973543D01*
X115256022Y-89993498D01*
X115484109Y-89973543D01*
X115508711Y-89966951D01*
X115545069Y-89957209D01*
X115614519Y-89958420D01*
X115672774Y-89996251D01*
X115702130Y-90059204D01*
X115693665Y-90128147D01*
X115663822Y-90164998D01*
X115663131Y-90172900D01*
X116391021Y-90900790D01*
X116391022Y-90900790D01*
X117118910Y-90172899D01*
X117118869Y-90172430D01*
X117075978Y-90119465D01*
X117067513Y-90050522D01*
X117096869Y-89987569D01*
X117155124Y-89949738D01*
X117224574Y-89948527D01*
X117317930Y-89973542D01*
X117317931Y-89973542D01*
X117317935Y-89973543D01*
X117546022Y-89993498D01*
X117774109Y-89973543D01*
X117995265Y-89914284D01*
X118202771Y-89817523D01*
X118390322Y-89686198D01*
X118552220Y-89524300D01*
X118683545Y-89336749D01*
X118780306Y-89129243D01*
X118839565Y-88908087D01*
X118859520Y-88680000D01*
X118839565Y-88451913D01*
X118794891Y-88285188D01*
X118780306Y-88230756D01*
X118760718Y-88188750D01*
X118749183Y-88127259D01*
X118768646Y-88067800D01*
X118814308Y-88025032D01*
X118874913Y-88009500D01*
X120703800Y-88009500D01*
X120755048Y-88020393D01*
X120797435Y-88051188D01*
X120800746Y-88054866D01*
X120888893Y-88118908D01*
X120955248Y-88167118D01*
X121129712Y-88244794D01*
X121316513Y-88284500D01*
X121507485Y-88284500D01*
X121507487Y-88284500D01*
X121694288Y-88244794D01*
X121868752Y-88167118D01*
X122023253Y-88054866D01*
X122151040Y-87912944D01*
X122246527Y-87747556D01*
X122305542Y-87565928D01*
X122325504Y-87376000D01*
X122325503Y-87375998D01*
X122326888Y-87362829D01*
X122330758Y-87363235D01*
X122338683Y-87318272D01*
X122385162Y-87266648D01*
X122451935Y-87247500D01*
X125669406Y-87247500D01*
X125717624Y-87257091D01*
G37*
G04 #@! TD.AperFunction*
G04 #@! TA.AperFunction,Conductor*
G36*
X199238490Y-73135596D02*
G01*
X199699835Y-73153724D01*
X199709677Y-73154499D01*
X200165732Y-73208478D01*
X200175486Y-73210023D01*
X200625886Y-73299615D01*
X200635505Y-73301924D01*
X201077484Y-73426577D01*
X201086868Y-73429625D01*
X201517728Y-73588580D01*
X201526838Y-73592353D01*
X201868417Y-73749824D01*
X201943883Y-73784615D01*
X201952699Y-73789107D01*
X202353360Y-74013490D01*
X202361795Y-74018659D01*
X202743615Y-74273784D01*
X202751619Y-74279599D01*
X203112254Y-74563901D01*
X203119777Y-74570327D01*
X203456975Y-74882031D01*
X203463966Y-74889021D01*
X203775693Y-75226246D01*
X203782118Y-75233769D01*
X204066413Y-75594398D01*
X204072228Y-75602402D01*
X204327349Y-75984218D01*
X204332519Y-75992654D01*
X204556904Y-76393325D01*
X204561395Y-76402140D01*
X204753647Y-76819166D01*
X204757433Y-76828306D01*
X204916377Y-77259142D01*
X204919434Y-77268552D01*
X205044079Y-77710513D01*
X205046389Y-77720133D01*
X205135977Y-78170523D01*
X205137525Y-78180294D01*
X205191501Y-78636333D01*
X205192277Y-78646196D01*
X205210425Y-79108098D01*
X205210522Y-79113045D01*
X205210522Y-112107522D01*
X205210425Y-112112469D01*
X205192299Y-112573805D01*
X205191523Y-112583668D01*
X205137547Y-113039708D01*
X205135999Y-113049480D01*
X205046410Y-113499871D01*
X205044100Y-113509490D01*
X204919453Y-113951458D01*
X204916396Y-113960868D01*
X204757455Y-114391698D01*
X204753669Y-114400838D01*
X204561415Y-114817869D01*
X204556924Y-114826684D01*
X204332537Y-115227357D01*
X204327367Y-115235793D01*
X204072246Y-115617610D01*
X204066431Y-115625614D01*
X203782135Y-115986244D01*
X203775710Y-115993767D01*
X203463987Y-116330988D01*
X203456991Y-116337984D01*
X203119791Y-116649689D01*
X203112268Y-116656114D01*
X202751632Y-116940418D01*
X202743628Y-116946233D01*
X202361806Y-117201359D01*
X202353371Y-117206528D01*
X201952709Y-117430911D01*
X201943894Y-117435403D01*
X201526863Y-117627659D01*
X201517722Y-117631445D01*
X201086887Y-117790390D01*
X201077478Y-117793447D01*
X200635512Y-117918095D01*
X200625892Y-117920405D01*
X200175499Y-118009996D01*
X200165727Y-118011544D01*
X199709688Y-118065521D01*
X199699825Y-118066297D01*
X199239051Y-118084403D01*
X199234104Y-118084500D01*
X86238499Y-118084500D01*
X86233553Y-118084403D01*
X85772216Y-118066278D01*
X85762353Y-118065502D01*
X85306314Y-118011528D01*
X85296542Y-118009980D01*
X84958733Y-117942786D01*
X84846157Y-117920394D01*
X84836540Y-117918085D01*
X84394549Y-117793432D01*
X84385140Y-117790375D01*
X83954321Y-117631439D01*
X83945180Y-117627653D01*
X83528147Y-117435399D01*
X83519332Y-117430908D01*
X83118659Y-117206522D01*
X83110223Y-117201352D01*
X82728406Y-116946231D01*
X82720402Y-116940416D01*
X82359771Y-116656119D01*
X82352248Y-116649694D01*
X82015026Y-116337971D01*
X82008043Y-116330988D01*
X81696315Y-115993763D01*
X81689900Y-115986252D01*
X81405596Y-115625615D01*
X81399781Y-115617611D01*
X81144658Y-115235794D01*
X81139488Y-115227358D01*
X81078403Y-115118283D01*
X83586947Y-115118283D01*
X83690306Y-115211963D01*
X84006608Y-115446548D01*
X84344383Y-115649002D01*
X84700385Y-115817378D01*
X85071150Y-115950041D01*
X85453161Y-116045729D01*
X85842695Y-116103511D01*
X86236022Y-116122834D01*
X86629348Y-116103511D01*
X87018882Y-116045729D01*
X87400893Y-115950041D01*
X87771658Y-115817378D01*
X88127660Y-115649002D01*
X88465435Y-115446548D01*
X88781737Y-115211962D01*
X88885095Y-115118283D01*
X196586947Y-115118283D01*
X196690306Y-115211963D01*
X197006608Y-115446548D01*
X197344383Y-115649002D01*
X197700385Y-115817378D01*
X198071150Y-115950041D01*
X198453161Y-116045729D01*
X198842695Y-116103511D01*
X199236022Y-116122834D01*
X199629348Y-116103511D01*
X200018882Y-116045729D01*
X200400893Y-115950041D01*
X200771658Y-115817378D01*
X201127660Y-115649002D01*
X201465435Y-115446548D01*
X201781737Y-115211962D01*
X201885095Y-115118283D01*
X201885095Y-115118282D01*
X199236023Y-112469210D01*
X199236021Y-112469210D01*
X196586947Y-115118283D01*
X88885095Y-115118283D01*
X88885095Y-115118282D01*
X86236023Y-112469210D01*
X86236021Y-112469210D01*
X83586947Y-115118283D01*
X81078403Y-115118283D01*
X80915101Y-114826686D01*
X80910610Y-114817871D01*
X80883504Y-114759073D01*
X80718349Y-114400828D01*
X80714576Y-114391719D01*
X80555621Y-113960855D01*
X80552569Y-113951458D01*
X80427915Y-113509469D01*
X80425615Y-113499891D01*
X80336021Y-113049473D01*
X80334475Y-113039715D01*
X80280497Y-112583655D01*
X80279722Y-112573816D01*
X80261619Y-112113028D01*
X80261560Y-112109999D01*
X82223187Y-112109999D01*
X82242510Y-112503326D01*
X82300292Y-112892860D01*
X82395980Y-113274871D01*
X82528643Y-113645636D01*
X82697019Y-114001638D01*
X82899473Y-114339413D01*
X83134058Y-114655715D01*
X83227737Y-114759073D01*
X83227738Y-114759073D01*
X85876812Y-112110001D01*
X86595232Y-112110001D01*
X89244304Y-114759073D01*
X89244305Y-114759073D01*
X89337984Y-114655715D01*
X89572570Y-114339413D01*
X89775024Y-114001638D01*
X89943400Y-113645636D01*
X90076063Y-113274871D01*
X90171751Y-112892860D01*
X90229533Y-112503326D01*
X90248856Y-112109999D01*
X90247579Y-112084000D01*
X103949940Y-112084000D01*
X104002208Y-112279070D01*
X104098934Y-112486498D01*
X104230211Y-112673981D01*
X104392040Y-112835810D01*
X104579523Y-112967087D01*
X104786951Y-113063813D01*
X104982022Y-113116082D01*
X104982022Y-112084000D01*
X105490022Y-112084000D01*
X105490022Y-113116082D01*
X105685092Y-113063813D01*
X105892520Y-112967087D01*
X106080003Y-112835810D01*
X106241832Y-112673981D01*
X106373109Y-112486498D01*
X106469835Y-112279070D01*
X106522104Y-112084000D01*
X105490022Y-112084000D01*
X104982022Y-112084000D01*
X103949940Y-112084000D01*
X90247579Y-112084000D01*
X90229533Y-111716673D01*
X90171751Y-111327139D01*
X90076063Y-110945128D01*
X89943400Y-110574363D01*
X89775024Y-110218361D01*
X89572570Y-109880586D01*
X89337985Y-109564284D01*
X89244305Y-109460925D01*
X86595232Y-112109999D01*
X86595232Y-112110001D01*
X85876812Y-112110001D01*
X85876812Y-112109999D01*
X83227738Y-109460925D01*
X83227737Y-109460925D01*
X83134058Y-109564284D01*
X82899473Y-109880586D01*
X82697019Y-110218361D01*
X82528643Y-110574363D01*
X82395980Y-110945128D01*
X82300292Y-111327139D01*
X82242510Y-111716673D01*
X82223187Y-112109999D01*
X80261560Y-112109999D01*
X80261522Y-112108082D01*
X80261522Y-109101716D01*
X83586947Y-109101716D01*
X86236021Y-111750790D01*
X86236023Y-111750790D01*
X88885095Y-109101716D01*
X88885095Y-109101715D01*
X88781737Y-109008036D01*
X88465435Y-108773451D01*
X88127660Y-108570997D01*
X87771658Y-108402621D01*
X87400893Y-108269958D01*
X87018882Y-108174270D01*
X86629348Y-108116488D01*
X86236022Y-108097165D01*
X85842695Y-108116488D01*
X85453161Y-108174270D01*
X85071150Y-108269958D01*
X84700385Y-108402621D01*
X84344383Y-108570997D01*
X84006608Y-108773451D01*
X83690306Y-109008036D01*
X83586947Y-109101715D01*
X83586947Y-109101716D01*
X80261522Y-109101716D01*
X80261522Y-106710000D01*
X97422524Y-106710000D01*
X97442479Y-106938087D01*
X97501737Y-107159243D01*
X97598499Y-107366750D01*
X97729826Y-107554303D01*
X97891718Y-107716195D01*
X98079271Y-107847522D01*
X98286778Y-107944284D01*
X98326883Y-107955030D01*
X98507935Y-108003543D01*
X98736022Y-108023498D01*
X98964109Y-108003543D01*
X99185265Y-107944284D01*
X99392771Y-107847523D01*
X99580322Y-107716198D01*
X99742220Y-107554300D01*
X99873545Y-107366749D01*
X99873544Y-107366749D01*
X99879868Y-107357719D01*
X99881794Y-107359068D01*
X99918319Y-107317417D01*
X99986022Y-107297682D01*
X100053725Y-107317417D01*
X100090249Y-107359068D01*
X100092176Y-107357719D01*
X100229826Y-107554303D01*
X100391718Y-107716195D01*
X100579271Y-107847522D01*
X100786778Y-107944284D01*
X100826883Y-107955030D01*
X101007935Y-108003543D01*
X101236022Y-108023498D01*
X101464109Y-108003543D01*
X101685265Y-107944284D01*
X101892771Y-107847523D01*
X102080322Y-107716198D01*
X102242220Y-107554300D01*
X102352203Y-107397227D01*
X102397235Y-107357737D01*
X102455415Y-107343500D01*
X103988735Y-107343500D01*
X104056437Y-107363234D01*
X104088768Y-107400103D01*
X104092176Y-107397718D01*
X104098497Y-107406746D01*
X104098499Y-107406749D01*
X104168045Y-107506070D01*
X104229826Y-107594303D01*
X104391718Y-107756195D01*
X104391721Y-107756197D01*
X104391722Y-107756198D01*
X104459049Y-107803341D01*
X104576996Y-107885929D01*
X104579273Y-107887523D01*
X104618479Y-107905805D01*
X104671495Y-107952298D01*
X104691229Y-108019997D01*
X104671497Y-108087697D01*
X104618481Y-108134193D01*
X104579273Y-108152476D01*
X104391718Y-108283804D01*
X104229826Y-108445696D01*
X104098499Y-108633249D01*
X104001737Y-108840756D01*
X103942479Y-109061912D01*
X103922524Y-109290000D01*
X103942479Y-109518087D01*
X104001737Y-109739243D01*
X104098499Y-109946750D01*
X104229826Y-110134303D01*
X104391718Y-110296195D01*
X104391721Y-110296197D01*
X104391722Y-110296198D01*
X104579273Y-110427523D01*
X104619071Y-110446081D01*
X104672087Y-110492573D01*
X104691821Y-110560273D01*
X104672089Y-110627973D01*
X104619073Y-110674469D01*
X104579524Y-110692911D01*
X104392040Y-110824189D01*
X104230211Y-110986018D01*
X104098934Y-111173501D01*
X104002208Y-111380929D01*
X103949939Y-111576000D01*
X106522104Y-111576000D01*
X106469835Y-111380929D01*
X106373109Y-111173501D01*
X106241832Y-110986018D01*
X106080003Y-110824189D01*
X105892519Y-110692911D01*
X105852973Y-110674471D01*
X105799955Y-110627976D01*
X105780222Y-110560276D01*
X105799955Y-110492576D01*
X105852973Y-110446081D01*
X105853806Y-110445692D01*
X105892771Y-110427523D01*
X106080322Y-110296198D01*
X106242220Y-110134300D01*
X106352203Y-109977227D01*
X106397235Y-109937737D01*
X106455415Y-109923500D01*
X109282169Y-109923500D01*
X109302957Y-109925795D01*
X109305929Y-109925701D01*
X109305931Y-109925702D01*
X109374007Y-109923562D01*
X109377967Y-109923500D01*
X109405874Y-109923500D01*
X109405878Y-109923500D01*
X109409887Y-109922993D01*
X109421721Y-109922061D01*
X109465911Y-109920673D01*
X109485360Y-109915021D01*
X109504720Y-109911012D01*
X109524819Y-109908474D01*
X109565937Y-109892193D01*
X109577139Y-109888357D01*
X109619615Y-109876018D01*
X109637061Y-109865699D01*
X109654802Y-109857009D01*
X109673639Y-109849552D01*
X109709414Y-109823558D01*
X109719325Y-109817048D01*
X109757384Y-109794542D01*
X109771713Y-109780212D01*
X109786741Y-109767377D01*
X109803129Y-109755472D01*
X109831320Y-109721393D01*
X109839290Y-109712634D01*
X110606521Y-108945404D01*
X110647399Y-108918091D01*
X110695617Y-108908500D01*
X110751507Y-108908500D01*
X110751509Y-108908500D01*
X110938310Y-108868794D01*
X111112774Y-108791118D01*
X111267275Y-108678866D01*
X111395062Y-108536944D01*
X111490549Y-108371556D01*
X111549564Y-108189928D01*
X111569526Y-108000000D01*
X111549564Y-107810072D01*
X111517674Y-107711925D01*
X111490549Y-107628443D01*
X111395063Y-107463057D01*
X111267274Y-107321133D01*
X111112775Y-107208883D01*
X111112774Y-107208882D01*
X110938310Y-107131206D01*
X110751509Y-107091500D01*
X110560535Y-107091500D01*
X110436000Y-107117970D01*
X110373733Y-107131206D01*
X110199268Y-107208883D01*
X110044769Y-107321133D01*
X109916980Y-107463057D01*
X109821494Y-107628443D01*
X109762480Y-107810070D01*
X109745115Y-107975290D01*
X109733531Y-108016364D01*
X109708901Y-108051214D01*
X109140522Y-108619595D01*
X109099644Y-108646909D01*
X109051426Y-108656500D01*
X106455415Y-108656500D01*
X106397235Y-108642263D01*
X106352203Y-108602772D01*
X106242220Y-108445700D01*
X106242219Y-108445699D01*
X106242217Y-108445696D01*
X106080325Y-108283804D01*
X105892770Y-108152476D01*
X105853565Y-108134195D01*
X105800547Y-108087700D01*
X105780814Y-108020000D01*
X105800547Y-107952300D01*
X105853565Y-107905805D01*
X105858185Y-107903650D01*
X105892771Y-107887523D01*
X106080322Y-107756198D01*
X106242220Y-107594300D01*
X106373545Y-107406749D01*
X106470306Y-107199243D01*
X106529565Y-106978087D01*
X106549520Y-106750000D01*
X106529565Y-106521913D01*
X106475304Y-106319409D01*
X106470306Y-106300756D01*
X106373544Y-106093249D01*
X106260627Y-105931988D01*
X106242220Y-105905700D01*
X106242219Y-105905699D01*
X106242217Y-105905696D01*
X106080325Y-105743804D01*
X106077020Y-105741490D01*
X106037252Y-105695924D01*
X106023297Y-105637077D01*
X106038370Y-105578506D01*
X106079000Y-105533706D01*
X106135822Y-105512999D01*
X106145223Y-105511989D01*
X106282226Y-105460889D01*
X106399283Y-105373261D01*
X106486911Y-105256204D01*
X106538011Y-105119201D01*
X106544522Y-105058638D01*
X106544522Y-103361362D01*
X106538011Y-103300799D01*
X106486911Y-103163796D01*
X106468915Y-103139756D01*
X106399283Y-103046738D01*
X106282227Y-102959111D01*
X106213451Y-102933459D01*
X106145223Y-102908011D01*
X106084660Y-102901500D01*
X104387384Y-102901500D01*
X104326821Y-102908011D01*
X104189816Y-102959111D01*
X104072760Y-103046738D01*
X103985133Y-103163794D01*
X103935630Y-103296517D01*
X103934033Y-103300799D01*
X103927522Y-103361362D01*
X103927522Y-105058638D01*
X103934033Y-105119201D01*
X103944754Y-105147945D01*
X103985133Y-105256205D01*
X104072760Y-105373261D01*
X104189816Y-105460888D01*
X104189817Y-105460888D01*
X104189818Y-105460889D01*
X104326821Y-105511989D01*
X104336220Y-105512999D01*
X104393043Y-105533705D01*
X104433672Y-105578504D01*
X104448746Y-105637074D01*
X104434793Y-105695921D01*
X104395027Y-105741487D01*
X104391720Y-105743802D01*
X104229826Y-105905696D01*
X104147850Y-106022771D01*
X104102817Y-106062263D01*
X104044637Y-106076500D01*
X102455415Y-106076500D01*
X102397235Y-106062263D01*
X102352203Y-106022772D01*
X102242220Y-105865700D01*
X102242219Y-105865699D01*
X102242217Y-105865696D01*
X102080325Y-105703804D01*
X101892772Y-105572477D01*
X101685265Y-105475715D01*
X101464109Y-105416457D01*
X101236022Y-105396502D01*
X101007934Y-105416457D01*
X100786778Y-105475715D01*
X100579271Y-105572477D01*
X100391718Y-105703804D01*
X100229826Y-105865696D01*
X100092176Y-106062281D01*
X100090249Y-106060932D01*
X100053722Y-106102584D01*
X99986022Y-106122317D01*
X99918322Y-106102584D01*
X99881794Y-106060932D01*
X99879868Y-106062281D01*
X99770228Y-105905700D01*
X99742220Y-105865700D01*
X99742219Y-105865699D01*
X99742217Y-105865696D01*
X99580325Y-105703804D01*
X99392772Y-105572477D01*
X99185265Y-105475715D01*
X98964109Y-105416457D01*
X98736022Y-105396502D01*
X98507934Y-105416457D01*
X98286778Y-105475715D01*
X98079271Y-105572477D01*
X97891718Y-105703804D01*
X97729826Y-105865696D01*
X97598499Y-106053249D01*
X97501737Y-106260756D01*
X97442479Y-106481912D01*
X97422524Y-106710000D01*
X80261522Y-106710000D01*
X80261522Y-91779999D01*
X96832422Y-91779999D01*
X96845806Y-92009774D01*
X96852800Y-92129857D01*
X96895256Y-92370637D01*
X96913655Y-92474984D01*
X97014166Y-92810716D01*
X97081542Y-92966909D01*
X97152972Y-93132501D01*
X97156889Y-93139285D01*
X97319415Y-93420790D01*
X97328197Y-93436000D01*
X97537471Y-93717104D01*
X97777965Y-93972012D01*
X97855208Y-94036827D01*
X98046422Y-94197276D01*
X98046424Y-94197277D01*
X98046425Y-94197278D01*
X98339222Y-94389853D01*
X98652396Y-94547135D01*
X98981712Y-94666996D01*
X99322716Y-94747816D01*
X99597004Y-94779875D01*
X99670796Y-94788500D01*
X99670797Y-94788500D01*
X100021247Y-94788500D01*
X100021248Y-94788500D01*
X100095040Y-94779875D01*
X100369328Y-94747816D01*
X100710332Y-94666996D01*
X101039648Y-94547135D01*
X101352822Y-94389853D01*
X101645619Y-94197278D01*
X101914079Y-93972012D01*
X102154573Y-93717104D01*
X102363847Y-93436000D01*
X102539072Y-93132501D01*
X102677879Y-92810712D01*
X102778389Y-92474984D01*
X102839244Y-92129857D01*
X102859621Y-91780000D01*
X102839244Y-91430143D01*
X102809243Y-91260000D01*
X105918026Y-91260000D01*
X105937973Y-91487999D01*
X105997208Y-91709070D01*
X106093934Y-91916497D01*
X106143922Y-91987887D01*
X106871811Y-91260001D01*
X107590232Y-91260001D01*
X108318120Y-91987889D01*
X108365039Y-91983784D01*
X108387003Y-91983784D01*
X108433921Y-91987888D01*
X109161811Y-91260001D01*
X109880232Y-91260001D01*
X110608120Y-91987889D01*
X110655039Y-91983784D01*
X110677003Y-91983784D01*
X110723921Y-91987888D01*
X111451812Y-91260000D01*
X111451812Y-91259999D01*
X110723922Y-90532109D01*
X110677007Y-90536214D01*
X110655045Y-90536215D01*
X110608120Y-90532110D01*
X109880232Y-91260000D01*
X109880232Y-91260001D01*
X109161811Y-91260001D01*
X109161812Y-91260000D01*
X109161812Y-91259999D01*
X108433922Y-90532109D01*
X108387007Y-90536214D01*
X108365045Y-90536215D01*
X108318120Y-90532110D01*
X107590232Y-91260000D01*
X107590232Y-91260001D01*
X106871811Y-91260001D01*
X106871812Y-91260000D01*
X106871812Y-91259999D01*
X106143922Y-90532109D01*
X106093935Y-90603499D01*
X105997208Y-90810929D01*
X105937973Y-91032000D01*
X105918026Y-91260000D01*
X102809243Y-91260000D01*
X102778389Y-91085016D01*
X102677879Y-90749288D01*
X102539072Y-90427499D01*
X102363847Y-90124000D01*
X102154573Y-89842896D01*
X101914079Y-89587988D01*
X101777607Y-89473474D01*
X101645621Y-89362723D01*
X101352822Y-89170147D01*
X101039644Y-89012863D01*
X100710336Y-88893005D01*
X100710332Y-88893004D01*
X100369328Y-88812184D01*
X100369326Y-88812183D01*
X100369323Y-88812183D01*
X100021248Y-88771500D01*
X100021247Y-88771500D01*
X99670797Y-88771500D01*
X99670796Y-88771500D01*
X99322720Y-88812183D01*
X98981707Y-88893005D01*
X98652399Y-89012863D01*
X98339221Y-89170147D01*
X98046422Y-89362723D01*
X97777967Y-89587986D01*
X97537471Y-89842895D01*
X97328194Y-90124004D01*
X97152972Y-90427499D01*
X97014166Y-90749283D01*
X96913655Y-91085015D01*
X96852800Y-91430144D01*
X96832422Y-91779999D01*
X80261522Y-91779999D01*
X80261522Y-86613999D01*
X96622496Y-86613999D01*
X96642458Y-86803929D01*
X96701472Y-86985556D01*
X96796958Y-87150942D01*
X96796960Y-87150944D01*
X96924747Y-87292866D01*
X97079248Y-87405118D01*
X97253712Y-87482794D01*
X97440513Y-87522500D01*
X97631485Y-87522500D01*
X97631487Y-87522500D01*
X97818288Y-87482794D01*
X97992752Y-87405118D01*
X98147253Y-87292866D01*
X98150564Y-87289188D01*
X98192952Y-87258393D01*
X98244200Y-87247500D01*
X107793504Y-87247500D01*
X107858399Y-87265497D01*
X107904755Y-87314347D01*
X107919331Y-87380094D01*
X107897963Y-87443958D01*
X107846754Y-87487695D01*
X107729272Y-87542477D01*
X107541718Y-87673804D01*
X107379826Y-87835696D01*
X107248499Y-88023249D01*
X107151737Y-88230756D01*
X107092479Y-88451912D01*
X107092479Y-88451913D01*
X107072524Y-88680000D01*
X107092478Y-88908086D01*
X107092479Y-88908087D01*
X107151737Y-89129243D01*
X107248499Y-89336750D01*
X107379826Y-89524303D01*
X107541718Y-89686195D01*
X107657137Y-89767013D01*
X107700850Y-89820994D01*
X107709315Y-89889937D01*
X107679959Y-89952890D01*
X107621705Y-89990720D01*
X107552255Y-89991933D01*
X107459021Y-89966951D01*
X107231022Y-89947004D01*
X107003022Y-89966951D01*
X106781951Y-90026186D01*
X106574521Y-90122913D01*
X106503131Y-90172900D01*
X107231021Y-90900790D01*
X107231022Y-90900790D01*
X107958910Y-90172899D01*
X107958869Y-90172430D01*
X107915978Y-90119465D01*
X107907513Y-90050522D01*
X107936869Y-89987569D01*
X107995124Y-89949738D01*
X108064574Y-89948527D01*
X108157930Y-89973542D01*
X108157931Y-89973542D01*
X108157935Y-89973543D01*
X108386022Y-89993498D01*
X108614109Y-89973543D01*
X108638711Y-89966951D01*
X108675069Y-89957209D01*
X108744519Y-89958420D01*
X108802774Y-89996251D01*
X108832130Y-90059204D01*
X108823665Y-90128147D01*
X108793822Y-90164998D01*
X108793131Y-90172900D01*
X109521021Y-90900790D01*
X109521022Y-90900790D01*
X110248910Y-90172899D01*
X110248869Y-90172430D01*
X110205978Y-90119465D01*
X110197513Y-90050522D01*
X110226869Y-89987569D01*
X110285124Y-89949738D01*
X110354574Y-89948527D01*
X110447930Y-89973542D01*
X110447931Y-89973542D01*
X110447935Y-89973543D01*
X110676022Y-89993498D01*
X110904109Y-89973543D01*
X110928711Y-89966951D01*
X110965069Y-89957209D01*
X111034519Y-89958420D01*
X111092774Y-89996251D01*
X111122130Y-90059204D01*
X111113665Y-90128147D01*
X111083822Y-90164998D01*
X111083131Y-90172900D01*
X111811021Y-90900790D01*
X111811022Y-90900790D01*
X112538910Y-90172899D01*
X112538869Y-90172430D01*
X112495978Y-90119465D01*
X112487513Y-90050522D01*
X112516869Y-89987569D01*
X112575124Y-89949738D01*
X112644574Y-89948527D01*
X112737930Y-89973542D01*
X112737931Y-89973542D01*
X112737935Y-89973543D01*
X112966022Y-89993498D01*
X113194109Y-89973543D01*
X113253660Y-89957586D01*
X113323109Y-89958797D01*
X113381365Y-89996628D01*
X113410721Y-90059580D01*
X113402256Y-90128523D01*
X113358543Y-90182505D01*
X113256718Y-90253804D01*
X113094825Y-90415697D01*
X113048387Y-90482017D01*
X112998425Y-90523940D01*
X112934194Y-90535266D01*
X112898120Y-90532110D01*
X112170232Y-91260000D01*
X112170232Y-91260001D01*
X112898120Y-91987889D01*
X112934192Y-91984733D01*
X112998423Y-91996058D01*
X113048387Y-92037982D01*
X113094826Y-92104303D01*
X113263148Y-92272625D01*
X113294547Y-92324881D01*
X113297738Y-92385762D01*
X113271974Y-92441014D01*
X113223285Y-92477703D01*
X113163072Y-92487241D01*
X112926022Y-92466502D01*
X112697930Y-92486457D01*
X112696421Y-92486862D01*
X112692274Y-92486952D01*
X112686953Y-92487418D01*
X112686922Y-92487069D01*
X112636539Y-92488168D01*
X112582820Y-92461676D01*
X112547403Y-92413372D01*
X112538292Y-92354173D01*
X112538911Y-92347098D01*
X111811023Y-91619210D01*
X111811022Y-91619210D01*
X111083131Y-92347099D01*
X111085191Y-92370637D01*
X111076078Y-92429836D01*
X111040661Y-92478139D01*
X110986942Y-92504630D01*
X110927060Y-92503324D01*
X110864111Y-92486457D01*
X110636022Y-92466502D01*
X110407930Y-92486457D01*
X110406421Y-92486862D01*
X110402274Y-92486952D01*
X110396953Y-92487418D01*
X110396922Y-92487069D01*
X110346539Y-92488168D01*
X110292820Y-92461676D01*
X110257403Y-92413372D01*
X110248292Y-92354173D01*
X110248911Y-92347098D01*
X109521023Y-91619210D01*
X109521022Y-91619210D01*
X108788794Y-92351436D01*
X108779109Y-92402049D01*
X108732658Y-92452741D01*
X108666511Y-92471500D01*
X108085532Y-92471500D01*
X108019385Y-92452741D01*
X107972934Y-92402049D01*
X107963248Y-92351435D01*
X107231023Y-91619210D01*
X107231022Y-91619210D01*
X106503132Y-92347098D01*
X106503132Y-92347100D01*
X106574519Y-92397085D01*
X106781951Y-92493813D01*
X107013671Y-92555902D01*
X107012889Y-92558817D01*
X107047089Y-92570016D01*
X107088093Y-92610323D01*
X107106919Y-92664651D01*
X107099648Y-92721687D01*
X107044033Y-92870798D01*
X107044033Y-92870799D01*
X107037522Y-92931362D01*
X107037522Y-94628638D01*
X107044033Y-94689201D01*
X107069582Y-94757702D01*
X107095133Y-94826205D01*
X107182760Y-94943261D01*
X107299816Y-95030888D01*
X107299817Y-95030888D01*
X107299818Y-95030889D01*
X107436821Y-95081989D01*
X107497384Y-95088500D01*
X107586522Y-95088500D01*
X107649522Y-95105381D01*
X107695641Y-95151500D01*
X107712522Y-95214500D01*
X107712522Y-95239857D01*
X107713029Y-95243873D01*
X107713959Y-95255696D01*
X107715348Y-95299892D01*
X107720999Y-95319341D01*
X107725008Y-95338696D01*
X107727547Y-95358794D01*
X107727547Y-95358796D01*
X107727548Y-95358797D01*
X107740185Y-95390716D01*
X107743823Y-95399903D01*
X107747666Y-95411130D01*
X107760002Y-95453590D01*
X107770316Y-95471030D01*
X107779009Y-95488774D01*
X107782923Y-95498659D01*
X107786471Y-95507619D01*
X107812453Y-95543380D01*
X107818970Y-95553301D01*
X107841480Y-95591363D01*
X107855800Y-95605683D01*
X107868640Y-95620716D01*
X107880548Y-95637105D01*
X107880549Y-95637106D01*
X107880550Y-95637107D01*
X107911600Y-95662794D01*
X107914620Y-95665292D01*
X107923400Y-95673282D01*
X110148783Y-97898665D01*
X110161866Y-97914995D01*
X110213697Y-97963666D01*
X110216509Y-97966391D01*
X110236262Y-97986144D01*
X110238215Y-97987659D01*
X110239456Y-97988622D01*
X110248476Y-97996326D01*
X110280711Y-98026596D01*
X110298467Y-98036357D01*
X110314983Y-98047206D01*
X110330991Y-98059623D01*
X110362177Y-98073118D01*
X110371557Y-98077177D01*
X110382220Y-98082401D01*
X110420970Y-98103704D01*
X110420972Y-98103705D01*
X110440594Y-98108743D01*
X110459299Y-98115147D01*
X110477887Y-98123191D01*
X110521554Y-98130106D01*
X110533161Y-98132510D01*
X110576002Y-98143510D01*
X110596263Y-98143510D01*
X110615971Y-98145060D01*
X110635975Y-98148229D01*
X110635975Y-98148228D01*
X110635976Y-98148229D01*
X110679986Y-98144069D01*
X110691843Y-98143510D01*
X120573232Y-98143510D01*
X120640002Y-98162656D01*
X120686481Y-98214276D01*
X120698542Y-98282683D01*
X120695114Y-98315293D01*
X120683529Y-98356365D01*
X120658900Y-98391215D01*
X120415522Y-98634595D01*
X120374644Y-98661909D01*
X120326426Y-98671500D01*
X111855835Y-98671500D01*
X111816899Y-98665333D01*
X111781774Y-98647436D01*
X111743607Y-98619706D01*
X111708752Y-98594382D01*
X111534288Y-98516706D01*
X111347487Y-98477000D01*
X111156513Y-98477000D01*
X111031979Y-98503470D01*
X110969711Y-98516706D01*
X110795246Y-98594383D01*
X110640747Y-98706633D01*
X110512958Y-98848557D01*
X110417472Y-99013943D01*
X110358458Y-99195570D01*
X110338496Y-99385500D01*
X110358458Y-99575429D01*
X110417472Y-99757056D01*
X110512958Y-99922442D01*
X110560793Y-99975568D01*
X110640747Y-100064366D01*
X110795248Y-100176618D01*
X110969712Y-100254294D01*
X111156513Y-100294000D01*
X111347485Y-100294000D01*
X111347487Y-100294000D01*
X111534288Y-100254294D01*
X111708752Y-100176618D01*
X111863253Y-100064366D01*
X111939047Y-99980187D01*
X111981432Y-99949393D01*
X112032681Y-99938500D01*
X120557169Y-99938500D01*
X120577957Y-99940795D01*
X120580929Y-99940701D01*
X120580931Y-99940702D01*
X120649007Y-99938562D01*
X120652967Y-99938500D01*
X120680874Y-99938500D01*
X120680878Y-99938500D01*
X120684887Y-99937993D01*
X120696721Y-99937061D01*
X120740911Y-99935673D01*
X120760360Y-99930021D01*
X120779720Y-99926012D01*
X120799819Y-99923474D01*
X120840937Y-99907193D01*
X120852139Y-99903357D01*
X120894615Y-99891018D01*
X120912061Y-99880699D01*
X120929802Y-99872009D01*
X120948639Y-99864552D01*
X120984414Y-99838558D01*
X120994325Y-99832048D01*
X121032384Y-99809542D01*
X121046713Y-99795212D01*
X121061741Y-99782377D01*
X121078129Y-99770472D01*
X121106320Y-99736393D01*
X121114290Y-99727634D01*
X121556522Y-99285404D01*
X121597400Y-99258091D01*
X121645618Y-99248500D01*
X121701507Y-99248500D01*
X121701509Y-99248500D01*
X121888310Y-99208794D01*
X122062774Y-99131118D01*
X122217275Y-99018866D01*
X122345062Y-98876944D01*
X122440549Y-98711556D01*
X122499564Y-98529928D01*
X122519526Y-98340000D01*
X122513501Y-98282678D01*
X122525563Y-98214275D01*
X122572041Y-98162656D01*
X122638811Y-98143510D01*
X131211980Y-98143510D01*
X131331866Y-98143510D01*
X131573535Y-98143510D01*
X131624784Y-98154403D01*
X131667171Y-98185199D01*
X131693368Y-98230574D01*
X131753472Y-98415555D01*
X131848958Y-98580942D01*
X131921861Y-98661909D01*
X131976747Y-98722866D01*
X132131248Y-98835118D01*
X132305712Y-98912794D01*
X132492513Y-98952500D01*
X132683485Y-98952500D01*
X132683487Y-98952500D01*
X132870288Y-98912794D01*
X133044752Y-98835118D01*
X133199253Y-98722866D01*
X133327040Y-98580944D01*
X133422527Y-98415556D01*
X133481542Y-98233928D01*
X133501504Y-98044000D01*
X133481542Y-97854072D01*
X133481540Y-97854068D01*
X133480157Y-97840902D01*
X133481570Y-97840753D01*
X133478348Y-97799798D01*
X133500861Y-97745448D01*
X133545594Y-97707243D01*
X133602796Y-97693510D01*
X135353415Y-97693510D01*
X135401633Y-97703101D01*
X135442510Y-97730415D01*
X135704878Y-97992783D01*
X135729509Y-98027633D01*
X135741092Y-98068705D01*
X135749720Y-98150793D01*
X135758458Y-98233929D01*
X135817472Y-98415556D01*
X135912958Y-98580942D01*
X135985861Y-98661909D01*
X136040747Y-98722866D01*
X136195248Y-98835118D01*
X136369712Y-98912794D01*
X136556513Y-98952500D01*
X136612406Y-98952500D01*
X136660624Y-98962091D01*
X136701501Y-98989405D01*
X137973501Y-100261405D01*
X138004239Y-100311564D01*
X138008855Y-100370211D01*
X137986342Y-100424561D01*
X137941609Y-100462767D01*
X137884406Y-100476500D01*
X116039875Y-100476500D01*
X116019086Y-100474204D01*
X115948036Y-100476438D01*
X115944077Y-100476500D01*
X115916161Y-100476500D01*
X115912145Y-100477007D01*
X115900326Y-100477937D01*
X115856133Y-100479326D01*
X115836680Y-100484978D01*
X115817326Y-100488986D01*
X115797227Y-100491525D01*
X115783112Y-100497113D01*
X115756113Y-100507802D01*
X115744896Y-100511643D01*
X115702429Y-100523982D01*
X115684986Y-100534297D01*
X115667239Y-100542990D01*
X115648406Y-100550446D01*
X115612633Y-100576437D01*
X115602715Y-100582951D01*
X115564661Y-100605457D01*
X115550334Y-100619783D01*
X115535305Y-100632618D01*
X115518916Y-100644525D01*
X115490723Y-100678604D01*
X115482735Y-100687381D01*
X113269268Y-102900847D01*
X113212784Y-102933459D01*
X113147562Y-102933459D01*
X113084109Y-102916457D01*
X112856022Y-102896502D01*
X112627934Y-102916457D01*
X112406778Y-102975715D01*
X112199271Y-103072477D01*
X112011718Y-103203804D01*
X111849826Y-103365696D01*
X111718499Y-103553249D01*
X111621737Y-103760756D01*
X111562479Y-103981912D01*
X111542524Y-104210000D01*
X111562479Y-104438087D01*
X111621737Y-104659243D01*
X111718499Y-104866750D01*
X111849826Y-105054303D01*
X112011718Y-105216195D01*
X112011721Y-105216197D01*
X112011722Y-105216198D01*
X112199273Y-105347523D01*
X112234381Y-105363894D01*
X112238479Y-105365805D01*
X112291496Y-105412300D01*
X112311229Y-105480000D01*
X112291496Y-105547700D01*
X112238479Y-105594195D01*
X112199272Y-105612477D01*
X112011718Y-105743804D01*
X111849826Y-105905696D01*
X111718499Y-106093249D01*
X111621737Y-106300756D01*
X111562479Y-106521912D01*
X111542524Y-106750000D01*
X111562479Y-106978087D01*
X111621737Y-107199243D01*
X111718499Y-107406750D01*
X111849826Y-107594303D01*
X112011718Y-107756195D01*
X112011721Y-107756197D01*
X112011722Y-107756198D01*
X112079049Y-107803341D01*
X112196996Y-107885929D01*
X112199273Y-107887523D01*
X112238479Y-107905805D01*
X112291495Y-107952298D01*
X112311229Y-108019997D01*
X112291497Y-108087697D01*
X112238481Y-108134193D01*
X112199273Y-108152476D01*
X112011718Y-108283804D01*
X111849826Y-108445696D01*
X111718499Y-108633249D01*
X111621737Y-108840756D01*
X111562479Y-109061912D01*
X111542524Y-109290000D01*
X111562479Y-109518087D01*
X111621737Y-109739243D01*
X111718499Y-109946750D01*
X111849826Y-110134303D01*
X112011718Y-110296195D01*
X112011721Y-110296197D01*
X112011722Y-110296198D01*
X112199273Y-110427523D01*
X112238479Y-110445805D01*
X112291495Y-110492298D01*
X112311229Y-110559997D01*
X112291497Y-110627697D01*
X112238481Y-110674193D01*
X112199273Y-110692476D01*
X112011718Y-110823804D01*
X111849826Y-110985696D01*
X111718499Y-111173249D01*
X111621737Y-111380756D01*
X111562479Y-111601912D01*
X111542524Y-111830000D01*
X111562479Y-112058087D01*
X111621737Y-112279243D01*
X111718499Y-112486750D01*
X111849826Y-112674303D01*
X112011718Y-112836195D01*
X112199271Y-112967522D01*
X112406778Y-113064284D01*
X112466037Y-113080162D01*
X112627935Y-113123543D01*
X112856022Y-113143498D01*
X113084109Y-113123543D01*
X113305265Y-113064284D01*
X113512771Y-112967523D01*
X113700322Y-112836198D01*
X113862220Y-112674300D01*
X113993545Y-112486749D01*
X114090306Y-112279243D01*
X114135655Y-112109999D01*
X195223187Y-112109999D01*
X195242510Y-112503326D01*
X195300292Y-112892860D01*
X195395980Y-113274871D01*
X195528643Y-113645636D01*
X195697019Y-114001638D01*
X195899473Y-114339413D01*
X196134058Y-114655715D01*
X196227737Y-114759073D01*
X196227738Y-114759073D01*
X198876812Y-112110001D01*
X199595232Y-112110001D01*
X202244304Y-114759073D01*
X202244305Y-114759073D01*
X202337984Y-114655715D01*
X202572570Y-114339413D01*
X202775024Y-114001638D01*
X202943400Y-113645636D01*
X203076063Y-113274871D01*
X203171751Y-112892860D01*
X203229533Y-112503326D01*
X203248856Y-112109999D01*
X203229533Y-111716673D01*
X203171751Y-111327139D01*
X203076063Y-110945128D01*
X202943400Y-110574363D01*
X202775024Y-110218361D01*
X202572570Y-109880586D01*
X202337985Y-109564284D01*
X202244305Y-109460925D01*
X199595232Y-112109999D01*
X199595232Y-112110001D01*
X198876812Y-112110001D01*
X198876812Y-112109999D01*
X196227738Y-109460925D01*
X196227737Y-109460925D01*
X196134058Y-109564284D01*
X195899473Y-109880586D01*
X195697019Y-110218361D01*
X195528643Y-110574363D01*
X195395980Y-110945128D01*
X195300292Y-111327139D01*
X195242510Y-111716673D01*
X195223187Y-112109999D01*
X114135655Y-112109999D01*
X114149565Y-112058087D01*
X114169520Y-111830000D01*
X114149565Y-111601913D01*
X114090306Y-111380757D01*
X113993545Y-111173251D01*
X113987899Y-111165188D01*
X113885187Y-111018500D01*
X113862220Y-110985700D01*
X113862219Y-110985699D01*
X113862217Y-110985696D01*
X113700325Y-110823804D01*
X113512770Y-110692476D01*
X113473565Y-110674195D01*
X113420547Y-110627700D01*
X113400814Y-110560000D01*
X113420547Y-110492300D01*
X113473565Y-110445805D01*
X113478185Y-110443650D01*
X113512771Y-110427523D01*
X113700322Y-110296198D01*
X113862220Y-110134300D01*
X113972203Y-109977227D01*
X114017235Y-109937737D01*
X114075415Y-109923500D01*
X116144703Y-109923500D01*
X116202883Y-109937737D01*
X116247915Y-109977229D01*
X116326721Y-110089776D01*
X116455306Y-110218361D01*
X116476245Y-110239300D01*
X116649462Y-110360588D01*
X116649463Y-110360588D01*
X116649464Y-110360589D01*
X116841112Y-110449956D01*
X117045367Y-110504686D01*
X117256022Y-110523116D01*
X117466677Y-110504686D01*
X117670932Y-110449956D01*
X117862580Y-110360589D01*
X117912982Y-110325297D01*
X121679934Y-110325297D01*
X121729713Y-110360153D01*
X121921283Y-110449484D01*
X122125453Y-110504191D01*
X122336022Y-110522613D01*
X122546590Y-110504191D01*
X122599551Y-110490000D01*
X132436496Y-110490000D01*
X132439977Y-110523116D01*
X132456458Y-110679929D01*
X132515472Y-110861556D01*
X132610958Y-111026942D01*
X132610960Y-111026944D01*
X132738747Y-111168866D01*
X132893248Y-111281118D01*
X133067712Y-111358794D01*
X133254513Y-111398500D01*
X133445485Y-111398500D01*
X133445487Y-111398500D01*
X133632288Y-111358794D01*
X133806752Y-111281118D01*
X133961253Y-111168866D01*
X133964564Y-111165188D01*
X134006952Y-111134393D01*
X134058200Y-111123500D01*
X161772169Y-111123500D01*
X161792957Y-111125795D01*
X161795929Y-111125701D01*
X161795931Y-111125702D01*
X161864007Y-111123562D01*
X161867967Y-111123500D01*
X161895874Y-111123500D01*
X161895878Y-111123500D01*
X161899887Y-111122993D01*
X161911721Y-111122061D01*
X161955911Y-111120673D01*
X161975360Y-111115021D01*
X161994720Y-111111012D01*
X162014819Y-111108474D01*
X162055937Y-111092193D01*
X162067139Y-111088357D01*
X162109615Y-111076018D01*
X162127061Y-111065699D01*
X162144802Y-111057009D01*
X162163639Y-111049552D01*
X162167229Y-111046942D01*
X162173256Y-111042565D01*
X162208381Y-111024667D01*
X162247318Y-111018500D01*
X162331507Y-111018500D01*
X162331509Y-111018500D01*
X162518310Y-110978794D01*
X162692774Y-110901118D01*
X162847275Y-110788866D01*
X162975062Y-110646944D01*
X163070549Y-110481556D01*
X163129564Y-110299928D01*
X163149526Y-110110000D01*
X163129564Y-109920072D01*
X163088777Y-109794543D01*
X163070549Y-109738443D01*
X162975063Y-109573057D01*
X162847274Y-109431133D01*
X162782177Y-109383837D01*
X162693535Y-109319435D01*
X162653589Y-109271148D01*
X162641846Y-109209588D01*
X162661212Y-109149986D01*
X162706896Y-109107085D01*
X162727807Y-109101716D01*
X196586947Y-109101716D01*
X199236021Y-111750790D01*
X199236023Y-111750790D01*
X201885095Y-109101716D01*
X201885095Y-109101715D01*
X201781737Y-109008036D01*
X201465435Y-108773451D01*
X201127660Y-108570997D01*
X200771658Y-108402621D01*
X200400893Y-108269958D01*
X200018882Y-108174270D01*
X199629348Y-108116488D01*
X199236022Y-108097165D01*
X198842695Y-108116488D01*
X198453161Y-108174270D01*
X198071150Y-108269958D01*
X197700385Y-108402621D01*
X197344383Y-108570997D01*
X197006608Y-108773451D01*
X196690306Y-109008036D01*
X196586947Y-109101715D01*
X196586947Y-109101716D01*
X162727807Y-109101716D01*
X162767597Y-109091500D01*
X171874147Y-109091500D01*
X171894935Y-109093795D01*
X171897907Y-109093701D01*
X171897909Y-109093702D01*
X171965985Y-109091562D01*
X171969945Y-109091500D01*
X171997852Y-109091500D01*
X171997856Y-109091500D01*
X172001865Y-109090993D01*
X172013699Y-109090061D01*
X172057889Y-109088673D01*
X172077338Y-109083021D01*
X172096698Y-109079012D01*
X172116797Y-109076474D01*
X172157915Y-109060193D01*
X172169117Y-109056357D01*
X172211593Y-109044018D01*
X172229039Y-109033699D01*
X172246780Y-109025009D01*
X172265617Y-109017552D01*
X172301392Y-108991558D01*
X172311303Y-108985048D01*
X172349362Y-108962542D01*
X172363691Y-108948212D01*
X172378719Y-108935377D01*
X172395107Y-108923472D01*
X172423298Y-108889393D01*
X172431268Y-108880634D01*
X172670499Y-108641404D01*
X172711377Y-108614091D01*
X172759595Y-108604500D01*
X172815485Y-108604500D01*
X172815487Y-108604500D01*
X173002288Y-108564794D01*
X173176752Y-108487118D01*
X173331253Y-108374866D01*
X173459040Y-108232944D01*
X173554527Y-108067556D01*
X173613542Y-107885928D01*
X173633504Y-107696000D01*
X173613542Y-107506072D01*
X173578335Y-107397718D01*
X173554527Y-107324443D01*
X173459041Y-107159057D01*
X173331252Y-107017133D01*
X173254002Y-106961007D01*
X173176752Y-106904882D01*
X173002288Y-106827206D01*
X172815487Y-106787500D01*
X172624513Y-106787500D01*
X172499979Y-106813970D01*
X172437711Y-106827206D01*
X172263246Y-106904883D01*
X172108747Y-107017133D01*
X171980958Y-107159057D01*
X171885472Y-107324443D01*
X171826458Y-107506070D01*
X171809093Y-107671291D01*
X171797509Y-107712364D01*
X171772880Y-107747214D01*
X171732501Y-107787594D01*
X171691623Y-107814909D01*
X171643404Y-107824500D01*
X153476595Y-107824500D01*
X153428377Y-107814909D01*
X153387500Y-107787595D01*
X153058405Y-107458500D01*
X153031091Y-107417623D01*
X153021500Y-107369405D01*
X153021500Y-106350493D01*
X153037500Y-106289043D01*
X153081437Y-106243200D01*
X153087042Y-106239749D01*
X153222005Y-106156649D01*
X153400582Y-105999481D01*
X153550029Y-105814394D01*
X153666046Y-105606713D01*
X153674590Y-105582533D01*
X153705936Y-105493813D01*
X153711298Y-105478638D01*
X161173522Y-105478638D01*
X161180033Y-105539201D01*
X161194693Y-105578506D01*
X161231133Y-105676205D01*
X161318760Y-105793261D01*
X161435816Y-105880888D01*
X161435817Y-105880888D01*
X161435818Y-105880889D01*
X161572821Y-105931989D01*
X161633384Y-105938500D01*
X163430660Y-105938500D01*
X163491223Y-105931989D01*
X163628226Y-105880889D01*
X163745283Y-105793261D01*
X163832911Y-105676204D01*
X163877021Y-105557941D01*
X163913552Y-105505903D01*
X163970843Y-105478327D01*
X164034304Y-105482237D01*
X164087775Y-105516636D01*
X164148439Y-105582533D01*
X164148784Y-105582908D01*
X164326443Y-105721187D01*
X164326446Y-105721189D01*
X164524448Y-105828342D01*
X164737387Y-105901444D01*
X164959453Y-105938500D01*
X165184588Y-105938500D01*
X165184591Y-105938500D01*
X165406657Y-105901444D01*
X165619596Y-105828342D01*
X165817598Y-105721189D01*
X165995262Y-105582906D01*
X166147744Y-105417268D01*
X166236540Y-105281354D01*
X166282053Y-105239458D01*
X166342022Y-105224272D01*
X166401991Y-105239458D01*
X166447503Y-105281354D01*
X166536300Y-105417268D01*
X166684731Y-105578506D01*
X166688784Y-105582908D01*
X166866443Y-105721187D01*
X166866446Y-105721189D01*
X167064448Y-105828342D01*
X167277387Y-105901444D01*
X167499453Y-105938500D01*
X167724588Y-105938500D01*
X167724591Y-105938500D01*
X167946657Y-105901444D01*
X168159596Y-105828342D01*
X168357598Y-105721189D01*
X168535262Y-105582906D01*
X168687744Y-105417268D01*
X168776840Y-105280896D01*
X168822351Y-105238999D01*
X168882321Y-105223813D01*
X168942290Y-105238999D01*
X168987804Y-105280897D01*
X169076700Y-105416962D01*
X169229118Y-105582533D01*
X169406719Y-105720766D01*
X169604653Y-105827883D01*
X169817507Y-105900955D01*
X169898022Y-105914391D01*
X170406022Y-105914391D01*
X170486536Y-105900955D01*
X170699390Y-105827883D01*
X170897324Y-105720766D01*
X171074925Y-105582533D01*
X171227345Y-105416960D01*
X171316239Y-105280899D01*
X171361752Y-105239000D01*
X171421722Y-105223814D01*
X171481691Y-105239000D01*
X171527205Y-105280898D01*
X171616300Y-105417268D01*
X171764731Y-105578506D01*
X171768784Y-105582908D01*
X171946443Y-105721187D01*
X171946446Y-105721189D01*
X172144448Y-105828342D01*
X172357387Y-105901444D01*
X172579453Y-105938500D01*
X172804588Y-105938500D01*
X172804591Y-105938500D01*
X173026657Y-105901444D01*
X173239596Y-105828342D01*
X173437598Y-105721189D01*
X173615262Y-105582906D01*
X173767744Y-105417268D01*
X173890882Y-105228791D01*
X173981318Y-105022616D01*
X174036586Y-104804368D01*
X174055178Y-104580000D01*
X174049709Y-104514000D01*
X177809940Y-104514000D01*
X177862208Y-104709070D01*
X177958934Y-104916498D01*
X178090211Y-105103981D01*
X178252040Y-105265810D01*
X178439523Y-105397087D01*
X178646951Y-105493813D01*
X178842022Y-105546082D01*
X178842022Y-104514000D01*
X179350022Y-104514000D01*
X179350022Y-105546082D01*
X179545092Y-105493813D01*
X179752520Y-105397087D01*
X179940003Y-105265810D01*
X180101832Y-105103981D01*
X180233109Y-104916498D01*
X180329835Y-104709070D01*
X180382104Y-104514000D01*
X179350022Y-104514000D01*
X178842022Y-104514000D01*
X177809940Y-104514000D01*
X174049709Y-104514000D01*
X174036586Y-104355632D01*
X174012369Y-104260000D01*
X185402524Y-104260000D01*
X185422479Y-104488087D01*
X185481737Y-104709243D01*
X185578499Y-104916750D01*
X185709826Y-105104303D01*
X185871718Y-105266195D01*
X186059271Y-105397522D01*
X186266778Y-105494284D01*
X186310141Y-105505903D01*
X186487935Y-105553543D01*
X186716022Y-105573498D01*
X186944109Y-105553543D01*
X187165265Y-105494284D01*
X187372771Y-105397523D01*
X187560322Y-105266198D01*
X187722220Y-105104300D01*
X187853545Y-104916749D01*
X187950306Y-104709243D01*
X188009565Y-104488087D01*
X188029520Y-104260000D01*
X188009565Y-104031913D01*
X187961688Y-103853235D01*
X187950306Y-103810756D01*
X187853544Y-103603249D01*
X187738403Y-103438812D01*
X187722220Y-103415700D01*
X187722219Y-103415699D01*
X187722217Y-103415696D01*
X187560325Y-103253804D01*
X187372772Y-103122477D01*
X187165265Y-103025715D01*
X186944109Y-102966457D01*
X186716022Y-102946502D01*
X186487934Y-102966457D01*
X186266778Y-103025715D01*
X186059271Y-103122477D01*
X185871718Y-103253804D01*
X185709826Y-103415696D01*
X185578499Y-103603249D01*
X185481737Y-103810756D01*
X185422479Y-104031912D01*
X185402524Y-104260000D01*
X174012369Y-104260000D01*
X173981318Y-104137384D01*
X173923688Y-104006000D01*
X177809939Y-104006000D01*
X178842022Y-104006000D01*
X178842022Y-102973917D01*
X179350021Y-102973917D01*
X179350022Y-102973918D01*
X179350022Y-104006000D01*
X180382104Y-104006000D01*
X180329835Y-103810929D01*
X180233109Y-103603501D01*
X180101832Y-103416018D01*
X179940003Y-103254189D01*
X179752520Y-103122912D01*
X179545092Y-103026186D01*
X179350021Y-102973917D01*
X178842022Y-102973917D01*
X178646951Y-103026186D01*
X178439523Y-103122912D01*
X178252040Y-103254189D01*
X178090211Y-103416018D01*
X177958934Y-103603501D01*
X177862208Y-103810929D01*
X177809939Y-104006000D01*
X173923688Y-104006000D01*
X173890882Y-103931209D01*
X173767744Y-103742732D01*
X173615262Y-103577094D01*
X173615261Y-103577093D01*
X173615259Y-103577091D01*
X173437600Y-103438812D01*
X173239595Y-103331657D01*
X173086532Y-103279111D01*
X173026657Y-103258556D01*
X172804591Y-103221500D01*
X172579453Y-103221500D01*
X172357387Y-103258556D01*
X172357384Y-103258556D01*
X172357384Y-103258557D01*
X172144448Y-103331657D01*
X171946443Y-103438812D01*
X171768784Y-103577091D01*
X171616297Y-103742735D01*
X171527204Y-103879101D01*
X171481691Y-103920999D01*
X171421722Y-103936185D01*
X171361753Y-103920999D01*
X171316239Y-103879101D01*
X171227343Y-103743037D01*
X171074925Y-103577466D01*
X170897324Y-103439233D01*
X170699390Y-103332116D01*
X170486536Y-103259044D01*
X170406022Y-103245609D01*
X170406022Y-105914391D01*
X169898022Y-105914391D01*
X169898022Y-103245609D01*
X169817507Y-103259044D01*
X169604653Y-103332116D01*
X169406719Y-103439233D01*
X169229118Y-103577466D01*
X169076700Y-103743037D01*
X168987804Y-103879102D01*
X168942290Y-103921000D01*
X168882321Y-103936186D01*
X168822351Y-103921000D01*
X168776838Y-103879101D01*
X168759939Y-103853235D01*
X168687744Y-103742732D01*
X168535262Y-103577094D01*
X168535261Y-103577093D01*
X168535259Y-103577091D01*
X168357600Y-103438812D01*
X168159595Y-103331657D01*
X168006532Y-103279111D01*
X167946657Y-103258556D01*
X167724591Y-103221500D01*
X167499453Y-103221500D01*
X167277387Y-103258556D01*
X167277384Y-103258556D01*
X167277384Y-103258557D01*
X167064448Y-103331657D01*
X166866443Y-103438812D01*
X166688784Y-103577091D01*
X166536300Y-103742731D01*
X166447505Y-103878643D01*
X166401991Y-103920541D01*
X166342022Y-103935727D01*
X166282053Y-103920541D01*
X166236539Y-103878643D01*
X166184998Y-103799754D01*
X166147744Y-103742732D01*
X165995262Y-103577094D01*
X165995261Y-103577093D01*
X165995259Y-103577091D01*
X165817600Y-103438812D01*
X165619595Y-103331657D01*
X165466532Y-103279111D01*
X165406657Y-103258556D01*
X165184591Y-103221500D01*
X164959453Y-103221500D01*
X164737387Y-103258556D01*
X164737384Y-103258556D01*
X164737384Y-103258557D01*
X164524448Y-103331657D01*
X164326443Y-103438812D01*
X164148780Y-103577094D01*
X164087776Y-103643362D01*
X164034304Y-103677762D01*
X163970842Y-103681672D01*
X163913552Y-103654096D01*
X163877020Y-103602056D01*
X163867710Y-103577094D01*
X163832911Y-103483796D01*
X163831271Y-103481605D01*
X163745283Y-103366738D01*
X163628227Y-103279111D01*
X163559724Y-103253561D01*
X163491223Y-103228011D01*
X163430660Y-103221500D01*
X161633384Y-103221500D01*
X161572821Y-103228011D01*
X161435816Y-103279111D01*
X161318760Y-103366738D01*
X161231133Y-103483794D01*
X161194139Y-103582979D01*
X161180033Y-103620799D01*
X161173522Y-103681362D01*
X161173522Y-105478638D01*
X153711298Y-105478638D01*
X153745297Y-105382413D01*
X153785500Y-105147945D01*
X153785500Y-104207630D01*
X153770379Y-104029967D01*
X153764138Y-104006000D01*
X153742006Y-103920999D01*
X153710436Y-103799754D01*
X153612449Y-103582982D01*
X153479236Y-103385888D01*
X153314631Y-103214142D01*
X153314630Y-103214141D01*
X153314628Y-103214139D01*
X153123373Y-103072687D01*
X152931041Y-102975715D01*
X152910951Y-102965586D01*
X152910950Y-102965585D01*
X152910947Y-102965584D01*
X152683487Y-102895926D01*
X152447526Y-102865710D01*
X152209853Y-102875806D01*
X151977301Y-102925924D01*
X151756564Y-103014624D01*
X151553992Y-103139352D01*
X151375419Y-103296517D01*
X151225971Y-103481605D01*
X151109952Y-103689288D01*
X151030704Y-103913582D01*
X151030703Y-103913586D01*
X151030703Y-103913587D01*
X151010415Y-104031913D01*
X150990500Y-104148057D01*
X150990500Y-105088371D01*
X151005620Y-105266033D01*
X151052034Y-105444284D01*
X151065564Y-105496246D01*
X151155823Y-105695921D01*
X151163552Y-105713020D01*
X151182793Y-105741487D01*
X151296764Y-105910112D01*
X151441313Y-106060932D01*
X151461371Y-106081860D01*
X151652628Y-106223314D01*
X151685225Y-106239749D01*
X151735793Y-106286195D01*
X151754500Y-106352258D01*
X151754500Y-107600147D01*
X151752204Y-107620935D01*
X151754438Y-107691986D01*
X151754500Y-107695945D01*
X151754500Y-107723857D01*
X151755007Y-107727873D01*
X151755937Y-107739696D01*
X151757326Y-107783892D01*
X151762977Y-107803341D01*
X151766986Y-107822696D01*
X151769525Y-107842794D01*
X151785801Y-107883903D01*
X151789644Y-107895130D01*
X151801980Y-107937590D01*
X151812294Y-107955030D01*
X151820987Y-107972774D01*
X151828448Y-107991617D01*
X151828449Y-107991619D01*
X151854431Y-108027380D01*
X151860948Y-108037301D01*
X151883458Y-108075363D01*
X151897778Y-108089683D01*
X151910618Y-108104716D01*
X151922526Y-108121105D01*
X151922527Y-108121106D01*
X151922528Y-108121107D01*
X151938349Y-108134195D01*
X151956598Y-108149292D01*
X151965378Y-108157282D01*
X152654751Y-108846655D01*
X152667834Y-108862985D01*
X152719665Y-108911656D01*
X152722477Y-108914381D01*
X152742230Y-108934134D01*
X152743826Y-108935372D01*
X152745424Y-108936612D01*
X152754444Y-108944316D01*
X152786679Y-108974586D01*
X152804435Y-108984347D01*
X152820951Y-108995196D01*
X152836959Y-109007613D01*
X152877153Y-109025006D01*
X152877525Y-109025167D01*
X152888188Y-109030391D01*
X152926935Y-109051693D01*
X152926937Y-109051693D01*
X152926940Y-109051695D01*
X152946574Y-109056736D01*
X152965259Y-109063134D01*
X152983855Y-109071181D01*
X153027530Y-109078098D01*
X153039125Y-109080498D01*
X153081970Y-109091500D01*
X153102224Y-109091500D01*
X153121934Y-109093051D01*
X153141942Y-109096220D01*
X153141942Y-109096219D01*
X153141943Y-109096220D01*
X153185961Y-109092058D01*
X153197819Y-109091500D01*
X161704447Y-109091500D01*
X161765148Y-109107085D01*
X161810832Y-109149986D01*
X161830198Y-109209588D01*
X161818455Y-109271148D01*
X161778508Y-109319435D01*
X161736794Y-109349742D01*
X161624769Y-109431133D01*
X161496980Y-109573057D01*
X161401494Y-109738444D01*
X161391425Y-109769435D01*
X161365229Y-109814810D01*
X161322841Y-109845607D01*
X161271592Y-109856500D01*
X134058200Y-109856500D01*
X134006952Y-109845607D01*
X133964565Y-109814812D01*
X133961253Y-109811133D01*
X133839929Y-109722986D01*
X133806752Y-109698882D01*
X133632288Y-109621206D01*
X133445487Y-109581500D01*
X133254513Y-109581500D01*
X133129978Y-109607970D01*
X133067711Y-109621206D01*
X132893246Y-109698883D01*
X132738747Y-109811133D01*
X132610958Y-109953057D01*
X132515472Y-110118443D01*
X132456458Y-110300070D01*
X132441141Y-110445803D01*
X132436496Y-110490000D01*
X122599551Y-110490000D01*
X122750762Y-110449483D01*
X122942326Y-110360156D01*
X122992109Y-110325297D01*
X122992109Y-110325296D01*
X122336023Y-109669210D01*
X122336022Y-109669210D01*
X121679934Y-110325296D01*
X121679934Y-110325297D01*
X117912982Y-110325297D01*
X118035798Y-110239301D01*
X118185323Y-110089776D01*
X118306611Y-109916558D01*
X118395978Y-109724910D01*
X118450708Y-109520655D01*
X118469138Y-109310000D01*
X121123408Y-109310000D01*
X121141830Y-109520568D01*
X121196537Y-109724738D01*
X121285868Y-109916308D01*
X121320723Y-109966086D01*
X121320724Y-109966086D01*
X121976811Y-109310001D01*
X122695232Y-109310001D01*
X123351318Y-109966087D01*
X123351319Y-109966087D01*
X123386178Y-109916304D01*
X123475505Y-109724740D01*
X123530213Y-109520568D01*
X123548635Y-109310000D01*
X123530213Y-109099431D01*
X123475506Y-108895261D01*
X123386175Y-108703691D01*
X123351319Y-108653912D01*
X123351318Y-108653912D01*
X122695232Y-109310000D01*
X122695232Y-109310001D01*
X121976811Y-109310001D01*
X121976812Y-109310000D01*
X121976812Y-109309999D01*
X121320725Y-108653912D01*
X121320724Y-108653912D01*
X121285867Y-108703693D01*
X121196537Y-108895262D01*
X121141830Y-109099431D01*
X121123408Y-109310000D01*
X118469138Y-109310000D01*
X118450708Y-109099345D01*
X118395978Y-108895090D01*
X118306611Y-108703442D01*
X118267026Y-108646909D01*
X118185320Y-108530220D01*
X118035801Y-108380701D01*
X117912983Y-108294703D01*
X121679934Y-108294703D01*
X122336021Y-108950790D01*
X122336022Y-108950790D01*
X122992108Y-108294702D01*
X122992108Y-108294701D01*
X122942330Y-108259846D01*
X122750760Y-108170515D01*
X122546590Y-108115808D01*
X122336022Y-108097386D01*
X122125453Y-108115808D01*
X121921284Y-108170515D01*
X121729715Y-108259845D01*
X121679934Y-108294702D01*
X121679934Y-108294703D01*
X117912983Y-108294703D01*
X117862581Y-108259411D01*
X117670931Y-108170043D01*
X117466677Y-108115314D01*
X117256022Y-108096884D01*
X117045366Y-108115314D01*
X116841112Y-108170043D01*
X116649462Y-108259411D01*
X116476242Y-108380701D01*
X116326725Y-108530218D01*
X116326720Y-108530224D01*
X116326721Y-108530224D01*
X116275922Y-108602772D01*
X116230892Y-108642263D01*
X116172711Y-108656500D01*
X114075415Y-108656500D01*
X114017235Y-108642263D01*
X113972203Y-108602772D01*
X113862220Y-108445700D01*
X113862219Y-108445699D01*
X113862217Y-108445696D01*
X113700325Y-108283804D01*
X113512770Y-108152476D01*
X113473565Y-108134195D01*
X113420547Y-108087700D01*
X113400814Y-108020000D01*
X113420547Y-107952300D01*
X113473565Y-107905805D01*
X113478185Y-107903650D01*
X113512771Y-107887523D01*
X113700322Y-107756198D01*
X113862220Y-107594300D01*
X113993545Y-107406749D01*
X114090306Y-107199243D01*
X114149565Y-106978087D01*
X114169520Y-106750000D01*
X114149565Y-106521913D01*
X114095304Y-106319409D01*
X114090306Y-106300756D01*
X113993544Y-106093249D01*
X113880627Y-105931988D01*
X113862220Y-105905700D01*
X113862219Y-105905699D01*
X113862217Y-105905696D01*
X113700325Y-105743804D01*
X113512770Y-105612476D01*
X113473565Y-105594195D01*
X113420547Y-105547700D01*
X113400814Y-105480000D01*
X113420547Y-105412300D01*
X113473565Y-105365805D01*
X113478185Y-105363650D01*
X113512771Y-105347523D01*
X113566359Y-105310000D01*
X117522524Y-105310000D01*
X117542479Y-105538087D01*
X117601737Y-105759243D01*
X117698499Y-105966750D01*
X117829826Y-106154303D01*
X117991718Y-106316195D01*
X117991721Y-106316197D01*
X117991722Y-106316198D01*
X118012026Y-106330415D01*
X118179271Y-106447522D01*
X118386778Y-106544284D01*
X118446036Y-106560162D01*
X118607935Y-106603543D01*
X118836022Y-106623498D01*
X119064109Y-106603543D01*
X119285265Y-106544284D01*
X119492771Y-106447523D01*
X119564782Y-106397100D01*
X120608132Y-106397100D01*
X120679519Y-106447085D01*
X120886951Y-106543813D01*
X121108022Y-106603048D01*
X121336022Y-106622995D01*
X121564021Y-106603048D01*
X121785092Y-106543813D01*
X121992520Y-106447087D01*
X122063910Y-106397099D01*
X122063910Y-106397097D01*
X121336023Y-105669210D01*
X121336022Y-105669210D01*
X120608132Y-106397098D01*
X120608132Y-106397100D01*
X119564782Y-106397100D01*
X119680322Y-106316198D01*
X119842220Y-106154300D01*
X119973545Y-105966749D01*
X119973544Y-105966749D01*
X119979868Y-105957719D01*
X119981644Y-105958962D01*
X120018593Y-105916826D01*
X120086294Y-105897090D01*
X120153996Y-105916822D01*
X120190772Y-105958756D01*
X120192612Y-105957468D01*
X120248922Y-106037887D01*
X120976811Y-105310001D01*
X121695232Y-105310001D01*
X122423119Y-106037888D01*
X122423121Y-106037888D01*
X122473011Y-105966638D01*
X131190500Y-105966638D01*
X131194723Y-106005923D01*
X131197011Y-106027200D01*
X131248111Y-106164205D01*
X131335738Y-106281261D01*
X131452794Y-106368888D01*
X131452795Y-106368888D01*
X131452796Y-106368889D01*
X131589799Y-106419989D01*
X131650362Y-106426500D01*
X133525638Y-106426500D01*
X133586201Y-106419989D01*
X133723204Y-106368889D01*
X133840261Y-106281261D01*
X133927889Y-106164204D01*
X133978989Y-106027201D01*
X133985500Y-105966638D01*
X133985500Y-105088371D01*
X135150500Y-105088371D01*
X135165620Y-105266033D01*
X135212034Y-105444284D01*
X135225564Y-105496246D01*
X135315823Y-105695921D01*
X135323552Y-105713020D01*
X135342793Y-105741487D01*
X135456764Y-105910112D01*
X135601313Y-106060932D01*
X135621371Y-106081860D01*
X135812626Y-106223312D01*
X135812628Y-106223313D01*
X135812631Y-106223315D01*
X136025049Y-106330414D01*
X136252511Y-106400073D01*
X136370492Y-106415180D01*
X136488473Y-106430289D01*
X136488473Y-106430288D01*
X136488474Y-106430289D01*
X136726149Y-106420193D01*
X136958699Y-106370075D01*
X137179435Y-106281376D01*
X137382005Y-106156649D01*
X137560582Y-105999481D01*
X137710029Y-105814394D01*
X137826046Y-105606713D01*
X137834590Y-105582533D01*
X137865936Y-105493813D01*
X137905297Y-105382413D01*
X137945500Y-105147945D01*
X137945500Y-105088371D01*
X139110500Y-105088371D01*
X139125620Y-105266033D01*
X139172034Y-105444284D01*
X139185564Y-105496246D01*
X139275823Y-105695921D01*
X139283552Y-105713020D01*
X139302793Y-105741487D01*
X139416764Y-105910112D01*
X139561313Y-106060932D01*
X139581371Y-106081860D01*
X139772626Y-106223312D01*
X139772628Y-106223313D01*
X139772631Y-106223315D01*
X139985049Y-106330414D01*
X140212511Y-106400073D01*
X140330492Y-106415180D01*
X140448473Y-106430289D01*
X140448473Y-106430288D01*
X140448474Y-106430289D01*
X140686149Y-106420193D01*
X140918699Y-106370075D01*
X141139435Y-106281376D01*
X141342005Y-106156649D01*
X141513261Y-106005924D01*
X143469285Y-106005924D01*
X143541699Y-106081480D01*
X143732893Y-106222886D01*
X143945239Y-106329949D01*
X144172617Y-106399582D01*
X144408495Y-106429788D01*
X144646082Y-106419695D01*
X144878551Y-106369595D01*
X145099206Y-106280928D01*
X145301710Y-106156241D01*
X145469423Y-106008634D01*
X145469424Y-106008633D01*
X144468001Y-105007210D01*
X144467999Y-105007210D01*
X143469285Y-106005923D01*
X143469285Y-106005924D01*
X141513261Y-106005924D01*
X141520582Y-105999481D01*
X141670029Y-105814394D01*
X141786046Y-105606713D01*
X141794590Y-105582533D01*
X141825936Y-105493813D01*
X141865297Y-105382413D01*
X141905500Y-105147945D01*
X141905500Y-105088347D01*
X143071000Y-105088347D01*
X143086115Y-105265947D01*
X143146037Y-105496078D01*
X143181735Y-105575052D01*
X143181737Y-105575052D01*
X144108790Y-104648001D01*
X144827210Y-104648001D01*
X145756064Y-105576855D01*
X145824810Y-105382284D01*
X145865000Y-105147900D01*
X145865000Y-105088371D01*
X147030500Y-105088371D01*
X147045620Y-105266033D01*
X147092034Y-105444284D01*
X147105564Y-105496246D01*
X147195823Y-105695921D01*
X147203552Y-105713020D01*
X147222793Y-105741487D01*
X147336764Y-105910112D01*
X147481313Y-106060932D01*
X147501371Y-106081860D01*
X147692626Y-106223312D01*
X147692628Y-106223313D01*
X147692631Y-106223315D01*
X147905049Y-106330414D01*
X148132511Y-106400073D01*
X148250492Y-106415180D01*
X148368473Y-106430289D01*
X148368473Y-106430288D01*
X148368474Y-106430289D01*
X148606149Y-106420193D01*
X148838699Y-106370075D01*
X149059435Y-106281376D01*
X149262005Y-106156649D01*
X149440582Y-105999481D01*
X149590029Y-105814394D01*
X149706046Y-105606713D01*
X149714590Y-105582533D01*
X149745936Y-105493813D01*
X149785297Y-105382413D01*
X149825500Y-105147945D01*
X149825500Y-104207630D01*
X149810379Y-104029967D01*
X149804138Y-104006000D01*
X149782006Y-103920999D01*
X149750436Y-103799754D01*
X149652449Y-103582982D01*
X149519236Y-103385888D01*
X149354631Y-103214142D01*
X149354630Y-103214141D01*
X149354628Y-103214139D01*
X149163373Y-103072687D01*
X148971041Y-102975715D01*
X148950951Y-102965586D01*
X148950950Y-102965585D01*
X148950947Y-102965584D01*
X148723487Y-102895926D01*
X148487526Y-102865710D01*
X148249853Y-102875806D01*
X148017301Y-102925924D01*
X147796564Y-103014624D01*
X147593992Y-103139352D01*
X147415419Y-103296517D01*
X147265971Y-103481605D01*
X147149952Y-103689288D01*
X147070704Y-103913582D01*
X147070703Y-103913586D01*
X147070703Y-103913587D01*
X147050415Y-104031913D01*
X147030500Y-104148057D01*
X147030500Y-105088371D01*
X145865000Y-105088371D01*
X145865000Y-104207653D01*
X145849884Y-104030051D01*
X145789962Y-103799923D01*
X145754262Y-103720946D01*
X145754261Y-103720946D01*
X144827210Y-104647999D01*
X144827210Y-104648001D01*
X144108790Y-104648001D01*
X144108790Y-104647999D01*
X143179934Y-103719143D01*
X143111189Y-103913712D01*
X143071000Y-104148100D01*
X143071000Y-105088347D01*
X141905500Y-105088347D01*
X141905500Y-104207630D01*
X141890379Y-104029967D01*
X141884138Y-104006000D01*
X141862006Y-103920999D01*
X141830436Y-103799754D01*
X141732449Y-103582982D01*
X141599236Y-103385888D01*
X141504809Y-103287365D01*
X143466574Y-103287365D01*
X144467999Y-104288790D01*
X144468001Y-104288790D01*
X145466713Y-103290076D01*
X145466713Y-103290074D01*
X145394300Y-103214519D01*
X145203106Y-103073113D01*
X144990760Y-102966050D01*
X144763382Y-102896417D01*
X144527504Y-102866211D01*
X144289917Y-102876304D01*
X144057448Y-102926404D01*
X143836793Y-103015071D01*
X143634292Y-103139756D01*
X143466575Y-103287365D01*
X143466574Y-103287365D01*
X141504809Y-103287365D01*
X141434631Y-103214142D01*
X141434630Y-103214141D01*
X141434628Y-103214139D01*
X141243373Y-103072687D01*
X141051041Y-102975715D01*
X141030951Y-102965586D01*
X141030950Y-102965585D01*
X141030947Y-102965584D01*
X140803487Y-102895926D01*
X140567526Y-102865710D01*
X140329853Y-102875806D01*
X140097301Y-102925924D01*
X139876564Y-103014624D01*
X139673992Y-103139352D01*
X139495419Y-103296517D01*
X139345971Y-103481605D01*
X139229952Y-103689288D01*
X139150704Y-103913582D01*
X139150703Y-103913586D01*
X139150703Y-103913587D01*
X139130415Y-104031913D01*
X139110500Y-104148057D01*
X139110500Y-105088371D01*
X137945500Y-105088371D01*
X137945500Y-104207630D01*
X137930379Y-104029967D01*
X137924138Y-104006000D01*
X137902006Y-103920999D01*
X137870436Y-103799754D01*
X137772449Y-103582982D01*
X137639236Y-103385888D01*
X137474631Y-103214142D01*
X137474630Y-103214141D01*
X137474628Y-103214139D01*
X137283373Y-103072687D01*
X137091041Y-102975715D01*
X137070951Y-102965586D01*
X137070950Y-102965585D01*
X137070947Y-102965584D01*
X136843487Y-102895926D01*
X136607526Y-102865710D01*
X136369853Y-102875806D01*
X136137301Y-102925924D01*
X135916564Y-103014624D01*
X135713992Y-103139352D01*
X135535419Y-103296517D01*
X135385971Y-103481605D01*
X135269952Y-103689288D01*
X135190704Y-103913582D01*
X135190703Y-103913586D01*
X135190703Y-103913587D01*
X135170415Y-104031913D01*
X135150500Y-104148057D01*
X135150500Y-105088371D01*
X133985500Y-105088371D01*
X133985500Y-103329362D01*
X133978989Y-103268799D01*
X133927889Y-103131796D01*
X133920913Y-103122477D01*
X133840261Y-103014738D01*
X133723205Y-102927111D01*
X133639597Y-102895927D01*
X133586201Y-102876011D01*
X133525638Y-102869500D01*
X131650362Y-102869500D01*
X131589799Y-102876011D01*
X131452794Y-102927111D01*
X131335738Y-103014738D01*
X131248111Y-103131794D01*
X131202605Y-103253802D01*
X131197011Y-103268799D01*
X131190500Y-103329362D01*
X131190500Y-105966638D01*
X122473011Y-105966638D01*
X122473109Y-105966498D01*
X122569835Y-105759070D01*
X122629070Y-105537999D01*
X122649017Y-105309999D01*
X122629070Y-105082000D01*
X122569835Y-104860929D01*
X122473107Y-104653497D01*
X122423122Y-104582110D01*
X122423120Y-104582110D01*
X121695232Y-105310000D01*
X121695232Y-105310001D01*
X120976811Y-105310001D01*
X120976812Y-105310000D01*
X120976812Y-105309999D01*
X120248922Y-104582109D01*
X120192612Y-104662531D01*
X120190773Y-104661243D01*
X120153993Y-104703179D01*
X120086294Y-104722909D01*
X120018596Y-104703175D01*
X119981643Y-104661037D01*
X119979868Y-104662281D01*
X119876040Y-104514000D01*
X119842220Y-104465700D01*
X119842219Y-104465699D01*
X119842217Y-104465696D01*
X119680325Y-104303804D01*
X119564783Y-104222900D01*
X120608131Y-104222900D01*
X121336021Y-104950790D01*
X121336022Y-104950790D01*
X122063910Y-104222899D01*
X121992519Y-104172912D01*
X121785092Y-104076186D01*
X121564021Y-104016951D01*
X121336022Y-103997004D01*
X121108022Y-104016951D01*
X120886951Y-104076186D01*
X120679521Y-104172913D01*
X120608131Y-104222900D01*
X119564783Y-104222900D01*
X119492772Y-104172477D01*
X119285265Y-104075715D01*
X119064109Y-104016457D01*
X118836022Y-103996502D01*
X118607934Y-104016457D01*
X118386778Y-104075715D01*
X118179271Y-104172477D01*
X117991718Y-104303804D01*
X117829826Y-104465696D01*
X117698499Y-104653249D01*
X117601737Y-104860756D01*
X117542479Y-105081912D01*
X117522524Y-105310000D01*
X113566359Y-105310000D01*
X113700322Y-105216198D01*
X113862220Y-105054300D01*
X113993545Y-104866749D01*
X114090306Y-104659243D01*
X114149565Y-104438087D01*
X114169520Y-104210000D01*
X114149565Y-103981913D01*
X114132561Y-103918457D01*
X114132561Y-103853235D01*
X114165170Y-103796754D01*
X116181524Y-101780402D01*
X116222399Y-101753091D01*
X116270617Y-101743500D01*
X176475992Y-101743500D01*
X176595878Y-101743500D01*
X176982169Y-101743500D01*
X177002957Y-101745795D01*
X177005929Y-101745701D01*
X177005931Y-101745702D01*
X177074007Y-101743562D01*
X177077967Y-101743500D01*
X177105874Y-101743500D01*
X177105878Y-101743500D01*
X177109887Y-101742993D01*
X177121721Y-101742061D01*
X177165911Y-101740673D01*
X177185360Y-101735021D01*
X177204720Y-101731012D01*
X177224819Y-101728474D01*
X177265937Y-101712193D01*
X177277139Y-101708357D01*
X177319615Y-101696018D01*
X177337061Y-101685699D01*
X177354802Y-101677009D01*
X177373639Y-101669552D01*
X177409414Y-101643558D01*
X177419325Y-101637048D01*
X177457384Y-101614542D01*
X177471713Y-101600212D01*
X177486741Y-101587377D01*
X177503129Y-101575472D01*
X177531325Y-101541386D01*
X177539294Y-101532630D01*
X178612775Y-100459149D01*
X178669257Y-100426539D01*
X178734479Y-100426539D01*
X178797935Y-100443543D01*
X179026022Y-100463498D01*
X179254109Y-100443543D01*
X179475265Y-100384284D01*
X179682771Y-100287523D01*
X179870322Y-100156198D01*
X180032220Y-99994300D01*
X180163545Y-99806749D01*
X180260306Y-99599243D01*
X180319565Y-99378087D01*
X180339520Y-99150000D01*
X180339520Y-99149999D01*
X185332524Y-99149999D01*
X185352479Y-99378087D01*
X185411737Y-99599243D01*
X185508499Y-99806750D01*
X185639826Y-99994303D01*
X185801718Y-100156195D01*
X185989271Y-100287522D01*
X186196778Y-100384284D01*
X186256037Y-100400162D01*
X186417935Y-100443543D01*
X186646022Y-100463498D01*
X186874109Y-100443543D01*
X187095265Y-100384284D01*
X187302771Y-100287523D01*
X187490322Y-100156198D01*
X187652220Y-99994300D01*
X187783545Y-99806749D01*
X187880306Y-99599243D01*
X187939565Y-99378087D01*
X187959520Y-99150000D01*
X187939565Y-98921913D01*
X187881881Y-98706634D01*
X187880306Y-98700756D01*
X187783544Y-98493249D01*
X187652217Y-98305696D01*
X187490325Y-98143804D01*
X187404917Y-98084000D01*
X198418022Y-98084000D01*
X198418022Y-99178589D01*
X198424527Y-99239093D01*
X198475576Y-99375962D01*
X198563117Y-99492904D01*
X198680059Y-99580445D01*
X198816928Y-99631494D01*
X198877433Y-99638000D01*
X199972022Y-99638000D01*
X199972022Y-98084000D01*
X200480022Y-98084000D01*
X200480022Y-99638000D01*
X201574611Y-99638000D01*
X201635115Y-99631494D01*
X201771984Y-99580445D01*
X201888926Y-99492904D01*
X201976467Y-99375962D01*
X202027516Y-99239093D01*
X202034022Y-99178589D01*
X202034022Y-98084000D01*
X200480022Y-98084000D01*
X199972022Y-98084000D01*
X198418022Y-98084000D01*
X187404917Y-98084000D01*
X187302772Y-98012477D01*
X187095265Y-97915715D01*
X186874109Y-97856457D01*
X186646022Y-97836502D01*
X186417934Y-97856457D01*
X186196778Y-97915715D01*
X185989271Y-98012477D01*
X185801718Y-98143804D01*
X185639826Y-98305696D01*
X185508499Y-98493249D01*
X185411737Y-98700756D01*
X185352479Y-98921912D01*
X185332524Y-99149999D01*
X180339520Y-99149999D01*
X180319565Y-98921913D01*
X180302561Y-98858457D01*
X180302561Y-98793235D01*
X180335171Y-98736753D01*
X181495924Y-97576000D01*
X198418022Y-97576000D01*
X199972022Y-97576000D01*
X199972022Y-96022000D01*
X200480022Y-96022000D01*
X200480022Y-97576000D01*
X202034022Y-97576000D01*
X202034022Y-96481411D01*
X202027516Y-96420906D01*
X201976467Y-96284037D01*
X201888926Y-96167095D01*
X201771984Y-96079554D01*
X201635115Y-96028505D01*
X201574611Y-96022000D01*
X200480022Y-96022000D01*
X199972022Y-96022000D01*
X198877433Y-96022000D01*
X198816928Y-96028505D01*
X198680059Y-96079554D01*
X198563117Y-96167095D01*
X198475576Y-96284037D01*
X198424527Y-96420906D01*
X198418022Y-96481411D01*
X198418022Y-97576000D01*
X181495924Y-97576000D01*
X185651521Y-93420405D01*
X185692399Y-93393091D01*
X185740617Y-93383500D01*
X198445949Y-93383500D01*
X198494892Y-93393394D01*
X198536148Y-93421522D01*
X198563239Y-93463467D01*
X198592051Y-93536880D01*
X198727579Y-93771621D01*
X198896576Y-93983538D01*
X198896579Y-93983540D01*
X198896580Y-93983542D01*
X199095279Y-94167907D01*
X199319237Y-94320599D01*
X199430354Y-94374110D01*
X199563449Y-94438206D01*
X199614040Y-94453811D01*
X199822464Y-94518101D01*
X200090494Y-94558500D01*
X200361548Y-94558500D01*
X200361550Y-94558500D01*
X200629580Y-94518101D01*
X200888594Y-94438206D01*
X201132808Y-94320599D01*
X201356765Y-94167907D01*
X201555464Y-93983542D01*
X201724465Y-93771621D01*
X201859993Y-93536879D01*
X201959021Y-93284559D01*
X202019337Y-93020299D01*
X202039593Y-92750000D01*
X202019337Y-92479701D01*
X201959021Y-92215441D01*
X201859993Y-91963121D01*
X201724465Y-91728379D01*
X201637406Y-91619210D01*
X201555467Y-91516461D01*
X201524792Y-91487999D01*
X201356765Y-91332093D01*
X201132808Y-91179401D01*
X201132807Y-91179400D01*
X201132805Y-91179399D01*
X200888594Y-91061793D01*
X200701322Y-91004028D01*
X200629580Y-90981899D01*
X200361550Y-90941500D01*
X200090494Y-90941500D01*
X199822464Y-90981899D01*
X199822460Y-90981900D01*
X199822461Y-90981900D01*
X199563449Y-91061793D01*
X199319236Y-91179401D01*
X199095282Y-91332090D01*
X198896576Y-91516461D01*
X198727579Y-91728378D01*
X198592051Y-91963119D01*
X198563239Y-92036533D01*
X198536148Y-92078478D01*
X198494892Y-92106606D01*
X198445949Y-92116500D01*
X185509875Y-92116500D01*
X185489085Y-92114204D01*
X185418023Y-92116438D01*
X185414065Y-92116500D01*
X185386164Y-92116500D01*
X185382156Y-92117006D01*
X185370335Y-92117936D01*
X185326130Y-92119325D01*
X185306673Y-92124978D01*
X185287323Y-92128986D01*
X185267224Y-92131525D01*
X185226115Y-92147802D01*
X185214887Y-92151646D01*
X185172430Y-92163981D01*
X185154986Y-92174297D01*
X185137239Y-92182990D01*
X185118406Y-92190446D01*
X185082633Y-92216437D01*
X185072715Y-92222951D01*
X185034661Y-92245457D01*
X185020334Y-92259783D01*
X185005305Y-92272618D01*
X184988916Y-92284525D01*
X184960723Y-92318604D01*
X184952735Y-92327381D01*
X179439268Y-97840847D01*
X179382784Y-97873459D01*
X179317562Y-97873459D01*
X179254109Y-97856457D01*
X179026022Y-97836502D01*
X178797934Y-97856457D01*
X178576778Y-97915715D01*
X178369271Y-98012477D01*
X178181718Y-98143804D01*
X178019826Y-98305696D01*
X177888499Y-98493249D01*
X177791737Y-98700756D01*
X177732479Y-98921912D01*
X177712524Y-99149999D01*
X177732479Y-99378087D01*
X177749481Y-99441539D01*
X177749481Y-99506761D01*
X177716870Y-99563245D01*
X176840522Y-100439595D01*
X176799644Y-100466909D01*
X176751426Y-100476500D01*
X176636052Y-100476500D01*
X162089594Y-100476500D01*
X162032391Y-100462767D01*
X161987658Y-100424561D01*
X161965145Y-100370211D01*
X161969761Y-100311564D01*
X162000498Y-100261405D01*
X162085287Y-100176616D01*
X162195682Y-100066220D01*
X162212003Y-100053146D01*
X162214037Y-100050979D01*
X162214040Y-100050978D01*
X162260699Y-100001289D01*
X162263390Y-99998512D01*
X162283156Y-99978748D01*
X162285627Y-99975561D01*
X162293334Y-99966537D01*
X162323608Y-99934299D01*
X162333365Y-99916548D01*
X162344221Y-99900021D01*
X162356635Y-99884019D01*
X162374194Y-99843439D01*
X162379414Y-99832787D01*
X162400716Y-99794039D01*
X162400717Y-99794038D01*
X162405754Y-99774417D01*
X162412160Y-99755708D01*
X162420203Y-99737122D01*
X162427118Y-99693455D01*
X162429526Y-99681831D01*
X162440522Y-99639007D01*
X162440522Y-99618754D01*
X162442073Y-99599044D01*
X162445242Y-99579035D01*
X162441081Y-99535017D01*
X162440522Y-99523159D01*
X162440522Y-96887034D01*
X162459089Y-96821199D01*
X162509319Y-96774767D01*
X162576408Y-96761422D01*
X162640583Y-96785098D01*
X162645768Y-96788865D01*
X162645769Y-96788866D01*
X162800270Y-96901118D01*
X162974734Y-96978794D01*
X163161535Y-97018500D01*
X163352507Y-97018500D01*
X163352509Y-97018500D01*
X163539310Y-96978794D01*
X163713774Y-96901118D01*
X163868275Y-96788866D01*
X163996062Y-96646944D01*
X164091549Y-96481556D01*
X164150564Y-96299928D01*
X164170526Y-96110000D01*
X164150564Y-95920072D01*
X164146782Y-95908435D01*
X164142167Y-95849789D01*
X164164680Y-95795439D01*
X164209413Y-95757233D01*
X164266616Y-95743500D01*
X165527822Y-95743500D01*
X165579070Y-95754393D01*
X165621457Y-95785188D01*
X165624768Y-95788866D01*
X165708622Y-95849789D01*
X165779270Y-95901118D01*
X165953734Y-95978794D01*
X166140535Y-96018500D01*
X166331507Y-96018500D01*
X166331509Y-96018500D01*
X166518310Y-95978794D01*
X166692774Y-95901118D01*
X166847275Y-95788866D01*
X166975062Y-95646944D01*
X167070549Y-95481556D01*
X167129564Y-95299928D01*
X167149526Y-95110000D01*
X167129564Y-94920072D01*
X167086065Y-94786198D01*
X167070549Y-94738443D01*
X166975063Y-94573057D01*
X166925580Y-94518101D01*
X166867692Y-94453809D01*
X166839971Y-94403384D01*
X166837561Y-94345890D01*
X166860966Y-94293321D01*
X166905305Y-94256640D01*
X166961329Y-94243500D01*
X168212169Y-94243500D01*
X168232957Y-94245795D01*
X168235929Y-94245701D01*
X168235931Y-94245702D01*
X168304007Y-94243562D01*
X168307967Y-94243500D01*
X168335874Y-94243500D01*
X168335878Y-94243500D01*
X168339887Y-94242993D01*
X168351721Y-94242061D01*
X168395911Y-94240673D01*
X168415360Y-94235021D01*
X168434720Y-94231012D01*
X168454819Y-94228474D01*
X168495937Y-94212193D01*
X168507139Y-94208357D01*
X168549615Y-94196018D01*
X168567061Y-94185699D01*
X168584802Y-94177009D01*
X168603639Y-94169552D01*
X168639414Y-94143558D01*
X168649325Y-94137048D01*
X168687384Y-94114542D01*
X168701713Y-94100212D01*
X168716741Y-94087377D01*
X168733129Y-94075472D01*
X168761325Y-94041386D01*
X168769294Y-94032630D01*
X170212097Y-92589828D01*
X170244407Y-92566446D01*
X170282410Y-92554333D01*
X170291652Y-92552940D01*
X170291656Y-92552940D01*
X170544865Y-92514775D01*
X170789557Y-92439298D01*
X171020268Y-92328194D01*
X171180092Y-92219227D01*
X172958043Y-92219227D01*
X173117230Y-92327760D01*
X173347869Y-92438830D01*
X173592487Y-92514284D01*
X173845628Y-92552440D01*
X174101616Y-92552440D01*
X174354756Y-92514284D01*
X174599374Y-92438830D01*
X174830014Y-92327760D01*
X174989200Y-92219227D01*
X173973623Y-91203650D01*
X173973621Y-91203650D01*
X172958043Y-92219226D01*
X172958043Y-92219227D01*
X171180092Y-92219227D01*
X171231841Y-92183945D01*
X171419553Y-92009774D01*
X171579209Y-91809571D01*
X171707244Y-91587809D01*
X171800796Y-91349441D01*
X171857777Y-91099793D01*
X171876913Y-90844440D01*
X171876913Y-90844439D01*
X172260833Y-90844439D01*
X172279963Y-91099719D01*
X172336927Y-91349294D01*
X172430452Y-91587591D01*
X172558449Y-91809288D01*
X172598872Y-91859977D01*
X172598874Y-91859977D01*
X173614412Y-90844441D01*
X174332832Y-90844441D01*
X175348369Y-91859978D01*
X175348370Y-91859977D01*
X175388794Y-91809290D01*
X175516791Y-91587592D01*
X175610316Y-91349294D01*
X175667280Y-91099719D01*
X175686410Y-90844439D01*
X176070331Y-90844439D01*
X176089467Y-91099794D01*
X176146448Y-91349442D01*
X176240000Y-91587809D01*
X176368035Y-91809571D01*
X176527687Y-92009770D01*
X176527690Y-92009772D01*
X176527691Y-92009774D01*
X176613058Y-92088983D01*
X176715406Y-92183948D01*
X176836918Y-92266793D01*
X176926977Y-92328194D01*
X176982026Y-92354704D01*
X177157686Y-92439298D01*
X177168291Y-92442569D01*
X177402379Y-92514775D01*
X177655588Y-92552940D01*
X177911654Y-92552940D01*
X177911656Y-92552940D01*
X178164865Y-92514775D01*
X178409557Y-92439298D01*
X178640268Y-92328194D01*
X178800092Y-92219227D01*
X180578043Y-92219227D01*
X180737230Y-92327760D01*
X180967869Y-92438830D01*
X181212487Y-92514284D01*
X181465628Y-92552440D01*
X181721616Y-92552440D01*
X181974756Y-92514284D01*
X182219374Y-92438830D01*
X182450014Y-92327760D01*
X182609200Y-92219227D01*
X181593623Y-91203650D01*
X181593621Y-91203650D01*
X180578043Y-92219226D01*
X180578043Y-92219227D01*
X178800092Y-92219227D01*
X178851841Y-92183945D01*
X179039553Y-92009774D01*
X179199209Y-91809571D01*
X179327244Y-91587809D01*
X179420796Y-91349441D01*
X179477777Y-91099793D01*
X179496913Y-90844440D01*
X179496913Y-90844439D01*
X179880833Y-90844439D01*
X179899963Y-91099719D01*
X179956927Y-91349294D01*
X180050452Y-91587591D01*
X180178449Y-91809288D01*
X180218872Y-91859977D01*
X180218874Y-91859977D01*
X181234412Y-90844441D01*
X181952832Y-90844441D01*
X182968369Y-91859978D01*
X182968370Y-91859977D01*
X183008794Y-91809290D01*
X183136791Y-91587592D01*
X183230316Y-91349294D01*
X183287280Y-91099719D01*
X183306410Y-90844439D01*
X183287280Y-90589160D01*
X183230316Y-90339585D01*
X183136791Y-90101287D01*
X183008794Y-89879590D01*
X182968370Y-89828901D01*
X182968369Y-89828900D01*
X181952832Y-90844439D01*
X181952832Y-90844441D01*
X181234412Y-90844441D01*
X181234412Y-90844439D01*
X180218874Y-89828901D01*
X180218872Y-89828901D01*
X180178449Y-89879591D01*
X180050452Y-90101288D01*
X179956927Y-90339585D01*
X179899963Y-90589160D01*
X179880833Y-90844439D01*
X179496913Y-90844439D01*
X179477777Y-90589087D01*
X179420796Y-90339439D01*
X179327244Y-90101071D01*
X179199209Y-89879309D01*
X179152036Y-89820156D01*
X179039556Y-89679109D01*
X179039553Y-89679106D01*
X178851841Y-89504935D01*
X178800091Y-89469652D01*
X180578043Y-89469652D01*
X181593621Y-90485230D01*
X181593623Y-90485230D01*
X182609200Y-89469651D01*
X182450014Y-89361119D01*
X182219374Y-89250049D01*
X181974756Y-89174595D01*
X181721616Y-89136440D01*
X181465628Y-89136440D01*
X181212487Y-89174595D01*
X180967869Y-89250049D01*
X180737228Y-89361121D01*
X180578043Y-89469650D01*
X180578043Y-89469652D01*
X178800091Y-89469652D01*
X178640268Y-89360686D01*
X178640267Y-89360685D01*
X178640265Y-89360684D01*
X178409557Y-89249581D01*
X178232640Y-89195010D01*
X178164865Y-89174105D01*
X177911656Y-89135940D01*
X177655588Y-89135940D01*
X177402379Y-89174105D01*
X177389173Y-89178178D01*
X177157686Y-89249581D01*
X176926976Y-89360686D01*
X176715406Y-89504931D01*
X176527687Y-89679109D01*
X176368035Y-89879308D01*
X176240000Y-90101070D01*
X176146448Y-90339437D01*
X176089467Y-90589085D01*
X176070331Y-90844439D01*
X175686410Y-90844439D01*
X175667280Y-90589160D01*
X175610316Y-90339585D01*
X175516791Y-90101287D01*
X175388794Y-89879590D01*
X175348370Y-89828901D01*
X175348369Y-89828900D01*
X174332832Y-90844439D01*
X174332832Y-90844441D01*
X173614412Y-90844441D01*
X173614412Y-90844439D01*
X172598874Y-89828901D01*
X172598872Y-89828901D01*
X172558449Y-89879591D01*
X172430452Y-90101288D01*
X172336927Y-90339585D01*
X172279963Y-90589160D01*
X172260833Y-90844439D01*
X171876913Y-90844439D01*
X171857777Y-90589087D01*
X171800796Y-90339439D01*
X171707244Y-90101071D01*
X171579209Y-89879309D01*
X171532036Y-89820156D01*
X171419556Y-89679109D01*
X171419553Y-89679106D01*
X171231841Y-89504935D01*
X171180091Y-89469652D01*
X172958043Y-89469652D01*
X173973621Y-90485230D01*
X173973623Y-90485230D01*
X174989200Y-89469651D01*
X174830014Y-89361119D01*
X174599374Y-89250049D01*
X174354756Y-89174595D01*
X174101616Y-89136440D01*
X173845628Y-89136440D01*
X173592487Y-89174595D01*
X173347869Y-89250049D01*
X173117228Y-89361121D01*
X172958043Y-89469650D01*
X172958043Y-89469652D01*
X171180091Y-89469652D01*
X171020268Y-89360686D01*
X171020267Y-89360685D01*
X171020265Y-89360684D01*
X170789557Y-89249581D01*
X170612640Y-89195010D01*
X170544865Y-89174105D01*
X170291656Y-89135940D01*
X170035588Y-89135940D01*
X169782379Y-89174105D01*
X169769173Y-89178178D01*
X169537686Y-89249581D01*
X169306976Y-89360686D01*
X169095406Y-89504931D01*
X168907687Y-89679109D01*
X168748035Y-89879308D01*
X168620000Y-90101070D01*
X168526448Y-90339437D01*
X168469467Y-90589085D01*
X168450331Y-90844439D01*
X168469467Y-91099794D01*
X168526448Y-91349442D01*
X168620000Y-91587809D01*
X168748035Y-91809571D01*
X168878591Y-91973285D01*
X168903883Y-92028420D01*
X168900482Y-92088983D01*
X168869176Y-92140939D01*
X168070522Y-92939595D01*
X168029644Y-92966909D01*
X167981426Y-92976500D01*
X164444222Y-92976500D01*
X164392974Y-92965607D01*
X164350587Y-92934812D01*
X164347275Y-92931133D01*
X164192775Y-92818883D01*
X164192774Y-92818882D01*
X164018310Y-92741206D01*
X163831509Y-92701500D01*
X163640535Y-92701500D01*
X163516001Y-92727970D01*
X163453733Y-92741206D01*
X163279268Y-92818883D01*
X163124769Y-92931133D01*
X162996980Y-93073057D01*
X162901494Y-93238443D01*
X162842480Y-93420070D01*
X162822518Y-93610000D01*
X162842480Y-93799929D01*
X162901494Y-93981556D01*
X162996980Y-94146942D01*
X162996982Y-94146944D01*
X163083921Y-94243500D01*
X163104351Y-94266189D01*
X163132073Y-94316616D01*
X163134483Y-94374110D01*
X163111078Y-94426679D01*
X163066739Y-94463360D01*
X163010715Y-94476500D01*
X159503776Y-94476500D01*
X159455558Y-94466909D01*
X159414681Y-94439595D01*
X157194314Y-92219227D01*
X157718043Y-92219227D01*
X157877230Y-92327760D01*
X158107869Y-92438830D01*
X158352487Y-92514284D01*
X158605628Y-92552440D01*
X158861616Y-92552440D01*
X159114756Y-92514284D01*
X159359374Y-92438830D01*
X159590014Y-92327760D01*
X159749200Y-92219227D01*
X158733623Y-91203650D01*
X158733621Y-91203650D01*
X157718043Y-92219226D01*
X157718043Y-92219227D01*
X157194314Y-92219227D01*
X156552537Y-91577450D01*
X156525526Y-91537297D01*
X156515642Y-91489925D01*
X156524341Y-91442325D01*
X156560796Y-91349441D01*
X156617777Y-91099793D01*
X156636913Y-90844440D01*
X156636913Y-90844439D01*
X157020833Y-90844439D01*
X157039963Y-91099719D01*
X157096927Y-91349294D01*
X157190452Y-91587591D01*
X157318449Y-91809288D01*
X157358872Y-91859977D01*
X157358874Y-91859977D01*
X158374412Y-90844441D01*
X159092832Y-90844441D01*
X160108369Y-91859978D01*
X160108370Y-91859977D01*
X160148794Y-91809290D01*
X160276791Y-91587592D01*
X160370316Y-91349294D01*
X160427280Y-91099719D01*
X160446410Y-90844439D01*
X160830331Y-90844439D01*
X160849467Y-91099794D01*
X160906448Y-91349442D01*
X161000000Y-91587809D01*
X161128035Y-91809571D01*
X161287687Y-92009770D01*
X161287690Y-92009772D01*
X161287691Y-92009774D01*
X161373058Y-92088983D01*
X161475406Y-92183948D01*
X161596918Y-92266793D01*
X161686977Y-92328194D01*
X161742026Y-92354704D01*
X161917686Y-92439298D01*
X161928291Y-92442569D01*
X162162379Y-92514775D01*
X162415588Y-92552940D01*
X162671654Y-92552940D01*
X162671656Y-92552940D01*
X162924865Y-92514775D01*
X163169557Y-92439298D01*
X163400268Y-92328194D01*
X163560092Y-92219227D01*
X165338043Y-92219227D01*
X165497230Y-92327760D01*
X165727869Y-92438830D01*
X165972487Y-92514284D01*
X166225628Y-92552440D01*
X166481616Y-92552440D01*
X166734756Y-92514284D01*
X166979374Y-92438830D01*
X167210014Y-92327760D01*
X167369200Y-92219227D01*
X166353623Y-91203650D01*
X166353621Y-91203650D01*
X165338043Y-92219226D01*
X165338043Y-92219227D01*
X163560092Y-92219227D01*
X163611841Y-92183945D01*
X163799553Y-92009774D01*
X163959209Y-91809571D01*
X164087244Y-91587809D01*
X164180796Y-91349441D01*
X164237777Y-91099793D01*
X164256913Y-90844440D01*
X164256913Y-90844439D01*
X164640833Y-90844439D01*
X164659963Y-91099719D01*
X164716927Y-91349294D01*
X164810452Y-91587591D01*
X164938449Y-91809288D01*
X164978872Y-91859977D01*
X164978874Y-91859977D01*
X165994412Y-90844441D01*
X166712832Y-90844441D01*
X167728369Y-91859978D01*
X167728370Y-91859977D01*
X167768794Y-91809290D01*
X167896791Y-91587592D01*
X167990316Y-91349294D01*
X168047280Y-91099719D01*
X168066410Y-90844439D01*
X168047280Y-90589160D01*
X167990316Y-90339585D01*
X167896791Y-90101287D01*
X167768794Y-89879590D01*
X167728370Y-89828901D01*
X167728369Y-89828900D01*
X166712832Y-90844439D01*
X166712832Y-90844441D01*
X165994412Y-90844441D01*
X165994412Y-90844439D01*
X164978874Y-89828901D01*
X164978872Y-89828901D01*
X164938449Y-89879591D01*
X164810452Y-90101288D01*
X164716927Y-90339585D01*
X164659963Y-90589160D01*
X164640833Y-90844439D01*
X164256913Y-90844439D01*
X164237777Y-90589087D01*
X164180796Y-90339439D01*
X164087244Y-90101071D01*
X163959209Y-89879309D01*
X163912036Y-89820156D01*
X163799556Y-89679109D01*
X163799553Y-89679106D01*
X163611841Y-89504935D01*
X163560091Y-89469652D01*
X165338043Y-89469652D01*
X166353621Y-90485230D01*
X166353623Y-90485230D01*
X167369200Y-89469651D01*
X167210014Y-89361119D01*
X166979374Y-89250049D01*
X166734756Y-89174595D01*
X166481616Y-89136440D01*
X166225628Y-89136440D01*
X165972487Y-89174595D01*
X165727869Y-89250049D01*
X165497228Y-89361121D01*
X165338043Y-89469650D01*
X165338043Y-89469652D01*
X163560091Y-89469652D01*
X163400268Y-89360686D01*
X163400267Y-89360685D01*
X163400265Y-89360684D01*
X163169557Y-89249581D01*
X162992640Y-89195010D01*
X162924865Y-89174105D01*
X162671656Y-89135940D01*
X162415588Y-89135940D01*
X162162379Y-89174105D01*
X162149173Y-89178178D01*
X161917686Y-89249581D01*
X161686976Y-89360686D01*
X161475406Y-89504931D01*
X161287687Y-89679109D01*
X161128035Y-89879308D01*
X161000000Y-90101070D01*
X160906448Y-90339437D01*
X160849467Y-90589085D01*
X160830331Y-90844439D01*
X160446410Y-90844439D01*
X160427280Y-90589160D01*
X160370316Y-90339585D01*
X160276791Y-90101287D01*
X160148794Y-89879590D01*
X160108370Y-89828901D01*
X160108369Y-89828900D01*
X159092832Y-90844439D01*
X159092832Y-90844441D01*
X158374412Y-90844441D01*
X158374412Y-90844439D01*
X157358874Y-89828901D01*
X157358872Y-89828901D01*
X157318449Y-89879591D01*
X157190452Y-90101288D01*
X157096927Y-90339585D01*
X157039963Y-90589160D01*
X157020833Y-90844439D01*
X156636913Y-90844439D01*
X156617777Y-90589087D01*
X156560796Y-90339439D01*
X156467244Y-90101071D01*
X156339209Y-89879309D01*
X156292036Y-89820156D01*
X156179556Y-89679109D01*
X156179553Y-89679106D01*
X155991841Y-89504935D01*
X155940091Y-89469652D01*
X157718043Y-89469652D01*
X158733621Y-90485230D01*
X158733623Y-90485230D01*
X159749200Y-89469651D01*
X159590014Y-89361119D01*
X159359374Y-89250049D01*
X159114756Y-89174595D01*
X158861616Y-89136440D01*
X158605628Y-89136440D01*
X158352487Y-89174595D01*
X158107869Y-89250049D01*
X157877228Y-89361121D01*
X157718043Y-89469650D01*
X157718043Y-89469652D01*
X155940091Y-89469652D01*
X155780268Y-89360686D01*
X155780267Y-89360685D01*
X155780265Y-89360684D01*
X155549557Y-89249581D01*
X155372640Y-89195010D01*
X155304865Y-89174105D01*
X155051656Y-89135940D01*
X154795588Y-89135940D01*
X154542379Y-89174105D01*
X154529173Y-89178178D01*
X154297686Y-89249581D01*
X154066976Y-89360686D01*
X153855406Y-89504931D01*
X153667687Y-89679109D01*
X153508035Y-89879308D01*
X153380000Y-90101070D01*
X153286448Y-90339437D01*
X153229467Y-90589085D01*
X153210331Y-90844439D01*
X153229467Y-91099794D01*
X153286448Y-91349442D01*
X153380000Y-91587809D01*
X153508035Y-91809571D01*
X153667687Y-92009770D01*
X153667690Y-92009772D01*
X153667691Y-92009774D01*
X153753058Y-92088983D01*
X153855406Y-92183948D01*
X153976918Y-92266793D01*
X154066977Y-92328194D01*
X154122026Y-92354704D01*
X154297686Y-92439298D01*
X154308291Y-92442569D01*
X154542379Y-92514775D01*
X154795588Y-92552940D01*
X155051654Y-92552940D01*
X155051656Y-92552940D01*
X155304865Y-92514775D01*
X155532815Y-92444461D01*
X155600282Y-92442569D01*
X155659046Y-92475768D01*
X157191276Y-94007999D01*
X158681936Y-95498659D01*
X158695015Y-95514983D01*
X158697181Y-95517017D01*
X158697182Y-95517018D01*
X158728298Y-95546238D01*
X158746831Y-95563641D01*
X158749642Y-95566365D01*
X158769412Y-95586135D01*
X158772625Y-95588627D01*
X158781615Y-95596306D01*
X158813861Y-95626586D01*
X158825276Y-95632861D01*
X158831608Y-95636342D01*
X158848132Y-95647196D01*
X158864141Y-95659614D01*
X158904724Y-95677175D01*
X158915375Y-95682393D01*
X158954122Y-95703695D01*
X158973742Y-95708732D01*
X158992449Y-95715137D01*
X158999062Y-95717998D01*
X159011036Y-95723181D01*
X159021687Y-95724867D01*
X159054712Y-95730098D01*
X159066307Y-95732498D01*
X159109152Y-95743500D01*
X159129406Y-95743500D01*
X159149116Y-95745051D01*
X159169124Y-95748220D01*
X159169124Y-95748219D01*
X159169125Y-95748220D01*
X159213143Y-95744058D01*
X159225001Y-95743500D01*
X160797428Y-95743500D01*
X160854631Y-95757233D01*
X160899364Y-95795439D01*
X160921877Y-95849789D01*
X160917261Y-95908436D01*
X160913480Y-95920069D01*
X160893518Y-96109999D01*
X160913480Y-96299929D01*
X160972494Y-96481556D01*
X161067980Y-96646942D01*
X161141158Y-96728214D01*
X161165153Y-96767371D01*
X161173522Y-96812525D01*
X161173522Y-99244383D01*
X161163931Y-99292601D01*
X161136617Y-99333478D01*
X160480500Y-99989595D01*
X160439623Y-100016909D01*
X160391405Y-100026500D01*
X139582594Y-100026500D01*
X139534376Y-100016909D01*
X139493499Y-99989595D01*
X137599121Y-98095216D01*
X137574490Y-98060365D01*
X137562907Y-98019296D01*
X137545542Y-97854072D01*
X137486527Y-97672444D01*
X137486527Y-97672443D01*
X137391041Y-97507057D01*
X137343098Y-97453811D01*
X137315376Y-97403384D01*
X137312966Y-97345890D01*
X137336371Y-97293321D01*
X137380710Y-97256640D01*
X137436734Y-97243500D01*
X138459406Y-97243500D01*
X138507624Y-97253091D01*
X138548501Y-97280405D01*
X139260877Y-97992781D01*
X139285508Y-98027631D01*
X139297092Y-98068705D01*
X139314458Y-98233929D01*
X139373472Y-98415556D01*
X139468958Y-98580942D01*
X139541861Y-98661909D01*
X139596747Y-98722866D01*
X139751248Y-98835118D01*
X139925712Y-98912794D01*
X140112513Y-98952500D01*
X140303485Y-98952500D01*
X140303487Y-98952500D01*
X140490288Y-98912794D01*
X140664752Y-98835118D01*
X140819253Y-98722866D01*
X140822564Y-98719188D01*
X140864952Y-98688393D01*
X140916200Y-98677500D01*
X154094147Y-98677500D01*
X154114935Y-98679795D01*
X154117907Y-98679701D01*
X154117909Y-98679702D01*
X154185985Y-98677562D01*
X154189945Y-98677500D01*
X154217852Y-98677500D01*
X154217856Y-98677500D01*
X154221865Y-98676993D01*
X154233699Y-98676061D01*
X154277889Y-98674673D01*
X154297338Y-98669021D01*
X154316698Y-98665012D01*
X154336797Y-98662474D01*
X154377915Y-98646193D01*
X154389117Y-98642357D01*
X154431593Y-98630018D01*
X154449039Y-98619699D01*
X154466780Y-98611009D01*
X154485617Y-98603552D01*
X154521392Y-98577558D01*
X154531303Y-98571048D01*
X154569362Y-98548542D01*
X154583691Y-98534212D01*
X154598719Y-98521377D01*
X154615107Y-98509472D01*
X154643298Y-98475393D01*
X154651268Y-98466634D01*
X154890499Y-98227404D01*
X154931377Y-98200091D01*
X154979595Y-98190500D01*
X155035485Y-98190500D01*
X155035487Y-98190500D01*
X155222288Y-98150794D01*
X155396752Y-98073118D01*
X155551253Y-97960866D01*
X155679040Y-97818944D01*
X155774527Y-97653556D01*
X155833542Y-97471928D01*
X155853504Y-97282000D01*
X155833542Y-97092072D01*
X155802931Y-96997862D01*
X155774527Y-96910443D01*
X155679041Y-96745057D01*
X155551252Y-96603133D01*
X155396753Y-96490883D01*
X155396752Y-96490882D01*
X155222288Y-96413206D01*
X155035487Y-96373500D01*
X154844513Y-96373500D01*
X154719979Y-96399970D01*
X154657711Y-96413206D01*
X154483246Y-96490883D01*
X154328747Y-96603133D01*
X154200958Y-96745057D01*
X154105472Y-96910443D01*
X154046458Y-97092070D01*
X154029093Y-97257291D01*
X154017509Y-97298364D01*
X153992880Y-97333214D01*
X153952501Y-97373594D01*
X153911623Y-97400909D01*
X153863404Y-97410500D01*
X140916200Y-97410500D01*
X140864952Y-97399607D01*
X140822565Y-97368812D01*
X140819253Y-97365133D01*
X140669924Y-97256640D01*
X140664752Y-97252882D01*
X140490288Y-97175206D01*
X140303487Y-97135500D01*
X140303485Y-97135500D01*
X140247595Y-97135500D01*
X140199377Y-97125909D01*
X140158500Y-97098595D01*
X140068500Y-97008595D01*
X140037762Y-96958436D01*
X140033146Y-96899789D01*
X140055659Y-96845439D01*
X140100392Y-96807233D01*
X140157595Y-96793500D01*
X150569800Y-96793500D01*
X150621048Y-96804393D01*
X150663435Y-96835188D01*
X150666746Y-96838866D01*
X150705358Y-96866919D01*
X150821248Y-96951118D01*
X150995712Y-97028794D01*
X151182513Y-97068500D01*
X151373485Y-97068500D01*
X151373487Y-97068500D01*
X151560288Y-97028794D01*
X151734752Y-96951118D01*
X151889253Y-96838866D01*
X152017040Y-96696944D01*
X152112527Y-96531556D01*
X152171542Y-96349928D01*
X152191504Y-96160000D01*
X152171542Y-95970072D01*
X152132459Y-95849789D01*
X152112527Y-95788443D01*
X152017041Y-95623057D01*
X151913098Y-95507617D01*
X151889253Y-95481134D01*
X151838829Y-95444499D01*
X151782567Y-95403622D01*
X151734752Y-95368882D01*
X151560288Y-95291206D01*
X151373487Y-95251500D01*
X151182513Y-95251500D01*
X151059643Y-95277617D01*
X150995711Y-95291206D01*
X150821246Y-95368883D01*
X150666746Y-95481133D01*
X150663435Y-95484812D01*
X150621048Y-95515607D01*
X150569800Y-95526500D01*
X130256595Y-95526500D01*
X130208377Y-95516909D01*
X130167499Y-95489595D01*
X129956404Y-95278499D01*
X129929091Y-95237622D01*
X129919500Y-95189404D01*
X129919500Y-90844439D01*
X141780331Y-90844439D01*
X141799467Y-91099794D01*
X141856448Y-91349442D01*
X141950000Y-91587809D01*
X142078035Y-91809571D01*
X142237687Y-92009770D01*
X142237690Y-92009772D01*
X142237691Y-92009774D01*
X142323058Y-92088983D01*
X142425406Y-92183948D01*
X142546918Y-92266793D01*
X142636977Y-92328194D01*
X142692026Y-92354704D01*
X142867686Y-92439298D01*
X142878291Y-92442569D01*
X143112379Y-92514775D01*
X143365588Y-92552940D01*
X143621654Y-92552940D01*
X143621656Y-92552940D01*
X143874865Y-92514775D01*
X144119557Y-92439298D01*
X144350268Y-92328194D01*
X144561841Y-92183945D01*
X144749553Y-92009774D01*
X144909209Y-91809571D01*
X145037244Y-91587809D01*
X145130796Y-91349441D01*
X145187777Y-91099793D01*
X145206913Y-90844440D01*
X145206913Y-90844439D01*
X145590331Y-90844439D01*
X145609467Y-91099794D01*
X145666448Y-91349442D01*
X145760000Y-91587809D01*
X145888035Y-91809571D01*
X146047687Y-92009770D01*
X146047690Y-92009772D01*
X146047691Y-92009774D01*
X146133058Y-92088983D01*
X146235406Y-92183948D01*
X146356918Y-92266793D01*
X146446977Y-92328194D01*
X146502026Y-92354704D01*
X146677686Y-92439298D01*
X146688291Y-92442569D01*
X146922379Y-92514775D01*
X147175588Y-92552940D01*
X147431654Y-92552940D01*
X147431656Y-92552940D01*
X147684865Y-92514775D01*
X147929557Y-92439298D01*
X148160268Y-92328194D01*
X148320092Y-92219227D01*
X150098043Y-92219227D01*
X150257230Y-92327760D01*
X150487869Y-92438830D01*
X150732487Y-92514284D01*
X150985628Y-92552440D01*
X151241616Y-92552440D01*
X151494756Y-92514284D01*
X151739374Y-92438830D01*
X151970014Y-92327760D01*
X152129200Y-92219227D01*
X151113623Y-91203650D01*
X151113621Y-91203650D01*
X150098043Y-92219226D01*
X150098043Y-92219227D01*
X148320092Y-92219227D01*
X148371841Y-92183945D01*
X148559553Y-92009774D01*
X148719209Y-91809571D01*
X148847244Y-91587809D01*
X148940796Y-91349441D01*
X148997777Y-91099793D01*
X149016913Y-90844440D01*
X149016913Y-90844439D01*
X149400833Y-90844439D01*
X149419963Y-91099719D01*
X149476927Y-91349294D01*
X149570452Y-91587591D01*
X149698449Y-91809288D01*
X149738872Y-91859977D01*
X149738874Y-91859977D01*
X150754412Y-90844441D01*
X151472832Y-90844441D01*
X152488369Y-91859978D01*
X152488370Y-91859977D01*
X152528794Y-91809290D01*
X152656791Y-91587592D01*
X152750316Y-91349294D01*
X152807280Y-91099719D01*
X152826410Y-90844439D01*
X152807280Y-90589160D01*
X152750316Y-90339585D01*
X152656791Y-90101287D01*
X152528794Y-89879590D01*
X152488370Y-89828901D01*
X152488369Y-89828900D01*
X151472832Y-90844439D01*
X151472832Y-90844441D01*
X150754412Y-90844441D01*
X150754412Y-90844439D01*
X149738874Y-89828901D01*
X149738872Y-89828901D01*
X149698449Y-89879591D01*
X149570452Y-90101288D01*
X149476927Y-90339585D01*
X149419963Y-90589160D01*
X149400833Y-90844439D01*
X149016913Y-90844439D01*
X148997777Y-90589087D01*
X148940796Y-90339439D01*
X148847244Y-90101071D01*
X148719209Y-89879309D01*
X148672036Y-89820156D01*
X148559556Y-89679109D01*
X148559553Y-89679106D01*
X148371841Y-89504935D01*
X148320091Y-89469652D01*
X150098043Y-89469652D01*
X151113621Y-90485230D01*
X151113623Y-90485230D01*
X152129200Y-89469651D01*
X151970014Y-89361119D01*
X151739374Y-89250049D01*
X151494756Y-89174595D01*
X151241616Y-89136440D01*
X150985628Y-89136440D01*
X150732487Y-89174595D01*
X150487869Y-89250049D01*
X150257228Y-89361121D01*
X150098043Y-89469650D01*
X150098043Y-89469652D01*
X148320091Y-89469652D01*
X148160268Y-89360686D01*
X148160267Y-89360685D01*
X148160265Y-89360684D01*
X147929557Y-89249581D01*
X147752640Y-89195010D01*
X147684865Y-89174105D01*
X147431656Y-89135940D01*
X147175588Y-89135940D01*
X146922379Y-89174105D01*
X146909173Y-89178178D01*
X146677686Y-89249581D01*
X146446976Y-89360686D01*
X146235406Y-89504931D01*
X146047687Y-89679109D01*
X145888035Y-89879308D01*
X145760000Y-90101070D01*
X145666448Y-90339437D01*
X145609467Y-90589085D01*
X145590331Y-90844439D01*
X145206913Y-90844439D01*
X145187777Y-90589087D01*
X145130796Y-90339439D01*
X145037244Y-90101071D01*
X144909209Y-89879309D01*
X144862036Y-89820156D01*
X144749556Y-89679109D01*
X144749553Y-89679106D01*
X144561841Y-89504935D01*
X144350268Y-89360686D01*
X144350267Y-89360685D01*
X144350265Y-89360684D01*
X144119557Y-89249581D01*
X143942640Y-89195010D01*
X143874865Y-89174105D01*
X143621656Y-89135940D01*
X143365588Y-89135940D01*
X143112379Y-89174105D01*
X143099173Y-89178178D01*
X142867686Y-89249581D01*
X142636976Y-89360686D01*
X142425406Y-89504931D01*
X142237687Y-89679109D01*
X142078035Y-89879308D01*
X141950000Y-90101070D01*
X141856448Y-90339437D01*
X141799467Y-90589085D01*
X141780331Y-90844439D01*
X129919500Y-90844439D01*
X129919500Y-89999853D01*
X129921795Y-89979064D01*
X129921621Y-89973543D01*
X129919562Y-89908014D01*
X129919500Y-89904055D01*
X129919500Y-89876149D01*
X129919500Y-89876144D01*
X129918992Y-89872131D01*
X129918061Y-89860297D01*
X129916673Y-89816110D01*
X129911020Y-89796656D01*
X129907012Y-89777298D01*
X129905607Y-89766175D01*
X129904474Y-89757203D01*
X129888190Y-89716077D01*
X129884359Y-89704888D01*
X129872018Y-89662407D01*
X129861704Y-89644968D01*
X129853008Y-89627216D01*
X129845552Y-89608383D01*
X129819571Y-89572624D01*
X129813050Y-89562698D01*
X129790542Y-89524637D01*
X129790205Y-89524300D01*
X129776213Y-89510308D01*
X129763376Y-89495277D01*
X129751473Y-89478893D01*
X129717406Y-89450711D01*
X129708626Y-89442721D01*
X126491244Y-86225339D01*
X126478171Y-86209021D01*
X126426349Y-86160357D01*
X126423537Y-86157632D01*
X126403770Y-86137865D01*
X126400575Y-86135386D01*
X126391553Y-86127681D01*
X126359320Y-86097413D01*
X126341567Y-86087653D01*
X126325041Y-86076797D01*
X126309041Y-86064386D01*
X126268466Y-86046828D01*
X126257804Y-86041604D01*
X126219063Y-86020305D01*
X126205313Y-86016775D01*
X126199437Y-86015266D01*
X126180731Y-86008862D01*
X126162145Y-86000819D01*
X126118475Y-85993902D01*
X126106853Y-85991495D01*
X126064030Y-85980500D01*
X126064029Y-85980500D01*
X126043776Y-85980500D01*
X126024066Y-85978949D01*
X126004057Y-85975779D01*
X125960039Y-85979941D01*
X125948181Y-85980500D01*
X98244200Y-85980500D01*
X98192952Y-85969607D01*
X98150565Y-85938812D01*
X98147253Y-85935133D01*
X97992753Y-85822883D01*
X97992752Y-85822882D01*
X97818288Y-85745206D01*
X97631487Y-85705500D01*
X97440513Y-85705500D01*
X97315979Y-85731970D01*
X97253711Y-85745206D01*
X97079246Y-85822883D01*
X96924747Y-85935133D01*
X96796958Y-86077057D01*
X96701472Y-86242443D01*
X96642458Y-86424070D01*
X96622496Y-86613999D01*
X80261522Y-86613999D01*
X80261522Y-84337350D01*
X133985302Y-84337350D01*
X134000357Y-84552647D01*
X134052787Y-84799308D01*
X134060214Y-84834250D01*
X134158674Y-85104769D01*
X134293831Y-85358963D01*
X134380586Y-85478370D01*
X134463049Y-85591870D01*
X134663033Y-85798959D01*
X134663036Y-85798962D01*
X134889890Y-85976200D01*
X135139211Y-86120147D01*
X135406136Y-86227991D01*
X135572385Y-86269441D01*
X135685474Y-86297637D01*
X135971786Y-86327730D01*
X135971789Y-86327729D01*
X135971790Y-86327730D01*
X136115642Y-86322706D01*
X136259499Y-86317683D01*
X136543014Y-86267691D01*
X136816813Y-86178729D01*
X137075565Y-86052527D01*
X137314236Y-85891541D01*
X137314235Y-85891541D01*
X137314239Y-85891539D01*
X137455396Y-85764440D01*
X143685331Y-85764440D01*
X143704467Y-86019794D01*
X143761448Y-86269442D01*
X143855000Y-86507809D01*
X143983035Y-86729571D01*
X144142687Y-86929770D01*
X144330406Y-87103948D01*
X144489083Y-87212131D01*
X144541977Y-87248194D01*
X144661581Y-87305792D01*
X144772686Y-87359298D01*
X144826834Y-87376000D01*
X145017379Y-87434775D01*
X145270588Y-87472940D01*
X145526654Y-87472940D01*
X145526656Y-87472940D01*
X145779865Y-87434775D01*
X146024557Y-87359298D01*
X146255268Y-87248194D01*
X146415092Y-87139227D01*
X148193043Y-87139227D01*
X148352230Y-87247760D01*
X148582869Y-87358830D01*
X148827487Y-87434284D01*
X149080628Y-87472440D01*
X149336616Y-87472440D01*
X149589756Y-87434284D01*
X149834374Y-87358830D01*
X150065014Y-87247760D01*
X150224200Y-87139227D01*
X149208623Y-86123650D01*
X149208621Y-86123650D01*
X148193043Y-87139226D01*
X148193043Y-87139227D01*
X146415092Y-87139227D01*
X146466841Y-87103945D01*
X146654553Y-86929774D01*
X146814209Y-86729571D01*
X146942244Y-86507809D01*
X147035796Y-86269441D01*
X147092777Y-86019793D01*
X147111913Y-85764440D01*
X147495833Y-85764440D01*
X147514963Y-86019719D01*
X147571927Y-86269294D01*
X147665452Y-86507591D01*
X147793449Y-86729288D01*
X147833872Y-86779977D01*
X147833874Y-86779977D01*
X148849412Y-85764441D01*
X149567832Y-85764441D01*
X150583369Y-86779978D01*
X150583370Y-86779977D01*
X150623794Y-86729290D01*
X150751791Y-86507592D01*
X150845316Y-86269294D01*
X150902280Y-86019719D01*
X150921410Y-85764440D01*
X151305331Y-85764440D01*
X151324467Y-86019794D01*
X151381448Y-86269442D01*
X151475000Y-86507809D01*
X151603035Y-86729571D01*
X151762687Y-86929770D01*
X151950406Y-87103948D01*
X152109083Y-87212131D01*
X152161977Y-87248194D01*
X152281581Y-87305792D01*
X152392686Y-87359298D01*
X152446834Y-87376000D01*
X152637379Y-87434775D01*
X152890588Y-87472940D01*
X153146654Y-87472940D01*
X153146656Y-87472940D01*
X153399865Y-87434775D01*
X153644557Y-87359298D01*
X153875268Y-87248194D01*
X154086841Y-87103945D01*
X154274553Y-86929774D01*
X154434209Y-86729571D01*
X154562244Y-86507809D01*
X154655796Y-86269441D01*
X154712777Y-86019793D01*
X154731913Y-85764440D01*
X155115331Y-85764440D01*
X155134467Y-86019794D01*
X155191448Y-86269442D01*
X155285000Y-86507809D01*
X155413035Y-86729571D01*
X155572687Y-86929770D01*
X155760406Y-87103948D01*
X155919083Y-87212131D01*
X155971977Y-87248194D01*
X156091581Y-87305792D01*
X156202686Y-87359298D01*
X156256834Y-87376000D01*
X156447379Y-87434775D01*
X156700588Y-87472940D01*
X156956654Y-87472940D01*
X156956656Y-87472940D01*
X157209865Y-87434775D01*
X157454557Y-87359298D01*
X157685268Y-87248194D01*
X157896841Y-87103945D01*
X158084553Y-86929774D01*
X158244209Y-86729571D01*
X158372244Y-86507809D01*
X158465796Y-86269441D01*
X158522777Y-86019793D01*
X158541913Y-85764440D01*
X158925331Y-85764440D01*
X158944467Y-86019794D01*
X159001448Y-86269442D01*
X159095000Y-86507809D01*
X159223035Y-86729571D01*
X159382687Y-86929770D01*
X159570406Y-87103948D01*
X159729083Y-87212131D01*
X159781977Y-87248194D01*
X159901581Y-87305792D01*
X160012686Y-87359298D01*
X160066834Y-87376000D01*
X160257379Y-87434775D01*
X160510588Y-87472940D01*
X160766654Y-87472940D01*
X160766656Y-87472940D01*
X161019865Y-87434775D01*
X161264557Y-87359298D01*
X161495268Y-87248194D01*
X161706841Y-87103945D01*
X161894553Y-86929774D01*
X162054209Y-86729571D01*
X162182244Y-86507809D01*
X162275796Y-86269441D01*
X162332777Y-86019793D01*
X162351913Y-85764440D01*
X162735331Y-85764440D01*
X162754467Y-86019794D01*
X162811448Y-86269442D01*
X162905000Y-86507809D01*
X163033035Y-86729571D01*
X163192687Y-86929770D01*
X163380406Y-87103948D01*
X163539083Y-87212131D01*
X163591977Y-87248194D01*
X163711581Y-87305792D01*
X163822686Y-87359298D01*
X163876834Y-87376000D01*
X164067379Y-87434775D01*
X164320588Y-87472940D01*
X164576654Y-87472940D01*
X164576656Y-87472940D01*
X164829865Y-87434775D01*
X165074557Y-87359298D01*
X165305268Y-87248194D01*
X165465092Y-87139227D01*
X167243043Y-87139227D01*
X167402230Y-87247760D01*
X167632869Y-87358830D01*
X167877487Y-87434284D01*
X168130628Y-87472440D01*
X168386616Y-87472440D01*
X168639756Y-87434284D01*
X168884374Y-87358830D01*
X169115014Y-87247760D01*
X169274200Y-87139227D01*
X168258623Y-86123650D01*
X168258621Y-86123650D01*
X167243043Y-87139226D01*
X167243043Y-87139227D01*
X165465092Y-87139227D01*
X165516841Y-87103945D01*
X165704553Y-86929774D01*
X165864209Y-86729571D01*
X165992244Y-86507809D01*
X166085796Y-86269441D01*
X166142777Y-86019793D01*
X166161913Y-85764440D01*
X166545833Y-85764440D01*
X166564963Y-86019719D01*
X166621927Y-86269294D01*
X166715452Y-86507591D01*
X166843449Y-86729288D01*
X166883872Y-86779977D01*
X166883874Y-86779977D01*
X167899412Y-85764441D01*
X168617832Y-85764441D01*
X169633369Y-86779978D01*
X169633370Y-86779977D01*
X169673794Y-86729290D01*
X169801791Y-86507592D01*
X169895316Y-86269294D01*
X169952280Y-86019719D01*
X169971410Y-85764440D01*
X170355331Y-85764440D01*
X170374467Y-86019794D01*
X170431448Y-86269442D01*
X170525000Y-86507809D01*
X170653035Y-86729571D01*
X170812687Y-86929770D01*
X171000406Y-87103948D01*
X171159083Y-87212131D01*
X171211977Y-87248194D01*
X171331581Y-87305792D01*
X171442686Y-87359298D01*
X171496834Y-87376000D01*
X171687379Y-87434775D01*
X171940588Y-87472940D01*
X172196654Y-87472940D01*
X172196656Y-87472940D01*
X172449865Y-87434775D01*
X172694557Y-87359298D01*
X172925268Y-87248194D01*
X173085092Y-87139227D01*
X174863043Y-87139227D01*
X175022230Y-87247760D01*
X175252869Y-87358830D01*
X175497487Y-87434284D01*
X175750628Y-87472440D01*
X176006616Y-87472440D01*
X176259756Y-87434284D01*
X176504374Y-87358830D01*
X176735014Y-87247760D01*
X176894200Y-87139227D01*
X175878623Y-86123650D01*
X175878621Y-86123650D01*
X174863043Y-87139226D01*
X174863043Y-87139227D01*
X173085092Y-87139227D01*
X173136841Y-87103945D01*
X173324553Y-86929774D01*
X173484209Y-86729571D01*
X173612244Y-86507809D01*
X173705796Y-86269441D01*
X173762777Y-86019793D01*
X173781913Y-85764440D01*
X174165833Y-85764440D01*
X174184963Y-86019719D01*
X174241927Y-86269294D01*
X174335452Y-86507591D01*
X174463449Y-86729288D01*
X174503872Y-86779977D01*
X174503874Y-86779977D01*
X175519412Y-85764441D01*
X176237832Y-85764441D01*
X177253369Y-86779978D01*
X177253370Y-86779977D01*
X177293794Y-86729290D01*
X177421791Y-86507592D01*
X177515316Y-86269294D01*
X177572280Y-86019719D01*
X177591410Y-85764440D01*
X177975331Y-85764440D01*
X177994467Y-86019794D01*
X178051448Y-86269442D01*
X178145000Y-86507809D01*
X178273035Y-86729571D01*
X178432687Y-86929770D01*
X178620406Y-87103948D01*
X178779083Y-87212131D01*
X178831977Y-87248194D01*
X178951581Y-87305792D01*
X179062686Y-87359298D01*
X179116834Y-87376000D01*
X179307379Y-87434775D01*
X179560588Y-87472940D01*
X179816654Y-87472940D01*
X179816656Y-87472940D01*
X180069865Y-87434775D01*
X180314557Y-87359298D01*
X180545268Y-87248194D01*
X180756841Y-87103945D01*
X180944553Y-86929774D01*
X181104209Y-86729571D01*
X181232244Y-86507809D01*
X181325796Y-86269441D01*
X181382777Y-86019793D01*
X181401913Y-85764440D01*
X181382777Y-85509087D01*
X181325796Y-85259439D01*
X181232244Y-85021071D01*
X181104209Y-84799309D01*
X181020619Y-84694490D01*
X180944556Y-84599109D01*
X180894482Y-84552647D01*
X180756841Y-84424935D01*
X180545268Y-84280686D01*
X180545267Y-84280685D01*
X180545265Y-84280684D01*
X180314557Y-84169581D01*
X180129312Y-84112442D01*
X180069865Y-84094105D01*
X179816656Y-84055940D01*
X179560588Y-84055940D01*
X179307379Y-84094105D01*
X179296794Y-84097370D01*
X179062686Y-84169581D01*
X178831976Y-84280686D01*
X178620406Y-84424931D01*
X178432687Y-84599109D01*
X178273035Y-84799308D01*
X178145000Y-85021070D01*
X178051448Y-85259437D01*
X177994467Y-85509085D01*
X177975331Y-85764440D01*
X177591410Y-85764440D01*
X177572280Y-85509160D01*
X177515316Y-85259585D01*
X177421791Y-85021287D01*
X177293794Y-84799590D01*
X177253370Y-84748901D01*
X177253369Y-84748900D01*
X176237832Y-85764439D01*
X176237832Y-85764441D01*
X175519412Y-85764441D01*
X175519412Y-85764439D01*
X174503874Y-84748901D01*
X174503872Y-84748901D01*
X174463449Y-84799591D01*
X174335452Y-85021288D01*
X174241927Y-85259585D01*
X174184963Y-85509160D01*
X174165833Y-85764440D01*
X173781913Y-85764440D01*
X173762777Y-85509087D01*
X173705796Y-85259439D01*
X173612244Y-85021071D01*
X173484209Y-84799309D01*
X173400619Y-84694490D01*
X173324556Y-84599109D01*
X173274482Y-84552647D01*
X173136841Y-84424935D01*
X173085091Y-84389652D01*
X174863043Y-84389652D01*
X175878621Y-85405230D01*
X175878623Y-85405230D01*
X176894200Y-84389651D01*
X176735014Y-84281119D01*
X176504374Y-84170049D01*
X176259756Y-84094595D01*
X176006616Y-84056440D01*
X175750628Y-84056440D01*
X175497487Y-84094595D01*
X175252869Y-84170049D01*
X175022228Y-84281121D01*
X174863043Y-84389650D01*
X174863043Y-84389652D01*
X173085091Y-84389652D01*
X173012846Y-84340396D01*
X172975299Y-84300307D01*
X172958375Y-84248053D01*
X172965290Y-84193564D01*
X172994727Y-84147197D01*
X173361521Y-83780404D01*
X173402399Y-83753091D01*
X173450617Y-83743500D01*
X180921428Y-83743500D01*
X180969646Y-83753091D01*
X181010523Y-83780405D01*
X185228776Y-87998659D01*
X185241855Y-88014983D01*
X185293671Y-88063641D01*
X185296482Y-88066365D01*
X185316252Y-88086135D01*
X185319465Y-88088627D01*
X185328455Y-88096306D01*
X185360701Y-88126586D01*
X185378448Y-88136342D01*
X185394972Y-88147196D01*
X185410981Y-88159614D01*
X185451564Y-88177175D01*
X185462215Y-88182393D01*
X185500962Y-88203695D01*
X185520582Y-88208732D01*
X185539289Y-88215137D01*
X185545902Y-88217998D01*
X185557876Y-88223181D01*
X185568527Y-88224867D01*
X185601552Y-88230098D01*
X185613147Y-88232498D01*
X185655992Y-88243500D01*
X185676246Y-88243500D01*
X185695956Y-88245051D01*
X185715964Y-88248220D01*
X185715964Y-88248219D01*
X185715965Y-88248220D01*
X185759983Y-88244058D01*
X185771841Y-88243500D01*
X187527822Y-88243500D01*
X187579070Y-88254393D01*
X187621457Y-88285188D01*
X187624768Y-88288866D01*
X187712915Y-88352908D01*
X187779270Y-88401118D01*
X187953734Y-88478794D01*
X188140535Y-88518500D01*
X188331507Y-88518500D01*
X188331509Y-88518500D01*
X188518310Y-88478794D01*
X188692774Y-88401118D01*
X188847275Y-88288866D01*
X188975062Y-88146944D01*
X189070549Y-87981556D01*
X189129564Y-87799928D01*
X189149526Y-87610000D01*
X189129564Y-87420072D01*
X189076608Y-87257091D01*
X189070549Y-87238443D01*
X188975063Y-87073057D01*
X188847274Y-86931133D01*
X188692775Y-86818883D01*
X188692774Y-86818882D01*
X188518310Y-86741206D01*
X188331509Y-86701500D01*
X188140535Y-86701500D01*
X188016001Y-86727970D01*
X187953733Y-86741206D01*
X187779268Y-86818883D01*
X187624768Y-86931133D01*
X187621457Y-86934812D01*
X187579070Y-86965607D01*
X187527822Y-86976500D01*
X186050616Y-86976500D01*
X186002398Y-86966909D01*
X185961521Y-86939595D01*
X183856176Y-84834250D01*
X183359276Y-84337350D01*
X186984942Y-84337350D01*
X186999997Y-84552647D01*
X187052427Y-84799308D01*
X187059854Y-84834250D01*
X187158314Y-85104769D01*
X187293471Y-85358963D01*
X187380226Y-85478370D01*
X187462689Y-85591870D01*
X187662673Y-85798959D01*
X187662676Y-85798962D01*
X187889530Y-85976200D01*
X188138851Y-86120147D01*
X188405776Y-86227991D01*
X188572025Y-86269441D01*
X188685114Y-86297637D01*
X188971426Y-86327730D01*
X188971429Y-86327729D01*
X188971430Y-86327730D01*
X189115282Y-86322706D01*
X189259139Y-86317683D01*
X189542654Y-86267691D01*
X189816453Y-86178729D01*
X190075205Y-86052527D01*
X190313876Y-85891541D01*
X190313875Y-85891541D01*
X190313879Y-85891539D01*
X190455037Y-85764439D01*
X190527819Y-85698906D01*
X190712870Y-85478371D01*
X190865428Y-85234227D01*
X190982523Y-84971228D01*
X191061876Y-84694491D01*
X191101942Y-84409404D01*
X191101942Y-83193570D01*
X191086887Y-82978273D01*
X191027031Y-82696675D01*
X191023648Y-82687381D01*
X190928569Y-82426150D01*
X190793412Y-82171956D01*
X190754416Y-82118283D01*
X196586947Y-82118283D01*
X196690306Y-82211963D01*
X197006608Y-82446548D01*
X197344383Y-82649002D01*
X197700385Y-82817378D01*
X198071150Y-82950041D01*
X198453161Y-83045729D01*
X198842695Y-83103511D01*
X199236022Y-83122834D01*
X199629348Y-83103511D01*
X200018882Y-83045729D01*
X200400893Y-82950041D01*
X200771658Y-82817378D01*
X201127660Y-82649002D01*
X201465435Y-82446548D01*
X201781737Y-82211962D01*
X201885095Y-82118283D01*
X201885095Y-82118282D01*
X199236023Y-79469210D01*
X199236021Y-79469210D01*
X196586947Y-82118283D01*
X190754416Y-82118283D01*
X190706657Y-82052549D01*
X190624195Y-81939050D01*
X190424211Y-81731961D01*
X190424210Y-81731960D01*
X190424207Y-81731957D01*
X190197353Y-81554719D01*
X189948032Y-81410772D01*
X189681107Y-81302928D01*
X189401773Y-81233283D01*
X189115453Y-81203189D01*
X188827748Y-81213236D01*
X188544226Y-81263229D01*
X188270432Y-81352190D01*
X188011678Y-81478392D01*
X187773004Y-81639380D01*
X187559068Y-81832010D01*
X187374013Y-82052549D01*
X187274401Y-82211963D01*
X187221456Y-82296693D01*
X187143502Y-82471780D01*
X187104361Y-82559692D01*
X187025007Y-82836429D01*
X187005073Y-82978273D01*
X186984942Y-83121516D01*
X186984942Y-84337350D01*
X183359276Y-84337350D01*
X181743266Y-82721339D01*
X181730193Y-82705021D01*
X181721305Y-82696675D01*
X181678370Y-82656356D01*
X181675559Y-82653632D01*
X181655792Y-82633865D01*
X181652597Y-82631386D01*
X181643575Y-82623681D01*
X181611342Y-82593413D01*
X181593589Y-82583653D01*
X181577063Y-82572797D01*
X181561063Y-82560386D01*
X181520488Y-82542828D01*
X181509826Y-82537604D01*
X181471085Y-82516305D01*
X181457335Y-82512775D01*
X181451459Y-82511266D01*
X181432753Y-82504862D01*
X181414167Y-82496819D01*
X181370497Y-82489902D01*
X181358875Y-82487495D01*
X181349072Y-82484978D01*
X181316052Y-82476500D01*
X181316051Y-82476500D01*
X181295798Y-82476500D01*
X181276088Y-82474949D01*
X181256079Y-82471779D01*
X181212061Y-82475941D01*
X181200203Y-82476500D01*
X173219876Y-82476500D01*
X173199086Y-82474204D01*
X173128024Y-82476438D01*
X173124066Y-82476500D01*
X173096164Y-82476500D01*
X173092156Y-82477006D01*
X173080335Y-82477936D01*
X173036131Y-82479325D01*
X173016675Y-82484978D01*
X172997323Y-82488986D01*
X172977222Y-82491526D01*
X172936116Y-82507800D01*
X172924892Y-82511643D01*
X172882427Y-82523981D01*
X172864982Y-82534297D01*
X172847239Y-82542989D01*
X172828406Y-82550446D01*
X172792638Y-82576433D01*
X172782719Y-82582949D01*
X172744658Y-82605458D01*
X172730333Y-82619783D01*
X172715306Y-82632617D01*
X172698916Y-82644525D01*
X172670723Y-82678604D01*
X172662735Y-82687381D01*
X171679962Y-83670154D01*
X171663639Y-83683232D01*
X171614992Y-83735035D01*
X171612242Y-83737873D01*
X171592490Y-83757626D01*
X171592486Y-83757630D01*
X171592487Y-83757630D01*
X171590001Y-83760833D01*
X171582309Y-83769839D01*
X171552035Y-83802078D01*
X171542274Y-83819834D01*
X171531423Y-83836352D01*
X171519007Y-83852359D01*
X171501446Y-83892939D01*
X171496226Y-83903595D01*
X171474926Y-83942340D01*
X171469889Y-83961959D01*
X171463486Y-83980661D01*
X171455440Y-83999255D01*
X171448523Y-84042924D01*
X171446117Y-84054544D01*
X171431164Y-84112786D01*
X171429824Y-84112442D01*
X171415809Y-84161089D01*
X171363792Y-84207575D01*
X171211974Y-84280687D01*
X171000406Y-84424931D01*
X170812687Y-84599109D01*
X170653035Y-84799308D01*
X170525000Y-85021070D01*
X170431448Y-85259437D01*
X170374467Y-85509085D01*
X170355331Y-85764440D01*
X169971410Y-85764440D01*
X169952280Y-85509160D01*
X169895316Y-85259585D01*
X169801791Y-85021287D01*
X169673794Y-84799590D01*
X169633370Y-84748901D01*
X169633369Y-84748900D01*
X168617832Y-85764439D01*
X168617832Y-85764441D01*
X167899412Y-85764441D01*
X167899412Y-85764439D01*
X166883874Y-84748901D01*
X166883872Y-84748901D01*
X166843449Y-84799591D01*
X166715452Y-85021288D01*
X166621927Y-85259585D01*
X166564963Y-85509160D01*
X166545833Y-85764440D01*
X166161913Y-85764440D01*
X166142777Y-85509087D01*
X166085796Y-85259439D01*
X165992244Y-85021071D01*
X165864209Y-84799309D01*
X165780619Y-84694490D01*
X165704556Y-84599109D01*
X165654482Y-84552647D01*
X165516841Y-84424935D01*
X165465091Y-84389652D01*
X167243043Y-84389652D01*
X168258621Y-85405230D01*
X168258623Y-85405230D01*
X169274200Y-84389651D01*
X169115014Y-84281119D01*
X168884374Y-84170049D01*
X168639756Y-84094595D01*
X168386616Y-84056440D01*
X168130628Y-84056440D01*
X167877487Y-84094595D01*
X167632869Y-84170049D01*
X167402228Y-84281121D01*
X167243043Y-84389650D01*
X167243043Y-84389652D01*
X165465091Y-84389652D01*
X165305268Y-84280686D01*
X165305267Y-84280685D01*
X165305265Y-84280684D01*
X165074557Y-84169581D01*
X164889312Y-84112442D01*
X164829865Y-84094105D01*
X164576656Y-84055940D01*
X164320588Y-84055940D01*
X164067379Y-84094105D01*
X164056794Y-84097370D01*
X163822686Y-84169581D01*
X163591976Y-84280686D01*
X163380406Y-84424931D01*
X163192687Y-84599109D01*
X163033035Y-84799308D01*
X162905000Y-85021070D01*
X162811448Y-85259437D01*
X162754467Y-85509085D01*
X162735331Y-85764440D01*
X162351913Y-85764440D01*
X162332777Y-85509087D01*
X162275796Y-85259439D01*
X162182244Y-85021071D01*
X162054209Y-84799309D01*
X161970619Y-84694490D01*
X161894556Y-84599109D01*
X161844482Y-84552647D01*
X161706841Y-84424935D01*
X161495268Y-84280686D01*
X161495267Y-84280685D01*
X161495265Y-84280684D01*
X161264557Y-84169581D01*
X161079312Y-84112442D01*
X161019865Y-84094105D01*
X160766656Y-84055940D01*
X160510588Y-84055940D01*
X160257379Y-84094105D01*
X160246794Y-84097370D01*
X160012686Y-84169581D01*
X159781976Y-84280686D01*
X159570406Y-84424931D01*
X159382687Y-84599109D01*
X159223035Y-84799308D01*
X159095000Y-85021070D01*
X159001448Y-85259437D01*
X158944467Y-85509085D01*
X158925331Y-85764440D01*
X158541913Y-85764440D01*
X158522777Y-85509087D01*
X158465796Y-85259439D01*
X158372244Y-85021071D01*
X158244209Y-84799309D01*
X158160619Y-84694490D01*
X158084556Y-84599109D01*
X158034482Y-84552647D01*
X157896841Y-84424935D01*
X157685268Y-84280686D01*
X157685267Y-84280685D01*
X157685265Y-84280684D01*
X157454557Y-84169581D01*
X157269312Y-84112442D01*
X157209865Y-84094105D01*
X156956656Y-84055940D01*
X156700588Y-84055940D01*
X156447379Y-84094105D01*
X156436794Y-84097370D01*
X156202686Y-84169581D01*
X155971976Y-84280686D01*
X155760406Y-84424931D01*
X155572687Y-84599109D01*
X155413035Y-84799308D01*
X155285000Y-85021070D01*
X155191448Y-85259437D01*
X155134467Y-85509085D01*
X155115331Y-85764440D01*
X154731913Y-85764440D01*
X154712777Y-85509087D01*
X154655796Y-85259439D01*
X154562244Y-85021071D01*
X154434209Y-84799309D01*
X154350619Y-84694490D01*
X154274556Y-84599109D01*
X154224482Y-84552647D01*
X154086841Y-84424935D01*
X153875268Y-84280686D01*
X153875267Y-84280685D01*
X153875265Y-84280684D01*
X153644557Y-84169581D01*
X153459312Y-84112442D01*
X153399865Y-84094105D01*
X153146656Y-84055940D01*
X152890588Y-84055940D01*
X152637379Y-84094105D01*
X152626794Y-84097370D01*
X152392686Y-84169581D01*
X152161976Y-84280686D01*
X151950406Y-84424931D01*
X151762687Y-84599109D01*
X151603035Y-84799308D01*
X151475000Y-85021070D01*
X151381448Y-85259437D01*
X151324467Y-85509085D01*
X151305331Y-85764440D01*
X150921410Y-85764440D01*
X150902280Y-85509160D01*
X150845316Y-85259585D01*
X150751791Y-85021287D01*
X150623794Y-84799590D01*
X150583370Y-84748901D01*
X150583369Y-84748900D01*
X149567832Y-85764439D01*
X149567832Y-85764441D01*
X148849412Y-85764441D01*
X148849412Y-85764439D01*
X147833874Y-84748901D01*
X147833872Y-84748901D01*
X147793449Y-84799591D01*
X147665452Y-85021288D01*
X147571927Y-85259585D01*
X147514963Y-85509160D01*
X147495833Y-85764440D01*
X147111913Y-85764440D01*
X147092777Y-85509087D01*
X147035796Y-85259439D01*
X146942244Y-85021071D01*
X146814209Y-84799309D01*
X146730619Y-84694490D01*
X146654556Y-84599109D01*
X146604482Y-84552647D01*
X146466841Y-84424935D01*
X146415091Y-84389652D01*
X148193043Y-84389652D01*
X149208621Y-85405230D01*
X149208623Y-85405230D01*
X150224200Y-84389651D01*
X150065014Y-84281119D01*
X149834374Y-84170049D01*
X149589756Y-84094595D01*
X149336616Y-84056440D01*
X149080628Y-84056440D01*
X148827487Y-84094595D01*
X148582869Y-84170049D01*
X148352228Y-84281121D01*
X148193043Y-84389650D01*
X148193043Y-84389652D01*
X146415091Y-84389652D01*
X146255268Y-84280686D01*
X146255267Y-84280685D01*
X146255265Y-84280684D01*
X146024557Y-84169581D01*
X145839312Y-84112442D01*
X145779865Y-84094105D01*
X145526656Y-84055940D01*
X145270588Y-84055940D01*
X145017379Y-84094105D01*
X145006794Y-84097370D01*
X144772686Y-84169581D01*
X144541976Y-84280686D01*
X144330406Y-84424931D01*
X144142687Y-84599109D01*
X143983035Y-84799308D01*
X143855000Y-85021070D01*
X143761448Y-85259437D01*
X143704467Y-85509085D01*
X143685331Y-85764440D01*
X137455396Y-85764440D01*
X137455397Y-85764439D01*
X137528179Y-85698906D01*
X137713230Y-85478371D01*
X137865788Y-85234227D01*
X137982883Y-84971228D01*
X138062236Y-84694491D01*
X138102302Y-84409404D01*
X138102302Y-83193570D01*
X138087247Y-82978273D01*
X138027391Y-82696675D01*
X138024008Y-82687381D01*
X137928929Y-82426150D01*
X137793772Y-82171956D01*
X137707017Y-82052549D01*
X137624555Y-81939050D01*
X137424571Y-81731961D01*
X137424570Y-81731960D01*
X137424567Y-81731957D01*
X137197713Y-81554719D01*
X136948392Y-81410772D01*
X136681467Y-81302928D01*
X136402133Y-81233283D01*
X136115813Y-81203189D01*
X135828108Y-81213236D01*
X135544586Y-81263229D01*
X135270792Y-81352190D01*
X135012038Y-81478392D01*
X134773364Y-81639380D01*
X134559428Y-81832010D01*
X134374373Y-82052549D01*
X134274761Y-82211963D01*
X134221816Y-82296693D01*
X134143862Y-82471780D01*
X134104721Y-82559692D01*
X134025367Y-82836429D01*
X134005433Y-82978273D01*
X133985302Y-83121516D01*
X133985302Y-84337350D01*
X80261522Y-84337350D01*
X80261522Y-82118283D01*
X83586947Y-82118283D01*
X83690306Y-82211963D01*
X84006608Y-82446548D01*
X84344383Y-82649002D01*
X84700385Y-82817378D01*
X85071150Y-82950041D01*
X85453161Y-83045729D01*
X85842695Y-83103511D01*
X86236022Y-83122834D01*
X86629348Y-83103511D01*
X87018882Y-83045729D01*
X87400893Y-82950041D01*
X87771658Y-82817378D01*
X88127660Y-82649002D01*
X88465435Y-82446548D01*
X88781737Y-82211962D01*
X88885095Y-82118283D01*
X88885095Y-82118282D01*
X86236023Y-79469210D01*
X86236021Y-79469210D01*
X83586947Y-82118283D01*
X80261522Y-82118283D01*
X80261522Y-79112478D01*
X80261571Y-79109999D01*
X82223187Y-79109999D01*
X82242510Y-79503326D01*
X82300292Y-79892860D01*
X82395980Y-80274871D01*
X82528643Y-80645636D01*
X82697019Y-81001638D01*
X82899473Y-81339413D01*
X83134058Y-81655715D01*
X83227737Y-81759073D01*
X83227738Y-81759073D01*
X85876812Y-79110001D01*
X86595232Y-79110001D01*
X89244304Y-81759073D01*
X89244305Y-81759073D01*
X89337984Y-81655715D01*
X89572570Y-81339413D01*
X89775024Y-81001638D01*
X89943400Y-80645636D01*
X90076063Y-80274871D01*
X90171751Y-79892860D01*
X90229533Y-79503326D01*
X90248856Y-79109999D01*
X195223187Y-79109999D01*
X195242510Y-79503326D01*
X195300292Y-79892860D01*
X195395980Y-80274871D01*
X195528643Y-80645636D01*
X195697019Y-81001638D01*
X195899473Y-81339413D01*
X196134058Y-81655715D01*
X196227737Y-81759073D01*
X196227738Y-81759073D01*
X198876812Y-79110001D01*
X199595232Y-79110001D01*
X202244304Y-81759073D01*
X202244305Y-81759073D01*
X202337984Y-81655715D01*
X202572570Y-81339413D01*
X202775024Y-81001638D01*
X202943400Y-80645636D01*
X203076063Y-80274871D01*
X203171751Y-79892860D01*
X203229533Y-79503326D01*
X203248856Y-79109999D01*
X203229533Y-78716673D01*
X203171751Y-78327139D01*
X203076063Y-77945128D01*
X202943400Y-77574363D01*
X202775024Y-77218361D01*
X202572570Y-76880586D01*
X202337985Y-76564284D01*
X202244305Y-76460925D01*
X199595232Y-79109999D01*
X199595232Y-79110001D01*
X198876812Y-79110001D01*
X198876812Y-79109999D01*
X196227738Y-76460925D01*
X196227737Y-76460925D01*
X196134058Y-76564284D01*
X195899473Y-76880586D01*
X195697019Y-77218361D01*
X195528643Y-77574363D01*
X195395980Y-77945128D01*
X195300292Y-78327139D01*
X195242510Y-78716673D01*
X195223187Y-79109999D01*
X90248856Y-79109999D01*
X90229533Y-78716673D01*
X90171751Y-78327139D01*
X90076063Y-77945128D01*
X89943400Y-77574363D01*
X89775024Y-77218361D01*
X89572570Y-76880586D01*
X89337985Y-76564284D01*
X89244305Y-76460925D01*
X86595232Y-79109999D01*
X86595232Y-79110001D01*
X85876812Y-79110001D01*
X85876812Y-79109999D01*
X83227738Y-76460925D01*
X83227737Y-76460925D01*
X83134058Y-76564284D01*
X82899473Y-76880586D01*
X82697019Y-77218361D01*
X82528643Y-77574363D01*
X82395980Y-77945128D01*
X82300292Y-78327139D01*
X82242510Y-78716673D01*
X82223187Y-79109999D01*
X80261571Y-79109999D01*
X80261619Y-79107532D01*
X80275635Y-78750790D01*
X80279745Y-78646183D01*
X80280518Y-78636348D01*
X80334499Y-78180272D01*
X80336039Y-78170549D01*
X80425637Y-77720113D01*
X80427937Y-77710532D01*
X80552596Y-77268527D01*
X80555646Y-77259142D01*
X80714600Y-76828279D01*
X80718365Y-76819188D01*
X80910644Y-76402105D01*
X80915119Y-76393325D01*
X81078428Y-76101716D01*
X83586947Y-76101716D01*
X86236021Y-78750790D01*
X86236023Y-78750790D01*
X88885095Y-76101716D01*
X196586947Y-76101716D01*
X199236021Y-78750790D01*
X199236023Y-78750790D01*
X201885095Y-76101716D01*
X201885095Y-76101715D01*
X201781737Y-76008036D01*
X201465435Y-75773451D01*
X201127660Y-75570997D01*
X200771658Y-75402621D01*
X200400893Y-75269958D01*
X200018882Y-75174270D01*
X199629348Y-75116488D01*
X199236022Y-75097165D01*
X198842695Y-75116488D01*
X198453161Y-75174270D01*
X198071150Y-75269958D01*
X197700385Y-75402621D01*
X197344383Y-75570997D01*
X197006608Y-75773451D01*
X196690306Y-76008036D01*
X196586947Y-76101715D01*
X196586947Y-76101716D01*
X88885095Y-76101716D01*
X88885095Y-76101715D01*
X88781737Y-76008036D01*
X88465435Y-75773451D01*
X88127660Y-75570997D01*
X87771658Y-75402621D01*
X87400893Y-75269958D01*
X87018882Y-75174270D01*
X86629348Y-75116488D01*
X86236022Y-75097165D01*
X85842695Y-75116488D01*
X85453161Y-75174270D01*
X85071150Y-75269958D01*
X84700385Y-75402621D01*
X84344383Y-75570997D01*
X84006608Y-75773451D01*
X83690306Y-76008036D01*
X83586947Y-76101715D01*
X83586947Y-76101716D01*
X81078428Y-76101716D01*
X81139511Y-75992645D01*
X81144660Y-75984242D01*
X81399804Y-75602393D01*
X81405608Y-75594404D01*
X81689925Y-75233750D01*
X81696321Y-75226262D01*
X82008076Y-74889008D01*
X82015024Y-74882060D01*
X82352277Y-74570307D01*
X82359768Y-74563909D01*
X82720439Y-74279581D01*
X82728405Y-74273795D01*
X83110236Y-74018666D01*
X83118661Y-74013501D01*
X83519352Y-73789104D01*
X83528146Y-73784624D01*
X83945186Y-73592367D01*
X83954324Y-73588583D01*
X84385176Y-73429634D01*
X84394559Y-73426586D01*
X84836548Y-73301934D01*
X84846138Y-73299631D01*
X85296562Y-73210038D01*
X85306300Y-73208495D01*
X85762369Y-73154517D01*
X85772203Y-73153744D01*
X86115040Y-73140275D01*
X86234118Y-73135597D01*
X86239064Y-73135500D01*
X86244307Y-73135500D01*
X199227737Y-73135500D01*
X199233544Y-73135500D01*
X199238490Y-73135596D01*
G37*
G04 #@! TD.AperFunction*
M02*
